<svg width="145" height="100" viewBox="0 0 145 100" fill="none" xmlns="http://www.w3.org/2000/svg">
<path d="M13.3646 86.776H6.55263L5.46063 90H0.806625L7.41063 71.748H12.5586L19.1626 90H14.4566L13.3646 86.776ZM12.2206 83.344L9.95863 76.662L7.72263 83.344H12.2206ZM25.5405 71.748V82.668C25.5405 83.76 25.8092 84.6007 26.3465 85.19C26.8839 85.7793 27.6725 86.074 28.7125 86.074C29.7525 86.074 30.5499 85.7793 31.1045 85.19C31.6592 84.6007 31.9365 83.76 31.9365 82.668V71.748H36.3825V82.642C36.3825 84.2713 36.0359 85.6493 35.3425 86.776C34.6492 87.9027 33.7132 88.752 32.5345 89.324C31.3732 89.896 30.0732 90.182 28.6345 90.182C27.1959 90.182 25.9045 89.9047 24.7605 89.35C23.6339 88.778 22.7412 87.9287 22.0825 86.802C21.4239 85.658 21.0945 84.2713 21.0945 82.642V71.748H25.5405ZM46.1086 90.182C44.7739 90.182 43.5779 89.9653 42.5206 89.532C41.4632 89.0987 40.6139 88.4573 39.9726 87.608C39.3486 86.7587 39.0192 85.736 38.9846 84.54H43.7166C43.7859 85.216 44.0199 85.736 44.4186 86.1C44.8172 86.4467 45.3372 86.62 45.9786 86.62C46.6372 86.62 47.1572 86.4727 47.5386 86.178C47.9199 85.866 48.1106 85.4413 48.1106 84.904C48.1106 84.4533 47.9546 84.0807 47.6426 83.786C47.3479 83.4913 46.9752 83.2487 46.5246 83.058C46.0912 82.8673 45.4672 82.6507 44.6526 82.408C43.4739 82.044 42.5119 81.68 41.7666 81.316C41.0212 80.952 40.3799 80.4147 39.8426 79.704C39.3052 78.9933 39.0366 78.066 39.0366 76.922C39.0366 75.2233 39.6519 73.8973 40.8826 72.944C42.1132 71.9733 43.7166 71.488 45.6926 71.488C47.7032 71.488 49.3239 71.9733 50.5546 72.944C51.7852 73.8973 52.4439 75.232 52.5306 76.948H47.7206C47.6859 76.3587 47.4692 75.8993 47.0706 75.57C46.6719 75.2233 46.1606 75.05 45.5366 75.05C44.9992 75.05 44.5659 75.1973 44.2366 75.492C43.9072 75.7693 43.7426 76.1767 43.7426 76.714C43.7426 77.3033 44.0199 77.7627 44.5746 78.092C45.1292 78.4213 45.9959 78.7767 47.1746 79.158C48.3532 79.5567 49.3066 79.938 50.0346 80.302C50.7799 80.666 51.4212 81.1947 51.9586 81.888C52.4959 82.5813 52.7646 83.474 52.7646 84.566C52.7646 85.606 52.4959 86.5507 51.9586 87.4C51.4386 88.2493 50.6759 88.9253 49.6706 89.428C48.6652 89.9307 47.4779 90.182 46.1086 90.182ZM68.6307 71.748V75.31H63.7947V90H59.3487V75.31H54.5127V71.748H68.6307ZM80.17 90L76.374 83.11H75.308V90H70.862V71.748H78.324C79.7627 71.748 80.9847 71.9993 81.99 72.502C83.0127 73.0047 83.7753 73.698 84.278 74.582C84.7807 75.4487 85.032 76.4193 85.032 77.494C85.032 78.7073 84.6853 79.7907 83.992 80.744C83.316 81.6973 82.3107 82.3733 80.976 82.772L85.188 90H80.17ZM75.308 79.964H78.064C78.8787 79.964 79.4853 79.7647 79.884 79.366C80.3 78.9673 80.508 78.404 80.508 77.676C80.508 76.9827 80.3 76.4367 79.884 76.038C79.4853 75.6393 78.8787 75.44 78.064 75.44H75.308V79.964ZM99.1849 86.776H92.3729L91.2809 90H86.6269L93.2309 71.748H98.3789L104.983 90H100.277L99.1849 86.776ZM98.0409 83.344L95.7789 76.662L93.5429 83.344H98.0409ZM111.439 86.568H117.263V90H106.993V71.748H111.439V86.568ZM123.829 71.748V90H119.383V71.748H123.829ZM138.413 86.776H131.601L130.509 90H125.855L132.459 71.748H137.607L144.211 90H139.505L138.413 86.776ZM137.269 83.344L135.007 76.662L132.771 83.344H137.269Z" fill="#252525"/>
<g filter="url(#filter0_b_101_1993)">
<path d="M72.0469 0C70.1446 2.58064 63.6804 7.43225 53.0415 6.19355L54.1615 29.0322C54.5388 32.129 57.9515 40.5677 73.145 48C79.1014 44.5161 91.0163 35.071 91.0249 25.1613L91.0415 6.19355C87.8741 6.96774 79.6409 6.8129 72.0469 0Z" fill="url(#paint0_linear_101_1993)"/>
</g>
<path d="M64.4231 25.3724L70.0994 30.7144L81.9097 17.8047" stroke="white" stroke-width="4.13104" stroke-linecap="round"/>
<defs>
<filter id="filter0_b_101_1993" x="16.0415" y="-37" width="112" height="122" filterUnits="userSpaceOnUse" color-interpolation-filters="sRGB">
<feFlood flood-opacity="0" result="BackgroundImageFix"/>
<feGaussianBlur in="BackgroundImageFix" stdDeviation="18.5"/>
<feComposite in2="SourceAlpha" operator="in" result="effect1_backgroundBlur_101_1993"/>
<feBlend mode="normal" in="SourceGraphic" in2="effect1_backgroundBlur_101_1993" result="shape"/>
</filter>
<linearGradient id="paint0_linear_101_1993" x1="72.0469" y1="0" x2="72.0469" y2="48" gradientUnits="userSpaceOnUse">
<stop stop-color="#DB0011"/>
<stop offset="1" stop-color="#750009"/>
</linearGradient>
</defs>
</svg>
