<svg width="160" height="120" viewBox="0 0 160 120" fill="none" xmlns="http://www.w3.org/2000/svg">
<path d="M13.224 86.776H6.412L5.32 90H0.666L7.27 71.748H12.418L19.022 90H14.316L13.224 86.776ZM12.08 83.344L9.818 76.662L7.582 83.344H12.08ZM35.3579 75.492V90H30.9119V88.024C30.4613 88.6653 29.8459 89.1853 29.0659 89.584C28.3033 89.9653 27.4539 90.156 26.5179 90.156C25.4086 90.156 24.4293 89.9133 23.5799 89.428C22.7306 88.9253 22.0719 88.206 21.6039 87.27C21.1359 86.334 20.9019 85.2333 20.9019 83.968V75.492H25.3219V83.37C25.3219 84.3407 25.5733 85.0947 26.0759 85.632C26.5786 86.1693 27.2546 86.438 28.1039 86.438C28.9706 86.438 29.6553 86.1693 30.1579 85.632C30.6606 85.0947 30.9119 84.3407 30.9119 83.37V75.492H35.3579ZM44.4535 90.208C43.1881 90.208 42.0615 89.9913 41.0735 89.558C40.0855 89.1247 39.3055 88.5353 38.7335 87.79C38.1615 87.0273 37.8408 86.178 37.7715 85.242H42.1655C42.2175 85.7447 42.4515 86.152 42.8675 86.464C43.2835 86.776 43.7948 86.932 44.4015 86.932C44.9561 86.932 45.3808 86.828 45.6755 86.62C45.9875 86.3947 46.1435 86.1087 46.1435 85.762C46.1435 85.346 45.9268 85.0427 45.4935 84.852C45.0601 84.644 44.3581 84.4187 43.3875 84.176C42.3475 83.9333 41.4808 83.682 40.7875 83.422C40.0941 83.1447 39.4961 82.72 38.9935 82.148C38.4908 81.5587 38.2395 80.77 38.2395 79.782C38.2395 78.95 38.4648 78.196 38.9155 77.52C39.3835 76.8267 40.0595 76.2807 40.9435 75.882C41.8448 75.4833 42.9108 75.284 44.1415 75.284C45.9615 75.284 47.3915 75.7347 48.4315 76.636C49.4888 77.5373 50.0955 78.7333 50.2515 80.224H46.1435C46.0741 79.7213 45.8488 79.3227 45.4675 79.028C45.1035 78.7333 44.6181 78.586 44.0115 78.586C43.4915 78.586 43.0928 78.69 42.8155 78.898C42.5381 79.0887 42.3995 79.3573 42.3995 79.704C42.3995 80.12 42.6161 80.432 43.0495 80.64C43.5001 80.848 44.1935 81.056 45.1295 81.264C46.2041 81.5413 47.0795 81.8187 47.7555 82.096C48.4315 82.356 49.0208 82.7893 49.5235 83.396C50.0435 83.9853 50.3121 84.7827 50.3295 85.788C50.3295 86.6373 50.0868 87.4 49.6015 88.076C49.1335 88.7347 48.4488 89.2547 47.5475 89.636C46.6635 90.0173 45.6321 90.208 44.4535 90.208ZM61.1355 86.23V90H58.8735C57.2615 90 56.0048 89.61 55.1035 88.83C54.2022 88.0327 53.7515 86.7413 53.7515 84.956V79.184H51.9835V75.492H53.7515V71.956H58.1975V75.492H61.1095V79.184H58.1975V85.008C58.1975 85.4413 58.3015 85.7533 58.5095 85.944C58.7175 86.1347 59.0642 86.23 59.5495 86.23H61.1355ZM68.058 77.91C68.578 77.1127 69.228 76.4887 70.008 76.038C70.788 75.57 71.6547 75.336 72.608 75.336V80.042H71.386C70.2767 80.042 69.4447 80.2847 68.89 80.77C68.3353 81.238 68.058 82.07 68.058 83.266V90H63.612V75.492H68.058V77.91ZM73.8491 82.72C73.8491 81.2293 74.1264 79.9207 74.6811 78.794C75.2531 77.6673 76.0244 76.8007 76.9951 76.194C77.9658 75.5873 79.0491 75.284 80.2451 75.284C81.2678 75.284 82.1604 75.492 82.9231 75.908C83.7031 76.324 84.3011 76.87 84.7171 77.546V75.492H89.1631V90H84.7171V87.946C84.2838 88.622 83.6771 89.168 82.8971 89.584C82.1344 90 81.2418 90.208 80.2191 90.208C79.0404 90.208 77.9658 89.9047 76.9951 89.298C76.0244 88.674 75.2531 87.7987 74.6811 86.672C74.1264 85.528 73.8491 84.2107 73.8491 82.72ZM84.7171 82.746C84.7171 81.6367 84.4051 80.7613 83.7811 80.12C83.1744 79.4787 82.4291 79.158 81.5451 79.158C80.6611 79.158 79.9071 79.4787 79.2831 80.12C78.6764 80.744 78.3731 81.6107 78.3731 82.72C78.3731 83.8293 78.6764 84.7133 79.2831 85.372C79.9071 86.0133 80.6611 86.334 81.5451 86.334C82.4291 86.334 83.1744 86.0133 83.7811 85.372C84.4051 84.7307 84.7171 83.8553 84.7171 82.746ZM96.8256 70.76V90H92.3796V70.76H96.8256ZM102.284 73.984C101.504 73.984 100.862 73.7587 100.36 73.308C99.8742 72.84 99.6315 72.268 99.6315 71.592C99.6315 70.8987 99.8742 70.3267 100.36 69.876C100.862 69.408 101.504 69.174 102.284 69.174C103.046 69.174 103.67 69.408 104.156 69.876C104.658 70.3267 104.91 70.8987 104.91 71.592C104.91 72.268 104.658 72.84 104.156 73.308C103.67 73.7587 103.046 73.984 102.284 73.984ZM104.494 75.492V90H100.048V75.492H104.494ZM106.832 82.72C106.832 81.2293 107.109 79.9207 107.664 78.794C108.236 77.6673 109.007 76.8007 109.978 76.194C110.948 75.5873 112.032 75.284 113.228 75.284C114.25 75.284 115.143 75.492 115.906 75.908C116.686 76.324 117.284 76.87 117.7 77.546V75.492H122.146V90H117.7V87.946C117.266 88.622 116.66 89.168 115.88 89.584C115.117 90 114.224 90.208 113.202 90.208C112.023 90.208 110.948 89.9047 109.978 89.298C109.007 88.674 108.236 87.7987 107.664 86.672C107.109 85.528 106.832 84.2107 106.832 82.72ZM117.7 82.746C117.7 81.6367 117.388 80.7613 116.764 80.12C116.157 79.4787 115.412 79.158 114.528 79.158C113.644 79.158 112.89 79.4787 112.266 80.12C111.659 80.744 111.356 81.6107 111.356 82.72C111.356 83.8293 111.659 84.7133 112.266 85.372C112.89 86.0133 113.644 86.334 114.528 86.334C115.412 86.334 116.157 86.0133 116.764 85.372C117.388 84.7307 117.7 83.8553 117.7 82.746Z" fill="#252525"/>
<g filter="url(#filter0_b_531_2029)">
<path d="M62.0469 0C60.1446 2.58064 53.6804 7.43225 43.0415 6.19355L44.1615 29.0322C44.5388 32.129 47.9515 40.5677 63.145 48C69.1014 44.5161 81.0163 35.071 81.0249 25.1613L81.0415 6.19355C77.8741 6.96774 69.6409 6.8129 62.0469 0Z" fill="url(#paint0_linear_531_2029)"/>
</g>
<path d="M54.4231 25.3724L60.0994 30.7144L71.9097 17.8047" stroke="white" stroke-width="4.13104" stroke-linecap="round"/>
<defs>
<filter id="filter0_b_531_2029" x="6.0415" y="-37" width="112" height="122" filterUnits="userSpaceOnUse" color-interpolation-filters="sRGB">
<feFlood flood-opacity="0" result="BackgroundImageFix"/>
<feGaussianBlur in="BackgroundImageFix" stdDeviation="18.5"/>
<feComposite in2="SourceAlpha" operator="in" result="effect1_backgroundBlur_531_2029"/>
<feBlend mode="normal" in="SourceGraphic" in2="effect1_backgroundBlur_531_2029" result="shape"/>
</filter>
<linearGradient id="paint0_linear_531_2029" x1="62.0469" y1="0" x2="62.0469" y2="48" gradientUnits="userSpaceOnUse">
<stop stop-color="#DB0011"/>
<stop offset="1" stop-color="#750009"/>
</linearGradient>
</defs>
</svg>
