<svg width="160" height="120" viewBox="0 0 160 120" fill="none" xmlns="http://www.w3.org/2000/svg">
<rect width="160" height="120" fill="white"/>
<path d="M20.8646 96.776H14.0526L12.9606 100H8.30663L14.9106 81.748H20.0586L26.6626 100H21.9566L20.8646 96.776ZM19.7206 93.344L17.4586 86.662L15.2226 93.344H19.7206ZM33.0405 81.748V92.668C33.0405 93.76 33.3092 94.6007 33.8465 95.19C34.3839 95.7793 35.1725 96.074 36.2125 96.074C37.2525 96.074 38.0499 95.7793 38.6045 95.19C39.1592 94.6007 39.4365 93.76 39.4365 92.668V81.748H43.8825V92.642C43.8825 94.2713 43.5359 95.6493 42.8425 96.776C42.1492 97.9027 41.2132 98.752 40.0345 99.324C38.8732 99.896 37.5732 100.182 36.1345 100.182C34.6959 100.182 33.4045 99.9047 32.2605 99.35C31.1339 98.778 30.2412 97.9287 29.5825 96.802C28.9239 95.658 28.5945 94.2713 28.5945 92.642V81.748H33.0405ZM53.6086 100.182C52.2739 100.182 51.0779 99.9653 50.0206 99.532C48.9632 99.0987 48.1139 98.4573 47.4726 97.608C46.8486 96.7587 46.5192 95.736 46.4846 94.54H51.2166C51.2859 95.216 51.5199 95.736 51.9186 96.1C52.3172 96.4467 52.8372 96.62 53.4786 96.62C54.1372 96.62 54.6572 96.4727 55.0386 96.178C55.4199 95.866 55.6106 95.4413 55.6106 94.904C55.6106 94.4533 55.4546 94.0807 55.1426 93.786C54.8479 93.4913 54.4752 93.2487 54.0246 93.058C53.5912 92.8673 52.9672 92.6507 52.1526 92.408C50.9739 92.044 50.0119 91.68 49.2666 91.316C48.5212 90.952 47.8799 90.4147 47.3426 89.704C46.8052 88.9933 46.5366 88.066 46.5366 86.922C46.5366 85.2233 47.1519 83.8973 48.3826 82.944C49.6132 81.9733 51.2166 81.488 53.1926 81.488C55.2032 81.488 56.8239 81.9733 58.0546 82.944C59.2852 83.8973 59.9439 85.232 60.0306 86.948H55.2206C55.1859 86.3587 54.9692 85.8993 54.5706 85.57C54.1719 85.2233 53.6606 85.05 53.0366 85.05C52.4992 85.05 52.0659 85.1973 51.7366 85.492C51.4072 85.7693 51.2426 86.1767 51.2426 86.714C51.2426 87.3033 51.5199 87.7627 52.0746 88.092C52.6292 88.4213 53.4959 88.7767 54.6746 89.158C55.8532 89.5567 56.8066 89.938 57.5346 90.302C58.2799 90.666 58.9212 91.1947 59.4586 91.888C59.9959 92.5813 60.2646 93.474 60.2646 94.566C60.2646 95.606 59.9959 96.5507 59.4586 97.4C58.9386 98.2493 58.1759 98.9253 57.1706 99.428C56.1652 99.9307 54.9779 100.182 53.6086 100.182ZM76.1307 81.748V85.31H71.2947V100H66.8487V85.31H62.0127V81.748H76.1307ZM87.67 100L83.874 93.11H82.808V100H78.362V81.748H85.824C87.2627 81.748 88.4847 81.9993 89.49 82.502C90.5127 83.0047 91.2753 83.698 91.778 84.582C92.2807 85.4487 92.532 86.4193 92.532 87.494C92.532 88.7073 92.1853 89.7907 91.492 90.744C90.816 91.6973 89.8107 92.3733 88.476 92.772L92.688 100H87.67ZM82.808 89.964H85.564C86.3787 89.964 86.9853 89.7647 87.384 89.366C87.8 88.9673 88.008 88.404 88.008 87.676C88.008 86.9827 87.8 86.4367 87.384 86.038C86.9853 85.6393 86.3787 85.44 85.564 85.44H82.808V89.964ZM106.685 96.776H99.8729L98.7809 100H94.1269L100.731 81.748H105.879L112.483 100H107.777L106.685 96.776ZM105.541 93.344L103.279 86.662L101.043 93.344H105.541ZM118.939 96.568H124.763V100H114.493V81.748H118.939V96.568ZM131.329 81.748V100H126.883V81.748H131.329ZM145.913 96.776H139.101L138.009 100H133.355L139.959 81.748H145.107L151.711 100H147.005L145.913 96.776ZM144.769 93.344L142.507 86.662L140.271 93.344H144.769Z" fill="#252525"/>
<g filter="url(#filter0_b_186_2254)">
<path d="M79.5469 10C77.6446 12.5806 71.1804 17.4323 60.5415 16.1935L61.6615 39.0322C62.0388 42.129 65.4515 50.5677 80.645 58C86.6014 54.5161 98.5163 45.071 98.5249 35.1613L98.5415 16.1935C95.3741 16.9677 87.1409 16.8129 79.5469 10Z" fill="url(#paint0_linear_186_2254)"/>
</g>
<path d="M71.9231 35.3724L77.5994 40.7144L89.4097 27.8047" stroke="white" stroke-width="4.13104" stroke-linecap="round"/>
<defs>
<filter id="filter0_b_186_2254" x="23.5415" y="-27" width="112" height="122" filterUnits="userSpaceOnUse" color-interpolation-filters="sRGB">
<feFlood flood-opacity="0" result="BackgroundImageFix"/>
<feGaussianBlur in="BackgroundImageFix" stdDeviation="18.5"/>
<feComposite in2="SourceAlpha" operator="in" result="effect1_backgroundBlur_186_2254"/>
<feBlend mode="normal" in="SourceGraphic" in2="effect1_backgroundBlur_186_2254" result="shape"/>
</filter>
<linearGradient id="paint0_linear_186_2254" x1="79.5469" y1="10" x2="79.5469" y2="58" gradientUnits="userSpaceOnUse">
<stop stop-color="#DB0011"/>
<stop offset="1" stop-color="#750009"/>
</linearGradient>
</defs>
</svg>
