<svg width="108" height="100" viewBox="0 0 108 100" fill="none" xmlns="http://www.w3.org/2000/svg">
<path d="M0.902922 80.848C0.902922 79.0453 1.29292 77.442 2.07292 76.038C2.85292 74.6167 3.93626 73.516 5.32292 72.736C6.72692 71.9387 8.31292 71.54 10.0809 71.54C12.2476 71.54 14.1023 72.112 15.6449 73.256C17.1876 74.4 18.2189 75.96 18.7389 77.936H13.8509C13.4869 77.1733 12.9669 76.5927 12.2909 76.194C11.6323 75.7953 10.8783 75.596 10.0289 75.596C8.65959 75.596 7.55026 76.0727 6.70092 77.026C5.85159 77.9793 5.42692 79.2533 5.42692 80.848C5.42692 82.4427 5.85159 83.7167 6.70092 84.67C7.55026 85.6233 8.65959 86.1 10.0289 86.1C10.8783 86.1 11.6323 85.9007 12.2909 85.502C12.9669 85.1033 13.4869 84.5227 13.8509 83.76H18.7389C18.2189 85.736 17.1876 87.296 15.6449 88.44C14.1023 89.5667 12.2476 90.13 10.0809 90.13C8.31292 90.13 6.72692 89.74 5.32292 88.96C3.93626 88.1627 2.85292 87.062 2.07292 85.658C1.29292 84.254 0.902922 82.6507 0.902922 80.848ZM20.5776 82.72C20.5776 81.2293 20.8549 79.9207 21.4096 78.794C21.9816 77.6673 22.7529 76.8007 23.7236 76.194C24.6943 75.5873 25.7776 75.284 26.9736 75.284C27.9963 75.284 28.8889 75.492 29.6516 75.908C30.4316 76.324 31.0296 76.87 31.4456 77.546V75.492H35.8916V90H31.4456V87.946C31.0123 88.622 30.4056 89.168 29.6256 89.584C28.8629 90 27.9703 90.208 26.9476 90.208C25.7689 90.208 24.6943 89.9047 23.7236 89.298C22.7529 88.674 21.9816 87.7987 21.4096 86.672C20.8549 85.528 20.5776 84.2107 20.5776 82.72ZM31.4456 82.746C31.4456 81.6367 31.1336 80.7613 30.5096 80.12C29.9029 79.4787 29.1576 79.158 28.2736 79.158C27.3896 79.158 26.6356 79.4787 26.0116 80.12C25.4049 80.744 25.1016 81.6107 25.1016 82.72C25.1016 83.8293 25.4049 84.7133 26.0116 85.372C26.6356 86.0133 27.3896 86.334 28.2736 86.334C29.1576 86.334 29.9029 86.0133 30.5096 85.372C31.1336 84.7307 31.4456 83.8553 31.4456 82.746ZM47.9481 75.336C49.6468 75.336 50.9988 75.8907 52.0041 77C53.0268 78.092 53.5381 79.6 53.5381 81.524V90H49.1181V82.122C49.1181 81.1513 48.8668 80.3973 48.3641 79.86C47.8614 79.3227 47.1854 79.054 46.3361 79.054C45.4868 79.054 44.8108 79.3227 44.3081 79.86C43.8054 80.3973 43.5541 81.1513 43.5541 82.122V90H39.1081V75.492H43.5541V77.416C44.0048 76.7747 44.6114 76.272 45.3741 75.908C46.1368 75.5267 46.9948 75.336 47.9481 75.336ZM55.7436 82.72C55.7436 81.2293 56.021 79.9207 56.5756 78.794C57.1476 77.6673 57.919 76.8007 58.8896 76.194C59.8603 75.5873 60.9436 75.284 62.1396 75.284C63.1623 75.284 64.055 75.492 64.8176 75.908C65.5976 76.324 66.1956 76.87 66.6116 77.546V75.492H71.0576V90H66.6116V87.946C66.1783 88.622 65.5716 89.168 64.7916 89.584C64.029 90 63.1363 90.208 62.1136 90.208C60.935 90.208 59.8603 89.9047 58.8896 89.298C57.919 88.674 57.1476 87.7987 56.5756 86.672C56.021 85.528 55.7436 84.2107 55.7436 82.72ZM66.6116 82.746C66.6116 81.6367 66.2996 80.7613 65.6756 80.12C65.069 79.4787 64.3236 79.158 63.4396 79.158C62.5556 79.158 61.8016 79.4787 61.1776 80.12C60.571 80.744 60.2676 81.6107 60.2676 82.72C60.2676 83.8293 60.571 84.7133 61.1776 85.372C61.8016 86.0133 62.5556 86.334 63.4396 86.334C64.3236 86.334 65.069 86.0133 65.6756 85.372C66.2996 84.7307 66.6116 83.8553 66.6116 82.746ZM73.3901 82.72C73.3901 81.2293 73.6674 79.9207 74.2221 78.794C74.7941 77.6673 75.5654 76.8007 76.5361 76.194C77.5068 75.5873 78.5901 75.284 79.7861 75.284C80.7394 75.284 81.6061 75.4833 82.3861 75.882C83.1834 76.2807 83.8074 76.818 84.2581 77.494V70.76H88.7041V90H84.2581V87.92C83.8421 88.6133 83.2441 89.168 82.4641 89.584C81.7014 90 80.8088 90.208 79.7861 90.208C78.5901 90.208 77.5068 89.9047 76.5361 89.298C75.5654 88.674 74.7941 87.7987 74.2221 86.672C73.6674 85.528 73.3901 84.2107 73.3901 82.72ZM84.2581 82.746C84.2581 81.6367 83.9461 80.7613 83.3221 80.12C82.7154 79.4787 81.9701 79.158 81.0861 79.158C80.2021 79.158 79.4481 79.4787 78.8241 80.12C78.2174 80.744 77.9141 81.6107 77.9141 82.72C77.9141 83.8293 78.2174 84.7133 78.8241 85.372C79.4481 86.0133 80.2021 86.334 81.0861 86.334C81.9701 86.334 82.7154 86.0133 83.3221 85.372C83.9461 84.7307 84.2581 83.8553 84.2581 82.746ZM91.0366 82.72C91.0366 81.2293 91.3139 79.9207 91.8686 78.794C92.4406 77.6673 93.2119 76.8007 94.1826 76.194C95.1533 75.5873 96.2366 75.284 97.4326 75.284C98.4553 75.284 99.3479 75.492 100.111 75.908C100.891 76.324 101.489 76.87 101.905 77.546V75.492H106.351V90H101.905V87.946C101.471 88.622 100.865 89.168 100.085 89.584C99.3219 90 98.4293 90.208 97.4066 90.208C96.2279 90.208 95.1533 89.9047 94.1826 89.298C93.2119 88.674 92.4406 87.7987 91.8686 86.672C91.3139 85.528 91.0366 84.2107 91.0366 82.72ZM101.905 82.746C101.905 81.6367 101.593 80.7613 100.969 80.12C100.362 79.4787 99.6166 79.158 98.7326 79.158C97.8486 79.158 97.0946 79.4787 96.4706 80.12C95.8639 80.744 95.5606 81.6107 95.5606 82.72C95.5606 83.8293 95.8639 84.7133 96.4706 85.372C97.0946 86.0133 97.8486 86.334 98.7326 86.334C99.6166 86.334 100.362 86.0133 100.969 85.372C101.593 84.7307 101.905 83.8553 101.905 82.746Z" fill="#252525"/>
<g filter="url(#filter0_b_94_1924)">
<path d="M54.0469 0C52.1446 2.58064 45.6804 7.43225 35.0415 6.19355L36.1615 29.0322C36.5388 32.129 39.9515 40.5677 55.145 48C61.1014 44.5161 73.0163 35.071 73.0249 25.1613L73.0415 6.19355C69.8741 6.96774 61.6409 6.8129 54.0469 0Z" fill="url(#paint0_linear_94_1924)"/>
</g>
<path d="M46.4231 25.3724L52.0994 30.7144L63.9097 17.8047" stroke="white" stroke-width="4.13104" stroke-linecap="round"/>
<defs>
<filter id="filter0_b_94_1924" x="-1.9585" y="-37" width="112" height="122" filterUnits="userSpaceOnUse" color-interpolation-filters="sRGB">
<feFlood flood-opacity="0" result="BackgroundImageFix"/>
<feGaussianBlur in="BackgroundImageFix" stdDeviation="18.5"/>
<feComposite in2="SourceAlpha" operator="in" result="effect1_backgroundBlur_94_1924"/>
<feBlend mode="normal" in="SourceGraphic" in2="effect1_backgroundBlur_94_1924" result="shape"/>
</filter>
<linearGradient id="paint0_linear_94_1924" x1="54.0469" y1="0" x2="54.0469" y2="48" gradientUnits="userSpaceOnUse">
<stop stop-color="#DB0011"/>
<stop offset="1" stop-color="#750009"/>
</linearGradient>
</defs>
</svg>
