<svg width="160" height="120" viewBox="0 0 160 120" fill="none" xmlns="http://www.w3.org/2000/svg">
<rect width="160" height="120" fill="white"/>
<path d="M26.9029 90.848C26.9029 89.0453 27.2929 87.442 28.0729 86.038C28.8529 84.6167 29.9363 83.516 31.3229 82.736C32.7269 81.9387 34.3129 81.54 36.0809 81.54C38.2476 81.54 40.1023 82.112 41.6449 83.256C43.1876 84.4 44.2189 85.96 44.7389 87.936H39.8509C39.4869 87.1733 38.9669 86.5927 38.2909 86.194C37.6323 85.7953 36.8783 85.596 36.0289 85.596C34.6596 85.596 33.5503 86.0727 32.7009 87.026C31.8516 87.9793 31.4269 89.2533 31.4269 90.848C31.4269 92.4427 31.8516 93.7167 32.7009 94.67C33.5503 95.6233 34.6596 96.1 36.0289 96.1C36.8783 96.1 37.6323 95.9007 38.2909 95.502C38.9669 95.1033 39.4869 94.5227 39.8509 93.76H44.7389C44.2189 95.736 43.1876 97.296 41.6449 98.44C40.1023 99.5667 38.2476 100.13 36.0809 100.13C34.3129 100.13 32.7269 99.74 31.3229 98.96C29.9363 98.1627 28.8529 97.062 28.0729 95.658C27.2929 94.254 26.9029 92.6507 26.9029 90.848ZM46.5776 92.72C46.5776 91.2293 46.8549 89.9207 47.4096 88.794C47.9816 87.6673 48.7529 86.8007 49.7236 86.194C50.6943 85.5873 51.7776 85.284 52.9736 85.284C53.9963 85.284 54.8889 85.492 55.6516 85.908C56.4316 86.324 57.0296 86.87 57.4456 87.546V85.492H61.8916V100H57.4456V97.946C57.0123 98.622 56.4056 99.168 55.6256 99.584C54.8629 100 53.9703 100.208 52.9476 100.208C51.7689 100.208 50.6943 99.9047 49.7236 99.298C48.7529 98.674 47.9816 97.7987 47.4096 96.672C46.8549 95.528 46.5776 94.2107 46.5776 92.72ZM57.4456 92.746C57.4456 91.6367 57.1336 90.7613 56.5096 90.12C55.9029 89.4787 55.1576 89.158 54.2736 89.158C53.3896 89.158 52.6356 89.4787 52.0116 90.12C51.4049 90.744 51.1016 91.6107 51.1016 92.72C51.1016 93.8293 51.4049 94.7133 52.0116 95.372C52.6356 96.0133 53.3896 96.334 54.2736 96.334C55.1576 96.334 55.9029 96.0133 56.5096 95.372C57.1336 94.7307 57.4456 93.8553 57.4456 92.746ZM73.9481 85.336C75.6468 85.336 76.9988 85.8907 78.0041 87C79.0268 88.092 79.5381 89.6 79.5381 91.524V100H75.1181V92.122C75.1181 91.1513 74.8668 90.3973 74.3641 89.86C73.8614 89.3227 73.1854 89.054 72.3361 89.054C71.4868 89.054 70.8108 89.3227 70.3081 89.86C69.8054 90.3973 69.5541 91.1513 69.5541 92.122V100H65.1081V85.492H69.5541V87.416C70.0048 86.7747 70.6114 86.272 71.3741 85.908C72.1368 85.5267 72.9948 85.336 73.9481 85.336ZM81.7436 92.72C81.7436 91.2293 82.021 89.9207 82.5756 88.794C83.1476 87.6673 83.919 86.8007 84.8896 86.194C85.8603 85.5873 86.9436 85.284 88.1396 85.284C89.1623 85.284 90.055 85.492 90.8176 85.908C91.5976 86.324 92.1956 86.87 92.6116 87.546V85.492H97.0576V100H92.6116V97.946C92.1783 98.622 91.5716 99.168 90.7916 99.584C90.029 100 89.1363 100.208 88.1136 100.208C86.935 100.208 85.8603 99.9047 84.8896 99.298C83.919 98.674 83.1476 97.7987 82.5756 96.672C82.021 95.528 81.7436 94.2107 81.7436 92.72ZM92.6116 92.746C92.6116 91.6367 92.2996 90.7613 91.6756 90.12C91.069 89.4787 90.3236 89.158 89.4396 89.158C88.5556 89.158 87.8016 89.4787 87.1776 90.12C86.571 90.744 86.2676 91.6107 86.2676 92.72C86.2676 93.8293 86.571 94.7133 87.1776 95.372C87.8016 96.0133 88.5556 96.334 89.4396 96.334C90.3236 96.334 91.069 96.0133 91.6756 95.372C92.2996 94.7307 92.6116 93.8553 92.6116 92.746ZM99.3901 92.72C99.3901 91.2293 99.6674 89.9207 100.222 88.794C100.794 87.6673 101.565 86.8007 102.536 86.194C103.507 85.5873 104.59 85.284 105.786 85.284C106.739 85.284 107.606 85.4833 108.386 85.882C109.183 86.2807 109.807 86.818 110.258 87.494V80.76H114.704V100H110.258V97.92C109.842 98.6133 109.244 99.168 108.464 99.584C107.701 100 106.809 100.208 105.786 100.208C104.59 100.208 103.507 99.9047 102.536 99.298C101.565 98.674 100.794 97.7987 100.222 96.672C99.6674 95.528 99.3901 94.2107 99.3901 92.72ZM110.258 92.746C110.258 91.6367 109.946 90.7613 109.322 90.12C108.715 89.4787 107.97 89.158 107.086 89.158C106.202 89.158 105.448 89.4787 104.824 90.12C104.217 90.744 103.914 91.6107 103.914 92.72C103.914 93.8293 104.217 94.7133 104.824 95.372C105.448 96.0133 106.202 96.334 107.086 96.334C107.97 96.334 108.715 96.0133 109.322 95.372C109.946 94.7307 110.258 93.8553 110.258 92.746ZM117.037 92.72C117.037 91.2293 117.314 89.9207 117.869 88.794C118.441 87.6673 119.212 86.8007 120.183 86.194C121.153 85.5873 122.237 85.284 123.433 85.284C124.455 85.284 125.348 85.492 126.111 85.908C126.891 86.324 127.489 86.87 127.905 87.546V85.492H132.351V100H127.905V97.946C127.471 98.622 126.865 99.168 126.085 99.584C125.322 100 124.429 100.208 123.407 100.208C122.228 100.208 121.153 99.9047 120.183 99.298C119.212 98.674 118.441 97.7987 117.869 96.672C117.314 95.528 117.037 94.2107 117.037 92.72ZM127.905 92.746C127.905 91.6367 127.593 90.7613 126.969 90.12C126.362 89.4787 125.617 89.158 124.733 89.158C123.849 89.158 123.095 89.4787 122.471 90.12C121.864 90.744 121.561 91.6107 121.561 92.72C121.561 93.8293 121.864 94.7133 122.471 95.372C123.095 96.0133 123.849 96.334 124.733 96.334C125.617 96.334 126.362 96.0133 126.969 95.372C127.593 94.7307 127.905 93.8553 127.905 92.746Z" fill="#252525"/>
<g filter="url(#filter0_b_182_2156)">
<path d="M80.0469 10C78.1446 12.5806 71.6804 17.4323 61.0415 16.1935L62.1615 39.0322C62.5388 42.129 65.9515 50.5677 81.145 58C87.1014 54.5161 99.0163 45.071 99.0249 35.1613L99.0415 16.1935C95.8741 16.9677 87.6409 16.8129 80.0469 10Z" fill="url(#paint0_linear_182_2156)"/>
</g>
<path d="M72.4231 35.3724L78.0994 40.7144L89.9097 27.8047" stroke="white" stroke-width="4.13104" stroke-linecap="round"/>
<defs>
<filter id="filter0_b_182_2156" x="24.0415" y="-27" width="112" height="122" filterUnits="userSpaceOnUse" color-interpolation-filters="sRGB">
<feFlood flood-opacity="0" result="BackgroundImageFix"/>
<feGaussianBlur in="BackgroundImageFix" stdDeviation="18.5"/>
<feComposite in2="SourceAlpha" operator="in" result="effect1_backgroundBlur_182_2156"/>
<feBlend mode="normal" in="SourceGraphic" in2="effect1_backgroundBlur_182_2156" result="shape"/>
</filter>
<linearGradient id="paint0_linear_182_2156" x1="80.0469" y1="10" x2="80.0469" y2="58" gradientUnits="userSpaceOnUse">
<stop stop-color="#DB0011"/>
<stop offset="1" stop-color="#750009"/>
</linearGradient>
</defs>
</svg>
