<svg width="162" height="162" viewBox="0 0 162 162" fill="none" xmlns="http://www.w3.org/2000/svg">
<circle cx="81" cy="81" r="81" fill="white"/>
<path fill-rule="evenodd" clip-rule="evenodd" d="M71.7575 40.408C71.7575 37.2443 74.3456 34.6562 77.5097 34.6562H123.1C126.264 34.6562 128.852 37.2461 128.852 40.408V71.0426C128.852 74.2043 126.262 76.7943 123.1 76.7943H77.5097C74.3485 76.7943 71.7575 74.2063 71.7575 71.0426V67.2094H79.2653C80.7706 67.2094 82.2153 66.6613 83.3401 65.6674L91.629 59.1902C93.7979 57.4953 94.519 54.6289 93.5964 52.1805L104.631 43.5881C105.309 43.059 105.429 42.0807 104.9 41.4031C104.371 40.7256 103.392 40.6055 102.715 41.1346L91.7932 49.6387C89.6186 47.8139 86.3888 47.6893 84.0632 49.5064L77.1638 54.898H71.7575V40.408ZM53.5388 35.6076C58.0386 35.6076 61.6864 38.1721 61.6864 44.0859C61.6864 49.9998 58.0384 54.7943 53.5388 54.7943C49.0388 54.7943 45.3909 49.9998 45.3909 44.0859C45.3909 38.1721 49.0388 35.6076 53.5388 35.6076ZM43.1698 123.34H51.6591V93.1531C51.6591 92.2902 52.3587 91.5906 53.2216 91.5906C54.0845 91.5906 54.7841 92.2902 54.7841 93.1531V123.34H63.8616L63.9489 69.3408L68.295 64.0844H79.2655C80.0626 64.0844 80.7878 63.7766 81.3288 63.2732L89.705 56.7277C91.0192 55.7012 91.2522 53.8037 90.2259 52.4895C89.1995 51.1752 87.3018 50.942 85.9876 51.9686L78.2401 58.0229H42.6466C38.4659 58.0229 33.2661 60.7051 33.2425 65.4383L33.1485 84.1535C33.1298 87.8533 36.2737 90.969 40.0446 91.5143V67.7875C40.0446 66.9246 40.7442 66.225 41.6071 66.225C42.47 66.225 43.1696 66.9246 43.1696 67.7875L43.1698 123.34ZM101.867 79.9191V84.2623C102.744 84.7922 103.33 85.7545 103.33 86.8537C103.33 88.5248 101.975 89.8793 100.304 89.8793C98.6333 89.8793 97.2788 88.5248 97.2788 86.8537C97.2788 85.7543 97.8651 84.792 98.7421 84.2623V79.9191H101.867ZM86.3681 98.0133C89.7968 98.0133 92.5763 100.793 92.5763 104.221C92.5763 107.65 89.7968 110.43 86.3681 110.43C82.9393 110.43 80.1598 107.65 80.1598 104.221C80.1598 100.793 82.9393 98.0133 86.3681 98.0133ZM98.5761 123.34H74.16C74.8192 117.18 80.0333 112.383 86.3681 112.383C92.7032 112.383 97.9171 117.18 98.5761 123.34ZM116.644 98.0133C120.073 98.0133 122.852 100.793 122.852 104.221C122.852 107.65 120.073 110.43 116.644 110.43C113.215 110.43 110.436 107.65 110.436 104.221C110.436 100.793 113.215 98.0133 116.644 98.0133ZM104.436 123.34H128.852C128.192 117.18 122.979 112.383 116.644 112.383C110.309 112.383 105.095 117.18 104.436 123.34ZM120.058 49.5682H101.312C100.449 49.5682 99.7495 50.2678 99.7495 51.1307C99.7495 51.9936 100.449 52.6932 101.312 52.6932H120.058C120.921 52.6932 121.621 51.9936 121.621 51.1307C121.621 50.2678 120.921 49.5682 120.058 49.5682ZM119.8 40.3791H110.277C109.414 40.3791 108.715 41.0787 108.715 41.9416C108.715 42.8045 109.414 43.5041 110.277 43.5041H119.8C120.663 43.5041 121.363 42.8045 121.363 41.9416C121.363 41.0787 120.663 40.3791 119.8 40.3791ZM95.3108 40.3791H80.5511C79.6882 40.3791 78.9886 41.0787 78.9886 41.9416C78.9886 42.8045 79.6882 43.5041 80.5511 43.5041H95.3108C96.1737 43.5041 96.8733 42.8045 96.8733 41.9416C96.8733 41.0787 96.1737 40.3791 95.3108 40.3791ZM119.8 67.9465H80.5509C79.688 67.9465 78.9884 68.6461 78.9884 69.509C78.9884 70.3719 79.688 71.0715 80.5509 71.0715H119.8C120.663 71.0715 121.362 70.3719 121.362 69.509C121.362 68.6461 120.663 67.9465 119.8 67.9465ZM119.929 58.7574H93.8792C93.0163 58.7574 92.3167 59.457 92.3167 60.3199C92.3167 61.1828 93.0163 61.8824 93.8792 61.8824H119.929C120.792 61.8824 121.492 61.1828 121.492 60.3199C121.492 59.4568 120.792 58.7574 119.929 58.7574Z" fill="#BB9630"/>
</svg>
