<svg width="40" height="40" viewBox="0 0 40 40" fill="none" xmlns="http://www.w3.org/2000/svg">
<path d="M14.6762 30.5391C13.655 31.4713 12.3222 31.9881 10.9394 31.9881C9.55671 31.9882 8.22392 31.4713 7.2027 30.5391C5.48776 31.5304 2.85539 34.4314 4.26438 36.5278C4.48015 36.829 4.76452 37.0746 5.09399 37.2442C5.42346 37.4138 5.78856 37.5026 6.15912 37.5031H15.7136C16.0841 37.5026 16.4493 37.4138 16.7787 37.2442C17.1082 37.0746 17.3926 36.829 17.6084 36.5278C19.0157 34.4345 16.3822 31.5306 14.6762 30.5391Z" fill="#ED0200"/>
<path d="M15.2105 26.4822C15.0162 20.8119 6.84337 20.825 6.65625 26.4822C6.84436 32.1147 15.0042 32.1646 15.2105 26.4822Z" fill="#ED0200"/>
<path d="M24.79 26.4821C24.9947 32.1612 33.1546 32.1182 33.3443 26.4822C33.1589 20.8274 24.9855 20.8095 24.79 26.4821Z" fill="#ED0200"/>
<path d="M32.804 30.5391C31.7838 31.4734 30.4507 31.9917 29.0673 31.9917C27.6839 31.9917 26.3507 31.4734 25.3305 30.5391C23.626 31.5304 20.9809 34.4324 22.3922 36.5278C22.608 36.8291 22.8924 37.0746 23.2219 37.2442C23.5513 37.4138 23.9164 37.5026 24.287 37.5031H33.8415C34.2121 37.5026 34.5772 37.4138 34.9066 37.2442C35.2361 37.0746 35.5205 36.829 35.7362 36.5278C37.1432 34.432 34.5149 31.532 32.804 30.5391Z" fill="#ED0200"/>
<path d="M17.9377 13.8126H22.4788L26.5044 17.0367C26.596 17.1079 26.7057 17.1522 26.8211 17.1645C26.9366 17.1767 27.0531 17.1566 27.1577 17.1062C27.2623 17.0559 27.3507 16.9774 27.4131 16.8795C27.4755 16.7816 27.5093 16.6683 27.5108 16.5522V13.8126H29.1322C29.5931 13.8112 30.0348 13.6275 30.3607 13.3016C30.6866 12.9757 30.8703 12.534 30.8716 12.0731V4.23947C30.8714 3.77823 30.688 3.33596 30.3619 3.00981C30.0357 2.68366 29.5935 2.5003 29.1322 2.5H17.9377C17.4764 2.5003 17.0342 2.68366 16.708 3.00981C16.3819 3.33596 16.1985 3.77823 16.1982 4.23947V12.0731C16.1996 12.534 16.3833 12.9757 16.7092 13.3016C17.0351 13.6275 17.4768 13.8112 17.9377 13.8126Z" fill="#ED0200"/>
<path d="M14.9561 12.0762V8.15625H10.6944C10.2793 8.15661 9.88136 8.32166 9.58784 8.61517C9.29433 8.90868 9.12927 9.30666 9.12891 9.72176V16.313C9.12928 16.7281 9.29434 17.1261 9.58785 17.4196C9.88136 17.7131 10.2793 17.8781 10.6944 17.8785H11.9555V20.09C11.9579 20.2064 11.9926 20.3198 12.0557 20.4176C12.1187 20.5154 12.2077 20.5938 12.3126 20.644C12.4176 20.6942 12.5345 20.7143 12.6502 20.7021C12.7659 20.6898 12.876 20.6457 12.9681 20.5746L16.329 17.8785H20.1184C20.5335 17.8781 20.9315 17.7131 21.225 17.4196C21.5185 17.1261 21.6836 16.7281 21.6839 16.313V15.0581H17.9379C17.1472 15.0579 16.3888 14.7436 15.8296 14.1845C15.2705 13.6253 14.9563 12.867 14.9561 12.0762Z" fill="#ED0200"/>
</svg>
