<svg width="29" height="29" viewBox="0 0 29 29" fill="none" xmlns="http://www.w3.org/2000/svg">
<path d="M16.2049 0.921875V2.85031C18.1123 2.85031 19.8992 3.33242 21.5657 4.29664C23.1518 5.24077 24.4167 6.50631 25.3603 8.09325C26.3241 9.76054 26.8059 11.5484 26.8059 13.4567H28.7334C28.7334 11.1868 28.1612 9.07756 27.0168 7.12903C25.9125 5.24077 24.4167 3.74422 22.5294 2.63939C20.5819 1.49438 18.4737 0.921875 16.2049 0.921875ZM6.23636 3.81453C5.69426 3.81453 5.22243 3.98528 4.82088 4.32677L1.71888 7.49061L1.80923 7.43035C1.30729 7.8522 0.976004 8.37448 0.815382 8.9972C0.674839 9.61993 0.714994 10.2226 0.935848 10.8051C1.49802 12.372 2.25094 13.979 3.19459 15.6262C4.51971 17.8961 6.09581 19.9351 7.92288 21.743C10.8542 24.6959 14.4983 27.0261 18.8552 28.7336H18.8853C19.4675 28.9344 20.0498 28.9746 20.6321 28.8541C21.2344 28.7336 21.7664 28.4724 22.2282 28.0707L25.27 25.0273C25.6716 24.6256 25.8723 24.1334 25.8723 23.5509C25.8723 22.9482 25.6716 22.446 25.27 22.0443L21.3247 18.0669C20.9232 17.6651 20.4212 17.4642 19.8189 17.4642C19.2166 17.4642 18.7146 17.6651 18.3131 18.0669L16.4157 19.9953C14.8898 19.2722 13.5647 18.3782 12.4404 17.3136C11.316 16.2288 10.4226 14.9131 9.75999 13.3663L11.6874 11.4379C12.1091 10.9959 12.3199 10.4737 12.3199 9.87103C12.3199 9.2483 12.079 8.74611 11.5971 8.36444L11.6874 8.45483L7.65183 4.32677C7.25028 3.98528 6.77845 3.81453 6.23636 3.81453ZM16.2049 4.77875V6.70719C17.4297 6.70719 18.554 7.0085 19.578 7.61114C20.622 8.21378 21.4452 9.03738 22.0475 10.082C22.6499 11.1064 22.951 12.2314 22.951 13.4567H24.8785C24.8785 11.8899 24.487 10.4335 23.7039 9.0876C22.9209 7.78189 21.8769 6.73732 20.5718 5.95389C19.2266 5.17046 17.771 4.77875 16.2049 4.77875ZM6.23636 5.74297C6.29659 5.74297 6.36686 5.7731 6.44717 5.83336L10.3924 9.87103C10.4125 9.95138 10.3924 10.0217 10.3322 10.082L7.47113 12.9143L7.68195 13.517L8.07346 14.3607C8.39471 15.0437 8.76614 15.7066 9.18778 16.3494C9.77003 17.2533 10.4125 18.0267 11.1152 18.6695C12.0589 19.5936 13.1933 20.4373 14.5184 21.2006C15.181 21.5823 15.7431 21.8635 16.2049 22.0443L16.8073 22.3155L19.7286 19.3927C19.7687 19.3525 19.7988 19.3324 19.8189 19.3324C19.839 19.3324 19.8691 19.3525 19.9093 19.3927L23.975 23.4605C24.0151 23.5007 24.0352 23.5308 24.0352 23.5509C24.0352 23.5509 24.0151 23.571 23.975 23.6111L20.9633 26.5942C20.5216 26.9759 20.0398 27.0763 19.5177 26.8955C15.4219 25.3086 12.0087 23.1391 9.27812 20.387C7.5916 18.6997 6.11589 16.7813 4.851 14.6319C3.9475 13.0851 3.24478 11.5885 2.74284 10.1422V10.1121C2.66253 9.93129 2.65249 9.72037 2.71272 9.47931C2.77296 9.21817 2.88338 9.01729 3.044 8.87668L6.02554 5.83336C6.08577 5.7731 6.15605 5.74297 6.23636 5.74297ZM16.2049 8.63562V10.5641C17.008 10.5641 17.6907 10.8453 18.2528 11.4078C18.815 11.9702 19.0961 12.6532 19.0961 13.4567H21.0236C21.0236 12.5929 20.8027 11.7894 20.361 11.0462C19.9394 10.3029 19.3571 9.72037 18.6142 9.29852C17.8714 8.85659 17.0683 8.63562 16.2049 8.63562Z" fill="black"/>
</svg>
