<svg width="40" height="40" viewBox="0 0 40 40" fill="none" xmlns="http://www.w3.org/2000/svg">
<path d="M15.5996 37.4375H24.4001V39.9961H15.5996V37.4375Z" fill="#ED0200"/>
<path d="M18.7178 0H21.2819V3.4365H18.7178V0Z" fill="#ED0200"/>
<path d="M9.62496 7.99662L7.07129 5.4503L8.88368 3.64038L11.4374 6.18679L9.62496 7.99662Z" fill="#ED0200"/>
<path d="M2.73535 15.2578H6.60903V17.8164H2.73535V15.2578Z" fill="#ED0200"/>
<path d="M33.3916 15.2578H37.2653V17.8164H33.3916V15.2578Z" fill="#ED0200"/>
<path d="M30.3759 7.99686L28.5635 6.18704L31.1172 3.64062L32.9295 5.45054L30.3759 7.99686Z" fill="#ED0200"/>
<path d="M20.1228 6.70386C14.6723 6.63813 10.1485 11.0126 10.0439 16.4586C9.9984 18.8286 10.7823 21.0141 12.1251 22.745C14.3228 25.5777 15.5097 29.0632 15.5097 32.6474V32.6478C15.5097 33.3377 16.0694 33.897 16.7599 33.897H23.2406C23.931 33.897 24.4908 33.3377 24.4908 32.6478V32.6477C24.4908 29.0408 25.723 25.5578 27.9157 22.6927C29.1971 21.0181 29.9585 18.9251 29.9585 16.6541C29.9584 11.1992 25.5661 6.76941 20.1228 6.70386ZM19.7189 19.9057C19.2821 20.3721 18.5316 20.4073 18.0529 19.9839L15.6669 17.8738L17.2524 16.0811L18.7674 17.421L22.6674 13.258L24.4139 14.8942L19.7189 19.9057Z" fill="#ED0200"/>
</svg>
