<svg width="20" height="20" viewBox="0 0 20 20" fill="none" xmlns="http://www.w3.org/2000/svg">
<path d="M20 10.0004C20 15.051 16.2562 19.2264 11.3926 19.904C10.9379 19.9671 10.4726 20 10.0004 20C9.45521 20 8.91988 19.9566 8.39856 19.8725C3.63662 19.1059 0 14.9774 0 10.0004C0 4.47746 4.47746 0 9.99965 0C15.5218 0 20 4.47746 20 10.0004Z" fill="#1877F2"/>
<path d="M11.3925 8.02864V10.2071H14.0874L13.6607 13.1416H11.3925V19.9027C10.9378 19.9657 10.4725 19.9987 10.0003 19.9987C9.45511 19.9987 8.91978 19.9552 8.39846 19.8711V13.1416H5.91309V10.2071H8.39846V7.54165C8.39846 5.88801 9.73889 4.54688 11.3932 4.54688V4.54828C11.3981 4.54828 11.4023 4.54688 11.4073 4.54688H14.0881V7.0848H12.3364C11.8158 7.0848 11.3932 7.50732 11.3932 8.02794L11.3925 8.02864Z" fill="white"/>
</svg>
