<svg width="29" height="31" viewBox="0 0 29 31" fill="none" xmlns="http://www.w3.org/2000/svg">
<path d="M23.306 13.2479L19.3895 13.4596C19.2913 13.4649 19.197 13.419 19.1408 13.3382L17.2204 10.5755C17.8367 10.5311 18.4191 10.4335 18.6748 10.2968L18.5641 8.25057C18.0677 8.05121 16.4826 8.10185 15.6381 8.29919L10.2396 0.532429L8.83194 0.608521L12.2062 10.9854C12.3334 11.3768 12.409 11.783 12.4312 12.1938L12.5095 13.6417C12.5151 13.7461 12.4352 13.8355 12.3304 13.8412L9.25418 14.0075C7.94249 14.0784 6.7346 14.2643 5.68819 14.5001L1.86168 11.191L0.694602 11.2541L2.60193 15.515C2.06994 15.7739 1.77573 16.0009 1.78281 16.1318C1.78988 16.2627 2.10641 16.4568 2.66366 16.6568L1.22672 21.098L2.39468 21.0349L5.84219 17.3326C6.90792 17.4542 8.12881 17.5088 9.44051 17.4379L12.5167 17.2716C12.6211 17.266 12.7106 17.3459 12.7163 17.4507L12.7945 18.8986C12.8167 19.3094 12.7853 19.7214 12.7011 20.1242L10.4651 30.8043L11.8727 30.7283L16.4026 22.4248C17.2634 22.53 18.8447 22.4094 19.3168 22.1577L19.2062 20.1115C18.9373 20.0031 18.3478 19.9689 17.7303 19.9912L19.3416 17.0375C19.3888 16.9512 19.4772 16.8954 19.5758 16.8901L23.4923 16.6783C26.3545 16.5236 28.629 15.2941 28.5959 14.682C28.5615 14.0704 26.1677 13.0932 23.306 13.2479Z" fill="#ED0200"/>
</svg>
