<svg width="160" height="120" viewBox="0 0 160 120" fill="none" xmlns="http://www.w3.org/2000/svg">
<rect width="160" height="120" fill="white"/>
<path d="M28.2964 87.52C27.967 86.9133 27.4904 86.454 26.8664 86.142C26.2597 85.8127 25.5404 85.648 24.7084 85.648C23.2697 85.648 22.117 86.1247 21.2504 87.078C20.3837 88.014 19.9504 89.2707 19.9504 90.848C19.9504 92.5293 20.401 93.8467 21.3024 94.8C22.221 95.736 23.4777 96.204 25.0724 96.204C26.1644 96.204 27.083 95.9267 27.8284 95.372C28.591 94.8173 29.1457 94.02 29.4924 92.98H23.8504V89.704H33.5224V93.838C33.193 94.9473 32.6297 95.9787 31.8324 96.932C31.0524 97.8853 30.0557 98.6567 28.8424 99.246C27.629 99.8353 26.2597 100.13 24.7344 100.13C22.9317 100.13 21.3197 99.74 19.8984 98.96C18.4944 98.1627 17.3937 97.062 16.5964 95.658C15.8164 94.254 15.4264 92.6507 15.4264 90.848C15.4264 89.0453 15.8164 87.442 16.5964 86.038C17.3937 84.6167 18.4944 83.516 19.8984 82.736C21.3024 81.9387 22.9057 81.54 24.7084 81.54C26.8924 81.54 28.7297 82.0687 30.2204 83.126C31.7284 84.1833 32.725 85.648 33.2104 87.52H28.2964ZM40.431 85.31V89.002H46.385V92.434H40.431V96.438H47.165V100H35.985V81.748H47.165V85.31H40.431ZM59.3595 100L55.5635 93.11H54.4975V100H50.0515V81.748H57.5135C58.9521 81.748 60.1741 81.9993 61.1795 82.502C62.2021 83.0047 62.9648 83.698 63.4675 84.582C63.9701 85.4487 64.2215 86.4193 64.2215 87.494C64.2215 88.7073 63.8748 89.7907 63.1815 90.744C62.5055 91.6973 61.5001 92.3733 60.1655 92.772L64.3775 100H59.3595ZM54.4975 89.964H57.2535C58.0681 89.964 58.6748 89.7647 59.0735 89.366C59.4895 88.9673 59.6975 88.404 59.6975 87.676C59.6975 86.9827 59.4895 86.4367 59.0735 86.038C58.6748 85.6393 58.0681 85.44 57.2535 85.44H54.4975V89.964ZM87.6824 81.748V100H83.2364V89.054L79.1544 100H75.5664L71.4584 89.028V100H67.0124V81.748H72.2644L77.3864 94.384L82.4564 81.748H87.6824ZM102.242 96.776H95.4296L94.3376 100H89.6836L96.2876 81.748H101.436L108.04 100H103.334L102.242 96.776ZM101.098 93.344L98.8356 86.662L96.5996 93.344H101.098ZM126.378 100H121.932L114.496 88.742V100H110.05V81.748H114.496L121.932 93.058V81.748H126.378V100ZM145.252 81.748L138.934 93.968V100H134.488V93.968L128.17 81.748H133.214L136.75 89.392L140.26 81.748H145.252Z" fill="#252525"/>
<g filter="url(#filter0_b_186_2240)">
<path d="M79.5469 10C77.6446 12.5806 71.1804 17.4323 60.5415 16.1935L61.6615 39.0322C62.0388 42.129 65.4515 50.5677 80.645 58C86.6014 54.5161 98.5163 45.071 98.5249 35.1613L98.5415 16.1935C95.3741 16.9677 87.1409 16.8129 79.5469 10Z" fill="url(#paint0_linear_186_2240)"/>
</g>
<path d="M71.9231 35.3724L77.5994 40.7144L89.4097 27.8047" stroke="white" stroke-width="4.13104" stroke-linecap="round"/>
<defs>
<filter id="filter0_b_186_2240" x="23.5415" y="-27" width="112" height="122" filterUnits="userSpaceOnUse" color-interpolation-filters="sRGB">
<feFlood flood-opacity="0" result="BackgroundImageFix"/>
<feGaussianBlur in="BackgroundImageFix" stdDeviation="18.5"/>
<feComposite in2="SourceAlpha" operator="in" result="effect1_backgroundBlur_186_2240"/>
<feBlend mode="normal" in="SourceGraphic" in2="effect1_backgroundBlur_186_2240" result="shape"/>
</filter>
<linearGradient id="paint0_linear_186_2240" x1="79.5469" y1="10" x2="79.5469" y2="58" gradientUnits="userSpaceOnUse">
<stop stop-color="#DB0011"/>
<stop offset="1" stop-color="#750009"/>
</linearGradient>
</defs>
</svg>
