<svg width="160" height="120" viewBox="0 0 160 120" fill="none" xmlns="http://www.w3.org/2000/svg">
<path d="M14.1958 77.52C13.8664 76.9133 13.3898 76.454 12.7658 76.142C12.1591 75.8127 11.4398 75.648 10.6078 75.648C9.16911 75.648 8.01644 76.1247 7.14977 77.078C6.28311 78.014 5.84977 79.2707 5.84977 80.848C5.84977 82.5293 6.30044 83.8467 7.20177 84.8C8.12044 85.736 9.37711 86.204 10.9718 86.204C12.0638 86.204 12.9824 85.9267 13.7278 85.372C14.4904 84.8173 15.0451 84.02 15.3918 82.98H9.74977V79.704H19.4218V83.838C19.0924 84.9473 18.5291 85.9787 17.7318 86.932C16.9518 87.8853 15.9551 88.6567 14.7418 89.246C13.5284 89.8353 12.1591 90.13 10.6338 90.13C8.83111 90.13 7.21911 89.74 5.79777 88.96C4.39377 88.1627 3.29311 87.062 2.49577 85.658C1.71577 84.254 1.32577 82.6507 1.32577 80.848C1.32577 79.0453 1.71577 77.442 2.49577 76.038C3.29311 74.6167 4.39377 73.516 5.79777 72.736C7.20177 71.9387 8.80511 71.54 10.6078 71.54C12.7918 71.54 14.6291 72.0687 16.1198 73.126C17.6278 74.1833 18.6244 75.648 19.1098 77.52H14.1958ZM35.5605 82.512C35.5605 82.928 35.5345 83.3613 35.4825 83.812H25.4205C25.4898 84.7133 25.7758 85.4067 26.2785 85.892C26.7985 86.36 27.4311 86.594 28.1765 86.594C29.2858 86.594 30.0571 86.126 30.4905 85.19H35.2225C34.9798 86.1433 34.5378 87.0013 33.8965 87.764C33.2725 88.5267 32.4838 89.1247 31.5305 89.558C30.5771 89.9913 29.5111 90.208 28.3325 90.208C26.9111 90.208 25.6458 89.9047 24.5365 89.298C23.4271 88.6913 22.5605 87.8247 21.9365 86.698C21.3125 85.5713 21.0005 84.254 21.0005 82.746C21.0005 81.238 21.3038 79.9207 21.9105 78.794C22.5345 77.6673 23.4011 76.8007 24.5105 76.194C25.6198 75.5873 26.8938 75.284 28.3325 75.284C29.7365 75.284 30.9845 75.5787 32.0765 76.168C33.1685 76.7573 34.0178 77.598 34.6245 78.69C35.2485 79.782 35.5605 81.056 35.5605 82.512ZM31.0105 81.342C31.0105 80.5793 30.7505 79.9727 30.2305 79.522C29.7105 79.0713 29.0605 78.846 28.2805 78.846C27.5351 78.846 26.9025 79.0627 26.3825 79.496C25.8798 79.9293 25.5678 80.5447 25.4465 81.342H31.0105ZM42.3519 77.91C42.8719 77.1127 43.5219 76.4887 44.3019 76.038C45.0819 75.57 45.9486 75.336 46.9019 75.336V80.042H45.6799C44.5706 80.042 43.7386 80.2847 43.1839 80.77C42.6293 81.238 42.3519 82.07 42.3519 83.266V90H37.9059V75.492H42.3519V77.91ZM67.539 75.336C69.3417 75.336 70.7717 75.882 71.829 76.974C72.9037 78.066 73.441 79.5827 73.441 81.524V90H69.021V82.122C69.021 81.186 68.7697 80.4667 68.267 79.964C67.7817 79.444 67.1057 79.184 66.239 79.184C65.3724 79.184 64.6877 79.444 64.185 79.964C63.6997 80.4667 63.457 81.186 63.457 82.122V90H59.037V82.122C59.037 81.186 58.7857 80.4667 58.283 79.964C57.7977 79.444 57.1217 79.184 56.255 79.184C55.3884 79.184 54.7037 79.444 54.201 79.964C53.7157 80.4667 53.473 81.186 53.473 82.122V90H49.027V75.492H53.473V77.312C53.9237 76.7053 54.513 76.2287 55.241 75.882C55.969 75.518 56.7924 75.336 57.711 75.336C58.803 75.336 59.7737 75.57 60.623 76.038C61.4897 76.506 62.1657 77.1733 62.651 78.04C63.1537 77.2427 63.8384 76.5927 64.705 76.09C65.5717 75.5873 66.5164 75.336 67.539 75.336ZM75.6665 82.72C75.6665 81.2293 75.9438 79.9207 76.4985 78.794C77.0705 77.6673 77.8418 76.8007 78.8125 76.194C79.7831 75.5873 80.8665 75.284 82.0625 75.284C83.0851 75.284 83.9778 75.492 84.7405 75.908C85.5205 76.324 86.1185 76.87 86.5345 77.546V75.492H90.9805V90H86.5345V87.946C86.1011 88.622 85.4945 89.168 84.7145 89.584C83.9518 90 83.0591 90.208 82.0365 90.208C80.8578 90.208 79.7831 89.9047 78.8125 89.298C77.8418 88.674 77.0705 87.7987 76.4985 86.672C75.9438 85.528 75.6665 84.2107 75.6665 82.72ZM86.5345 82.746C86.5345 81.6367 86.2225 80.7613 85.5985 80.12C84.9918 79.4787 84.2465 79.158 83.3625 79.158C82.4785 79.158 81.7245 79.4787 81.1005 80.12C80.4938 80.744 80.1905 81.6107 80.1905 82.72C80.1905 83.8293 80.4938 84.7133 81.1005 85.372C81.7245 86.0133 82.4785 86.334 83.3625 86.334C84.2465 86.334 84.9918 86.0133 85.5985 85.372C86.2225 84.7307 86.5345 83.8553 86.5345 82.746ZM103.037 75.336C104.736 75.336 106.088 75.8907 107.093 77C108.116 78.092 108.627 79.6 108.627 81.524V90H104.207V82.122C104.207 81.1513 103.956 80.3973 103.453 79.86C102.95 79.3227 102.274 79.054 101.425 79.054C100.576 79.054 99.8996 79.3227 99.397 79.86C98.8943 80.3973 98.643 81.1513 98.643 82.122V90H94.197V75.492H98.643V77.416C99.0936 76.7747 99.7003 76.272 100.463 75.908C101.226 75.5267 102.084 75.336 103.037 75.336ZM126.536 75.492L117.436 96.89H112.652L115.98 89.506L110.078 75.492H115.044L118.398 84.566L121.726 75.492H126.536Z" fill="#252525"/>
<g filter="url(#filter0_b_531_2048)">
<path d="M63.0469 0C61.1446 2.58064 54.6804 7.43225 44.0415 6.19355L45.1615 29.0322C45.5388 32.129 48.9515 40.5677 64.145 48C70.1014 44.5161 82.0163 35.071 82.0249 25.1613L82.0415 6.19355C78.8741 6.96774 70.6409 6.8129 63.0469 0Z" fill="url(#paint0_linear_531_2048)"/>
</g>
<path d="M55.4231 25.3724L61.0994 30.7144L72.9097 17.8047" stroke="white" stroke-width="4.13104" stroke-linecap="round"/>
<defs>
<filter id="filter0_b_531_2048" x="7.0415" y="-37" width="112" height="122" filterUnits="userSpaceOnUse" color-interpolation-filters="sRGB">
<feFlood flood-opacity="0" result="BackgroundImageFix"/>
<feGaussianBlur in="BackgroundImageFix" stdDeviation="18.5"/>
<feComposite in2="SourceAlpha" operator="in" result="effect1_backgroundBlur_531_2048"/>
<feBlend mode="normal" in="SourceGraphic" in2="effect1_backgroundBlur_531_2048" result="shape"/>
</filter>
<linearGradient id="paint0_linear_531_2048" x1="63.0469" y1="0" x2="63.0469" y2="48" gradientUnits="userSpaceOnUse">
<stop stop-color="#DB0011"/>
<stop offset="1" stop-color="#750009"/>
</linearGradient>
</defs>
</svg>
