<svg width="131" height="100" viewBox="0 0 131 100" fill="none" xmlns="http://www.w3.org/2000/svg">
<path d="M13.7964 77.52C13.467 76.9133 12.9904 76.454 12.3664 76.142C11.7597 75.8127 11.0404 75.648 10.2084 75.648C8.76969 75.648 7.61703 76.1247 6.75036 77.078C5.88369 78.014 5.45036 79.2707 5.45036 80.848C5.45036 82.5293 5.90103 83.8467 6.80236 84.8C7.72103 85.736 8.97769 86.204 10.5724 86.204C11.6644 86.204 12.583 85.9267 13.3284 85.372C14.091 84.8173 14.6457 84.02 14.9924 82.98H9.35036V79.704H19.0224V83.838C18.693 84.9473 18.1297 85.9787 17.3324 86.932C16.5524 87.8853 15.5557 88.6567 14.3424 89.246C13.129 89.8353 11.7597 90.13 10.2344 90.13C8.43169 90.13 6.81969 89.74 5.39836 88.96C3.99436 88.1627 2.89369 87.062 2.09636 85.658C1.31636 84.254 0.926359 82.6507 0.926359 80.848C0.926359 79.0453 1.31636 77.442 2.09636 76.038C2.89369 74.6167 3.99436 73.516 5.39836 72.736C6.80236 71.9387 8.40569 71.54 10.2084 71.54C12.3924 71.54 14.2297 72.0687 15.7204 73.126C17.2284 74.1833 18.225 75.648 18.7104 77.52H13.7964ZM25.931 75.31V79.002H31.885V82.434H25.931V86.438H32.665V90H21.485V71.748H32.665V75.31H25.931ZM44.8595 90L41.0635 83.11H39.9975V90H35.5515V71.748H43.0135C44.4521 71.748 45.6741 71.9993 46.6795 72.502C47.7021 73.0047 48.4648 73.698 48.9675 74.582C49.4701 75.4487 49.7215 76.4193 49.7215 77.494C49.7215 78.7073 49.3748 79.7907 48.6815 80.744C48.0055 81.6973 47.0001 82.3733 45.6655 82.772L49.8775 90H44.8595ZM39.9975 79.964H42.7535C43.5681 79.964 44.1748 79.7647 44.5735 79.366C44.9895 78.9673 45.1975 78.404 45.1975 77.676C45.1975 76.9827 44.9895 76.4367 44.5735 76.038C44.1748 75.6393 43.5681 75.44 42.7535 75.44H39.9975V79.964ZM73.1824 71.748V90H68.7364V79.054L64.6544 90H61.0664L56.9584 79.028V90H52.5124V71.748H57.7644L62.8864 84.384L67.9564 71.748H73.1824ZM87.7416 86.776H80.9296L79.8376 90H75.1836L81.7876 71.748H86.9356L93.5396 90H88.8336L87.7416 86.776ZM86.5976 83.344L84.3356 76.662L82.0996 83.344H86.5976ZM111.878 90H107.432L99.9955 78.742V90H95.5495V71.748H99.9955L107.432 83.058V71.748H111.878V90ZM130.752 71.748L124.434 83.968V90H119.988V83.968L113.67 71.748H118.714L122.25 79.392L125.76 71.748H130.752Z" fill="#252525"/>
<g filter="url(#filter0_b_101_2012)">
<path d="M65.0469 0C63.1446 2.58064 56.6804 7.43225 46.0415 6.19355L47.1615 29.0322C47.5388 32.129 50.9515 40.5677 66.145 48C72.1014 44.5161 84.0163 35.071 84.0249 25.1613L84.0415 6.19355C80.8741 6.96774 72.6409 6.8129 65.0469 0Z" fill="url(#paint0_linear_101_2012)"/>
</g>
<path d="M57.4231 25.3724L63.0994 30.7144L74.9097 17.8047" stroke="white" stroke-width="4.13104" stroke-linecap="round"/>
<defs>
<filter id="filter0_b_101_2012" x="9.0415" y="-37" width="112" height="122" filterUnits="userSpaceOnUse" color-interpolation-filters="sRGB">
<feFlood flood-opacity="0" result="BackgroundImageFix"/>
<feGaussianBlur in="BackgroundImageFix" stdDeviation="18.5"/>
<feComposite in2="SourceAlpha" operator="in" result="effect1_backgroundBlur_101_2012"/>
<feBlend mode="normal" in="SourceGraphic" in2="effect1_backgroundBlur_101_2012" result="shape"/>
</filter>
<linearGradient id="paint0_linear_101_2012" x1="65.0469" y1="0" x2="65.0469" y2="48" gradientUnits="userSpaceOnUse">
<stop stop-color="#DB0011"/>
<stop offset="1" stop-color="#750009"/>
</linearGradient>
</defs>
</svg>
