<svg width="72" height="72" viewBox="0 0 72 72" fill="none" xmlns="http://www.w3.org/2000/svg">
<g filter="url(#filter0_d_111_2092)">
<circle cx="36" cy="36" r="26" fill="white"/>
</g>
<path d="M47.4132 46.9766H35.9297V49.1182H47.8321C48.08 49.1182 48.2299 48.8428 48.0938 48.6357C47.7617 48.1309 47.5317 47.5693 47.4132 46.9766Z" fill="#EF0003"/>
<path d="M29.9064 51.5049C29.9064 51.6632 29.9825 51.8118 30.1109 51.9044C30.2393 51.9969 30.4044 52.0222 30.5546 51.9721L31.9813 51.4965L33.4081 51.9721C33.5583 52.0222 33.7233 51.9969 33.8518 51.9044C33.9802 51.8118 34.0562 51.6632 34.0562 51.5049V46.9766H29.9062V51.5049H29.9064Z" fill="#EF0003"/>
<path d="M30.7969 31.6146H32.1684L31.4826 29.9688L30.7969 31.6146Z" fill="#EF0003"/>
<path d="M49.0536 20H26.9619C24.2302 20 22.0078 22.2224 22.0078 24.9542V46.0417C22.0078 43.3099 24.2302 41.0875 26.962 41.0875H49.0536C49.5714 41.0875 49.9911 40.6677 49.9911 40.15V20.9375C49.9911 20.4197 49.5714 20 49.0536 20ZM34.3517 34.4216C33.8739 34.6207 33.3248 34.3948 33.1257 33.9168L32.9478 33.4896H30.0138L29.8357 33.9168C29.6366 34.3948 29.0876 34.6207 28.6098 34.4216C28.1319 34.2224 27.9059 33.6736 28.105 33.1957L30.6154 27.1707C30.9309 26.4062 32.031 26.4066 32.3462 27.1707L34.8566 33.1957C35.0556 33.6736 34.8296 34.2225 34.3517 34.4216ZM38.5099 31.4812H36.5015C35.2589 31.4351 35.2599 29.6519 36.5015 29.6062H38.5099C39.7524 29.6524 39.7515 31.4356 38.5099 31.4812ZM45.0369 34.4937H41.0203C40.6745 34.4937 40.3568 34.3034 40.1936 33.9986C40.0306 33.6938 40.0484 33.3239 40.2402 33.0363L43.2852 28.4688H41.0203C39.7777 28.4226 39.7786 26.6394 41.0203 26.5938H45.0369C45.3827 26.5938 45.7004 26.7841 45.8636 27.0889C46.0266 27.3937 46.0088 27.7636 45.817 28.0513L42.772 32.6187H45.0369C46.2795 32.6649 46.2786 34.4481 45.0369 34.4937Z" fill="#EF0003"/>
<path d="M47.8344 42.9609H27.0131C22.8935 43.1029 22.8548 48.9469 26.9614 49.1193H28.032V46.9776H26.9614C25.7189 46.9314 25.7198 45.1482 26.9614 45.1026H47.4155C47.534 44.5098 47.764 43.9482 48.096 43.4434C48.2323 43.2364 48.0824 42.9609 47.8344 42.9609Z" fill="#EF0003"/>
<defs>
<filter id="filter0_d_111_2092" x="0" y="0" width="72" height="72" filterUnits="userSpaceOnUse" color-interpolation-filters="sRGB">
<feFlood flood-opacity="0" result="BackgroundImageFix"/>
<feColorMatrix in="SourceAlpha" type="matrix" values="0 0 0 0 0 0 0 0 0 0 0 0 0 0 0 0 0 0 127 0" result="hardAlpha"/>
<feOffset/>
<feGaussianBlur stdDeviation="5"/>
<feComposite in2="hardAlpha" operator="out"/>
<feColorMatrix type="matrix" values="0 0 0 0 0 0 0 0 0 0 0 0 0 0 0 0 0 0 0.1 0"/>
<feBlend mode="normal" in2="BackgroundImageFix" result="effect1_dropShadow_111_2092"/>
<feBlend mode="normal" in="SourceGraphic" in2="effect1_dropShadow_111_2092" result="shape"/>
</filter>
</defs>
</svg>
