<svg width="24" height="24" viewBox="0 0 24 24" fill="none" xmlns="http://www.w3.org/2000/svg">
<path d="M12.0273 0H11.9727C5.36035 0 0 5.36035 0 11.9727V12.0273C0 18.6397 5.36035 24 11.9727 24H12.0273C18.6397 24 24 18.6397 24 12.0273V11.9727C24 5.36035 18.6397 0 12.0273 0Z" fill="url(#paint0_linear_2_30818)"/>
<path d="M15.7134 4.88281H8.28711C6.23547 4.88281 4.56641 6.55187 4.56641 8.60351V15.3975C4.56641 17.4491 6.23547 19.1182 8.28711 19.1182H15.7134C17.765 19.1182 19.4341 17.4491 19.4341 15.3975V8.60351C19.4341 6.55187 17.765 4.88281 15.7134 4.88281ZM5.87895 8.60351C5.87895 7.27583 6.95943 6.19536 8.28711 6.19536H15.7134C17.0411 6.19536 18.1215 7.27583 18.1215 8.60351V15.3975C18.1215 16.7252 17.0411 17.8056 15.7134 17.8056H8.28711C6.95943 17.8056 5.87895 16.7252 5.87895 15.3975V8.60351Z" fill="white"/>
<path d="M12.0009 15.4608C13.9088 15.4608 15.4618 13.9086 15.4618 11.9999C15.4618 10.0912 13.9096 8.53906 12.0009 8.53906C10.0922 8.53906 8.54004 10.0912 8.54004 11.9999C8.54004 13.9086 10.0922 15.4608 12.0009 15.4608ZM12.0009 9.85245C13.1857 9.85245 14.1493 10.816 14.1493 12.0008C14.1493 13.1855 13.1857 14.1491 12.0009 14.1491C10.8162 14.1491 9.85259 13.1855 9.85259 12.0008C9.85259 10.816 10.8162 9.85245 12.0009 9.85245Z" fill="white"/>
<path d="M15.7821 9.09935C16.2958 9.09935 16.7146 8.68146 16.7146 8.16686C16.7146 7.65227 16.2967 7.23438 15.7821 7.23438C15.2675 7.23438 14.8496 7.65227 14.8496 8.16686C14.8496 8.68146 15.2675 9.09935 15.7821 9.09935Z" fill="white"/>
<defs>
<linearGradient id="paint0_linear_2_30818" x1="3.50629" y1="20.4937" x2="20.4937" y2="3.50713" gradientUnits="userSpaceOnUse">
<stop stop-color="#FAAD4F"/>
<stop offset="0.35" stop-color="#DD2A7B"/>
<stop offset="0.62" stop-color="#9537B0"/>
<stop offset="1" stop-color="#515BD4"/>
</linearGradient>
</defs>
</svg>
