<svg width="72" height="72" viewBox="0 0 72 72" fill="none" xmlns="http://www.w3.org/2000/svg">
<g filter="url(#filter0_d_108_2088)">
<circle cx="36" cy="36" r="26" fill="white"/>
</g>
<g clip-path="url(#clip0_108_2088)">
<path d="M45.125 46.625C44.0779 46.625 43.1797 47.2722 42.8081 48.1875H40.625V50.0625H42.8081C43.1797 50.9777 44.0779 51.625 45.125 51.625C46.5035 51.625 47.625 50.5035 47.625 49.125C47.625 47.7465 46.5035 46.625 45.125 46.625Z" fill="#EF0003"/>
<path d="M49.5 41.3125C49.0891 41.3125 48.7014 41.4128 48.359 41.5892L46.0377 39.6548C45.8692 39.5144 45.6568 39.4375 45.4375 39.4375H40.625V41.3125H45.0981L47.1334 43.0086C47.0474 43.2611 47 43.5312 47 43.8125C47 45.191 48.1215 46.3125 49.5 46.3125C50.8785 46.3125 52 45.191 52 43.8125C52 42.434 50.8785 41.3125 49.5 41.3125Z" fill="#EF0003"/>
<path d="M49.5 33.5C48.4529 33.5 47.5547 34.1472 47.1831 35.0625H40.625V36.9375H47.1831C47.5547 37.8527 48.4529 38.5 49.5 38.5C50.8785 38.5 52 37.3785 52 36C52 34.6215 50.8785 33.5 49.5 33.5Z" fill="#EF0003"/>
<path d="M46.0377 32.3452L48.359 30.4108C48.7014 30.5873 49.0891 30.6875 49.5 30.6875C50.8785 30.6875 52 29.566 52 28.1875C52 26.809 50.8785 25.6875 49.5 25.6875C48.1215 25.6875 47 26.809 47 28.1875C47 28.4688 47.0474 28.7389 47.1334 28.9914L45.0981 30.6875H40.625V32.5625H45.4375C45.6568 32.5625 45.8692 32.4856 46.0377 32.3452Z" fill="#EF0003"/>
<path d="M45.125 25.375C46.5035 25.375 47.625 24.2535 47.625 22.875C47.625 21.4965 46.5035 20.375 45.125 20.375C44.0779 20.375 43.1797 21.0222 42.8081 21.9375H40.625V23.8125H42.8081C43.1797 24.7277 44.0779 25.375 45.125 25.375Z" fill="#EF0003"/>
<path d="M29.375 36C29.375 39.6186 32.3189 42.5625 35.9375 42.5625C36.9434 42.5625 37.8971 42.3347 38.75 41.9284V30.0716C37.8971 29.6653 36.9434 29.4375 35.9375 29.4375C32.3189 29.4375 29.375 32.3814 29.375 36Z" fill="#EF0003"/>
<path d="M37.8125 20.0625H34.0625C33.5448 20.0625 33.125 20.4822 33.125 21V22.2203C31.3658 22.5787 29.6823 23.2761 28.1827 24.2677L27.3196 23.4047C26.9535 23.0386 26.3599 23.0386 25.9938 23.4047L23.3422 26.0563C22.9761 26.4224 22.9761 27.016 23.3422 27.3821L24.2052 28.2452C23.2136 29.7448 22.5162 31.4283 22.1578 33.1875H20.9375C20.4197 33.1875 20 33.6073 20 34.125V37.875C20 38.3927 20.4197 38.8125 20.9375 38.8125H22.1578C22.5162 40.5717 23.2136 42.2552 24.2052 43.7548L23.3421 44.6179C23.1663 44.7937 23.0676 45.0322 23.0676 45.2808C23.0676 45.5294 23.1663 45.7678 23.3421 45.9436L25.9938 48.5953C26.3599 48.9614 26.9535 48.9614 27.3196 48.5953L28.1827 47.7323C29.6823 48.7239 31.3658 49.4213 33.125 49.7797V51C33.125 51.5177 33.5448 51.9375 34.0625 51.9375H37.8125C38.3302 51.9375 38.75 51.5177 38.75 51V43.9549C37.8699 44.267 36.9233 44.4375 35.9375 44.4375C31.2851 44.4375 27.5 40.6524 27.5 36C27.5 31.3476 31.2851 27.5625 35.9375 27.5625C36.9233 27.5625 37.8699 27.733 38.75 28.0451V21C38.75 20.4822 38.3302 20.0625 37.8125 20.0625Z" fill="#EF0003"/>
</g>
<defs>
<filter id="filter0_d_108_2088" x="0" y="0" width="72" height="72" filterUnits="userSpaceOnUse" color-interpolation-filters="sRGB">
<feFlood flood-opacity="0" result="BackgroundImageFix"/>
<feColorMatrix in="SourceAlpha" type="matrix" values="0 0 0 0 0 0 0 0 0 0 0 0 0 0 0 0 0 0 127 0" result="hardAlpha"/>
<feOffset/>
<feGaussianBlur stdDeviation="5"/>
<feComposite in2="hardAlpha" operator="out"/>
<feColorMatrix type="matrix" values="0 0 0 0 0 0 0 0 0 0 0 0 0 0 0 0 0 0 0.1 0"/>
<feBlend mode="normal" in2="BackgroundImageFix" result="effect1_dropShadow_108_2088"/>
<feBlend mode="normal" in="SourceGraphic" in2="effect1_dropShadow_108_2088" result="shape"/>
</filter>
<clipPath id="clip0_108_2088">
<rect width="32" height="32" fill="white" transform="translate(20 20)"/>
</clipPath>
</defs>
</svg>
