<svg width="72" height="72" viewBox="0 0 72 72" fill="none" xmlns="http://www.w3.org/2000/svg">
<g filter="url(#filter0_d_111_2090)">
<circle cx="36" cy="36" r="26" fill="white"/>
</g>
<path d="M28.6124 35.5156H28.5093C27.3586 35.5156 26.4258 36.4484 26.4258 37.5991V47.4188C26.4258 48.5694 27.3586 49.5022 28.5093 49.5022H28.6124C29.763 49.5022 30.6958 48.5694 30.6958 47.4188V37.5991C30.6958 36.4484 29.763 35.5156 28.6124 35.5156Z" fill="#EF0003"/>
<path d="M42.874 35.5156H42.7709C41.6203 35.5156 40.6875 36.4484 40.6875 37.5991V47.4188C40.6875 48.5694 41.6203 49.5022 42.7709 49.5022H42.874C44.0247 49.5022 44.9575 48.5694 44.9575 47.4188V37.5991C44.9575 36.4484 44.0247 35.5156 42.874 35.5156Z" fill="#EF0003"/>
<path d="M49.212 41.9625V36.6321C49.212 33.1142 47.8271 29.9155 45.5774 27.5455C45.8701 27.0438 45.7773 26.3894 45.3244 25.9925C40.0068 21.3353 31.9907 21.3364 26.6767 25.9925C26.2239 26.3893 26.131 27.0433 26.4239 27.5451C24.1741 29.9152 22.7892 33.1139 22.7892 36.6321V41.8709C22.7551 42.0771 22.7344 42.2879 22.7344 42.5037C22.7344 44.3392 24.0083 45.8667 25.717 46.2652V38.7483C24.7479 38.9743 23.9292 39.5712 23.393 40.3726V36.6321C23.393 33.2805 24.7159 30.2383 26.8563 27.9779C27.3048 28.2482 27.8917 28.2176 28.3081 27.8535C32.6209 24.0747 39.3791 24.0747 43.6931 27.8535C43.9281 28.0595 44.2188 28.1604 44.5082 28.1604C44.7305 28.1604 44.9494 28.0946 45.1443 27.9774C47.285 30.2379 48.6082 33.2803 48.6082 36.6321V40.4213C47.945 39.435 46.8402 38.77 45.5758 38.7047V46.44C47.6282 46.3342 49.2642 44.6513 49.2642 42.5724C49.2642 42.3642 49.2435 42.1615 49.212 41.9625Z" fill="#EF0003"/>
<path d="M33.837 38.7656C33.6702 38.7656 33.5352 38.9006 33.5352 39.0675V44.7615C33.5352 44.9284 33.6702 45.0634 33.837 45.0634C34.0039 45.0634 34.1389 44.9284 34.1389 44.7615V39.0675C34.1389 38.9006 34.0039 38.7656 33.837 38.7656Z" fill="#EF0003"/>
<path d="M35.7003 36.8984C35.5335 36.8984 35.3984 37.0335 35.3984 37.2003V46.626C35.3984 46.7929 35.5335 46.9279 35.7003 46.9279C35.8672 46.9279 36.0022 46.7929 36.0022 46.626V37.2003C36.0022 37.0335 35.8672 36.8984 35.7003 36.8984Z" fill="#EF0003"/>
<path d="M37.5597 38.7656C37.3928 38.7656 37.2578 38.9006 37.2578 39.0675V44.7615C37.2578 44.9284 37.3928 45.0634 37.5597 45.0634C37.7266 45.0634 37.8616 44.9284 37.8616 44.7615V39.0675C37.8616 38.9006 37.7266 38.7656 37.5597 38.7656Z" fill="#EF0003"/>
<path d="M31.9738 39.7264C31.8069 39.7264 31.6719 39.8614 31.6719 40.0283V43.7936C31.6719 43.9605 31.8069 44.0955 31.9738 44.0955C32.1406 44.0955 32.2756 43.9605 32.2756 43.7936V40.0283C32.2756 39.8614 32.1406 39.7264 31.9738 39.7264Z" fill="#EF0003"/>
<path d="M39.4191 39.7266C39.2522 39.7266 39.1172 39.8616 39.1172 40.0284V43.7938C39.1172 43.9606 39.2522 44.0957 39.4191 44.0957C39.5859 44.0957 39.721 43.9606 39.721 43.7938V40.0284C39.721 39.8616 39.5859 39.7266 39.4191 39.7266Z" fill="#EF0003"/>
<defs>
<filter id="filter0_d_111_2090" x="0" y="0" width="72" height="72" filterUnits="userSpaceOnUse" color-interpolation-filters="sRGB">
<feFlood flood-opacity="0" result="BackgroundImageFix"/>
<feColorMatrix in="SourceAlpha" type="matrix" values="0 0 0 0 0 0 0 0 0 0 0 0 0 0 0 0 0 0 127 0" result="hardAlpha"/>
<feOffset/>
<feGaussianBlur stdDeviation="5"/>
<feComposite in2="hardAlpha" operator="out"/>
<feColorMatrix type="matrix" values="0 0 0 0 0 0 0 0 0 0 0 0 0 0 0 0 0 0 0.1 0"/>
<feBlend mode="normal" in2="BackgroundImageFix" result="effect1_dropShadow_111_2090"/>
<feBlend mode="normal" in="SourceGraphic" in2="effect1_dropShadow_111_2090" result="shape"/>
</filter>
</defs>
</svg>
