<svg width="72" height="72" viewBox="0 0 72 72" fill="none" xmlns="http://www.w3.org/2000/svg">
<g filter="url(#filter0_d_104_2084)">
<circle cx="36" cy="36" r="26" fill="white"/>
</g>
<path fill-rule="evenodd" clip-rule="evenodd" d="M44.6006 44.6797H40.5137C40.2132 44.6797 39.9688 44.9242 39.9688 45.2246C39.9688 45.525 40.2132 45.7695 40.5137 45.7695H44.6006C44.901 45.7695 45.1455 45.525 45.1455 45.2246C45.1455 44.9242 44.901 44.6797 44.6006 44.6797Z" fill="#EF0003"/>
<path fill-rule="evenodd" clip-rule="evenodd" d="M29.4785 25.0625C26.4738 25.0625 24.0293 27.507 24.0293 30.5117C24.0293 33.5165 26.4738 35.961 29.4785 35.961C32.4832 35.961 34.9278 33.5165 34.9278 30.5117C34.9278 27.5071 32.4832 25.0625 29.4785 25.0625ZM31.0666 34.1722C30.8607 34.3781 30.5872 34.4914 30.2964 34.4914C30.296 34.4914 30.2956 34.4914 30.2952 34.4914C30.0046 34.4914 29.7311 34.3781 29.5253 34.1722L26.0575 30.7044C25.9511 30.598 25.9511 30.4255 26.0575 30.3191L29.5253 26.8512C29.9502 26.4263 30.6417 26.4263 31.0666 26.8512C31.2725 27.0572 31.3859 27.331 31.3858 27.622C31.386 27.9128 31.2726 28.1865 31.0666 28.3925L28.9473 30.5117L31.0666 32.631C31.2724 32.8369 31.3858 33.1106 31.3858 33.4016C31.3858 33.6927 31.2724 33.9664 31.0666 34.1722Z" fill="#EF0003"/>
<path fill-rule="evenodd" clip-rule="evenodd" d="M28.3687 30.7054C28.2623 30.599 28.2623 30.4265 28.3687 30.3201L30.6806 28.0082C30.7836 27.9052 30.8403 27.7684 30.8402 27.623C30.8402 27.4772 30.7836 27.3405 30.6806 27.2375C30.4681 27.025 30.1224 27.025 29.91 27.2375L26.6348 30.5127L29.91 33.7879C30.0128 33.8908 30.1496 33.9474 30.2948 33.9474H30.2951H30.2954C30.4411 33.9474 30.5777 33.8908 30.6806 33.7879C30.7835 33.685 30.8402 33.5481 30.8402 33.4026C30.8402 33.257 30.7836 33.1202 30.6806 33.0173L28.3687 30.7054Z" fill="#EF0003"/>
<path fill-rule="evenodd" clip-rule="evenodd" d="M28.6934 45.7696H31.522C31.8225 45.7696 32.067 45.5251 32.067 45.2247C32.067 44.9242 31.8225 44.6797 31.522 44.6797H29.2383L28.6934 45.7696Z" fill="#EF0003"/>
<path fill-rule="evenodd" clip-rule="evenodd" d="M27.4355 41.4062C27.135 41.4062 26.8906 41.6507 26.8906 41.9512C26.8906 42.2516 27.135 42.4961 27.4355 42.4961H29.7193L30.2642 41.4062H27.4355Z" fill="#EF0003"/>
<path fill-rule="evenodd" clip-rule="evenodd" d="M29.4785 38.1406C26.4738 38.1406 24.0293 40.5852 24.0293 43.5899C24.0293 46.5945 26.4738 49.0391 29.4785 49.0391C32.4833 49.0391 34.9278 46.5945 34.9278 43.5899C34.9278 40.5852 32.4832 38.1406 29.4785 38.1406ZM31.522 44.1348C32.123 44.1348 32.6118 44.6237 32.6118 45.2246C32.6118 45.8255 32.1229 46.3144 31.522 46.3144H28.4208L27.8832 47.3899C27.8354 47.4853 27.7392 47.5406 27.6392 47.5406C27.5983 47.5406 27.5567 47.5313 27.5176 47.5117C27.3831 47.4445 27.3285 47.2808 27.3958 47.1462L27.8117 46.3145H27.4352C26.8342 46.3145 26.3453 45.8256 26.3453 45.2247C26.3453 44.6237 26.8342 44.1348 27.4352 44.1348H28.9016L29.4465 43.045H27.4352C26.8342 43.045 26.3453 42.5561 26.3453 41.9552C26.3453 41.3542 26.8342 40.8653 27.4352 40.8653H30.5363L31.074 39.7899C31.1414 39.6552 31.305 39.6007 31.4396 39.668C31.5741 39.7353 31.6287 39.899 31.5614 40.0336L31.1455 40.8653H31.522C32.123 40.8653 32.6119 41.3542 32.6119 41.9552C32.6119 42.5562 32.123 43.045 31.522 43.045H30.0556L29.5107 44.1349H31.522V44.1348Z" fill="#EF0003"/>
<path fill-rule="evenodd" clip-rule="evenodd" d="M44.6006 41.4062H40.5137C40.2132 41.4062 39.9688 41.6507 39.9688 41.9512C39.9688 42.2516 40.2132 42.4961 40.5137 42.4961H44.6006C44.901 42.4961 45.1455 42.2516 45.1455 41.9512C45.1455 41.6507 44.901 41.4062 44.6006 41.4062Z" fill="#EF0003"/>
<path fill-rule="evenodd" clip-rule="evenodd" d="M42.5567 25.0625C39.552 25.0625 37.1074 27.507 37.1074 30.5117C37.1074 33.5164 39.552 35.961 42.5567 35.961C45.5613 35.961 48.0059 33.5165 48.0059 30.5118C48.0059 27.5071 45.5613 25.0625 42.5567 25.0625ZM45.9778 30.7044L42.51 34.1722C42.2975 34.3847 42.0184 34.4909 41.7393 34.4909C41.4602 34.4909 41.1811 34.3847 40.9686 34.1722C40.7626 33.9662 40.6493 33.6925 40.6495 33.4014C40.6493 33.1106 40.7626 32.8369 40.9686 32.631L43.0879 30.5117L40.9686 28.3925C40.5436 27.9675 40.5436 27.2762 40.9686 26.8512C41.1745 26.6453 41.448 26.532 41.7388 26.532H41.7401C42.0306 26.532 42.3041 26.6453 42.51 26.8512L45.9778 30.319C46.0842 30.4254 46.0842 30.598 45.9778 30.7044Z" fill="#EF0003"/>
<path fill-rule="evenodd" clip-rule="evenodd" d="M41.7407 27.0781C41.7405 27.0781 41.7402 27.0781 41.74 27.0781C41.5945 27.0781 41.4578 27.1348 41.3549 27.2377C41.1424 27.4502 41.1424 27.7959 41.3549 28.0083L43.6668 30.3203C43.7732 30.4267 43.7732 30.5992 43.6668 30.7056L41.3549 33.0175C41.2519 33.1205 41.1952 33.2572 41.1953 33.4027C41.1952 33.5484 41.2519 33.6851 41.3549 33.7882C41.5673 34.0006 41.913 34.0007 42.1255 33.7882L45.4006 30.513L42.1255 27.2378C42.0226 27.1348 41.886 27.0781 41.7407 27.0781Z" fill="#EF0003"/>
<path fill-rule="evenodd" clip-rule="evenodd" d="M32.0669 41.9512C32.0669 41.6507 31.8225 41.4062 31.522 41.4062H30.873L30.3281 42.4961H31.522C31.8225 42.4961 32.0669 42.2516 32.0669 41.9512Z" fill="#EF0003"/>
<path fill-rule="evenodd" clip-rule="evenodd" d="M26.8906 45.2247C26.8906 45.5252 27.135 45.7696 27.4355 45.7696H28.0845L28.6294 44.6797H27.4355C27.135 44.6797 26.8906 44.9242 26.8906 45.2247Z" fill="#EF0003"/>
<path fill-rule="evenodd" clip-rule="evenodd" d="M42.5567 38.1406C39.552 38.1406 37.1074 40.5852 37.1074 43.5899C37.1074 46.5945 39.5519 49.0391 42.5567 49.0391C45.5613 49.0391 48.0059 46.5945 48.0059 43.5899C48.0059 40.5852 45.5613 38.1406 42.5567 38.1406ZM44.6001 46.3145H40.5132C39.9122 46.3145 39.4234 45.8256 39.4234 45.2247C39.4234 44.6237 39.9123 44.1348 40.5132 44.1348H44.6001C45.2011 44.1348 45.6899 44.6237 45.6899 45.2247C45.6899 45.8257 45.2011 46.3145 44.6001 46.3145ZM44.6001 43.0449H40.5132C39.9122 43.0449 39.4234 42.556 39.4234 41.9551C39.4234 41.3542 39.9123 40.8652 40.5132 40.8652H44.6001C45.2011 40.8652 45.6899 41.3542 45.6899 41.9551C45.69 42.556 45.2011 43.0449 44.6001 43.0449Z" fill="#EF0003"/>
<defs>
<filter id="filter0_d_104_2084" x="0" y="0" width="72" height="72" filterUnits="userSpaceOnUse" color-interpolation-filters="sRGB">
<feFlood flood-opacity="0" result="BackgroundImageFix"/>
<feColorMatrix in="SourceAlpha" type="matrix" values="0 0 0 0 0 0 0 0 0 0 0 0 0 0 0 0 0 0 127 0" result="hardAlpha"/>
<feOffset/>
<feGaussianBlur stdDeviation="5"/>
<feComposite in2="hardAlpha" operator="out"/>
<feColorMatrix type="matrix" values="0 0 0 0 0 0 0 0 0 0 0 0 0 0 0 0 0 0 0.1 0"/>
<feBlend mode="normal" in2="BackgroundImageFix" result="effect1_dropShadow_104_2084"/>
<feBlend mode="normal" in="SourceGraphic" in2="effect1_dropShadow_104_2084" result="shape"/>
</filter>
</defs>
</svg>
