<svg width="162" height="162" viewBox="0 0 162 162" fill="none" xmlns="http://www.w3.org/2000/svg">
<path d="M162 81C162 125.735 125.735 162 81 162C36.2649 162 0 125.735 0 81C0 36.2649 36.2649 0 81 0C125.735 0 162 36.2649 162 81Z" fill="white"/>
<path d="M41.379 43.9634C41.3001 43.6798 41.2066 43.314 41.0946 42.8653C40.9826 42.4149 40.9093 42.0926 40.8746 41.8984C40.8432 42.0789 40.7796 42.3762 40.6869 42.7903C40.5927 43.2045 40.3848 44.0198 40.0625 45.2381H41.7142L41.379 43.9634Z" fill="#41569F"/>
<path d="M75.3477 42.2344H74.9336V44.0093H75.326C76.0583 44.0093 76.4249 43.6854 76.4249 43.0369C76.4257 42.5027 76.0656 42.2344 75.3477 42.2344Z" fill="#41569F"/>
<path d="M60.8953 43.8625C61.0806 43.6852 61.1749 43.4411 61.1749 43.1301C61.1749 42.6064 60.8841 42.3438 60.304 42.3438H59.7617V44.1284H60.1444C60.4586 44.1284 60.71 44.0405 60.8953 43.8625Z" fill="#41569F"/>
<path d="M67.8525 42.25C66.801 42.25 66.2773 43.0082 66.2773 44.5237C66.2773 46.0239 66.7978 46.7748 67.8428 46.7748C68.3738 46.7748 68.7661 46.5919 69.0248 46.2277C69.281 45.8627 69.4107 45.2947 69.4107 44.5237C69.4107 43.7478 69.281 43.1749 69.0207 42.8051C68.7605 42.4353 68.3705 42.25 67.8525 42.25Z" fill="#41569F"/>
<path d="M33.7219 42.3438H33.1797V44.1284H33.5624C33.8774 44.1284 34.128 44.0405 34.3141 43.8625C34.4994 43.6852 34.5929 43.4411 34.5929 43.1301C34.5921 42.6056 34.3012 42.3438 33.7219 42.3438Z" fill="#41569F"/>
<path d="M93.2729 27C93.1513 27 93.0264 27.0056 92.9426 27.0137L28.9436 31.0962C26.8899 31.2831 25.2817 32.9348 25.2817 34.8547V35.2342C25.2116 35.4405 25.1641 35.658 25.1641 35.8893V124.968C25.1641 126.091 26.0745 127 27.1968 127H89.2106C90.3337 127 91.2434 126.09 91.2434 124.968V122.391L93.1762 122.25C95.23 122.065 96.8381 120.413 96.8381 118.493V30.3622C96.8398 28.4768 95.2743 27 93.2729 27ZM33.1808 48.4146H31.0827V40.6509H33.7697C34.7511 40.6509 35.4867 40.8653 35.9789 41.2939C36.4712 41.7217 36.7162 42.3308 36.7162 43.1204C36.7162 43.9881 36.4616 44.6577 35.9499 45.1306C35.4375 45.6036 34.7116 45.8396 33.7697 45.8396H33.1808V48.4146ZM49.3028 57.4868C50.235 57.125 50.6918 57.6383 50.3542 58.5801C49.3519 61.3783 48.5793 64.6825 48.0435 68.2268C47.8944 69.2137 46.992 70.1169 46.0034 70.266C42.4616 70.801 39.1574 71.5744 36.3576 72.5775C35.4174 72.9135 34.9033 72.4583 35.2643 71.5261C37.7595 65.0998 42.8781 59.9821 49.3028 57.4868ZM36.9305 48.4146L39.4644 40.6187H42.2634L44.8287 48.4146H42.5341L42.1514 46.9596H39.6288L39.2364 48.4146H36.9305ZM48.373 45.9597C48.3142 45.8799 48.2215 45.8002 48.0902 45.718C47.9613 45.6358 47.6173 45.4698 47.0581 45.2192C46.5521 44.9888 46.1726 44.7656 45.9196 44.5497C45.6667 44.3338 45.4789 44.0864 45.3573 43.8061C45.2348 43.5257 45.1728 43.1953 45.1728 42.8134C45.1728 42.098 45.433 41.5404 45.9535 41.1408C46.474 40.7412 47.1894 40.5406 48.0991 40.5406C48.9031 40.5406 49.7225 40.7259 50.5581 41.0981L49.9159 42.7176C49.19 42.3856 48.5631 42.2188 48.0354 42.2188C47.7631 42.2188 47.5649 42.2672 47.4408 42.3622C47.3167 42.4581 47.2555 42.5766 47.2555 42.7176C47.2555 42.8698 47.3345 43.006 47.4916 43.1269C47.6495 43.2469 48.0773 43.4669 48.775 43.7859C49.4438 44.0864 49.9087 44.4087 50.1681 44.7544C50.4283 45.0992 50.5581 45.5343 50.5581 46.058C50.5581 46.5398 50.4364 46.9676 50.1915 47.3407C49.9473 47.7145 49.5952 48.0037 49.1352 48.2116C48.6743 48.4187 48.1345 48.5218 47.5149 48.5218C46.9969 48.5218 46.5642 48.4855 46.2129 48.413C45.8632 48.3405 45.4983 48.214 45.1204 48.0327V46.1635C45.5208 46.3698 45.9366 46.5301 46.3684 46.6453C46.8003 46.7605 47.1967 46.8178 47.5584 46.8178C47.8702 46.8178 48.0983 46.7638 48.2441 46.6558C48.3891 46.5478 48.4616 46.4093 48.4616 46.2385C48.4608 46.1321 48.431 46.0386 48.373 45.9597ZM54.4649 45.9597C54.4069 45.8799 54.3134 45.8002 54.1837 45.718C54.054 45.6358 53.7099 45.4698 53.1508 45.2192C52.644 44.9888 52.2645 44.7656 52.0115 44.5497C51.7593 44.333 51.5708 44.0864 51.4492 43.8061C51.3275 43.5257 51.2646 43.1953 51.2646 42.8134C51.2646 42.098 51.5257 41.5404 52.047 41.1408C52.5675 40.7412 53.2813 40.5406 54.1917 40.5406C54.995 40.5406 55.8152 40.7259 56.6499 41.0981L56.0078 42.7176C55.2827 42.3856 54.6558 42.2188 54.1289 42.2188C53.855 42.2188 53.6568 42.2672 53.5343 42.3622C53.4102 42.4581 53.3474 42.5766 53.3474 42.7176C53.3474 42.8698 53.4271 43.006 53.5843 43.1269C53.7414 43.2477 54.17 43.4669 54.8669 43.7859C55.5357 44.0864 56.0005 44.4087 56.26 44.7544C56.5202 45.0992 56.6499 45.5343 56.6499 46.058C56.6499 46.5398 56.5283 46.9676 56.2841 47.3407C56.0392 47.7145 55.6871 48.0037 55.2271 48.2116C54.767 48.4187 54.228 48.5218 53.6068 48.5218C53.0904 48.5218 52.6569 48.4855 52.3064 48.413C51.9559 48.3405 51.5918 48.214 51.2131 48.0327V46.1635C51.6127 46.3698 52.0293 46.5301 52.4611 46.6453C52.8922 46.7605 53.2886 46.8178 53.6503 46.8178C53.9629 46.8178 54.1909 46.7638 54.336 46.6558C54.481 46.5478 54.5543 46.4093 54.5543 46.2385C54.5535 46.1321 54.5237 46.0386 54.4649 45.9597ZM53.6286 57.7422C54.0274 56.8277 55.219 55.9858 56.2141 55.9052C56.8715 55.8528 57.5362 55.8255 58.2073 55.8255C58.8761 55.8255 59.5416 55.852 60.1982 55.9052C61.1949 55.9866 62.3865 56.8269 62.7845 57.7422C63.9117 60.3341 64.8946 63.8131 65.5714 67.9295C65.7318 68.9156 65.0332 69.6448 64.0374 69.5755C62.1037 69.4426 60.1491 69.3741 58.2082 69.3741C56.2672 69.3741 54.311 69.4426 52.3765 69.5755C51.3799 69.6448 50.6813 68.9156 50.8441 67.9295C51.5184 63.8123 52.499 60.3333 53.6286 57.7422ZM57.6651 48.4146V40.6509H60.3529C61.3335 40.6509 62.0691 40.8653 62.5613 41.2939C63.0536 41.7217 63.2994 42.3308 63.2994 43.1204C63.2994 43.9881 63.0448 44.6577 62.5331 45.1306C62.0207 45.6036 61.294 45.8396 60.3529 45.8396H59.7631V48.4146H57.6651ZM79.489 48.4146H77.1098L75.4638 45.5899H74.9336V48.4146H72.8356V40.6509H75.3792C77.4893 40.6509 78.544 41.4147 78.544 42.9448C78.544 43.8447 78.1057 44.54 77.2275 45.0331L79.489 48.4146ZM81.1448 71.5261C81.5081 72.4567 80.9933 72.9143 80.053 72.5775C77.2532 71.5752 73.9499 70.8018 70.4064 70.2668C69.4178 70.1169 68.5162 69.2137 68.3672 68.2276C67.8314 64.6841 67.0587 61.3791 66.0548 58.5809C65.7197 57.6399 66.1749 57.125 67.1071 57.4876C73.5325 59.9821 78.6495 65.0998 81.1448 71.5261ZM70.657 47.5026C70.0157 48.1826 69.077 48.5218 67.8427 48.5218C66.6245 48.5218 65.6899 48.1802 65.0405 47.4978C64.3911 46.8137 64.0664 45.8195 64.0664 44.5135C64.0664 43.2211 64.3879 42.2341 65.0348 41.5525C65.6818 40.8701 66.6212 40.5301 67.8515 40.5301C69.0867 40.5301 70.0229 40.8685 70.6602 41.5445C71.2975 42.2204 71.6174 43.2131 71.6174 44.5239C71.6174 45.83 71.2975 46.8226 70.657 47.5026ZM52.0502 72.3157C54.0169 72.1674 56.0739 72.0877 58.2049 72.0877C60.3376 72.0877 62.3937 72.1682 64.3605 72.3157C65.3563 72.3906 66.2442 73.2769 66.3183 74.2719C66.4682 76.2402 66.5463 78.2956 66.5463 80.4274C66.5463 82.5601 66.4674 84.6147 66.3183 86.583C66.2442 87.578 65.3579 88.4659 64.3605 88.5416C62.3954 88.6899 60.3368 88.7688 58.2049 88.7688C56.0731 88.7688 54.0169 88.6875 52.0502 88.5416C51.0544 88.4667 50.1681 87.5804 50.0924 86.583C49.9441 84.6171 49.8643 82.5593 49.8643 80.4274C49.8643 78.2956 49.9449 76.2394 50.0924 74.2719C50.1673 73.2769 51.0536 72.3898 52.0502 72.3157ZM65.569 92.9254C64.8922 97.0417 63.9109 100.52 62.7821 103.112C62.3841 104.028 61.1917 104.87 60.1958 104.95C59.54 105.001 58.8745 105.03 58.2049 105.03C57.5338 105.03 56.8699 105.004 56.2124 104.95C55.2166 104.869 54.025 104.029 53.6261 103.112C52.499 100.52 51.5168 97.0425 50.84 92.9254C50.6781 91.9401 51.3774 91.2101 52.3733 91.2794C54.3086 91.4123 56.2624 91.4816 58.2025 91.4816C60.1442 91.4816 62.1005 91.4123 64.0342 91.2794C65.0308 91.2101 65.7309 91.9409 65.569 92.9254ZM33.6827 82.4183C33.6311 81.7625 33.6029 81.0962 33.6029 80.4258C33.6029 79.7571 33.6303 79.0916 33.6827 78.435C33.7633 77.4375 34.6044 76.2451 35.5205 75.847C38.1116 74.7191 41.5914 73.7377 45.7069 73.0609C46.6931 72.8998 47.4223 73.5983 47.353 74.5942C47.2208 76.5287 47.1516 78.4849 47.1516 80.4234C47.1516 82.3635 47.2208 84.3198 47.353 86.2534C47.4223 87.2501 46.6931 87.9494 45.7069 87.7875C41.5906 87.1107 38.1116 86.1302 35.5205 85.0022C34.6044 84.6058 33.7625 83.415 33.6827 82.4183ZM36.3576 88.2774C39.1574 89.2796 42.4608 90.0523 46.0042 90.5889C46.9936 90.7372 47.8952 91.6403 48.0435 92.6281C48.5784 96.1716 49.3519 99.4758 50.3542 102.275C50.691 103.216 50.2358 103.729 49.3028 103.367C42.8773 100.872 37.7595 95.755 35.2635 89.328C34.9025 88.3966 35.4174 87.9406 36.3576 88.2774ZM76.9003 120.732L39.5079 120.738V115.901H76.9003V120.732ZM81.1464 89.328C78.6511 95.755 73.5341 100.872 67.1063 103.368C66.1749 103.73 65.7181 103.216 66.0548 102.275C67.0571 99.4766 67.8298 96.1708 68.3656 92.6289C68.5163 91.6395 69.4178 90.7363 70.4056 90.5889C73.9483 90.0539 77.2524 89.2813 80.0522 88.279C80.9933 87.9422 81.5081 88.3966 81.1464 89.328ZM82.7272 82.4199C82.6458 83.4142 81.8054 84.609 80.8894 85.0078C78.2974 86.135 74.8184 87.1172 70.7029 87.7939C69.7159 87.9559 68.9876 87.2573 69.0569 86.2599C69.189 84.3262 69.2583 82.3684 69.2583 80.4299C69.2583 78.4889 69.189 76.5327 69.0569 74.599C68.9876 73.6024 69.7159 72.903 70.7029 73.065C74.8168 73.7418 78.2974 74.7223 80.8894 75.8511C81.8046 76.2499 82.6474 77.4415 82.7272 78.4374C82.7779 79.0932 82.8069 79.7595 82.8069 80.4299C82.8069 81.1002 82.7811 81.7625 82.7272 82.4199ZM85.3263 42.3671H83.4354V48.4155H81.3373V42.3671H79.4407V40.6517H85.3255V42.3671H85.3263ZM93.7902 118.491C93.7902 118.788 93.4018 119.168 92.9297 119.212L91.2442 119.333V35.8893C91.2442 34.7653 90.3337 33.8565 89.2122 33.8565H33.5925L93.1352 30.0592L93.2721 30.0504C93.5235 30.0504 93.7902 30.1599 93.7902 30.363V118.491Z" fill="#41569F"/>
</svg>
