<svg width="162" height="162" viewBox="0 0 162 162" fill="none" xmlns="http://www.w3.org/2000/svg">
<path d="M162 81C162 125.735 125.735 162 81 162C36.2649 162 0 125.735 0 81C0 36.2649 36.2649 0 81 0C125.735 0 162 36.2649 162 81Z" fill="white"/>
<path d="M41.379 43.9634C41.3001 43.6798 41.2066 43.314 41.0946 42.8653C40.9826 42.4149 40.9093 42.0926 40.8746 41.8984C40.8432 42.0789 40.7796 42.3762 40.6869 42.7903C40.5927 43.2045 40.3848 44.0198 40.0625 45.2381H41.7142L41.379 43.9634Z" fill="#41569F"/>
<path d="M75.3477 42.2344H74.9336V44.0093H75.326C76.0583 44.0093 76.4249 43.6854 76.4249 43.0369C76.4257 42.5027 76.0656 42.2344 75.3477 42.2344Z" fill="#41569F"/>
<path d="M60.8953 43.8625C61.0806 43.6852 61.1749 43.4411 61.1749 43.1301C61.1749 42.6064 60.8841 42.3438 60.304 42.3438H59.7617V44.1284H60.1444C60.4586 44.1284 60.71 44.0405 60.8953 43.8625Z" fill="#41569F"/>
<path d="M67.8525 42.25C66.801 42.25 66.2773 43.0082 66.2773 44.5237C66.2773 46.0239 66.7978 46.7748 67.8428 46.7748C68.3738 46.7748 68.7661 46.5919 69.0248 46.2277C69.281 45.8627 69.4107 45.2947 69.4107 44.5237C69.4107 43.7478 69.281 43.1749 69.0207 42.8051C68.7605 42.4353 68.3705 42.25 67.8525 42.25Z" fill="#41569F"/>
<path d="M33.7219 42.3438H33.1797V44.1284H33.5624C33.8774 44.1284 34.128 44.0405 34.3141 43.8625C34.4994 43.6852 34.5929 43.4411 34.5929 43.1301C34.5921 42.6056 34.3012 42.3438 33.7219 42.3438Z" fill="#41569F"/>
<path d="M93.2729 27C93.1513 27 93.0264 27.0056 92.9426 27.0137L28.9436 31.0962C26.8899 31.2831 25.2817 32.9348 25.2817 34.8547V35.2342C25.2116 35.4405 25.1641 35.658 25.1641 35.8893V124.968C25.1641 126.091 26.0745 127 27.1968 127H89.2106C90.3337 127 91.2434 126.09 91.2434 124.968V122.391L93.1762 122.25C95.23 122.065 96.8381 120.413 96.8381 118.493V30.3622C96.8398 28.4768 95.2743 27 93.2729 27ZM33.1808 48.4146H31.0827V40.6509H33.7697C34.7511 40.6509 35.4867 40.8653 35.9789 41.2939C36.4712 41.7217 36.7162 42.3308 36.7162 43.1204C36.7162 43.9881 36.4616 44.6577 35.9499 45.1306C35.4375 45.6036 34.7116 45.8396 33.7697 45.8396H33.1808V48.4146ZM49.3028 57.4868C50.235 57.125 50.6918 57.6383 50.3542 58.5801C49.3519 61.3783 48.5793 64.6825 48.0435 68.2268C47.8944 69.2137 46.992 70.1169 46.0034 70.266C42.4616 70.801 39.1574 71.5744 36.3576 72.5775C35.4174 72.9135 34.9033 72.4583 35.2643 71.5261C37.7595 65.0998 42.8781 59.9821 49.3028 57.4868ZM36.9305 48.4146L39.4644 40.6187H42.2634L44.8287 48.4146H42.5341L42.1514 46.9596H39.6288L39.2364 48.4146H36.9305ZM48.373 45.9597C48.3142 45.8799 48.2215 45.8002 48.0902 45.718C47.9613 45.6358 47.6173 45.4698 47.0581 45.2192C46.5521 44.9888 46.1726 44.7656 45.9196 44.5497C45.6667 44.3338 45.4789 44.0864 45.3573 43.8061C45.2348 43.5257 45.1728 43.1953 45.1728 42.8134C45.1728 42.098 45.433 41.5404 45.9535 41.1408C46.474 40.7412 47.1894 40.5406 48.0991 40.5406C48.9031 40.5406 49.7225 40.7259 50.5581 41.0981L49.9159 42.7176C49.19 42.3856 48.5631 42.2188 48.0354 42.2188C47.7631 42.2188 47.5649 42.2672 47.4408 42.3622C47.3167 42.4581 47.2555 42.5766 47.2555 42.7176C47.2555 42.8698 47.3345 43.006 47.4916 43.1269C47.6495 43.2469 48.0773 43.4669 48.775 43.7859C49.4438 44.0864 49.9087 44.4087 50.1681 44.7544C50.4283 45.0992 50.5581 45.5343 50.5581 46.058C50.5581 46.5398 50.4364 46.9676 50.1915 47.3407C49.9473 47.7145 49.5952 48.0037 49.1352 48.2116C48.6743 48.4187 48.1345 48.5218 47.5149 48.5218C46.9969 48.5218 46.5642 48.4855 46.2129 48.413C45.8632 48.3405 45.4983 48.214 45.1204 48.0327V46.1635C45.5208 46.3698 45.9366 46.5301 46.3684 46.6453C46.8003 46.7605 47.1967 46.8178 47.5584 46.8178C47.8702 46.8178 48.0983 46.7638 48.2441 46.6558C48.3891 46.5478 48.4616 46.4093 48.4616 46.2385C48.4608 46.1321 48.431 46.0386 48.373 45.9597ZM54.4649 45.9597C54.4069 45.8799 54.3134 45.8002 54.1837 45.718C54.054 45.6358 53.7099 45.4698 53.1508 45.2192C52.644 44.9888 52.2645 44.7656 52.0115 44.5497C51.7593 44.333 51.5708 44.0864 51.4492 43.8061C51.3275 43.5257 51.2646 43.1953 51.2646 42.8134C51.2646 42.098 51.5257 41.5404 52.047 41.1408C52.5675 40.7412 53.2813 40.5406 54.1917 40.5406C54.995 40.5406 55.8152 40.7259 56.6499 41.0981L56.0078 42.7176C55.2827 42.3856 54.6558 42.2188 54.1289 42.2188C53.855 42.2188 53.6568 42.2672 53.5343 42.3622C53.4102 42.4581 53.3474 42.5766 53.3474 42.7176C53.3474 42.8698 53.4271 43.006 53.5843 43.1269C53.7414 43.2477 54.17 43.4669 54.8669 43.7859C55.5357 44.0864 56.0005 44.4087 56.26 44.7544C56.5202 45.0992 56.6499 45.5343 56.6499 46.058C56.6499 46.5398 56.5283 46.9676 56.2841 47.3407C56.0392 47.7145 55.6871 48.0037 55.2271 48.2116C54.767 48.4187 54.228 48.5218 53.6068 48.5218C53.0904 48.5218 52.6569 48.4855 52.3064 48.413C51.9559 48.3405 51.5918 48.214 51.2131 48.0327V46.1635C51.6127 46.3698 52.0293 46.5301 52.4611 46.6453C52.8922 46.7605 53.2886 46.8178 53.6503 46.8178C53.9629 46.8178 54.1909 46.7638 54.336 46.6558C54.481 46.5478 54.5543 46.4093 54.5543 46.2385C54.5535 46.1321 54.5237 46.0386 54.4649 45.9597ZM53.6286 57.7422C54.0274 56.8277 55.219 55.9858 56.2141 55.9052C56.8715 55.8528 57.5362 55.8255 58.2073 55.8255C58.8761 55.8255 59.5416 55.852 60.1982 55.9052C61.1949 55.9866 62.3865 56.8269 62.7845 57.7422C63.9117 60.3341 64.8946 63.8131 65.5714 67.9295C65.7318 68.9156 65.0332 69.6448 64.0374 69.5755C62.1037 69.4426 60.1491 69.3741 58.2082 69.3741C56.2672 69.3741 54.311 69.4426 52.3765 69.5755C51.3799 69.6448 50.6813 68.9156 50.8441 67.9295C51.5184 63.8123 52.499 60.3333 53.6286 57.7422ZM57.6651 48.4146V40.6509H60.3529C61.3335 40.6509 62.0691 40.8653 62.5613 41.2939C63.0536 41.7217 63.2994 42.3308 63.2994 43.1204C63.2994 43.9881 63.0448 44.6577 62.5331 45.1306C62.0207 45.6036 61.294 45.8396 60.3529 45.8396H59.7631V48.4146H57.6651ZM79.489 48.4146H77.1098L75.4638 45.5899H74.9336V48.4146H72.8356V40.6509H75.3792C77.4893 40.6509 78.544 41.4147 78.544 42.9448C78.544 43.8447 78.1057 44.54 77.2275 45.0331L79.489 48.4146ZM81.1448 71.5261C81.5081 72.4567 80.9933 72.9143 80.053 72.5775C77.2532 71.5752 73.9499 70.8018 70.4064 70.2668C69.4178 70.1169 68.5162 69.2137 68.3672 68.2276C67.8314 64.6841 67.0587 61.3791 66.0548 58.5809C65.7197 57.6399 66.1749 57.125 67.1071 57.4876C73.5325 59.9821 78.6495 65.0998 81.1448 71.5261ZM70.657 47.5026C70.0157 48.1826 69.077 48.5218 67.8427 48.5218C66.6245 48.5218 65.6899 48.1802 65.0405 47.4978C64.3911 46.8137 64.0664 45.8195 64.0664 44.5135C64.0664 43.2211 64.3879 42.2341 65.0348 41.5525C65.6818 40.8701 66.6212 40.5301 67.8515 40.5301C69.0867 40.5301 70.0229 40.8685 70.6602 41.5445C71.2975 42.2204 71.6174 43.2131 71.6174 44.5239C71.6174 45.83 71.2975 46.8226 70.657 47.5026ZM52.0502 72.3157C54.0169 72.1674 56.0739 72.0877 58.2049 72.0877C60.3376 72.0877 62.3937 72.1682 64.3605 72.3157C65.3563 72.3906 66.2442 73.2769 66.3183 74.2719C66.4682 76.2402 66.5463 78.2956 66.5463 80.4274C66.5463 82.5601 66.4674 84.6147 66.3183 86.583C66.2442 87.578 65.3579 88.4659 64.3605 88.5416C62.3954 88.6899 60.3368 88.7688 58.2049 88.7688C56.0731 88.7688 54.0169 88.6875 52.0502 88.5416C51.0544 88.4667 50.1681 87.5804 50.0924 86.583C49.9441 84.6171 49.8643 82.5593 49.8643 80.4274C49.8643 78.2956 49.9449 76.2394 50.0924 74.2719C50.1673 73.2769 51.0536 72.3898 52.0502 72.3157ZM65.569 92.9254C64.8922 97.0417 63.9109 100.52 62.7821 103.112C62.3841 104.028 61.1917 104.87 60.1958 104.95C59.54 105.001 58.8745 105.03 58.2049 105.03C57.5338 105.03 56.8699 105.004 56.2124 104.95C55.2166 104.869 54.025 104.029 53.6261 103.112C52.499 100.52 51.5168 97.0425 50.84 92.9254C50.6781 91.9401 51.3774 91.2101 52.3733 91.2794C54.3086 91.4123 56.2624 91.4816 58.2025 91.4816C60.1442 91.4816 62.1005 91.4123 64.0342 91.2794C65.0308 91.2101 65.7309 91.9409 65.569 92.9254ZM33.6827 82.4183C33.6311 81.7625 33.6029 81.0962 33.6029 80.4258C33.6029 79.7571 33.6303 79.0916 33.6827 78.435C33.7633 77.4375 34.6044 76.2451 35.5205 75.847C38.1116 74.7191 41.5914 73.7377 45.7069 73.0609C46.6931 72.8998 47.4223 73.5983 47.353 74.5942C47.2208 76.5287 47.1516 78.4849 47.1516 80.4234C47.1516 82.3635 47.2208 84.3198 47.353 86.2534C47.4223 87.2501 46.6931 87.9494 45.7069 87.7875C41.5906 87.1107 38.1116 86.1302 35.5205 85.0022C34.6044 84.6058 33.7625 83.415 33.6827 82.4183ZM36.3576 88.2774C39.1574 89.2796 42.4608 90.0523 46.0042 90.5889C46.9936 90.7372 47.8952 91.6403 48.0435 92.6281C48.5784 96.1716 49.3519 99.4758 50.3542 102.275C50.691 103.216 50.2358 103.729 49.3028 103.367C42.8773 100.872 37.7595 95.755 35.2635 89.328C34.9025 88.3966 35.4174 87.9406 36.3576 88.2774ZM76.9003 120.732L39.5079 120.738V115.901H76.9003V120.732ZM81.1464 89.328C78.6511 95.755 73.5341 100.872 67.1063 103.368C66.1749 103.73 65.7181 103.216 66.0548 102.275C67.0571 99.4766 67.8298 96.1708 68.3656 92.6289C68.5163 91.6395 69.4178 90.7363 70.4056 90.5889C73.9483 90.0539 77.2524 89.2813 80.0522 88.279C80.9933 87.9422 81.5081 88.3966 81.1464 89.328ZM82.7272 82.4199C82.6458 83.4142 81.8054 84.609 80.8894 85.0078C78.2974 86.135 74.8184 87.1172 70.7029 87.7939C69.7159 87.9559 68.9876 87.2573 69.0569 86.2599C69.189 84.3262 69.2583 82.3684 69.2583 80.4299C69.2583 78.4889 69.189 76.5327 69.0569 74.599C68.9876 73.6024 69.7159 72.903 70.7029 73.065C74.8168 73.7418 78.2974 74.7223 80.8894 75.8511C81.8046 76.2499 82.6474 77.4415 82.7272 78.4374C82.7779 79.0932 82.8069 79.7595 82.8069 80.4299C82.8069 81.1002 82.7811 81.7625 82.7272 82.4199ZM85.3263 42.3671H83.4354V48.4155H81.3373V42.3671H79.4407V40.6517H85.3255V42.3671H85.3263ZM93.7902 118.491C93.7902 118.788 93.4018 119.168 92.9297 119.212L91.2442 119.333V35.8893C91.2442 34.7653 90.3337 33.8565 89.2122 33.8565H33.5925L93.1352 30.0592L93.2721 30.0504C93.5235 30.0504 93.7902 30.1599 93.7902 30.363V118.491Z" fill="#41569F"/>
<mask id="path-8-inside-1_191_2262" fill="white">
<path d="M101 52C101 50.8954 101.895 50 103 50H142C143.105 50 144 50.8954 144 52V110C144 111.105 143.105 112 142 112H103C101.895 112 101 111.105 101 110V52Z"/>
</mask>
<path d="M101 52C101 50.8954 101.895 50 103 50H142C143.105 50 144 50.8954 144 52V110C144 111.105 143.105 112 142 112H103C101.895 112 101 111.105 101 110V52Z" fill="#41569F"/>
<path d="M100 52C100 50.3431 101.343 49 103 49H141C142.657 49 144 50.3431 144 52C144 51.4477 143.105 51 142 51H103C102.448 51 102 51.4477 102 52H100ZM144 110C144 111.657 142.657 113 141 113H103C101.343 113 100 111.657 100 110H102C102 110.552 102.448 111 103 111H142C143.105 111 144 110.552 144 110ZM103 113C101.343 113 100 111.657 100 110V52C100 50.3431 101.343 49 103 49V51C102.448 51 102 51.4477 102 52V110C102 110.552 102.448 111 103 111V113ZM144 50V112V50Z" fill="#DAD8D8" mask="url(#path-8-inside-1_191_2262)"/>
<path d="M115.113 73.084C114.321 73.084 113.593 72.9 112.929 72.532C112.265 72.156 111.737 71.64 111.345 70.984C110.961 70.32 110.769 69.572 110.769 68.74C110.769 67.908 110.961 67.164 111.345 66.508C111.737 65.844 112.265 65.328 112.929 64.96C113.593 64.592 114.321 64.408 115.113 64.408C115.913 64.408 116.641 64.592 117.297 64.96C117.961 65.328 118.485 65.844 118.869 66.508C119.253 67.164 119.445 67.908 119.445 68.74C119.445 69.572 119.253 70.32 118.869 70.984C118.485 71.64 117.961 72.156 117.297 72.532C116.633 72.9 115.905 73.084 115.113 73.084ZM115.113 70.9C115.713 70.9 116.185 70.704 116.529 70.312C116.881 69.92 117.057 69.396 117.057 68.74C117.057 68.068 116.881 67.54 116.529 67.156C116.185 66.764 115.713 66.568 115.113 66.568C114.505 66.568 114.029 66.764 113.685 67.156C113.341 67.54 113.169 68.068 113.169 68.74C113.169 69.404 113.341 69.932 113.685 70.324C114.029 70.708 114.505 70.9 115.113 70.9ZM120.214 68.752C120.214 67.92 120.386 67.18 120.73 66.532C121.082 65.876 121.578 65.368 122.218 65.008C122.858 64.64 123.594 64.456 124.426 64.456C125.482 64.456 126.37 64.74 127.09 65.308C127.81 65.868 128.274 66.632 128.482 67.6H125.95C125.798 67.28 125.586 67.036 125.314 66.868C125.05 66.7 124.742 66.616 124.39 66.616C123.846 66.616 123.41 66.812 123.082 67.204C122.762 67.588 122.602 68.104 122.602 68.752C122.602 69.408 122.762 69.932 123.082 70.324C123.41 70.708 123.846 70.9 124.39 70.9C124.742 70.9 125.05 70.816 125.314 70.648C125.586 70.48 125.798 70.236 125.95 69.916H128.482C128.274 70.884 127.81 71.652 127.09 72.22C126.37 72.78 125.482 73.06 124.426 73.06C123.594 73.06 122.858 72.88 122.218 72.52C121.578 72.152 121.082 71.644 120.73 70.996C120.386 70.34 120.214 69.592 120.214 68.752ZM131.948 64.54V73H129.596V64.54H131.948Z" fill="white"/>
<g clip-path="url(#clip0_191_2262)">
<path d="M117.312 91.0568H114C114.104 92.9763 114.746 94.7885 115.85 96.2983C116.47 95.9283 117.167 95.6111 117.92 95.3523C117.562 94.0314 117.353 92.5729 117.312 91.0568Z" fill="white"/>
<path d="M117.312 89.9433C117.353 88.4271 117.562 86.9686 117.92 85.6477C117.167 85.389 116.47 85.0717 115.85 84.7017C114.746 86.2115 114.104 88.0237 114 89.9433H117.312Z" fill="white"/>
<path d="M119.81 83.6422C119.609 84.0326 119.428 84.4513 119.268 84.8935C120.269 85.1462 121.353 85.2971 122.473 85.3333V81.0473C121.487 81.2852 120.557 82.1854 119.81 83.6422Z" fill="white"/>
<path d="M123.527 81.0473V85.3332C124.647 85.2971 125.731 85.1462 126.732 84.8935C126.572 84.4513 126.391 84.0326 126.19 83.6422C125.443 82.1855 124.513 81.2852 123.527 81.0473Z" fill="white"/>
<path d="M127.066 85.9516C125.958 86.239 124.761 86.4093 123.527 86.4471V89.9433H127.632C127.592 88.5286 127.398 87.1732 127.066 85.9516Z" fill="white"/>
<path d="M118.249 96.4083C117.639 96.6179 117.072 96.8688 116.559 97.1575C116.581 97.1814 116.603 97.2056 116.625 97.2293C117.563 98.2197 118.672 98.9643 119.882 99.4339C119.521 98.9971 119.186 98.4804 118.882 97.888C118.646 97.4275 118.435 96.932 118.249 96.4083Z" fill="white"/>
<path d="M127.751 84.5917C128.361 84.3822 128.928 84.1313 129.441 83.8426C129.419 83.8187 129.398 83.7945 129.375 83.7708C128.437 82.7804 127.328 82.0358 126.119 81.5662C126.479 82.003 126.814 82.5197 127.118 83.1121C127.354 83.5726 127.566 84.0681 127.751 84.5917Z" fill="white"/>
<path d="M128.687 91.0568C128.646 92.5729 128.438 94.0314 128.08 95.3524C128.833 95.6111 129.53 95.9283 130.15 96.2984C131.254 94.7885 131.896 92.9764 132 91.0568H128.687V91.0568Z" fill="white"/>
<path d="M127.751 96.4083C127.565 96.932 127.354 97.4275 127.118 97.888C126.814 98.4804 126.479 98.9971 126.118 99.4338C127.328 98.9643 128.437 98.2197 129.375 97.2292C129.397 97.2056 129.419 97.1814 129.441 97.1575C128.928 96.8688 128.361 96.6179 127.751 96.4083Z" fill="white"/>
<path d="M118.249 84.5917C118.434 84.0681 118.646 83.5726 118.882 83.1121C119.186 82.5197 119.521 82.003 119.882 81.5662C118.672 82.0358 117.563 82.7804 116.625 83.7708C116.603 83.7945 116.581 83.8187 116.559 83.8426C117.072 84.1313 117.639 84.3822 118.249 84.5917Z" fill="white"/>
<path d="M128.08 85.6477C128.438 86.9686 128.646 88.4272 128.687 89.9433H132C131.896 88.0238 131.254 86.2116 130.15 84.7017C129.53 85.0717 128.833 85.389 128.08 85.6477Z" fill="white"/>
<path d="M122.473 89.9433V86.4471C121.239 86.4093 120.042 86.239 118.933 85.9517C118.602 87.1732 118.408 88.5286 118.368 89.9434H122.473V89.9433Z" fill="white"/>
<path d="M123.527 91.0568V94.5529C124.761 94.5908 125.958 94.761 127.066 95.0484C127.398 93.8269 127.592 92.4715 127.632 91.0568H123.527V91.0568Z" fill="white"/>
<path d="M126.19 97.3578C126.391 96.9674 126.572 96.5488 126.732 96.1065C125.731 95.8538 124.647 95.7029 123.527 95.6668V99.9527C124.513 99.7148 125.443 98.8145 126.19 97.3578Z" fill="white"/>
<path d="M122.473 99.9527V95.6668C121.353 95.7029 120.269 95.8538 119.268 96.1065C119.428 96.5487 119.609 96.9674 119.81 97.3578C120.557 98.8146 121.487 99.7148 122.473 99.9527Z" fill="white"/>
<path d="M122.473 91.0568H118.368C118.408 92.4715 118.602 93.8269 118.933 95.0484C120.041 94.761 121.239 94.5907 122.473 94.5529V91.0568Z" fill="white"/>
</g>
<defs>
<clipPath id="clip0_191_2262">
<rect width="18" height="19" fill="white" transform="translate(114 81)"/>
</clipPath>
</defs>
</svg>
