<svg width="24" height="24" viewBox="0 0 24 24" fill="none" xmlns="http://www.w3.org/2000/svg">
<path d="M12.0273 0H11.9727C5.36035 0 0 5.36035 0 11.9727V12.0273C0 18.6397 5.36035 24 11.9727 24H12.0273C18.6397 24 24 18.6397 24 12.0273V11.9727C24 5.36035 18.6397 0 12.0273 0Z" fill="#FF0000"/>
<path fill-rule="evenodd" clip-rule="evenodd" d="M10.9047 15.2833C10.8904 15.3329 10.8769 15.3749 10.866 15.4169C10.2312 17.9041 10.1605 18.4566 9.50803 19.6119C9.19692 20.1609 8.84629 20.6814 8.45867 21.1792C8.41494 21.2355 8.37374 21.3078 8.28629 21.2902C8.19044 21.27 8.18287 21.1834 8.17278 21.1069C8.06852 20.351 8.0105 19.5934 8.03572 18.8299C8.06852 17.836 8.19128 17.4947 9.47272 12.1066C9.49121 12.0242 9.47019 11.9561 9.44328 11.8821C9.13638 11.0547 9.07584 10.2147 9.34407 9.36376C9.92424 7.52569 12.0078 7.38527 12.3719 8.9013C12.5964 9.83883 12.0028 11.0665 11.5471 12.881C11.1695 14.3777 12.9319 15.4422 14.4379 14.3491C15.8269 13.3418 16.3659 10.9269 16.2633 9.21493C16.0615 5.80198 12.3189 5.06456 9.94527 6.16354C7.22348 7.42227 6.60462 10.7957 7.83393 12.3378C7.98948 12.5337 8.28293 12.654 8.23164 12.8524C8.1526 13.161 8.08281 13.4721 7.99704 13.779C7.93314 14.0077 7.56906 14.0909 7.33783 13.9968C6.88462 13.8135 6.50708 13.5251 6.20102 13.145C5.15754 11.8526 4.85905 9.29649 6.23886 7.13218C7.7675 4.73496 10.6112 3.76463 13.2077 4.05892C16.3087 4.41123 18.2687 6.53014 18.6353 8.9341C18.8026 10.0289 18.6824 12.7288 17.1453 14.6375C15.3771 16.8304 12.5107 16.9759 11.188 15.6297C11.0863 15.5263 11.0047 15.406 10.9047 15.2824V15.2833Z" fill="white"/>
</svg>
