<svg width="24" height="24" viewBox="0 0 24 24" fill="none" xmlns="http://www.w3.org/2000/svg">
<g clip-path="url(#clip0_2_32170)">
<path d="M16.7693 14.6833C16.5458 14.4598 16.2467 14.3367 15.927 14.3367C15.6073 14.3367 15.3082 14.4598 15.0846 14.6833L14.444 15.3239C14.3108 15.4571 14.1302 15.5319 13.9419 15.5319C13.7536 15.5319 13.573 15.457 13.4399 15.3238L8.67655 10.56C8.40192 10.2853 8.39941 9.84154 8.66893 9.5637C8.67191 9.56067 8.67489 9.55759 8.67787 9.55456L9.31707 8.91543C9.78155 8.451 9.78155 7.69528 9.31707 7.2308L8.43273 6.34662C8.20917 6.12307 7.91003 6 7.59038 6C7.27069 6 6.97154 6.12311 6.74798 6.34662L6.11054 6.98415C6.10685 6.98789 6.10316 6.99153 6.09942 6.99518C5.39036 7.70839 4.99995 8.65467 5 9.66097C5.00005 10.6711 5.39339 11.6206 6.10756 12.3347L11.6651 17.8922C12.3793 18.6066 13.329 19 14.3391 19C15.349 19 16.2984 18.6067 17.0125 17.8925C17.0175 17.8875 17.0227 17.8824 17.028 17.8775L17.6534 17.2521C17.8769 17.0286 18 16.7294 18 16.4097C18 16.0901 17.8769 15.7909 17.6534 15.5674L16.7693 14.6833Z" fill="#EF0003"/>
<path d="M20.4853 3.51473C18.2188 1.24823 15.2054 0 12 0C8.79473 0 5.78128 1.24823 3.51473 3.51473C1.24823 5.78123 0 8.79469 0 12C0 15.2054 1.24823 18.2188 3.51473 20.4854C5.78123 22.7518 8.79469 24 12 24C15.2054 24 18.2188 22.7518 20.4853 20.4854C22.7518 18.2188 24 15.2054 24 12C24 8.79469 22.7518 5.78123 20.4853 3.51473ZM18.6971 18.0916L18.0629 18.7259C18.0575 18.7313 18.052 18.7366 18.0464 18.7419C17.0755 19.7046 15.7887 20.2346 14.4205 20.2346C13.0445 20.2346 11.7509 19.6987 10.778 18.7256L5.27437 13.2219C4.30148 12.2491 3.76566 10.9556 3.76561 9.57966C3.76556 8.20373 4.3013 6.91027 5.27409 5.93738C5.27686 5.93461 5.27958 5.93194 5.28239 5.92922L5.9085 5.30302C6.39558 4.81598 7.04494 4.54786 7.73714 4.54786C8.42934 4.54786 9.0787 4.81603 9.56564 5.30297L10.4415 6.17859C11.4497 7.18692 11.4497 8.82745 10.4415 9.83573L10.3043 9.97289L14.0272 13.6962L14.1645 13.559C14.6514 13.072 15.3008 12.8039 15.993 12.8039C16.6853 12.8039 17.3347 13.0721 17.8216 13.5591L18.6972 14.4347C19.1842 14.9216 19.4523 15.571 19.4523 16.2632C19.4523 16.9555 19.1841 17.6047 18.6971 18.0916Z" fill="white"/>
</g>
<defs>
<clipPath id="clip0_2_32170">
<rect width="24" height="24" fill="white"/>
</clipPath>
</defs>
</svg>
