
<svg width="24" height="24" viewBox="0 0 24 24" fill="none" xmlns="http://www.w3.org/2000/svg">
<g clip-path="url(#clip0_2_32161)">
<path d="M11.8805 13.048C11.7729 13.1395 11.6387 13.1895 11.5002 13.1895C11.3618 13.1895 11.2275 13.1395 11.12 13.048L5.19732 8.00097C5.06734 8.25557 4.99955 8.53997 5 8.82876V15.2388C5.00025 15.7056 5.17712 16.1533 5.49179 16.4835C5.80646 16.8137 6.2332 16.9995 6.67833 17H16.3221C16.7672 16.9994 17.1938 16.8135 17.5084 16.4833C17.8229 16.1531 17.9998 15.7055 18 15.2388V8.82779C18.0004 8.539 17.9327 8.25459 17.8027 8L11.8805 13.048Z" fill="#EF0003"/>
<path d="M18 7.10417C17.8193 7.03519 17.6294 6.99997 17.438 7H7.56198C7.37065 6.99997 7.18067 7.03519 7 7.10417L12.5 12L18 7.10417Z" fill="#EF0003"/>
<path d="M12 0C5.37281 0 0 5.37281 0 12C0 18.6272 5.37281 24 12 24C18.6272 24 24 18.6277 24 12C24 5.37234 18.6272 0 12 0ZM19.7812 15.0858C19.7809 15.8583 19.4739 16.5991 18.9278 17.1455C18.3816 17.6919 17.641 17.9993 16.8684 18H7.13156C6.35902 17.9993 5.61836 17.6919 5.07222 17.1455C4.52608 16.5991 4.21912 15.8583 4.21875 15.0858V8.91422C4.21855 8.52751 4.29561 8.14465 4.44541 7.78814C4.59521 7.43162 4.81474 7.10863 5.09109 6.83813C5.10996 6.81745 5.13016 6.79804 5.15156 6.78C5.6889 6.27854 6.39658 5.99976 7.13156 6H16.8684C17.6032 5.99925 18.3108 6.27734 18.8484 6.77813C18.8698 6.79616 18.89 6.81558 18.9089 6.83625C19.1855 7.10697 19.4051 7.43027 19.555 7.78713C19.7048 8.14398 19.7817 8.52719 19.7812 8.91422V15.0858Z" fill="white"/>
</g>
<defs>
<clipPath id="clip0_2_32161">
<rect width="24" height="24" fill="white"/>
</clipPath>
</defs>
</svg>
