<svg width="24" height="24" viewBox="0 0 24 24" fill="none" xmlns="http://www.w3.org/2000/svg">
<path d="M15.5939 17.5676C10.8786 17.5676 7.04231 13.6 7.04102 8.72503C7.04231 7.48927 8.01558 6.48438 9.20829 6.48438C9.33091 6.48438 9.45224 6.49505 9.56841 6.5164C9.82399 6.56044 10.0667 6.64986 10.29 6.78464C10.3223 6.80466 10.3442 6.83669 10.3494 6.87405L10.8476 10.1209C10.8541 10.1596 10.8424 10.197 10.8179 10.225C10.543 10.54 10.1919 10.7668 9.80076 10.8803L9.61231 10.935L9.6833 11.1232C10.3261 12.8153 11.635 14.1672 13.273 14.8345L13.455 14.9092L13.508 14.7144C13.6177 14.31 13.8371 13.947 14.1418 13.6628C14.1637 13.6414 14.1934 13.6307 14.2231 13.6307C14.2295 13.6307 14.236 13.6307 14.2437 13.6321L17.3843 14.1472C17.4217 14.1539 17.4527 14.1752 17.472 14.2086C17.6011 14.4394 17.6876 14.6917 17.7315 14.9559C17.7521 15.0733 17.7612 15.1975 17.7612 15.3269C17.7612 16.5613 16.7892 17.5662 15.5939 17.5676Z" fill="#FDFDFD"/>
<path d="M23.9548 10.9297C23.7005 7.95907 22.3839 5.20329 20.2476 3.17082C18.0984 1.12633 15.3103 0 12.3943 0C5.99451 0 0.787405 5.38345 0.787405 12C0.787405 14.2206 1.37987 16.3839 2.50159 18.2682L0 23.9933L8.00947 23.1112C9.40225 23.7011 10.8763 24 12.393 24C12.7919 24 13.2011 23.9786 13.6116 23.9346C13.973 23.8946 14.3383 23.8359 14.6972 23.7611C20.0566 22.6415 23.969 17.7238 24 12.0641V12C24 11.6397 23.9845 11.2794 23.9535 10.9297H23.9548ZM8.31798 20.5983L3.88664 21.0867L5.20971 18.056L4.94509 17.6891C4.92573 17.6624 4.90637 17.6357 4.88443 17.605C3.73561 15.9649 3.12892 14.0271 3.12892 12.0013C3.12892 6.7193 7.28532 2.42215 12.3943 2.42215C17.1807 2.42215 21.2377 6.28292 21.6288 11.2113C21.6494 11.4755 21.6611 11.7411 21.6611 12.0027C21.6611 12.0774 21.6598 12.1508 21.6585 12.2295C21.5604 16.6481 18.5747 20.4008 14.3977 21.3563C14.0788 21.4297 13.7523 21.4858 13.427 21.5218C13.0888 21.5618 12.7416 21.5819 12.3969 21.5819C11.1694 21.5819 9.97666 21.3363 8.84979 20.8505C8.72458 20.7985 8.60194 20.7424 8.48706 20.6851L8.31927 20.601L8.31798 20.5983Z" fill="#FDFDFD"/>
</svg>
