<svg width="30" height="30" viewBox="0 0 30 30" fill="none" xmlns="http://www.w3.org/2000/svg">
<circle cx="15" cy="15" r="15" fill="white"/>
<path d="M7.79185 18.7984C7.55537 18.7556 7.34932 18.6204 7.21157 18.418C7.0853 18.2324 7.0352 18.0152 7.05356 17.8054C7.18613 17.9536 7.33486 18.0881 7.49814 18.2057L8.25962 18.7544C8.11167 18.811 7.95151 18.8274 7.79185 18.7984ZM9.90806 20.7684C9.5021 21.061 8.94043 20.9591 8.6561 20.5412C8.37183 20.1234 8.47085 19.5454 8.87676 19.2527C8.87681 19.2527 8.87681 19.2527 8.87686 19.2527L8.91396 19.226L10.4812 20.3554L9.90806 20.7684ZM12.0575 22.3834C11.8532 22.5306 11.5939 22.5879 11.3462 22.5404C11.1073 22.4946 10.9035 22.3588 10.7724 22.1581C10.5011 21.7429 10.6046 21.1715 11.003 20.8845L11.1092 20.8079L12.6764 21.9373L12.0575 22.3834ZM13.8811 24C13.3909 24 12.992 23.5895 12.992 23.085C12.992 22.8067 13.114 22.558 13.3051 22.3904L14.713 23.405C14.5865 23.752 14.2619 24 13.8811 24ZM23.7882 18.4179C23.5037 18.8356 22.9419 18.9377 22.536 18.6454C22.5359 18.6454 22.5359 18.6453 22.5359 18.6453L19.0582 16.1389C18.8952 16.0216 18.6706 16.0622 18.5564 16.23C18.4423 16.3977 18.4819 16.6289 18.6448 16.7463L22.1226 19.2527C22.1228 19.2529 22.1229 19.2529 22.1231 19.2531C22.3628 19.4262 22.506 19.7097 22.506 20.0117C22.506 20.2017 22.4498 20.3848 22.3433 20.5411C22.2056 20.7435 21.9996 20.8787 21.7631 20.9216C21.5269 20.9645 21.2882 20.91 21.0915 20.7683L20.4123 20.2788C20.4122 20.2788 20.4122 20.2788 20.4122 20.2787L20.4116 20.2783C20.4112 20.278 20.4108 20.2778 20.4104 20.2776C20.4102 20.2774 20.4099 20.2772 20.4097 20.277L17.6136 18.262C17.4507 18.1447 17.2261 18.1853 17.1119 18.3531C16.9979 18.5208 17.0375 18.752 17.2004 18.8694L19.9964 20.8845C19.9966 20.8846 19.9968 20.8847 19.997 20.8848C19.9973 20.885 19.9975 20.8852 19.9977 20.8854C20.2369 21.0584 20.3797 21.3418 20.3797 21.6433C20.3797 21.8333 20.3234 22.0166 20.2171 22.1731C20.0794 22.3754 19.8733 22.5106 19.6368 22.5535C19.4002 22.5965 19.1619 22.5421 18.9652 22.4002L18.0094 21.7118C18.0093 21.7117 18.0091 21.7116 18.009 21.7115L16.169 20.3853C16.006 20.2678 15.7814 20.3086 15.6673 20.4762C15.5532 20.644 15.5928 20.8752 15.7557 20.9926L17.5933 22.3171C17.9914 22.6106 18.0866 23.1858 17.8057 23.5992C17.6679 23.8015 17.4619 23.9366 17.2253 23.9795C16.9887 24.0226 16.7504 23.9681 16.5538 23.8264L7.91118 17.5981C7.4312 17.2521 7.1209 16.7093 7.05991 16.1086C7.01948 15.7117 6.81768 15.3553 6.5062 15.1308L5.7998 14.6216L8.77305 10.2514L8.83413 10.2954C9.4146 10.7137 10.2007 10.5858 10.6304 10.0046C11.3688 9.13711 12.5713 8.81719 13.6264 9.20843L14.4369 9.50895L11.252 10.6897C10.4122 11.0008 9.97476 11.9576 10.277 12.8229C10.5077 13.4819 11.1199 13.9247 11.8004 13.9247C11.9883 13.9247 12.1732 13.8914 12.3495 13.8258L14.7666 12.9295C14.8337 12.9047 14.8902 12.92 14.9258 12.9372C14.9793 12.9632 15.0201 13.0099 15.0405 13.0688C15.0413 13.0709 15.0421 13.0733 15.0428 13.0754C15.3566 13.9719 15.9907 14.6889 16.8284 15.0944C17.297 15.3213 17.798 15.4354 18.301 15.4354C18.6969 15.4354 19.0941 15.3647 19.4778 15.2225C19.7741 15.1126 20.0513 14.9635 20.3053 14.7787L23.5673 17.1291C23.8074 17.3027 23.9507 17.5865 23.9507 17.8886C23.9508 18.0787 23.8945 18.2618 23.7882 18.4179ZM24.3675 15.2215C24.1165 15.4023 23.9634 15.686 23.9477 15.9995C23.9399 16.1531 23.9161 16.3031 23.8774 16.4475L20.4964 14.0112L20.4962 14.0114C20.3667 13.9221 20.1906 13.9268 20.0648 14.035C19.8186 14.247 19.539 14.4119 19.2337 14.525C18.5438 14.7808 17.7985 14.7447 17.1351 14.4236C16.4716 14.1024 15.9693 13.5344 15.7203 12.8227C15.7199 12.8217 15.7193 12.8201 15.7187 12.8184C15.6332 12.5731 15.4608 12.3772 15.2333 12.2667C15.0087 12.1578 14.7564 12.1455 14.5226 12.232L12.105 13.1284C12.0071 13.1649 11.9047 13.1834 11.8006 13.1834C11.4229 13.1834 11.083 12.9376 10.955 12.5719C10.7872 12.0915 11.03 11.5602 11.4962 11.3876L17.3733 9.20868C18.4135 8.82292 19.5928 9.12736 20.3344 9.96496C20.335 9.96637 20.3358 9.96843 20.3364 9.96973L20.3368 9.97054C20.4101 10.0488 20.4782 10.1333 20.54 10.2241C20.6916 10.4469 20.9183 10.5956 21.1784 10.6428C21.4386 10.6901 21.7011 10.6302 21.9175 10.4742L22.2267 10.2514L25.1999 14.6217L24.3675 15.2215ZM4.76279 14.5577C4.81152 14.5929 4.86084 14.5905 4.88599 14.5858C4.91108 14.5813 4.9583 14.5661 4.99238 14.516L8.40044 9.50669C8.45254 9.43005 8.43442 9.32406 8.35996 9.27039L6.59712 8L3 13.2873L4.76279 14.5577ZM22.64 9.27039C22.5656 9.32401 22.5475 9.43 22.5996 9.50669L26.0076 14.5161C26.0417 14.5661 26.0889 14.5813 26.114 14.5858C26.1392 14.5905 26.1885 14.5929 26.2372 14.5577L28 13.2873L24.4029 8L22.64 9.27039Z" fill="#EF0003"/>
</svg>
