<svg width="40" height="40" viewBox="0 0 40 40" fill="none" xmlns="http://www.w3.org/2000/svg">
<g clip-path="url(#clip0_2_31900)">
<path d="M15.3125 16.4844H24.6875C25.3354 16.4844 25.8594 15.9604 25.8594 15.3125C25.8594 14.6649 25.3354 14.1406 24.6875 14.1406H15.3125C14.6649 14.1406 14.1406 14.6649 14.1406 15.3125C14.1406 15.9604 14.6649 16.4844 15.3125 16.4844Z" fill="#ED0200"/>
<path d="M15.3125 21.1719H24.6875C25.3354 21.1719 25.8594 20.6479 25.8594 20C25.8594 19.3524 25.3354 18.8281 24.6875 18.8281H15.3125C14.6649 18.8281 14.1406 19.3524 14.1406 20C14.1406 20.6479 14.6649 21.1719 15.3125 21.1719Z" fill="#ED0200"/>
<path d="M15.3125 25.8594H24.6875C25.3354 25.8594 25.8594 25.3354 25.8594 24.6875C25.8594 24.0399 25.3354 23.5156 24.6875 23.5156H15.3125C14.6649 23.5156 14.1406 24.0399 14.1406 24.6875C14.1406 25.3354 14.6649 25.8594 15.3125 25.8594Z" fill="#ED0200"/>
<path d="M25.9414 8.60699C29.0438 10.2293 31.4159 13.0561 32.3913 16.4875H30.5471C30.1144 16.4875 29.7173 16.7256 29.5135 17.1067C29.3099 17.4876 29.3328 17.9499 29.5721 18.3094C29.7097 18.5469 33.9401 25.8323 33.6736 25.3733C34.1085 26.0255 35.1888 26.0255 35.6237 25.3733C36.0705 24.6043 39.9569 18.0455 39.8037 18.3094C40.043 17.9499 40.0655 17.4876 39.862 17.1067C39.6584 16.7256 39.2611 16.4875 38.8287 16.4875H37.2256C36.1565 11.222 32.7123 6.85071 28.081 4.44531C28.1582 4.7392 28.2021 5.04285 28.2021 5.35474C28.2046 7.86206 26.1767 8.45074 25.9414 8.60699Z" fill="#ED0200"/>
<path d="M18.306 0.196479C17.9465 -0.0424739 17.4841 -0.0653621 17.1033 0.13819C16.7221 0.342047 16.4841 0.739081 16.4841 1.17182V2.7746C10.1309 4.06458 5.0354 8.78595 3.18359 14.9151C3.80981 14.4204 4.55322 14.1418 5.35126 14.1418C6.40167 14.1418 7.35748 14.606 8.01178 15.3692C9.46289 11.628 12.5845 8.71728 16.4841 7.60889V9.45306C16.4841 9.8858 16.7221 10.2828 17.1033 10.4867C17.4844 10.6902 17.9468 10.6674 18.306 10.4284C18.5434 10.2905 25.8288 6.06012 25.3699 6.32654C26.0223 5.89166 26.0223 4.81134 25.3699 4.37647C24.6008 3.93 18.042 0.0432805 18.306 0.196479Z" fill="#ED0200"/>
<path d="M0.13819 25.2401C0.342047 25.6213 0.739081 25.8593 1.17182 25.8593H3.44324C4.93463 30.0713 8.00165 33.5061 11.9146 35.5459C11.8392 35.256 11.798 34.956 11.798 34.6483C11.7956 32.1517 13.8073 31.5603 14.042 31.4046C11.683 30.1693 9.74969 28.2317 8.53235 25.8593H9.45306C9.8858 25.8593 10.2828 25.6213 10.4867 25.2401C10.6902 24.8592 10.6674 24.3969 10.4281 24.0374C10.2905 23.8 6.06012 16.5145 6.32654 16.9735C5.89166 16.3213 4.81134 16.3213 4.37647 16.9735C4.06763 17.5054 -0.0559016 24.4726 0.196479 24.0374C-0.0424739 24.3969 -0.0653621 24.8592 0.13819 25.2401Z" fill="#ED0200"/>
<path d="M23.5155 30.5477C23.5155 30.1149 23.2775 29.7179 22.8963 29.514C22.5155 29.3105 22.0531 29.3334 21.6936 29.5726C21.4562 29.7103 14.1708 33.9406 14.6297 33.6742C13.9776 34.1091 13.9776 35.1894 14.6297 35.6243C15.3988 36.0707 21.9576 39.9574 21.6936 39.8042C22.0531 40.0435 22.5155 40.0661 22.8963 39.8625C23.2775 39.659 23.5155 39.2616 23.5155 38.8292V37.2261C28.7807 36.1571 33.1518 32.7135 35.5572 28.0825C35.2639 28.16 34.9602 28.2039 34.6483 28.2039C32.6577 28.2039 31.9039 26.9356 31.3561 26.0234C29.7271 29.0865 26.917 31.425 23.5155 32.3918V30.5477Z" fill="#ED0200"/>
</g>
<defs>
<clipPath id="clip0_2_31900">
<rect width="40" height="40" fill="white"/>
</clipPath>
</defs>
</svg>
