<svg width="72" height="72" viewBox="0 0 72 72" fill="none" xmlns="http://www.w3.org/2000/svg">
<g filter="url(#filter0_d_107_2087)">
<circle cx="36" cy="36" r="26" fill="white"/>
</g>
<path d="M33.9587 45.8594L35.9389 47.725C35.3758 48.1325 34.6964 48.4056 33.9587 48.4975V45.8594ZM36.2171 29.6469H35.0238V36.5263H36.2171V29.6469ZM40.8948 30.9081H39.7015V36.5263H40.8948V30.9081ZM31.5395 32.6056H30.3462V36.5263H31.5395V32.6056ZM33.9587 40.7306V44.4L36.7145 46.9956C37.2531 46.3369 37.5712 45.5112 37.5712 44.6144C37.5712 43.5337 37.1063 42.5537 36.3533 41.845C35.7204 41.2494 34.8884 40.8456 33.9587 40.7306ZM29.2471 44.6138C29.2471 45.6963 29.714 46.6744 30.467 47.3844C31.0979 47.9781 31.9313 48.3819 32.8616 48.4969V40.7306C31.932 40.8456 31.0979 41.25 30.467 41.845C29.7133 42.5531 29.2471 43.5331 29.2471 44.6138ZM45.8985 44.7819L46.4968 43.8075V50.5238C46.4968 51.335 45.7909 51.9994 44.929 51.9994H26.312C25.45 51.9994 24.7441 51.335 24.7441 50.5238V25.4412C24.7441 24.63 25.45 23.9656 26.312 23.9656H29.6741V25.81C29.6741 26.5825 30.3402 27.2112 31.161 27.2112H40.078C40.8988 27.2112 41.5668 26.5825 41.5668 25.81V23.965H44.929C45.7909 23.965 46.4968 24.6294 46.4968 25.4406V33.7819L41.2846 42.275C41.1604 42.4788 41.0927 42.7 41.0834 42.9356L40.9871 45.405C40.9685 45.9044 41.2302 46.3725 41.693 46.6238C42.1559 46.8756 42.717 46.8556 43.1686 46.59L45.3918 45.2775C45.605 45.1525 45.7743 44.9856 45.8985 44.7819ZM28.1514 37.0419C28.1514 37.3269 28.3965 37.5594 28.6993 37.5594H42.5404C42.8432 37.5594 43.0902 37.3275 43.0902 37.0419C43.0902 36.7581 42.8438 36.5263 42.5404 36.5263H41.9925V30.3925C41.9925 30.1075 41.7461 29.8769 41.4427 29.8769H39.1536C38.8508 29.8769 38.6038 30.1075 38.6038 30.3925V36.5263H37.3122V29.1313C37.3122 28.8463 37.0671 28.6156 36.7643 28.6156H34.4733C34.1718 28.6156 33.9255 28.8463 33.9255 29.1313V36.5263H32.6339V32.09C32.6339 31.805 32.3888 31.5725 32.086 31.5725H29.795C29.4922 31.5725 29.2471 31.8044 29.2471 32.09V36.5263H28.6973C28.3958 36.5263 28.1514 36.7581 28.1514 37.0419ZM38.6682 44.6138C38.6682 43.2481 38.0792 42.0094 37.1282 41.115C36.176 40.2188 34.8618 39.6656 33.4088 39.6656C31.9572 39.6656 30.6437 40.2181 29.6914 41.115C28.7391 42.0094 28.1514 43.2481 28.1514 44.6138C28.1514 45.9813 28.7405 47.2181 29.6914 48.1125C30.6437 49.0087 31.9579 49.5637 33.4088 49.5637C34.8618 49.5637 36.176 49.0094 37.1282 48.1125C38.0792 47.2181 38.6682 45.9813 38.6682 44.6138ZM31.161 26.1781H40.078C40.2945 26.1781 40.4698 26.0131 40.4698 25.8094V22.7194C40.4698 22.5175 40.2945 22.3506 40.078 22.3506H38.1184C38.1184 21.0525 37.0001 20 35.6208 20C34.2409 20 33.1213 21.0525 33.1213 22.3512H31.1616C30.9471 22.3512 30.7698 22.5175 30.7698 22.72V25.81C30.7698 26.0131 30.9465 26.1781 31.161 26.1781ZM42.2409 45.73C42.3484 45.7887 42.4726 45.7831 42.5855 45.7156L44.3738 44.6612L42.1598 43.4581L42.0828 45.4425C42.0788 45.5687 42.1353 45.6731 42.2409 45.73ZM50.9261 33.1475L49.4785 32.3606C49.1285 32.1713 48.6464 32.3412 48.402 32.7381L48.0428 33.3225L48.0448 33.3244L50.7575 34.7981L51.1167 34.2137C51.3591 33.8156 51.2748 33.3375 50.9261 33.1475ZM42.4554 42.4331L42.4646 42.4381L45.1568 43.9L45.17 43.9069L50.2089 35.69L47.4963 34.2163L42.4554 42.4331Z" fill="#EF0003"/>
<defs>
<filter id="filter0_d_107_2087" x="0" y="0" width="72" height="72" filterUnits="userSpaceOnUse" color-interpolation-filters="sRGB">
<feFlood flood-opacity="0" result="BackgroundImageFix"/>
<feColorMatrix in="SourceAlpha" type="matrix" values="0 0 0 0 0 0 0 0 0 0 0 0 0 0 0 0 0 0 127 0" result="hardAlpha"/>
<feOffset/>
<feGaussianBlur stdDeviation="5"/>
<feComposite in2="hardAlpha" operator="out"/>
<feColorMatrix type="matrix" values="0 0 0 0 0 0 0 0 0 0 0 0 0 0 0 0 0 0 0.1 0"/>
<feBlend mode="normal" in2="BackgroundImageFix" result="effect1_dropShadow_107_2087"/>
<feBlend mode="normal" in="SourceGraphic" in2="effect1_dropShadow_107_2087" result="shape"/>
</filter>
</defs>
</svg>
