<svg width="72" height="72" viewBox="0 0 72 72" fill="none" xmlns="http://www.w3.org/2000/svg">
<g filter="url(#filter0_d_104_2082)">
<circle cx="36" cy="36" r="26" fill="white"/>
</g>
<path d="M24.8959 24C24.895 24 24.8941 24 24.8932 24C24.5905 24 24.3059 24.1187 24.0909 24.3343C23.8736 24.5524 23.7539 24.8427 23.7539 25.1518V42.423C23.7539 43.0563 24.2682 43.5729 24.9004 43.5745C27.5658 43.5809 32.0314 44.1397 35.112 47.3824V29.3076C35.112 29.0929 35.0575 28.8912 34.9546 28.7243C32.4262 24.6286 27.5673 24.0063 24.8959 24Z" fill="#EF0003"/>
<path d="M48.2467 42.4231V25.1518C48.2467 24.8427 48.127 24.5524 47.9096 24.3343C47.6947 24.1187 47.4098 24 47.1075 24C47.1065 24 47.1055 24 47.1047 24C44.4334 24.0064 39.5745 24.6287 37.046 28.7244C36.9431 28.8913 36.8887 29.093 36.8887 29.3077V47.3824C39.9693 44.1397 44.4349 43.5809 47.1003 43.5745C47.7324 43.5729 48.2467 43.0563 48.2467 42.4231Z" fill="#EF0003"/>
<path d="M50.8554 27.9841H50.0252V42.4241C50.0252 44.0412 48.7153 45.3598 47.1052 45.3638C44.8444 45.3692 41.1166 45.8139 38.4766 48.3272C43.0426 47.2027 47.8559 47.9337 50.5991 48.5625C50.9416 48.641 51.2956 48.5599 51.57 48.3399C51.8435 48.1204 52.0003 47.7924 52.0003 47.4403V29.1357C52.0004 28.5008 51.4867 27.9841 50.8554 27.9841Z" fill="#EF0003"/>
<path d="M21.9752 42.4241V27.9841H21.1449C20.5137 27.9841 20 28.5008 20 29.1357V47.44C20 47.7922 20.1569 48.1201 20.4303 48.3396C20.7045 48.5595 21.0582 48.6409 21.4012 48.5622C24.1444 47.9333 28.9579 47.2024 33.5237 48.3269C30.8837 45.8137 27.156 45.3691 24.8952 45.3637C23.2851 45.3598 21.9752 44.0412 21.9752 42.4241Z" fill="#EF0003"/>
<defs>
<filter id="filter0_d_104_2082" x="0" y="0" width="72" height="72" filterUnits="userSpaceOnUse" color-interpolation-filters="sRGB">
<feFlood flood-opacity="0" result="BackgroundImageFix"/>
<feColorMatrix in="SourceAlpha" type="matrix" values="0 0 0 0 0 0 0 0 0 0 0 0 0 0 0 0 0 0 127 0" result="hardAlpha"/>
<feOffset/>
<feGaussianBlur stdDeviation="5"/>
<feComposite in2="hardAlpha" operator="out"/>
<feColorMatrix type="matrix" values="0 0 0 0 0 0 0 0 0 0 0 0 0 0 0 0 0 0 0.1 0"/>
<feBlend mode="normal" in2="BackgroundImageFix" result="effect1_dropShadow_104_2082"/>
<feBlend mode="normal" in="SourceGraphic" in2="effect1_dropShadow_104_2082" result="shape"/>
</filter>
</defs>
</svg>
