<svg width="160" height="120" viewBox="0 0 160 120" fill="none" xmlns="http://www.w3.org/2000/svg">
<path d="M8.30584 90.182C6.97118 90.182 5.77518 89.9653 4.71784 89.532C3.66051 89.0987 2.81118 88.4573 2.16984 87.608C1.54584 86.7587 1.21651 85.736 1.18184 84.54H5.91384C5.98318 85.216 6.21718 85.736 6.61584 86.1C7.01451 86.4467 7.53451 86.62 8.17584 86.62C8.83451 86.62 9.35451 86.4727 9.73584 86.178C10.1172 85.866 10.3078 85.4413 10.3078 84.904C10.3078 84.4533 10.1518 84.0807 9.83984 83.786C9.54518 83.4913 9.17251 83.2487 8.72184 83.058C8.28851 82.8673 7.66451 82.6507 6.84984 82.408C5.67118 82.044 4.70918 81.68 3.96384 81.316C3.21851 80.952 2.57718 80.4147 2.03984 79.704C1.50251 78.9933 1.23384 78.066 1.23384 76.922C1.23384 75.2233 1.84918 73.8973 3.07984 72.944C4.31051 71.9733 5.91384 71.488 7.88984 71.488C9.90051 71.488 11.5212 71.9733 12.7518 72.944C13.9825 73.8973 14.6412 75.232 14.7278 76.948H9.91784C9.88318 76.3587 9.66651 75.8993 9.26784 75.57C8.86918 75.2233 8.35784 75.05 7.73384 75.05C7.19651 75.05 6.76318 75.1973 6.43384 75.492C6.10451 75.7693 5.93984 76.1767 5.93984 76.714C5.93984 77.3033 6.21718 77.7627 6.77184 78.092C7.32651 78.4213 8.19318 78.7767 9.37184 79.158C10.5505 79.5567 11.5038 79.938 12.2318 80.302C12.9772 80.666 13.6185 81.1947 14.1558 81.888C14.6932 82.5813 14.9618 83.474 14.9618 84.566C14.9618 85.606 14.6932 86.5507 14.1558 87.4C13.6358 88.2493 12.8732 88.9253 11.8678 89.428C10.8625 89.9307 9.67518 90.182 8.30584 90.182ZM19.9339 73.984C19.1539 73.984 18.5126 73.7587 18.0099 73.308C17.5246 72.84 17.2819 72.268 17.2819 71.592C17.2819 70.8987 17.5246 70.3267 18.0099 69.876C18.5126 69.408 19.1539 69.174 19.9339 69.174C20.6966 69.174 21.3206 69.408 21.8059 69.876C22.3086 70.3267 22.5599 70.8987 22.5599 71.592C22.5599 72.268 22.3086 72.84 21.8059 73.308C21.3206 73.7587 20.6966 73.984 19.9339 73.984ZM22.1439 75.492V90H17.6979V75.492H22.1439ZM34.2059 75.336C35.9046 75.336 37.2566 75.8907 38.2619 77C39.2846 78.092 39.7959 79.6 39.7959 81.524V90H35.3759V82.122C35.3759 81.1513 35.1246 80.3973 34.6219 79.86C34.1192 79.3227 33.4432 79.054 32.5939 79.054C31.7446 79.054 31.0686 79.3227 30.5659 79.86C30.0632 80.3973 29.8119 81.1513 29.8119 82.122V90H25.3659V75.492H29.8119V77.416C30.2626 76.7747 30.8692 76.272 31.6319 75.908C32.3946 75.5267 33.2526 75.336 34.2059 75.336ZM48.3974 75.284C49.4201 75.284 50.3128 75.492 51.0754 75.908C51.8554 76.324 52.4534 76.87 52.8694 77.546V75.492H57.3154V89.974C57.3154 91.3087 57.0468 92.5133 56.5094 93.588C55.9894 94.68 55.1834 95.5467 54.0914 96.188C53.0168 96.8293 51.6734 97.15 50.0614 97.15C47.9121 97.15 46.1701 96.6387 44.8354 95.616C43.5008 94.6107 42.7381 93.2413 42.5474 91.508H46.9414C47.0801 92.0627 47.4094 92.496 47.9294 92.808C48.4494 93.1373 49.0908 93.302 49.8534 93.302C50.7721 93.302 51.5001 93.0333 52.0374 92.496C52.5921 91.976 52.8694 91.1353 52.8694 89.974V87.92C52.4361 88.596 51.8381 89.1507 51.0754 89.584C50.3128 90 49.4201 90.208 48.3974 90.208C47.2014 90.208 46.1181 89.9047 45.1474 89.298C44.1768 88.674 43.4054 87.7987 42.8334 86.672C42.2788 85.528 42.0014 84.2107 42.0014 82.72C42.0014 81.2293 42.2788 79.9207 42.8334 78.794C43.4054 77.6673 44.1768 76.8007 45.1474 76.194C46.1181 75.5873 47.2014 75.284 48.3974 75.284ZM52.8694 82.746C52.8694 81.6367 52.5574 80.7613 51.9334 80.12C51.3268 79.4787 50.5814 79.158 49.6974 79.158C48.8134 79.158 48.0594 79.4787 47.4354 80.12C46.8288 80.744 46.5254 81.6107 46.5254 82.72C46.5254 83.8293 46.8288 84.7133 47.4354 85.372C48.0594 86.0133 48.8134 86.334 49.6974 86.334C50.5814 86.334 51.3268 86.0133 51.9334 85.372C52.5574 84.7307 52.8694 83.8553 52.8694 82.746ZM59.6479 82.72C59.6479 81.2293 59.9253 79.9207 60.4799 78.794C61.0519 77.6673 61.8233 76.8007 62.7939 76.194C63.7646 75.5873 64.8479 75.284 66.0439 75.284C67.0666 75.284 67.9593 75.492 68.7219 75.908C69.5019 76.324 70.0999 76.87 70.5159 77.546V75.492H74.9619V90H70.5159V87.946C70.0826 88.622 69.4759 89.168 68.6959 89.584C67.9333 90 67.0406 90.208 66.0179 90.208C64.8393 90.208 63.7646 89.9047 62.7939 89.298C61.8233 88.674 61.0519 87.7987 60.4799 86.672C59.9253 85.528 59.6479 84.2107 59.6479 82.72ZM70.5159 82.746C70.5159 81.6367 70.2039 80.7613 69.5799 80.12C68.9733 79.4787 68.2279 79.158 67.3439 79.158C66.4599 79.158 65.7059 79.4787 65.0819 80.12C64.4753 80.744 64.1719 81.6107 64.1719 82.72C64.1719 83.8293 64.4753 84.7133 65.0819 85.372C65.7059 86.0133 66.4599 86.334 67.3439 86.334C68.2279 86.334 68.9733 86.0133 69.5799 85.372C70.2039 84.7307 70.5159 83.8553 70.5159 82.746ZM82.6244 77.546C83.0577 76.87 83.6557 76.324 84.4184 75.908C85.1811 75.492 86.0737 75.284 87.0964 75.284C88.2924 75.284 89.3757 75.5873 90.3464 76.194C91.3171 76.8007 92.0797 77.6673 92.6344 78.794C93.2064 79.9207 93.4924 81.2293 93.4924 82.72C93.4924 84.2107 93.2064 85.528 92.6344 86.672C92.0797 87.7987 91.3171 88.674 90.3464 89.298C89.3757 89.9047 88.2924 90.208 87.0964 90.208C86.0911 90.208 85.1984 90 84.4184 89.584C83.6557 89.168 83.0577 88.6307 82.6244 87.972V96.916H78.1784V75.492H82.6244V77.546ZM88.9684 82.72C88.9684 81.6107 88.6564 80.744 88.0324 80.12C87.4257 79.4787 86.6717 79.158 85.7704 79.158C84.8864 79.158 84.1324 79.4787 83.5084 80.12C82.9017 80.7613 82.5984 81.6367 82.5984 82.746C82.5984 83.8553 82.9017 84.7307 83.5084 85.372C84.1324 86.0133 84.8864 86.334 85.7704 86.334C86.6544 86.334 87.4084 86.0133 88.0324 85.372C88.6564 84.7133 88.9684 83.8293 88.9684 82.72ZM102.429 90.208C101.008 90.208 99.7249 89.9047 98.5809 89.298C97.4542 88.6913 96.5616 87.8247 95.9029 86.698C95.2616 85.5713 94.9409 84.254 94.9409 82.746C94.9409 81.2553 95.2702 79.9467 95.9289 78.82C96.5876 77.676 97.4889 76.8007 98.6329 76.194C99.7769 75.5873 101.06 75.284 102.481 75.284C103.902 75.284 105.185 75.5873 106.329 76.194C107.473 76.8007 108.374 77.676 109.033 78.82C109.692 79.9467 110.021 81.2553 110.021 82.746C110.021 84.2367 109.683 85.554 109.007 86.698C108.348 87.8247 107.438 88.6913 106.277 89.298C105.133 89.9047 103.85 90.208 102.429 90.208ZM102.429 86.36C103.278 86.36 103.998 86.048 104.587 85.424C105.194 84.8 105.497 83.9073 105.497 82.746C105.497 81.5847 105.202 80.692 104.613 80.068C104.041 79.444 103.33 79.132 102.481 79.132C101.614 79.132 100.895 79.444 100.323 80.068C99.7509 80.6747 99.4649 81.5673 99.4649 82.746C99.4649 83.9073 99.7422 84.8 100.297 85.424C100.869 86.048 101.58 86.36 102.429 86.36ZM116.826 77.91C117.346 77.1127 117.996 76.4887 118.776 76.038C119.556 75.57 120.422 75.336 121.376 75.336V80.042H120.154C119.044 80.042 118.212 80.2847 117.658 80.77C117.103 81.238 116.826 82.07 116.826 83.266V90H112.38V75.492H116.826V77.91ZM137.177 82.512C137.177 82.928 137.151 83.3613 137.099 83.812H127.037C127.106 84.7133 127.392 85.4067 127.895 85.892C128.415 86.36 129.047 86.594 129.793 86.594C130.902 86.594 131.673 86.126 132.107 85.19H136.839C136.596 86.1433 136.154 87.0013 135.513 87.764C134.889 88.5267 134.1 89.1247 133.147 89.558C132.193 89.9913 131.127 90.208 129.949 90.208C128.527 90.208 127.262 89.9047 126.153 89.298C125.043 88.6913 124.177 87.8247 123.553 86.698C122.929 85.5713 122.617 84.254 122.617 82.746C122.617 81.238 122.92 79.9207 123.527 78.794C124.151 77.6673 125.017 76.8007 126.127 76.194C127.236 75.5873 128.51 75.284 129.949 75.284C131.353 75.284 132.601 75.5787 133.693 76.168C134.785 76.7573 135.634 77.598 136.241 78.69C136.865 79.782 137.177 81.056 137.177 82.512ZM132.627 81.342C132.627 80.5793 132.367 79.9727 131.847 79.522C131.327 79.0713 130.677 78.846 129.897 78.846C129.151 78.846 128.519 79.0627 127.999 79.496C127.496 79.9293 127.184 80.5447 127.063 81.342H132.627Z" fill="#252525"/>
<g filter="url(#filter0_b_531_2012)">
<path d="M69.0469 0C67.1446 2.58064 60.6804 7.43225 50.0415 6.19355L51.1615 29.0322C51.5388 32.129 54.9515 40.5677 70.145 48C76.1014 44.5161 88.0163 35.071 88.0249 25.1613L88.0415 6.19355C84.8741 6.96774 76.6409 6.8129 69.0469 0Z" fill="url(#paint0_linear_531_2012)"/>
</g>
<path d="M61.4231 25.3724L67.0994 30.7144L78.9097 17.8047" stroke="white" stroke-width="4.13104" stroke-linecap="round"/>
<defs>
<filter id="filter0_b_531_2012" x="13.0415" y="-37" width="112" height="122" filterUnits="userSpaceOnUse" color-interpolation-filters="sRGB">
<feFlood flood-opacity="0" result="BackgroundImageFix"/>
<feGaussianBlur in="BackgroundImageFix" stdDeviation="18.5"/>
<feComposite in2="SourceAlpha" operator="in" result="effect1_backgroundBlur_531_2012"/>
<feBlend mode="normal" in="SourceGraphic" in2="effect1_backgroundBlur_531_2012" result="shape"/>
</filter>
<linearGradient id="paint0_linear_531_2012" x1="69.0469" y1="0" x2="69.0469" y2="48" gradientUnits="userSpaceOnUse">
<stop stop-color="#DB0011"/>
<stop offset="1" stop-color="#750009"/>
</linearGradient>
</defs>
</svg>
