<svg width="150" height="100" viewBox="0 0 150 100" fill="none" xmlns="http://www.w3.org/2000/svg">
<path d="M8.27557 90.182C6.9409 90.182 5.7449 89.9653 4.68757 89.532C3.63024 89.0987 2.7809 88.4573 2.13957 87.608C1.51557 86.7587 1.18624 85.736 1.15157 84.54H5.88357C5.9529 85.216 6.1869 85.736 6.58557 86.1C6.98424 86.4467 7.50424 86.62 8.14557 86.62C8.80424 86.62 9.32424 86.4727 9.70557 86.178C10.0869 85.866 10.2776 85.4413 10.2776 84.904C10.2776 84.4533 10.1216 84.0807 9.80957 83.786C9.5149 83.4913 9.14224 83.2487 8.69157 83.058C8.25824 82.8673 7.63424 82.6507 6.81957 82.408C5.6409 82.044 4.6789 81.68 3.93357 81.316C3.18824 80.952 2.5469 80.4147 2.00957 79.704C1.47224 78.9933 1.20357 78.066 1.20357 76.922C1.20357 75.2233 1.8189 73.8973 3.04957 72.944C4.28024 71.9733 5.88357 71.488 7.85957 71.488C9.87024 71.488 11.4909 71.9733 12.7216 72.944C13.9522 73.8973 14.6109 75.232 14.6976 76.948H9.88757C9.8529 76.3587 9.63624 75.8993 9.23757 75.57C8.8389 75.2233 8.32757 75.05 7.70357 75.05C7.16624 75.05 6.7329 75.1973 6.40357 75.492C6.07424 75.7693 5.90957 76.1767 5.90957 76.714C5.90957 77.3033 6.1869 77.7627 6.74157 78.092C7.29624 78.4213 8.1629 78.7767 9.34157 79.158C10.5202 79.5567 11.4736 79.938 12.2016 80.302C12.9469 80.666 13.5882 81.1947 14.1256 81.888C14.6629 82.5813 14.9316 83.474 14.9316 84.566C14.9316 85.606 14.6629 86.5507 14.1256 87.4C13.6056 88.2493 12.8429 88.9253 11.8376 89.428C10.8322 89.9307 9.6449 90.182 8.27557 90.182ZM22.1137 71.748V90H17.6677V71.748H22.1137ZM41.6636 90H37.2176L29.7816 78.742V90H25.3356V71.748H29.7816L37.2176 83.058V71.748H41.6636V90ZM57.0024 77.52C56.6731 76.9133 56.1964 76.454 55.5724 76.142C54.9657 75.8127 54.2464 75.648 53.4144 75.648C51.9757 75.648 50.8231 76.1247 49.9564 77.078C49.0897 78.014 48.6564 79.2707 48.6564 80.848C48.6564 82.5293 49.1071 83.8467 50.0084 84.8C50.9271 85.736 52.1837 86.204 53.7784 86.204C54.8704 86.204 55.7891 85.9267 56.5344 85.372C57.2971 84.8173 57.8517 84.02 58.1984 82.98H52.5564V79.704H62.2284V83.838C61.8991 84.9473 61.3357 85.9787 60.5384 86.932C59.7584 87.8853 58.7617 88.6567 57.5484 89.246C56.3351 89.8353 54.9657 90.13 53.4404 90.13C51.6377 90.13 50.0257 89.74 48.6044 88.96C47.2004 88.1627 46.0997 87.062 45.3024 85.658C44.5224 84.254 44.1324 82.6507 44.1324 80.848C44.1324 79.0453 44.5224 77.442 45.3024 76.038C46.0997 74.6167 47.2004 73.516 48.6044 72.736C50.0084 71.9387 51.6117 71.54 53.4144 71.54C55.5984 71.54 57.4357 72.0687 58.9264 73.126C60.4344 74.1833 61.4311 75.648 61.9164 77.52H57.0024ZM76.0531 86.776H69.2411L68.1491 90H63.4951L70.0991 71.748H75.2471L81.8511 90H77.1451L76.0531 86.776ZM74.9091 83.344L72.6471 76.662L70.4111 83.344H74.9091ZM97.771 77.624C97.771 78.6813 97.5284 79.652 97.043 80.536C96.5577 81.4027 95.8124 82.1047 94.807 82.642C93.8017 83.1793 92.5537 83.448 91.063 83.448H88.307V90H83.861V71.748H91.063C92.519 71.748 93.7497 71.9993 94.755 72.502C95.7604 73.0047 96.5144 73.698 97.017 74.582C97.5197 75.466 97.771 76.48 97.771 77.624ZM90.725 79.912C91.5744 79.912 92.207 79.7127 92.623 79.314C93.039 78.9153 93.247 78.352 93.247 77.624C93.247 76.896 93.039 76.3327 92.623 75.934C92.207 75.5353 91.5744 75.336 90.725 75.336H88.307V79.912H90.725ZM108.718 90.182C107.002 90.182 105.424 89.7833 103.986 88.986C102.564 88.1887 101.429 87.0793 100.58 85.658C99.7476 84.2193 99.3316 82.6073 99.3316 80.822C99.3316 79.0367 99.7476 77.4333 100.58 76.012C101.429 74.5907 102.564 73.4813 103.986 72.684C105.424 71.8867 107.002 71.488 108.718 71.488C110.434 71.488 112.002 71.8867 113.424 72.684C114.862 73.4813 115.989 74.5907 116.804 76.012C117.636 77.4333 118.052 79.0367 118.052 80.822C118.052 82.6073 117.636 84.2193 116.804 85.658C115.972 87.0793 114.845 88.1887 113.424 88.986C112.002 89.7833 110.434 90.182 108.718 90.182ZM108.718 86.126C110.174 86.126 111.335 85.6407 112.202 84.67C113.086 83.6993 113.528 82.4167 113.528 80.822C113.528 79.21 113.086 77.9273 112.202 76.974C111.335 76.0033 110.174 75.518 108.718 75.518C107.244 75.518 106.066 75.9947 105.182 76.948C104.315 77.9013 103.882 79.1927 103.882 80.822C103.882 82.434 104.315 83.7253 105.182 84.696C106.066 85.6493 107.244 86.126 108.718 86.126ZM129.833 90L126.037 83.11H124.971V90H120.525V71.748H127.987C129.426 71.748 130.648 71.9993 131.653 72.502C132.676 73.0047 133.438 73.698 133.941 74.582C134.444 75.4487 134.695 76.4193 134.695 77.494C134.695 78.7073 134.348 79.7907 133.655 80.744C132.979 81.6973 131.974 82.3733 130.639 82.772L134.851 90H129.833ZM124.971 79.964H127.727C128.542 79.964 129.148 79.7647 129.547 79.366C129.963 78.9673 130.171 78.404 130.171 77.676C130.171 76.9827 129.963 76.4367 129.547 76.038C129.148 75.6393 128.542 75.44 127.727 75.44H124.971V79.964ZM141.932 75.31V79.002H147.886V82.434H141.932V86.438H148.666V90H137.486V71.748H148.666V75.31H141.932Z" fill="#252525"/>
<g filter="url(#filter0_b_101_1976)">
<path d="M75.0469 0C73.1446 2.58064 66.6804 7.43225 56.0415 6.19355L57.1615 29.0322C57.5388 32.129 60.9515 40.5677 76.145 48C82.1014 44.5161 94.0163 35.071 94.0249 25.1613L94.0415 6.19355C90.8741 6.96774 82.6409 6.8129 75.0469 0Z" fill="url(#paint0_linear_101_1976)"/>
</g>
<path d="M67.4231 25.3724L73.0994 30.7144L84.9097 17.8047" stroke="white" stroke-width="4.13104" stroke-linecap="round"/>
<defs>
<filter id="filter0_b_101_1976" x="19.0415" y="-37" width="112" height="122" filterUnits="userSpaceOnUse" color-interpolation-filters="sRGB">
<feFlood flood-opacity="0" result="BackgroundImageFix"/>
<feGaussianBlur in="BackgroundImageFix" stdDeviation="18.5"/>
<feComposite in2="SourceAlpha" operator="in" result="effect1_backgroundBlur_101_1976"/>
<feBlend mode="normal" in="SourceGraphic" in2="effect1_backgroundBlur_101_1976" result="shape"/>
</filter>
<linearGradient id="paint0_linear_101_1976" x1="75.0469" y1="0" x2="75.0469" y2="48" gradientUnits="userSpaceOnUse">
<stop stop-color="#DB0011"/>
<stop offset="1" stop-color="#750009"/>
</linearGradient>
</defs>
</svg>
