<svg width="160" height="120" viewBox="0 0 160 120" fill="none" xmlns="http://www.w3.org/2000/svg">
<rect width="160" height="120" fill="white"/>
<path d="M13.2756 100.182C11.9409 100.182 10.7449 99.9653 9.68757 99.532C8.63024 99.0987 7.7809 98.4573 7.13957 97.608C6.51557 96.7587 6.18624 95.736 6.15157 94.54H10.8836C10.9529 95.216 11.1869 95.736 11.5856 96.1C11.9842 96.4467 12.5042 96.62 13.1456 96.62C13.8042 96.62 14.3242 96.4727 14.7056 96.178C15.0869 95.866 15.2776 95.4413 15.2776 94.904C15.2776 94.4533 15.1216 94.0807 14.8096 93.786C14.5149 93.4913 14.1422 93.2487 13.6916 93.058C13.2582 92.8673 12.6342 92.6507 11.8196 92.408C10.6409 92.044 9.6789 91.68 8.93357 91.316C8.18824 90.952 7.5469 90.4147 7.00957 89.704C6.47224 88.9933 6.20357 88.066 6.20357 86.922C6.20357 85.2233 6.8189 83.8973 8.04957 82.944C9.28024 81.9733 10.8836 81.488 12.8596 81.488C14.8702 81.488 16.4909 81.9733 17.7216 82.944C18.9522 83.8973 19.6109 85.232 19.6976 86.948H14.8876C14.8529 86.3587 14.6362 85.8993 14.2376 85.57C13.8389 85.2233 13.3276 85.05 12.7036 85.05C12.1662 85.05 11.7329 85.1973 11.4036 85.492C11.0742 85.7693 10.9096 86.1767 10.9096 86.714C10.9096 87.3033 11.1869 87.7627 11.7416 88.092C12.2962 88.4213 13.1629 88.7767 14.3416 89.158C15.5202 89.5567 16.4736 89.938 17.2016 90.302C17.9469 90.666 18.5882 91.1947 19.1256 91.888C19.6629 92.5813 19.9316 93.474 19.9316 94.566C19.9316 95.606 19.6629 96.5507 19.1256 97.4C18.6056 98.2493 17.8429 98.9253 16.8376 99.428C15.8322 99.9307 14.6449 100.182 13.2756 100.182ZM27.1137 81.748V100H22.6677V81.748H27.1137ZM46.6636 100H42.2176L34.7816 88.742V100H30.3356V81.748H34.7816L42.2176 93.058V81.748H46.6636V100ZM62.0024 87.52C61.6731 86.9133 61.1964 86.454 60.5724 86.142C59.9657 85.8127 59.2464 85.648 58.4144 85.648C56.9757 85.648 55.8231 86.1247 54.9564 87.078C54.0897 88.014 53.6564 89.2707 53.6564 90.848C53.6564 92.5293 54.1071 93.8467 55.0084 94.8C55.9271 95.736 57.1837 96.204 58.7784 96.204C59.8704 96.204 60.7891 95.9267 61.5344 95.372C62.2971 94.8173 62.8517 94.02 63.1984 92.98H57.5564V89.704H67.2284V93.838C66.8991 94.9473 66.3357 95.9787 65.5384 96.932C64.7584 97.8853 63.7617 98.6567 62.5484 99.246C61.3351 99.8353 59.9657 100.13 58.4404 100.13C56.6377 100.13 55.0257 99.74 53.6044 98.96C52.2004 98.1627 51.0997 97.062 50.3024 95.658C49.5224 94.254 49.1324 92.6507 49.1324 90.848C49.1324 89.0453 49.5224 87.442 50.3024 86.038C51.0997 84.6167 52.2004 83.516 53.6044 82.736C55.0084 81.9387 56.6117 81.54 58.4144 81.54C60.5984 81.54 62.4357 82.0687 63.9264 83.126C65.4344 84.1833 66.4311 85.648 66.9164 87.52H62.0024ZM81.0531 96.776H74.2411L73.1491 100H68.4951L75.0991 81.748H80.2471L86.8511 100H82.1451L81.0531 96.776ZM79.9091 93.344L77.6471 86.662L75.4111 93.344H79.9091ZM102.771 87.624C102.771 88.6813 102.528 89.652 102.043 90.536C101.558 91.4027 100.812 92.1047 99.807 92.642C98.8017 93.1793 97.5537 93.448 96.063 93.448H93.307V100H88.861V81.748H96.063C97.519 81.748 98.7497 81.9993 99.755 82.502C100.76 83.0047 101.514 83.698 102.017 84.582C102.52 85.466 102.771 86.48 102.771 87.624ZM95.725 89.912C96.5744 89.912 97.207 89.7127 97.623 89.314C98.039 88.9153 98.247 88.352 98.247 87.624C98.247 86.896 98.039 86.3327 97.623 85.934C97.207 85.5353 96.5744 85.336 95.725 85.336H93.307V89.912H95.725ZM113.718 100.182C112.002 100.182 110.424 99.7833 108.986 98.986C107.564 98.1887 106.429 97.0793 105.58 95.658C104.748 94.2193 104.332 92.6073 104.332 90.822C104.332 89.0367 104.748 87.4333 105.58 86.012C106.429 84.5907 107.564 83.4813 108.986 82.684C110.424 81.8867 112.002 81.488 113.718 81.488C115.434 81.488 117.002 81.8867 118.424 82.684C119.862 83.4813 120.989 84.5907 121.804 86.012C122.636 87.4333 123.052 89.0367 123.052 90.822C123.052 92.6073 122.636 94.2193 121.804 95.658C120.972 97.0793 119.845 98.1887 118.424 98.986C117.002 99.7833 115.434 100.182 113.718 100.182ZM113.718 96.126C115.174 96.126 116.335 95.6407 117.202 94.67C118.086 93.6993 118.528 92.4167 118.528 90.822C118.528 89.21 118.086 87.9273 117.202 86.974C116.335 86.0033 115.174 85.518 113.718 85.518C112.244 85.518 111.066 85.9947 110.182 86.948C109.315 87.9013 108.882 89.1927 108.882 90.822C108.882 92.434 109.315 93.7253 110.182 94.696C111.066 95.6493 112.244 96.126 113.718 96.126ZM134.833 100L131.037 93.11H129.971V100H125.525V81.748H132.987C134.426 81.748 135.648 81.9993 136.653 82.502C137.676 83.0047 138.438 83.698 138.941 84.582C139.444 85.4487 139.695 86.4193 139.695 87.494C139.695 88.7073 139.348 89.7907 138.655 90.744C137.979 91.6973 136.974 92.3733 135.639 92.772L139.851 100H134.833ZM129.971 89.964H132.727C133.542 89.964 134.148 89.7647 134.547 89.366C134.963 88.9673 135.171 88.404 135.171 87.676C135.171 86.9827 134.963 86.4367 134.547 86.038C134.148 85.6393 133.542 85.44 132.727 85.44H129.971V89.964ZM146.932 85.31V89.002H152.886V92.434H146.932V96.438H153.666V100H142.486V81.748H153.666V85.31H146.932Z" fill="#252525"/>
<g filter="url(#filter0_b_186_2247)">
<path d="M80.0469 10C78.1446 12.5806 71.6804 17.4323 61.0415 16.1935L62.1615 39.0322C62.5388 42.129 65.9515 50.5677 81.145 58C87.1014 54.5161 99.0163 45.071 99.0249 35.1613L99.0415 16.1935C95.8741 16.9677 87.6409 16.8129 80.0469 10Z" fill="url(#paint0_linear_186_2247)"/>
</g>
<path d="M72.4231 35.3724L78.0994 40.7144L89.9097 27.8047" stroke="white" stroke-width="4.13104" stroke-linecap="round"/>
<defs>
<filter id="filter0_b_186_2247" x="24.0415" y="-27" width="112" height="122" filterUnits="userSpaceOnUse" color-interpolation-filters="sRGB">
<feFlood flood-opacity="0" result="BackgroundImageFix"/>
<feGaussianBlur in="BackgroundImageFix" stdDeviation="18.5"/>
<feComposite in2="SourceAlpha" operator="in" result="effect1_backgroundBlur_186_2247"/>
<feBlend mode="normal" in="SourceGraphic" in2="effect1_backgroundBlur_186_2247" result="shape"/>
</filter>
<linearGradient id="paint0_linear_186_2247" x1="80.0469" y1="10" x2="80.0469" y2="58" gradientUnits="userSpaceOnUse">
<stop stop-color="#DB0011"/>
<stop offset="1" stop-color="#750009"/>
</linearGradient>
</defs>
</svg>
