<svg width="72" height="72" viewBox="0 0 72 72" fill="none" xmlns="http://www.w3.org/2000/svg">
<g filter="url(#filter0_d_111_2089)">
<circle cx="36" cy="36" r="26" fill="white"/>
</g>
<path d="M48.5715 23.3138C48.0085 22.8393 47.1673 22.911 46.6927 23.4741C46.2182 24.0372 46.2899 24.8784 46.853 25.3529C48.3201 26.5893 49.0002 28.1551 49.0002 29.6667C49.0002 31.1783 48.3201 32.7441 46.853 33.9804C46.2899 34.4551 46.2182 35.2962 46.6927 35.8592C47.1673 36.4223 48.0085 36.4942 48.5715 36.0196C50.5995 34.3104 51.6669 32.0156 51.6669 29.6667C51.6669 27.3178 50.5995 25.023 48.5715 23.3138Z" fill="#EF0003"/>
<path d="M45.8566 25.6029C45.2936 25.1283 44.4525 25.2001 43.9778 25.7632C43.5033 26.3262 43.5752 27.1674 44.1382 27.642C44.8562 28.2471 45.162 28.9857 45.162 29.67C45.162 30.3544 44.8562 31.0929 44.1382 31.6981C43.5752 32.1727 43.5033 33.0138 43.9778 33.5769C44.4525 34.14 45.2936 34.2118 45.8566 33.7372C47.1357 32.6592 47.8286 31.1917 47.8286 29.67C47.8286 28.1484 47.1357 26.6809 45.8566 25.6029Z" fill="#EF0003"/>
<path d="M29 29.6667C29 25.9848 31.9848 23 35.6667 23C39.3485 23 42.3333 25.9848 42.3333 29.6667C42.3333 33.3486 39.3485 36.3333 35.6667 36.3333C31.9848 36.3333 29 33.3486 29 29.6667Z" fill="#EF0003"/>
<path d="M25 48.3307C25 42.4397 29.7756 37.6641 35.6667 37.6641C41.5577 37.6641 46.3333 42.4397 46.3333 48.3307C46.3333 49.0671 45.7364 49.6641 45 49.6641H26.3333C25.597 49.6641 25 49.0671 25 48.3307Z" fill="#EF0003"/>
<defs>
<filter id="filter0_d_111_2089" x="0" y="0" width="72" height="72" filterUnits="userSpaceOnUse" color-interpolation-filters="sRGB">
<feFlood flood-opacity="0" result="BackgroundImageFix"/>
<feColorMatrix in="SourceAlpha" type="matrix" values="0 0 0 0 0 0 0 0 0 0 0 0 0 0 0 0 0 0 127 0" result="hardAlpha"/>
<feOffset/>
<feGaussianBlur stdDeviation="5"/>
<feComposite in2="hardAlpha" operator="out"/>
<feColorMatrix type="matrix" values="0 0 0 0 0 0 0 0 0 0 0 0 0 0 0 0 0 0 0.1 0"/>
<feBlend mode="normal" in2="BackgroundImageFix" result="effect1_dropShadow_111_2089"/>
<feBlend mode="normal" in="SourceGraphic" in2="effect1_dropShadow_111_2089" result="shape"/>
</filter>
</defs>
</svg>
