<svg width="162" height="162" viewBox="0 0 162 162" fill="none" xmlns="http://www.w3.org/2000/svg">
<circle cx="81" cy="81" r="81" fill="white"/>
<g clip-path="url(#clip0_2_31372)">
<path d="M129.117 65.6339C128.841 65.514 122.107 62.5968 82.2394 45.3203C81.4464 44.9766 80.5479 44.9766 79.7549 45.3203L32.8775 65.6339C30.3621 66.7217 30.3863 70.2922 32.8775 71.3686C41.9842 75.3143 56.8719 81.7664 79.7549 91.6821C80.5432 92.024 81.4417 92.0281 82.2394 91.6821C84.4124 90.7405 114.021 77.9101 115.374 77.324V110.603C115.374 112.287 116.668 113.734 118.35 113.813C120.144 113.896 121.624 112.467 121.624 110.691V76.1905C121.624 75.6995 121.261 75.2848 120.773 75.2221C114.908 74.4662 87.2444 70.8957 80.5968 70.0384C78.674 69.7982 77.4759 67.8512 77.9814 66.1183C78.3779 64.6547 79.7674 63.7225 81.1749 63.8193C81.3152 63.8276 125.851 69.5747 125.819 69.5706C126.651 69.6777 127.335 70.2105 127.664 70.933C127.894 71.4381 128.478 71.6696 128.981 71.434C129.822 71.0398 130.551 70.5211 130.883 69.347C131.31 67.8256 130.538 66.2484 129.117 65.6339Z" fill="#3F8C57"/>
<path d="M77.269 97.4166L51.111 86.0816C50.4661 85.8021 49.7461 86.275 49.7461 86.9777V98.19C49.7461 108.704 63.4734 116.941 80.9977 116.941C98.5221 116.941 112.249 108.704 112.249 98.19V86.9777C112.249 86.275 111.529 85.8023 110.884 86.0816L84.7245 97.4166C82.3494 98.449 79.6465 98.4483 77.269 97.4166Z" fill="#3F8C57"/>
</g>
<defs>
<clipPath id="clip0_2_31372">
<rect width="100" height="100" fill="white" transform="translate(31 31)"/>
</clipPath>
</defs>
</svg>
