<svg width="40" height="40" viewBox="0 0 40 40" fill="none" xmlns="http://www.w3.org/2000/svg">
<g clip-path="url(#clip0_2_31888)">
<path d="M21.4352 31.8843C21.4352 31.2246 21.4973 30.5792 21.6148 29.9531H6.19273C5.54555 29.9531 5.02086 29.4284 5.02086 28.7812C5.02086 28.1341 5.54555 27.6094 6.19273 27.6094H22.3499C22.8036 26.6009 23.4125 25.6769 24.1462 24.8679C24.0267 24.909 23.8991 24.9323 23.7657 24.9323H6.19273C4.64578 24.8776 4.635 22.6477 6.19273 22.5885H23.7656C24.5548 22.5734 25.1432 23.4022 24.8731 24.1409C26.2756 22.8689 28.024 21.972 29.9584 21.6092V8.69789C29.9584 6.61711 28.2635 5.01562 26.276 5.01562H22.9938C22.8389 7.71828 20.5919 9.86977 17.8511 9.86977H12.1073C9.36648 9.86977 7.11945 7.71828 6.96453 5.01562H3.68234C1.69477 5.01562 0 6.61727 0 8.69789V36.3125C0 38.3888 1.69141 39.9948 3.68234 39.9948H25.3011C22.9439 38.0763 21.4352 35.1534 21.4352 31.8843ZM6.19273 12.5469H23.7657C24.4129 12.5469 24.9376 13.0716 24.9376 13.7188C24.9376 14.3659 24.4129 14.8906 23.7657 14.8906H6.19273C4.64492 14.8355 4.6357 12.6059 6.19273 12.5469ZM6.19273 17.5677H23.7657C24.4129 17.5677 24.9376 18.0924 24.9376 18.7396C24.9376 19.3868 24.4129 19.9115 23.7657 19.9115H6.19273C4.64492 19.8564 4.6357 17.6266 6.19273 17.5677ZM12.4688 34.974H6.19273C4.64164 34.9173 4.63883 32.688 6.19273 32.6302H12.4688C13.1159 32.6302 13.6406 33.1549 13.6406 33.8021C13.6406 34.4493 13.1159 34.974 12.4688 34.974Z" fill="#ED0200"/>
<path d="M12.1068 7.52705H17.8507C21.7061 7.35432 21.5017 1.81541 17.6414 1.91041C16.7786 -0.627168 13.1778 -0.625605 12.3161 1.91041C8.47128 1.80838 8.23784 7.34471 12.1068 7.52705Z" fill="#ED0200"/>
<path d="M31.8898 23.7734C27.4177 23.7734 23.7793 27.4118 23.7793 31.8839C24.187 42.6289 39.5942 42.6259 40.0004 31.8838C40.0004 27.4118 36.362 23.7734 31.8898 23.7734ZM35.1517 31.0902L31.9077 34.3343C31.4501 34.792 30.7082 34.792 30.2505 34.3345L28.6282 32.7127C27.5709 31.5752 29.1461 29.9977 30.2852 31.0552L31.0789 31.8485L33.4945 29.433C34.6328 28.3755 36.2091 29.952 35.1517 31.0902Z" fill="#ED0200"/>
</g>
<defs>
<clipPath id="clip0_2_31888">
<rect width="40" height="40" fill="white"/>
</clipPath>
</defs>
</svg>
