<svg width="24" height="24" viewBox="0 0 24 24" fill="none" xmlns="http://www.w3.org/2000/svg">
<path d="M6.08994 18.998H18.0899L16.7899 20.288C16.6016 20.4763 16.4958 20.7317 16.4958 20.998C16.4958 21.2643 16.6016 21.5197 16.7899 21.708C16.9782 21.8963 17.2336 22.0021 17.4999 22.0021C17.7662 22.0021 18.0216 21.8963 18.2099 21.708L21.2099 18.708C21.3037 18.615 21.3781 18.5044 21.4288 18.3826C21.4796 18.2607 21.5057 18.13 21.5057 17.998C21.5057 17.866 21.4796 17.7353 21.4288 17.6134C21.3781 17.4915 21.3037 17.3809 21.2099 17.288L18.2099 14.288C18.117 14.1943 18.0064 14.1199 17.8845 14.0691C17.7627 14.0183 17.632 13.9922 17.4999 13.9922C17.3679 13.9922 17.2372 14.0183 17.1154 14.0691C16.9935 14.1199 16.8829 14.1943 16.7899 14.288C16.6962 14.3809 16.6218 14.4915 16.571 14.6134C16.5203 14.7353 16.4941 14.866 16.4941 14.998C16.4941 15.13 16.5203 15.2607 16.571 15.3826C16.6218 15.5044 16.6962 15.615 16.7899 15.708L18.0899 16.998H6.08994C5.88507 17.002 5.68142 16.9655 5.49063 16.8908C5.29983 16.8161 5.12564 16.7045 4.97798 16.5624C4.83033 16.4203 4.71212 16.2505 4.63009 16.0627C4.54807 15.875 4.50384 15.6729 4.49994 15.468V12.998C4.49994 12.7328 4.39458 12.4784 4.20705 12.2909C4.01951 12.1033 3.76516 11.998 3.49994 11.998C3.23472 11.998 2.98037 12.1033 2.79283 12.2909C2.6053 12.4784 2.49994 12.7328 2.49994 12.998V15.468C2.50386 15.9355 2.59983 16.3977 2.78237 16.8281C2.96492 17.2585 3.23045 17.6487 3.56382 17.9765C3.89718 18.3043 4.29185 18.5633 4.72528 18.7385C5.15872 18.9138 5.62243 19.0019 6.08994 18.998ZM5.78994 9.70799C5.97824 9.89629 6.23364 10.0021 6.49994 10.0021C6.76624 10.0021 7.02164 9.89629 7.20994 9.70799C7.39824 9.51968 7.50403 9.26429 7.50403 8.99799C7.50403 8.73168 7.39824 8.47629 7.20994 8.28799L5.90994 6.99799H17.9099C18.1148 6.99401 18.3185 7.03043 18.5093 7.10518C18.7 7.17992 18.8742 7.29152 19.0219 7.4336C19.1695 7.57568 19.2878 7.74546 19.3698 7.93324C19.4518 8.12101 19.496 8.32311 19.4999 8.52799V10.998C19.4999 11.2632 19.6053 11.5176 19.7928 11.7051C19.9804 11.8926 20.2347 11.998 20.4999 11.998C20.7652 11.998 21.0195 11.8926 21.207 11.7051C21.3946 11.5176 21.4999 11.2632 21.4999 10.998V8.52799C21.496 8.06047 21.4 7.59832 21.2175 7.1679C21.035 6.73748 20.7694 6.34723 20.4361 6.01943C20.1027 5.69164 19.708 5.43272 19.2746 5.25746C18.8412 5.0822 18.3774 4.99403 17.9099 4.99799H5.90994L7.20994 3.70799C7.30367 3.61502 7.37806 3.50442 7.42883 3.38256C7.4796 3.2607 7.50574 3.13 7.50574 2.99799C7.50574 2.86597 7.4796 2.73527 7.42883 2.61341C7.37806 2.49155 7.30367 2.38095 7.20994 2.28799C7.11698 2.19426 7.00637 2.11986 6.88452 2.06909C6.76266 2.01833 6.63195 1.99219 6.49994 1.99219C6.36793 1.99219 6.23722 2.01833 6.11536 2.06909C5.9935 2.11986 5.8829 2.19426 5.78994 2.28799L2.78994 5.28799C2.69621 5.38095 2.62182 5.49155 2.57105 5.61341C2.52028 5.73527 2.49414 5.86597 2.49414 5.99799C2.49414 6.13 2.52028 6.2607 2.57105 6.38256C2.62182 6.50442 2.69621 6.61502 2.78994 6.70799L5.78994 9.70799Z" fill="#888888"/>
</svg>
