<svg width="160" height="120" viewBox="0 0 160 120" fill="none" xmlns="http://www.w3.org/2000/svg">
<rect width="160" height="120" fill="white"/>
<path d="M68.2237 81.748V92.668C68.2237 93.76 68.4923 94.6007 69.0297 95.19C69.567 95.7793 70.3557 96.074 71.3957 96.074C72.4357 96.074 73.233 95.7793 73.7877 95.19C74.3423 94.6007 74.6197 93.76 74.6197 92.668V81.748H79.0657V92.642C79.0657 94.2713 78.719 95.6493 78.0257 96.776C77.3323 97.9027 76.3963 98.752 75.2177 99.324C74.0563 99.896 72.7563 100.182 71.3177 100.182C69.879 100.182 68.5877 99.9047 67.4437 99.35C66.317 98.778 65.4243 97.9287 64.7657 96.802C64.107 95.658 63.7777 94.2713 63.7777 92.642V81.748H68.2237ZM92.7697 100L86.6337 91.94V100H82.1877V81.748H86.6337V89.756L92.7177 81.748H97.9437L90.8717 90.692L98.2037 100H92.7697Z" fill="#252525"/>
<g filter="url(#filter0_b_186_2233)">
<path d="M80.021 10C78.1187 12.5806 71.6545 17.4323 61.0156 16.1935L62.1357 39.0322C62.513 42.129 65.9256 50.5677 81.1191 58C87.0755 54.5161 98.9904 45.071 98.999 35.1613L99.0156 16.1935C95.8482 16.9677 87.6151 16.8129 80.021 10Z" fill="url(#paint0_linear_186_2233)"/>
</g>
<path d="M72.3972 35.3724L78.0735 40.7144L89.8838 27.8047" stroke="white" stroke-width="4.13104" stroke-linecap="round"/>
<defs>
<filter id="filter0_b_186_2233" x="24.0156" y="-27" width="112" height="122" filterUnits="userSpaceOnUse" color-interpolation-filters="sRGB">
<feFlood flood-opacity="0" result="BackgroundImageFix"/>
<feGaussianBlur in="BackgroundImageFix" stdDeviation="18.5"/>
<feComposite in2="SourceAlpha" operator="in" result="effect1_backgroundBlur_186_2233"/>
<feBlend mode="normal" in="SourceGraphic" in2="effect1_backgroundBlur_186_2233" result="shape"/>
</filter>
<linearGradient id="paint0_linear_186_2233" x1="80.021" y1="10" x2="80.021" y2="58" gradientUnits="userSpaceOnUse">
<stop stop-color="#DB0011"/>
<stop offset="1" stop-color="#750009"/>
</linearGradient>
</defs>
</svg>
