<svg width="54" height="100" viewBox="0 0 54 100" fill="none" xmlns="http://www.w3.org/2000/svg">
<path d="M6.23098 71.748V82.668C6.23098 83.76 6.49964 84.6007 7.03698 85.19C7.57431 85.7793 8.36298 86.074 9.40298 86.074C10.443 86.074 11.2403 85.7793 11.795 85.19C12.3496 84.6007 12.627 83.76 12.627 82.668V71.748H17.073V82.642C17.073 84.2713 16.7263 85.6493 16.033 86.776C15.3396 87.9027 14.4036 88.752 13.225 89.324C12.0636 89.896 10.7636 90.182 9.32498 90.182C7.88631 90.182 6.59498 89.9047 5.45098 89.35C4.32431 88.778 3.43164 87.9287 2.77298 86.802C2.11431 85.658 1.78498 84.2713 1.78498 82.642V71.748H6.23098ZM26.799 90.182C25.4643 90.182 24.2683 89.9653 23.211 89.532C22.1537 89.0987 21.3043 88.4573 20.663 87.608C20.039 86.7587 19.7097 85.736 19.675 84.54H24.407C24.4763 85.216 24.7103 85.736 25.109 86.1C25.5077 86.4467 26.0277 86.62 26.669 86.62C27.3277 86.62 27.8477 86.4727 28.229 86.178C28.6103 85.866 28.801 85.4413 28.801 84.904C28.801 84.4533 28.645 84.0807 28.333 83.786C28.0383 83.4913 27.6657 83.2487 27.215 83.058C26.7817 82.8673 26.1577 82.6507 25.343 82.408C24.1643 82.044 23.2023 81.68 22.457 81.316C21.7117 80.952 21.0703 80.4147 20.533 79.704C19.9957 78.9933 19.727 78.066 19.727 76.922C19.727 75.2233 20.3423 73.8973 21.573 72.944C22.8037 71.9733 24.407 71.488 26.383 71.488C28.3937 71.488 30.0143 71.9733 31.245 72.944C32.4757 73.8973 33.1343 75.232 33.221 76.948H28.411C28.3763 76.3587 28.1597 75.8993 27.761 75.57C27.3623 75.2233 26.851 75.05 26.227 75.05C25.6897 75.05 25.2563 75.1973 24.927 75.492C24.5977 75.7693 24.433 76.1767 24.433 76.714C24.433 77.3033 24.7103 77.7627 25.265 78.092C25.8197 78.4213 26.6863 78.7767 27.865 79.158C29.0437 79.5567 29.997 79.938 30.725 80.302C31.4703 80.666 32.1117 81.1947 32.649 81.888C33.1863 82.5813 33.455 83.474 33.455 84.566C33.455 85.606 33.1863 86.5507 32.649 87.4C32.129 88.2493 31.3663 88.9253 30.361 89.428C29.3557 89.9307 28.1683 90.182 26.799 90.182ZM47.5531 86.776H40.7411L39.6491 90H34.9951L41.5991 71.748H46.7471L53.3511 90H48.6451L47.5531 86.776ZM46.4091 83.344L44.1471 76.662L41.9111 83.344H46.4091Z" fill="#252525"/>
<g filter="url(#filter0_b_101_2064)">
<path d="M27.0469 0C25.1446 2.58064 18.6804 7.43225 8.04147 6.19355L9.16154 29.0322C9.53884 32.129 12.9515 40.5677 28.145 48C34.1014 44.5161 46.0163 35.071 46.0249 25.1613L46.0415 6.19355C42.8741 6.96774 34.6409 6.8129 27.0469 0Z" fill="url(#paint0_linear_101_2064)"/>
</g>
<path d="M19.4231 25.3724L25.0994 30.7144L36.9097 17.8047" stroke="white" stroke-width="4.13104" stroke-linecap="round"/>
<defs>
<filter id="filter0_b_101_2064" x="-28.9585" y="-37" width="112" height="122" filterUnits="userSpaceOnUse" color-interpolation-filters="sRGB">
<feFlood flood-opacity="0" result="BackgroundImageFix"/>
<feGaussianBlur in="BackgroundImageFix" stdDeviation="18.5"/>
<feComposite in2="SourceAlpha" operator="in" result="effect1_backgroundBlur_101_2064"/>
<feBlend mode="normal" in="SourceGraphic" in2="effect1_backgroundBlur_101_2064" result="shape"/>
</filter>
<linearGradient id="paint0_linear_101_2064" x1="27.0469" y1="0" x2="27.0469" y2="48" gradientUnits="userSpaceOnUse">
<stop stop-color="#DB0011"/>
<stop offset="1" stop-color="#750009"/>
</linearGradient>
</defs>
</svg>
