<svg width="160" height="120" viewBox="0 0 160 120" fill="none" xmlns="http://www.w3.org/2000/svg">
<rect width="160" height="120" fill="white"/>
<path d="M59.231 81.748V92.668C59.231 93.76 59.4996 94.6007 60.037 95.19C60.5743 95.7793 61.363 96.074 62.403 96.074C63.443 96.074 64.2403 95.7793 64.795 95.19C65.3496 94.6007 65.627 93.76 65.627 92.668V81.748H70.073V92.642C70.073 94.2713 69.7263 95.6493 69.033 96.776C68.3396 97.9027 67.4036 98.752 66.225 99.324C65.0636 99.896 63.7636 100.182 62.325 100.182C60.8863 100.182 59.595 99.9047 58.451 99.35C57.3243 98.778 56.4316 97.9287 55.773 96.802C55.1143 95.658 54.785 94.2713 54.785 92.642V81.748H59.231ZM79.799 100.182C78.4643 100.182 77.2683 99.9653 76.211 99.532C75.1537 99.0987 74.3043 98.4573 73.663 97.608C73.039 96.7587 72.7097 95.736 72.675 94.54H77.407C77.4763 95.216 77.7103 95.736 78.109 96.1C78.5077 96.4467 79.0277 96.62 79.669 96.62C80.3277 96.62 80.8477 96.4727 81.229 96.178C81.6103 95.866 81.801 95.4413 81.801 94.904C81.801 94.4533 81.645 94.0807 81.333 93.786C81.0383 93.4913 80.6657 93.2487 80.215 93.058C79.7817 92.8673 79.1577 92.6507 78.343 92.408C77.1643 92.044 76.2023 91.68 75.457 91.316C74.7117 90.952 74.0703 90.4147 73.533 89.704C72.9957 88.9933 72.727 88.066 72.727 86.922C72.727 85.2233 73.3423 83.8973 74.573 82.944C75.8037 81.9733 77.407 81.488 79.383 81.488C81.3937 81.488 83.0143 81.9733 84.245 82.944C85.4757 83.8973 86.1343 85.232 86.221 86.948H81.411C81.3763 86.3587 81.1597 85.8993 80.761 85.57C80.3623 85.2233 79.851 85.05 79.227 85.05C78.6897 85.05 78.2563 85.1973 77.927 85.492C77.5977 85.7693 77.433 86.1767 77.433 86.714C77.433 87.3033 77.7103 87.7627 78.265 88.092C78.8197 88.4213 79.6863 88.7767 80.865 89.158C82.0437 89.5567 82.997 89.938 83.725 90.302C84.4703 90.666 85.1117 91.1947 85.649 91.888C86.1863 92.5813 86.455 93.474 86.455 94.566C86.455 95.606 86.1863 96.5507 85.649 97.4C85.129 98.2493 84.3663 98.9253 83.361 99.428C82.3557 99.9307 81.1683 100.182 79.799 100.182ZM100.553 96.776H93.7411L92.6491 100H87.9951L94.5991 81.748H99.7471L106.351 100H101.645L100.553 96.776ZM99.4091 93.344L97.1471 86.662L94.9111 93.344H99.4091Z" fill="#252525"/>
<g filter="url(#filter0_b_186_2226)">
<path d="M80.0469 10C78.1446 12.5806 71.6804 17.4323 61.0415 16.1935L62.1615 39.0322C62.5388 42.129 65.9515 50.5677 81.145 58C87.1014 54.5161 99.0163 45.071 99.0249 35.1613L99.0415 16.1935C95.8741 16.9677 87.6409 16.8129 80.0469 10Z" fill="url(#paint0_linear_186_2226)"/>
</g>
<path d="M72.4231 35.3724L78.0994 40.7144L89.9097 27.8047" stroke="white" stroke-width="4.13104" stroke-linecap="round"/>
<defs>
<filter id="filter0_b_186_2226" x="24.0415" y="-27" width="112" height="122" filterUnits="userSpaceOnUse" color-interpolation-filters="sRGB">
<feFlood flood-opacity="0" result="BackgroundImageFix"/>
<feGaussianBlur in="BackgroundImageFix" stdDeviation="18.5"/>
<feComposite in2="SourceAlpha" operator="in" result="effect1_backgroundBlur_186_2226"/>
<feBlend mode="normal" in="SourceGraphic" in2="effect1_backgroundBlur_186_2226" result="shape"/>
</filter>
<linearGradient id="paint0_linear_186_2226" x1="80.0469" y1="10" x2="80.0469" y2="58" gradientUnits="userSpaceOnUse">
<stop stop-color="#DB0011"/>
<stop offset="1" stop-color="#750009"/>
</linearGradient>
</defs>
</svg>
