<svg width="77" height="72" viewBox="0 0 77 72" fill="none" xmlns="http://www.w3.org/2000/svg">
<g filter="url(#filter0_d_107_2086)">
<ellipse cx="38.0093" cy="36" rx="28.0093" ry="26" fill="white"/>
</g>
<path fill-rule="evenodd" clip-rule="evenodd" d="M21 27.665C21 23.9865 24.2644 21 28.2851 21C32.3059 21 35.5703 23.9865 35.5703 27.665C35.5703 29.8388 34.4115 31.876 32.4655 33.1234L33.1599 36.5525C33.1872 36.6871 33.1175 36.8227 32.99 36.8829C32.8624 36.9433 32.7089 36.9133 32.6156 36.8099L30.1728 34.1023C29.5571 34.2534 28.9225 34.3299 28.2851 34.3299C24.2644 34.3299 21 31.3434 21 27.665ZM32.1482 27.2406H24.4221C24.1796 27.2406 23.9828 27.4307 23.9828 27.6649C23.9828 27.8991 24.1796 28.0893 24.4221 28.0893H32.1482C32.3906 28.0893 32.5875 27.8991 32.5875 27.6649C32.5875 27.4307 32.3906 27.2406 32.1482 27.2406ZM32.1482 29.8506H24.4221C24.1796 29.8506 23.9828 30.0408 23.9828 30.2749C23.9828 30.5091 24.1796 30.6993 24.4221 30.6993H32.1482C32.3906 30.6993 32.5875 30.5091 32.5875 30.2749C32.5875 30.0408 32.3906 29.8506 32.1482 29.8506ZM32.1482 24.6305H24.4221C24.1796 24.6305 23.9828 24.8207 23.9828 25.0548C23.9828 25.2891 24.1796 25.4792 24.4221 25.4792H32.1482C32.3906 25.4792 32.5875 25.2891 32.5875 25.0548C32.5875 24.8207 32.3906 24.6305 32.1482 24.6305ZM37.1341 45.3938C37.0681 45.273 37.0941 45.1245 37.1975 45.0315C37.633 44.6385 38.7558 43.6287 38.7558 43.6287H36.947C36.7739 43.6287 36.6334 43.4932 36.6333 43.3259C36.6333 43.323 36.6333 43.3199 36.6333 43.3169V42.3364H34.8281C34.373 42.3364 34.0979 41.8607 34.3129 41.4789L36.6333 37.3621C36.6333 33.5759 39.2982 30.6786 43.378 30.4674C48.6252 30.1959 50.9311 33.135 51.1016 36.7297C51.4079 43.1521 47.2224 44.2486 47.2536 47.0357V50.0978H40.1378V47.0357C38.6513 47.0357 37.6707 46.3588 37.1341 45.3938Z" fill="#EF0003"/>
<defs>
<filter id="filter0_d_107_2086" x="0" y="0" width="76.0195" height="72" filterUnits="userSpaceOnUse" color-interpolation-filters="sRGB">
<feFlood flood-opacity="0" result="BackgroundImageFix"/>
<feColorMatrix in="SourceAlpha" type="matrix" values="0 0 0 0 0 0 0 0 0 0 0 0 0 0 0 0 0 0 127 0" result="hardAlpha"/>
<feOffset/>
<feGaussianBlur stdDeviation="5"/>
<feComposite in2="hardAlpha" operator="out"/>
<feColorMatrix type="matrix" values="0 0 0 0 0 0 0 0 0 0 0 0 0 0 0 0 0 0 0.1 0"/>
<feBlend mode="normal" in2="BackgroundImageFix" result="effect1_dropShadow_107_2086"/>
<feBlend mode="normal" in="SourceGraphic" in2="effect1_dropShadow_107_2086" result="shape"/>
</filter>
</defs>
</svg>
