<svg width="24" height="24" viewBox="0 0 24 24" fill="none" xmlns="http://www.w3.org/2000/svg">
<path d="M12.0273 0H11.9727C5.36035 0 0 5.36035 0 11.9727V12.0273C0 18.6397 5.36035 24 11.9727 24H12.0273C18.6397 24 24 18.6397 24 12.0273V11.9727C24 5.36035 18.6397 0 12.0273 0Z" fill="#00E510"/>
<path d="M14.339 15.5144C11.2674 15.5144 8.76842 13.0146 8.76758 9.94301C8.76842 9.1644 9.40241 8.53125 10.1793 8.53125C10.2592 8.53125 10.3383 8.53798 10.4139 8.55143C10.5804 8.57918 10.7385 8.63551 10.884 8.72044C10.905 8.73305 10.9193 8.75323 10.9226 8.77677L11.2472 10.8225C11.2514 10.8469 11.2438 10.8705 11.2279 10.8881C11.0488 11.0866 10.8201 11.2295 10.5653 11.301L10.4425 11.3354L10.4888 11.454C10.9075 12.5202 11.7601 13.3719 12.8271 13.7924L12.9457 13.8395L12.9802 13.7167C13.0516 13.4619 13.1946 13.2332 13.393 13.0541C13.4073 13.0407 13.4267 13.0339 13.446 13.0339C13.4502 13.0339 13.4544 13.0339 13.4594 13.0348L15.5052 13.3593C15.5296 13.3635 15.5498 13.377 15.5624 13.398C15.6465 13.5435 15.7028 13.7024 15.7314 13.8689C15.7448 13.9429 15.7507 14.0211 15.7507 14.1026C15.7507 14.8804 15.1176 15.5136 14.339 15.5144Z" fill="#FDFDFD"/>
<path d="M19.7859 11.3318C19.6202 9.46006 18.7626 7.72373 17.371 6.44314C15.971 5.15498 14.1548 4.44531 12.2554 4.44531C8.08649 4.44531 4.69456 7.83725 4.69456 12.0061C4.69456 13.4053 5.0805 14.7683 5.81118 15.9555L4.18164 19.5627L9.39903 19.0069C10.3063 19.3786 11.2665 19.5669 12.2545 19.5669C12.5143 19.5669 12.7809 19.5535 13.0483 19.5257C13.2837 19.5005 13.5217 19.4635 13.7554 19.4164C17.2466 18.7109 19.7951 15.6125 19.8153 12.0465V12.0061C19.8153 11.7791 19.8052 11.5521 19.785 11.3318H19.7859ZM9.6 17.4236L6.71341 17.7314L7.57527 15.8218L7.40289 15.5906C7.39028 15.5738 7.37767 15.557 7.36337 15.5376C6.61503 14.5042 6.21983 13.2833 6.21983 12.007C6.21983 8.67892 8.92732 5.97143 12.2554 5.97143C15.3732 5.97143 18.0159 8.40397 18.2707 11.5092C18.2842 11.6757 18.2917 11.843 18.2917 12.0078C18.2917 12.0549 18.2909 12.1011 18.29 12.1507C18.2261 14.9347 16.2813 17.2992 13.5603 17.9012C13.3526 17.9475 13.1399 17.9828 12.928 18.0055C12.7077 18.0307 12.4815 18.0433 12.257 18.0433C11.4574 18.0433 10.6805 17.8886 9.94642 17.5825C9.86486 17.5498 9.78498 17.5144 9.71014 17.4783L9.60084 17.4253L9.6 17.4236Z" fill="#FDFDFD"/>
</svg>
