<svg width="72" height="72" viewBox="0 0 72 72" fill="none" xmlns="http://www.w3.org/2000/svg">
<g filter="url(#filter0_d_104_2083)">
<circle cx="36" cy="36" r="26" fill="white"/>
</g>
<g clip-path="url(#clip0_104_2083)">
<path d="M51.0625 31.875H49.0625C48.5447 31.875 48.125 32.2947 48.125 32.8125V46.5625C48.125 47.0802 48.5447 47.5 49.0625 47.5H51.0625C51.5803 47.5 52 47.0802 52 46.5625V32.8125C52 32.2947 51.5803 31.875 51.0625 31.875Z" fill="#EF0003"/>
<path d="M38.1284 25.9566L39.6909 23.2502C40.0361 22.6524 39.8312 21.8879 39.2334 21.5427L38.1509 20.9177C37.553 20.5725 36.7885 20.7774 36.4434 21.3752L34.8809 24.0816L38.1284 25.9566Z" fill="#EF0003"/>
<path d="M21.1136 41.9609C21.6493 42.2663 22.3328 42.0669 22.6411 41.5329L30.3025 28.2631C29.5878 28.0933 28.825 28.2444 28.2248 28.6945L25.5706 30.6851C24.7983 31.2644 24.1565 31.9999 23.6873 32.8437L20.2783 38.9734C19.6931 40.0257 20.0602 41.3528 21.1029 41.9548C21.1065 41.9569 21.11 41.9589 21.1136 41.9609Z" fill="#EF0003"/>
<path d="M26.6718 38.7551H30.7363L37.1893 27.5781L33.9417 25.7031L26.4004 38.7652C26.4902 38.7592 26.5805 38.7551 26.6718 38.7551Z" fill="#EF0003"/>
<path d="M23.0277 44.6094L22.0577 46.2894C22.0121 46.3684 21.9783 46.4536 21.9573 46.5424L21.0629 50.3257C20.8917 51.0497 21.7656 51.5543 22.3071 51.0441L25.1364 48.3779C25.2027 48.3153 25.2597 48.2434 25.3053 48.1643L26.0722 46.8361C24.7334 46.6368 23.6061 45.7819 23.0277 44.6094Z" fill="#EF0003"/>
<path d="M34.134 46.8828H28.212L26.9746 49.0259C27.3725 49.4383 27.9304 49.6952 28.5487 49.6952C29.7568 49.6952 30.7362 48.7159 30.7362 47.5077C30.7362 48.7159 31.7155 49.6952 32.9237 49.6952C34.1318 49.6952 35.1112 48.7159 35.1112 47.5077V47.3649C34.8842 47.2611 34.3645 46.9971 34.134 46.8828Z" fill="#EF0003"/>
<path d="M37.8628 30.1641L32.9014 38.7575H34.3744C34.8921 38.7575 35.3119 39.1773 35.3119 39.695C35.3119 40.2127 34.8923 40.6324 34.3745 40.6325H26.6719C25.4638 40.6325 24.4844 41.6119 24.4844 42.82C24.4844 44.0281 25.4638 45.0075 26.6719 45.0075H34.5749L35.6117 45.5255C37.3861 46.4128 39.3737 46.8824 41.3595 46.8824C43.0047 46.8824 44.7054 46.5591 46.2494 45.944V33.7573H44.7719L37.8628 30.1641Z" fill="#EF0003"/>
</g>
<defs>
<filter id="filter0_d_104_2083" x="0" y="0" width="72" height="72" filterUnits="userSpaceOnUse" color-interpolation-filters="sRGB">
<feFlood flood-opacity="0" result="BackgroundImageFix"/>
<feColorMatrix in="SourceAlpha" type="matrix" values="0 0 0 0 0 0 0 0 0 0 0 0 0 0 0 0 0 0 127 0" result="hardAlpha"/>
<feOffset/>
<feGaussianBlur stdDeviation="5"/>
<feComposite in2="hardAlpha" operator="out"/>
<feColorMatrix type="matrix" values="0 0 0 0 0 0 0 0 0 0 0 0 0 0 0 0 0 0 0.1 0"/>
<feBlend mode="normal" in2="BackgroundImageFix" result="effect1_dropShadow_104_2083"/>
<feBlend mode="normal" in="SourceGraphic" in2="effect1_dropShadow_104_2083" result="shape"/>
</filter>
<clipPath id="clip0_104_2083">
<rect width="32" height="32" fill="white" transform="translate(20 20)"/>
</clipPath>
</defs>
</svg>
