<svg width="24" height="24" viewBox="0 0 24 24" fill="none" xmlns="http://www.w3.org/2000/svg">
<path d="M24 12C24 5.37258 18.6274 0 12 0C5.37259 0 0 5.37258 0 12C0 18.6274 5.37259 24 12 24C18.6274 24 24 18.6274 24 12Z" fill="#FF0209"/>
<path d="M17.0941 17.3098C16.7365 17.3486 16.3706 17.3553 16.0198 17.3545C13.2835 17.3519 10.5472 17.3494 7.81177 17.3477C6.95083 17.3477 6.01316 17.3199 5.34785 16.7726C4.59822 16.1546 4.44223 15.0828 4.38152 14.1131C4.29719 12.7842 4.29045 11.451 4.35959 10.1213C4.39754 9.39102 4.46415 8.64307 4.77867 7.98198C5.00466 7.50724 5.38158 7.08057 5.86391 6.85627C6.42466 6.59571 7.01155 6.64209 7.6153 6.64125C9.0606 6.63956 10.5059 6.63872 11.9512 6.63703C13.4538 6.63534 14.9573 6.6345 16.4599 6.63281C17.1699 6.63281 17.9322 6.64715 18.5115 7.0578C19.2595 7.58735 19.4627 8.59501 19.5563 9.50654C19.7291 11.1854 19.7317 12.882 19.563 14.5609C19.493 15.2531 19.3767 15.9851 18.9205 16.5104C18.4685 17.0315 17.7981 17.2322 17.0949 17.3089L17.0941 17.3098Z" fill="white"/>
<path d="M14.447 11.9949L10.3691 9.64062V14.3492L14.447 11.9949Z" fill="#FF0209"/>
</svg>
