<svg width="151" height="36" viewBox="0 0 151 36" fill="none" xmlns="http://www.w3.org/2000/svg">
<path d="M1.72055 13.989C2.2374 13.989 2.58197 13.7892 2.92654 13.3895L11.5408 3.39734C12.2299 2.59797 12.2299 1.3989 11.5408 0.599531C10.8516 -0.199844 9.81792 -0.199844 9.12878 0.599531L0.514554 10.5917C-0.174584 11.3911 -0.174584 12.5901 0.514554 13.3895C0.859123 13.7892 1.20369 13.989 1.72055 13.989Z" fill="#252525"/>
<path d="M18.949 13.989C19.4659 13.989 19.8105 13.7892 20.155 13.3895C20.8442 12.5901 20.8442 11.3911 20.155 10.5917L11.5408 0.599531C10.8517 -0.199844 9.81795 -0.199844 9.12881 0.599531C8.43967 1.3989 8.43967 2.59797 9.12881 3.39734L17.743 13.3895C18.0876 13.7892 18.4322 13.989 18.949 13.989Z" fill="#252525"/>
<path d="M10.3348 35.9718C11.3685 35.9718 12.0576 35.1725 12.0576 33.9734L12.0576 1.99844C12.0576 0.799374 11.3685 0 10.3348 0C9.30106 0 8.61193 0.799374 8.61193 1.99844L8.61193 33.9734C8.61193 35.1725 9.30106 35.9718 10.3348 35.9718Z" fill="#252525"/>
<path d="M46.1919 19.8044C46.6985 19.8844 47.1585 20.091 47.5719 20.4244C47.9985 20.7577 48.3319 21.171 48.5719 21.6644C48.8252 22.1577 48.9519 22.6844 48.9519 23.2444C48.9519 23.951 48.7719 24.591 48.4119 25.1644C48.0519 25.7244 47.5252 26.171 46.8319 26.5044C46.1519 26.8244 45.3452 26.9844 44.4119 26.9844H39.2119V13.0444H44.2119C45.1585 13.0444 45.9652 13.2044 46.6319 13.5244C47.2985 13.831 47.7985 14.251 48.1319 14.7844C48.4652 15.3177 48.6319 15.9177 48.6319 16.5844C48.6319 17.411 48.4052 18.0977 47.9519 18.6444C47.5119 19.1777 46.9252 19.5644 46.1919 19.8044ZM41.0319 19.0644H44.0919C44.9452 19.0644 45.6052 18.8644 46.0719 18.4644C46.5385 18.0644 46.7719 17.511 46.7719 16.8044C46.7719 16.0977 46.5385 15.5444 46.0719 15.1444C45.6052 14.7444 44.9319 14.5444 44.0519 14.5444H41.0319V19.0644ZM44.2519 25.4844C45.1585 25.4844 45.8652 25.271 46.3719 24.8444C46.8785 24.4177 47.1319 23.8244 47.1319 23.0644C47.1319 22.291 46.8652 21.6844 46.3319 21.2444C45.7985 20.791 45.0852 20.5644 44.1919 20.5644H41.0319V25.4844H44.2519ZM50.7975 21.4644C50.7975 20.3444 51.0242 19.3644 51.4775 18.5244C51.9308 17.671 52.5508 17.011 53.3375 16.5444C54.1375 16.0777 55.0242 15.8444 55.9975 15.8444C56.9575 15.8444 57.7908 16.051 58.4975 16.4644C59.2042 16.8777 59.7308 17.3977 60.0775 18.0244V16.0244H61.9175V26.9844H60.0775V24.9444C59.7175 25.5844 59.1775 26.1177 58.4575 26.5444C57.7508 26.9577 56.9242 27.1644 55.9775 27.1644C55.0042 27.1644 54.1242 26.9244 53.3375 26.4444C52.5508 25.9644 51.9308 25.291 51.4775 24.4244C51.0242 23.5577 50.7975 22.571 50.7975 21.4644ZM60.0775 21.4844C60.0775 20.6577 59.9108 19.9377 59.5775 19.3244C59.2442 18.711 58.7908 18.2444 58.2175 17.9244C57.6575 17.591 57.0375 17.4244 56.3575 17.4244C55.6775 17.4244 55.0575 17.5844 54.4975 17.9044C53.9375 18.2244 53.4908 18.691 53.1575 19.3044C52.8242 19.9177 52.6575 20.6377 52.6575 21.4644C52.6575 22.3044 52.8242 23.0377 53.1575 23.6644C53.4908 24.2777 53.9375 24.751 54.4975 25.0844C55.0575 25.4044 55.6775 25.5644 56.3575 25.5644C57.0375 25.5644 57.6575 25.4044 58.2175 25.0844C58.7908 24.751 59.2442 24.2777 59.5775 23.6644C59.9108 23.0377 60.0775 22.311 60.0775 21.4844ZM64.3131 21.4844C64.3131 20.351 64.5398 19.3644 64.9931 18.5244C65.4465 17.671 66.0731 17.011 66.8731 16.5444C67.6865 16.0777 68.6131 15.8444 69.6531 15.8444C70.9998 15.8444 72.1065 16.171 72.9731 16.8244C73.8531 17.4777 74.4331 18.3844 74.7131 19.5444H72.7531C72.5665 18.8777 72.1998 18.351 71.6531 17.9644C71.1198 17.5777 70.4531 17.3844 69.6531 17.3844C68.6131 17.3844 67.7731 17.7444 67.1331 18.4644C66.4931 19.171 66.1731 20.1777 66.1731 21.4844C66.1731 22.8044 66.4931 23.8244 67.1331 24.5444C67.7731 25.2644 68.6131 25.6244 69.6531 25.6244C70.4531 25.6244 71.1198 25.4377 71.6531 25.0644C72.1865 24.691 72.5531 24.1577 72.7531 23.4644H74.7131C74.4198 24.5844 73.8331 25.4844 72.9531 26.1644C72.0731 26.831 70.9731 27.1644 69.6531 27.1644C68.6131 27.1644 67.6865 26.931 66.8731 26.4644C66.0731 25.9977 65.4465 25.3377 64.9931 24.4844C64.5398 23.631 64.3131 22.631 64.3131 21.4844ZM83.2616 26.9844L78.9616 22.1444V26.9844H77.1416V12.1844H78.9616V20.8844L83.1816 16.0244H85.7216L80.5616 21.4844L85.7416 26.9844H83.2616ZM94.9866 17.5244V23.9844C94.9866 24.5177 95.0999 24.8977 95.3266 25.1244C95.5532 25.3377 95.9466 25.4444 96.5066 25.4444H97.8466V26.9844H96.2066C95.1932 26.9844 94.4332 26.751 93.9266 26.2844C93.4199 25.8177 93.1666 25.051 93.1666 23.9844V17.5244H91.7466V16.0244H93.1666V13.2644H94.9866V16.0244H97.8466V17.5244H94.9866ZM104.832 27.1644C103.805 27.1644 102.872 26.931 102.032 26.4644C101.205 25.9977 100.552 25.3377 100.072 24.4844C99.6051 23.6177 99.3717 22.6177 99.3717 21.4844C99.3717 20.3644 99.6117 19.3777 100.092 18.5244C100.585 17.6577 101.252 16.9977 102.092 16.5444C102.932 16.0777 103.872 15.8444 104.912 15.8444C105.952 15.8444 106.892 16.0777 107.732 16.5444C108.572 16.9977 109.232 17.651 109.712 18.5044C110.205 19.3577 110.452 20.351 110.452 21.4844C110.452 22.6177 110.198 23.6177 109.692 24.4844C109.198 25.3377 108.525 25.9977 107.672 26.4644C106.818 26.931 105.872 27.1644 104.832 27.1644ZM104.832 25.5644C105.485 25.5644 106.098 25.411 106.672 25.1044C107.245 24.7977 107.705 24.3377 108.052 23.7244C108.412 23.111 108.592 22.3644 108.592 21.4844C108.592 20.6044 108.418 19.8577 108.072 19.2444C107.725 18.631 107.272 18.1777 106.712 17.8844C106.152 17.5777 105.545 17.4244 104.892 17.4244C104.225 17.4244 103.612 17.5777 103.052 17.8844C102.505 18.1777 102.065 18.631 101.732 19.2444C101.398 19.8577 101.232 20.6044 101.232 21.4844C101.232 22.3777 101.392 23.131 101.712 23.7444C102.045 24.3577 102.485 24.8177 103.032 25.1244C103.578 25.4177 104.178 25.5644 104.832 25.5644ZM120.397 17.5244V23.9844C120.397 24.5177 120.51 24.8977 120.737 25.1244C120.963 25.3377 121.357 25.4444 121.917 25.4444H123.257V26.9844H121.617C120.603 26.9844 119.843 26.751 119.337 26.2844C118.83 25.8177 118.577 25.051 118.577 23.9844V17.5244H117.157V16.0244H118.577V13.2644H120.397V16.0244H123.257V17.5244H120.397ZM130.242 27.1644C129.215 27.1644 128.282 26.931 127.442 26.4644C126.615 25.9977 125.962 25.3377 125.482 24.4844C125.015 23.6177 124.782 22.6177 124.782 21.4844C124.782 20.3644 125.022 19.3777 125.502 18.5244C125.995 17.6577 126.662 16.9977 127.502 16.5444C128.342 16.0777 129.282 15.8444 130.322 15.8444C131.362 15.8444 132.302 16.0777 133.142 16.5444C133.982 16.9977 134.642 17.651 135.122 18.5044C135.615 19.3577 135.862 20.351 135.862 21.4844C135.862 22.6177 135.609 23.6177 135.102 24.4844C134.609 25.3377 133.935 25.9977 133.082 26.4644C132.229 26.931 131.282 27.1644 130.242 27.1644ZM130.242 25.5644C130.895 25.5644 131.509 25.411 132.082 25.1044C132.655 24.7977 133.115 24.3377 133.462 23.7244C133.822 23.111 134.002 22.3644 134.002 21.4844C134.002 20.6044 133.829 19.8577 133.482 19.2444C133.135 18.631 132.682 18.1777 132.122 17.8844C131.562 17.5777 130.955 17.4244 130.302 17.4244C129.635 17.4244 129.022 17.5777 128.462 17.8844C127.915 18.1777 127.475 18.631 127.142 19.2444C126.809 19.8577 126.642 20.6044 126.642 21.4844C126.642 22.3777 126.802 23.131 127.122 23.7444C127.455 24.3577 127.895 24.8177 128.442 25.1244C128.989 25.4177 129.589 25.5644 130.242 25.5644ZM140.075 18.0444C140.435 17.4177 140.968 16.8977 141.675 16.4844C142.395 16.0577 143.228 15.8444 144.175 15.8444C145.148 15.8444 146.028 16.0777 146.815 16.5444C147.615 17.011 148.242 17.671 148.695 18.5244C149.148 19.3644 149.375 20.3444 149.375 21.4644C149.375 22.571 149.148 23.5577 148.695 24.4244C148.242 25.291 147.615 25.9644 146.815 26.4444C146.028 26.9244 145.148 27.1644 144.175 27.1644C143.242 27.1644 142.415 26.9577 141.695 26.5444C140.988 26.1177 140.448 25.591 140.075 24.9644V32.1844H138.255V16.0244H140.075V18.0444ZM147.515 21.4644C147.515 20.6377 147.348 19.9177 147.015 19.3044C146.682 18.691 146.228 18.2244 145.655 17.9044C145.095 17.5844 144.475 17.4244 143.795 17.4244C143.128 17.4244 142.508 17.591 141.935 17.9244C141.375 18.2444 140.922 18.7177 140.575 19.3444C140.242 19.9577 140.075 20.671 140.075 21.4844C140.075 22.311 140.242 23.0377 140.575 23.6644C140.922 24.2777 141.375 24.751 141.935 25.0844C142.508 25.4044 143.128 25.5644 143.795 25.5644C144.475 25.5644 145.095 25.4044 145.655 25.0844C146.228 24.751 146.682 24.2777 147.015 23.6644C147.348 23.0377 147.515 22.3044 147.515 21.4644Z" fill="#252525"/>
</svg>
