<svg width="1920" height="211" viewBox="0 0 1920 211" fill="none" xmlns="http://www.w3.org/2000/svg">
<path d="M-25.3594 180.666C712.265 265.396 1051.82 -88.4919 1894.61 71.9697" stroke="#EF0003" stroke-dasharray="20 20"/>
<path d="M30.1506 146.307C22.2679 146.138 15.7374 152.39 15.5675 160.276C15.3184 171.839 29.2768 186.874 29.2768 186.874C29.2768 186.874 43.8695 172.454 44.1186 160.891C44.2883 153.008 38.0333 146.477 30.1506 146.307ZM29.7016 167.15C26.0748 167.072 23.2006 164.068 23.2786 160.445C23.3567 156.818 26.3606 153.944 29.9844 154.022C33.6112 154.1 36.4855 157.104 36.4074 160.727C36.3294 164.351 33.3285 167.229 29.7016 167.15Z" fill="#ED0200"/>
<path d="M1898.74 63.256L1886.67 59.9276C1886.37 59.8434 1886.13 59.608 1886.05 59.3063L1883.03 48.9961C1884.95 49.4856 1886.81 49.7804 1887.72 49.6283L1889.46 43.3227C1888.16 42.216 1883.31 40.7613 1880.55 40.5035L1872.09 11.5238L1867.75 10.3263L1867.44 45.1524C1867.43 46.4667 1867.25 47.7717 1866.9 49.0385L1865.67 53.5018C1865.58 53.8243 1865.24 54.0132 1864.92 53.9225L1855.44 51.3054C1851.4 50.1902 1847.56 49.5292 1844.15 49.1821L1835.93 35.2871L1832.33 34.2942L1833.78 49.1242C1831.91 49.3703 1830.79 49.7582 1830.68 50.1596C1830.57 50.561 1831.33 51.4712 1832.81 52.6416L1823.96 64.6274L1827.56 65.6203L1841.74 57.9112C1844.84 59.3591 1848.48 60.7632 1852.53 61.8784L1862.01 64.4955C1862.33 64.5835 1862.52 64.9183 1862.43 65.2394L1861.2 69.7026C1860.85 70.9694 1860.33 72.1818 1859.67 73.3155L1842.07 103.371L1846.41 104.569L1868.54 84.0316C1871.04 85.2242 1875.95 86.4612 1877.63 86.1787L1879.37 79.8731C1878.67 79.2726 1876.92 78.5711 1875.02 78.0135L1882.89 70.7076C1883.13 70.4951 1883.45 70.4133 1883.75 70.4975L1895.82 73.8301C1904.64 76.2647 1912.77 74.8487 1913.29 72.9612C1913.82 71.0741 1907.56 65.6906 1898.74 63.256Z" fill="#ED0200"/>
</svg>
