<svg width="1975" height="289" viewBox="0 0 1975 289" fill="none" xmlns="http://www.w3.org/2000/svg">
<path d="M4.64069 130.665C363.972 467.771 528.144 -202.456 842.387 83.2366" stroke="#ED0200" stroke-dasharray="20 20"/>
<path d="M1130.64 179.399C1489.97 516.505 1654.14 -153.721 1968.39 131.971" stroke="#ED0200" stroke-dasharray="20 20"/>
<path d="M649.161 13.6634L645.245 13.8752C645.147 13.8805 645.052 13.8346 644.996 13.7538L643.076 10.991C643.692 10.9466 644.275 10.849 644.53 10.7124L644.42 8.6661C643.923 8.46674 642.338 8.51738 641.494 8.71472L636.095 0.947956L634.687 1.02405L638.062 11.4009C638.189 11.7923 638.264 12.1985 638.287 12.6093L638.365 14.0572C638.371 14.1616 638.291 14.2511 638.186 14.2567L635.11 14.423C633.798 14.4939 632.59 14.6799 631.544 14.9156L627.717 11.6066L626.55 11.6697L628.457 15.9305C627.925 16.1894 627.631 16.4165 627.638 16.5474C627.645 16.6783 627.962 16.8723 628.519 17.0724L627.082 21.5135L628.25 21.4504L631.698 17.7481C632.763 17.8697 633.984 17.9244 635.296 17.8535L638.372 17.6872C638.477 17.6815 638.566 17.7614 638.572 17.8662L638.65 19.3141C638.672 19.725 638.641 20.1369 638.557 20.5398L636.321 31.2199L637.728 31.1438L642.258 22.8403C643.119 22.9455 644.7 22.825 645.172 22.5733L645.062 20.527C644.793 20.4187 644.203 20.3845 643.586 20.4067L645.197 17.4531C645.244 17.3667 645.333 17.3109 645.431 17.3056L649.348 17.0939C652.21 16.9392 654.484 15.7096 654.451 15.0975C654.417 14.486 652.023 13.5088 649.161 13.6634Z" fill="#ED0200"/>
<path d="M75.3668 156.354L71.7807 154.765C71.6908 154.725 71.6277 154.641 71.6142 154.544L71.1566 151.211C71.726 151.451 72.2893 151.628 72.5791 151.622L73.4091 149.749C73.0572 149.346 71.6217 148.671 70.7796 148.464L69.4934 139.093L68.2045 138.522L66.5025 149.3C66.4381 149.707 66.3212 150.103 66.1546 150.479L65.5673 151.805C65.5249 151.901 65.4132 151.944 65.3172 151.902L62.5005 150.654C61.2994 150.122 60.1387 149.739 59.0992 149.475L57.191 144.789L56.1224 144.316L55.8885 148.978C55.2969 148.968 54.9317 149.037 54.8786 149.156C54.8255 149.276 55.0196 149.593 55.4253 150.024L52.1295 153.329L53.199 153.803L57.9511 152.069C58.8456 152.661 59.9088 153.263 61.1098 153.795L63.9265 155.043C64.0221 155.085 64.0656 155.197 64.0231 155.293L63.4358 156.619C63.2691 156.995 63.0542 157.348 62.7963 157.669L55.9573 166.171L57.2462 166.742L65.0508 161.398C65.7701 161.883 67.234 162.493 67.7688 162.483L68.5988 160.609C68.4084 160.391 67.8986 160.093 67.3382 159.832L70.1145 157.932C70.1957 157.876 70.2998 157.866 70.3901 157.906L73.9762 159.495C76.5969 160.656 79.1817 160.592 79.43 160.032C79.6768 159.471 77.9872 157.514 75.3668 156.354Z" fill="#ED0200"/>
<path d="M1422.16 259.289L1418.36 260.294C1418.27 260.319 1418.17 260.293 1418.1 260.226L1415.65 257.912C1416.25 257.743 1416.8 257.529 1417.02 257.343L1416.49 255.362C1415.97 255.268 1414.43 255.641 1413.64 256.006L1406.77 249.502L1405.41 249.864L1410.83 259.335C1411.03 259.693 1411.19 260.075 1411.29 260.473L1411.67 261.874C1411.69 261.975 1411.63 262.079 1411.53 262.106L1408.55 262.896C1407.28 263.232 1406.14 263.66 1405.16 264.104L1400.74 261.645L1399.61 261.944L1402.35 265.727C1401.88 266.089 1401.64 266.371 1401.67 266.498C1401.71 266.624 1402.05 266.75 1402.64 266.832L1402.14 271.473L1403.27 271.173L1405.89 266.846C1406.96 266.748 1408.16 266.553 1409.43 266.216L1412.41 265.426C1412.51 265.4 1412.62 265.46 1412.64 265.561L1413.02 266.963C1413.12 267.36 1413.17 267.77 1413.17 268.182L1413.16 279.093L1414.52 278.732L1417.27 269.68C1418.13 269.607 1419.65 269.167 1420.07 268.824L1419.54 266.843C1419.25 266.792 1418.67 266.879 1418.07 267.027L1419.05 263.806C1419.08 263.712 1419.15 263.64 1419.25 263.614L1423.04 262.609C1425.81 261.874 1427.78 260.207 1427.63 259.615C1427.47 259.023 1424.93 258.554 1422.16 259.289Z" fill="#ED0200"/>
<path d="M1935.98 57.3069L1932.66 55.2209C1932.58 55.1686 1932.53 55.0767 1932.53 54.9783L1932.55 51.6138C1933.08 51.933 1933.61 52.1892 1933.9 52.225L1934.99 50.4896C1934.7 50.0404 1933.38 49.1675 1932.57 48.8416L1932.64 39.3832L1931.45 38.6335L1928.22 49.0565C1928.1 49.4496 1927.93 49.825 1927.71 50.1734L1926.94 51.4014C1926.88 51.4899 1926.76 51.5169 1926.68 51.4611L1924.07 49.8226C1922.95 49.124 1921.86 48.5792 1920.87 48.1682L1919.65 43.258L1918.66 42.6364L1917.76 47.2172C1917.18 47.1219 1916.81 47.1376 1916.74 47.2486C1916.67 47.3597 1916.81 47.7007 1917.15 48.1856L1913.42 50.9847L1914.41 51.6068L1919.36 50.5709C1920.16 51.2849 1921.13 52.0338 1922.24 52.7324L1924.85 54.3709C1924.94 54.4265 1924.96 54.5433 1924.91 54.6322L1924.14 55.8601C1923.92 56.2086 1923.66 56.527 1923.35 56.8075L1915.37 64.2424L1916.56 64.9921L1925.05 60.8218C1925.69 61.4042 1927.05 62.2178 1927.59 62.2844L1928.68 60.5491C1928.52 60.3055 1928.06 59.9375 1927.54 59.5995L1930.56 58.1161C1930.65 58.0728 1930.75 58.0782 1930.84 58.1307L1934.16 60.2167C1936.58 61.7412 1939.15 62.0486 1939.48 61.5296C1939.8 61.0102 1938.41 58.8312 1935.98 57.3069Z" fill="#ED0200"/>
</svg>
