<svg width="1920" height="603" viewBox="0 0 1920 603" fill="none" xmlns="http://www.w3.org/2000/svg">
<path d="M1899.05 26.628L1892.83 33.3828C1892.68 33.5524 1892.44 33.6283 1892.22 33.5827L1884.47 32.046C1885.43 30.9634 1886.24 29.8465 1886.45 29.1999L1882.91 25.9185C1881.75 26.392 1879.17 29.0672 1878.08 30.7811L1856.3 26.4613L1854.07 28.8883L1876.73 40.9298C1877.59 41.3837 1878.38 41.9469 1879.09 42.6059L1881.6 44.9274C1881.78 45.0946 1881.79 45.3776 1881.62 45.5566L1876.74 50.8626C1874.65 53.1256 1872.94 55.4129 1871.57 57.5202L1859.73 58.1711L1857.88 60.1849L1868.06 64.2784C1867.59 65.5858 1867.47 66.4491 1867.7 66.6585C1867.92 66.8679 1868.77 66.679 1870.03 66.1093L1874.9 75.9687L1876.76 73.9549L1876.47 62.0621C1878.45 60.5279 1880.59 58.6262 1882.67 56.3632L1887.56 51.0572C1887.72 50.8763 1888.01 50.8667 1888.19 51.0351L1890.69 53.3566C1891.4 54.0156 1892.02 54.7633 1892.54 55.5826L1906.3 77.3001L1908.54 74.873L1902.52 53.4301C1904.14 52.2036 1906.59 49.4149 1906.97 48.2184L1903.43 44.9369C1902.8 45.1934 1901.76 46.0971 1900.76 47.1451L1898.62 39.5181C1898.55 39.2947 1898.61 39.0555 1898.77 38.8858L1904.99 32.1317C1909.53 27.1968 1911.33 21.3998 1910.27 20.4193C1909.21 19.4344 1903.59 21.6931 1899.05 26.628Z" fill="#ED0200"/>
<path d="M18.0001 602.003C305.105 135.562 1540.98 604.859 1895.12 35.7674" stroke="#EF0003" stroke-width="2" stroke-dasharray="20 20"/>
<path d="M20.1868 561.308C12.2846 561.138 5.738 567.406 5.56773 575.311C5.31805 586.903 19.3109 601.975 19.3109 601.975C19.3109 601.975 33.9396 587.52 34.1893 575.927C34.3595 568.025 28.089 561.478 20.1868 561.308ZM19.7368 582.203C16.101 582.124 13.2196 579.113 13.2979 575.48C13.3762 571.845 16.3875 568.963 20.0203 569.041C23.656 569.12 26.5374 572.131 26.4591 575.764C26.3809 579.397 23.3726 582.281 19.7368 582.203Z" fill="#ED0200"/>
</svg>
