<svg width="1948" height="300" viewBox="0 0 1948 300" fill="none" xmlns="http://www.w3.org/2000/svg">
<path d="M4.64069 190.666C802.106 502.968 1226.54 -181.993 1924.61 81.9699" stroke="#ED0200" stroke-dasharray="20 20"/>
<path d="M845.682 248.544L838.901 246.673C838.73 246.626 838.596 246.493 838.547 246.324L836.855 240.53C837.929 240.805 838.975 240.97 839.487 240.885L840.465 237.341C839.735 236.719 837.009 235.902 835.46 235.757L830.703 219.471L828.266 218.798L828.092 238.369C828.086 239.108 827.983 239.841 827.786 240.553L827.095 243.062C827.045 243.243 826.857 243.349 826.677 243.298L821.349 241.827C819.077 241.201 816.917 240.829 815.003 240.634L810.382 232.825L808.36 232.267L809.175 240.602C808.123 240.74 807.494 240.958 807.431 241.183C807.368 241.409 807.797 241.921 808.629 242.578L803.654 249.314L805.676 249.872L813.649 245.54C815.392 246.353 817.438 247.143 819.71 247.769L825.037 249.24C825.219 249.29 825.325 249.478 825.274 249.658L824.582 252.166C824.386 252.878 824.097 253.56 823.724 254.197L813.835 271.088L816.272 271.761L828.708 260.219C830.111 260.889 832.871 261.585 833.817 261.426L834.796 257.882C834.399 257.545 833.417 257.15 832.353 256.837L836.776 252.731C836.906 252.612 837.088 252.566 837.258 252.613L844.04 254.486C848.996 255.854 853.567 255.058 853.858 253.998C854.153 252.937 850.637 249.912 845.682 248.544Z" fill="#ED0200"/>
<path d="M541.306 266.248L537.389 266.46C537.291 266.465 537.197 266.419 537.141 266.338L535.22 263.575C535.837 263.531 536.419 263.434 536.675 263.297L536.564 261.251C536.068 261.051 534.483 261.102 533.638 261.299L528.24 253.532L526.832 253.609L530.206 263.985C530.333 264.377 530.409 264.783 530.431 265.194L530.509 266.642C530.515 266.746 530.435 266.836 530.33 266.841L527.254 267.007C525.942 267.078 524.735 267.264 523.688 267.5L519.862 264.191L518.695 264.254L520.602 268.515C520.07 268.774 519.776 269.001 519.783 269.132C519.79 269.263 520.106 269.457 520.664 269.657L519.227 274.098L520.395 274.035L523.842 270.333C524.908 270.454 526.129 270.509 527.441 270.438L530.517 270.272C530.621 270.266 530.711 270.346 530.716 270.451L530.795 271.899C530.817 272.309 530.785 272.721 530.701 273.124L528.465 283.804L529.873 283.728L534.403 275.425C535.263 275.53 536.845 275.409 537.317 275.158L537.206 273.111C536.937 273.003 536.348 272.969 535.73 272.991L537.342 270.038C537.389 269.951 537.477 269.895 537.576 269.89L541.492 269.678C544.355 269.524 546.629 268.294 546.596 267.682C546.562 267.07 544.168 266.093 541.306 266.248Z" fill="#ED0200"/>
<path d="M75.3668 216.355L71.7807 214.766C71.6908 214.727 71.6277 214.643 71.6142 214.545L71.1566 211.212C71.726 211.452 72.2893 211.63 72.5791 211.624L73.4091 209.75C73.0572 209.347 71.6217 208.673 70.7796 208.466L69.4934 199.095L68.2045 198.524L66.5025 209.302C66.4381 209.708 66.3212 210.105 66.1546 210.481L65.5673 211.807C65.5249 211.902 65.4132 211.946 65.3172 211.903L62.5005 210.655C61.2994 210.123 60.1387 209.741 59.0992 209.476L57.191 204.791L56.1224 204.318L55.8885 208.98C55.2969 208.969 54.9317 209.038 54.8786 209.158C54.8255 209.278 55.0196 209.594 55.4253 210.025L52.1295 213.331L53.199 213.805L57.9511 212.07C58.8456 212.662 59.9088 213.265 61.1098 213.797L63.9265 215.045C64.0221 215.087 64.0656 215.199 64.0231 215.295L63.4358 216.62C63.2691 216.997 63.0542 217.349 62.7963 217.67L55.9573 226.173L57.2462 226.744L65.0508 221.4C65.7701 221.884 67.234 222.494 67.7688 222.484L68.5988 220.611C68.4084 220.392 67.8986 220.094 67.3382 219.834L70.1145 217.933C70.1957 217.877 70.2998 217.868 70.3901 217.908L73.9762 219.496C76.5969 220.657 79.1817 220.594 79.43 220.034C79.6768 219.473 77.9872 217.516 75.3668 216.355Z" fill="#ED0200"/>
<path d="M995.177 154.012L991.679 155.787C991.592 155.831 991.487 155.827 991.403 155.776L988.531 154.023C989.077 153.734 989.57 153.41 989.749 153.181L988.822 151.354C988.287 151.372 986.857 152.058 986.164 152.579L978.09 147.653L976.833 148.29L984.109 156.422C984.383 156.729 984.616 157.07 984.802 157.437L985.458 158.73C985.506 158.823 985.469 158.938 985.375 158.985L982.628 160.379C981.456 160.973 980.426 161.631 979.564 162.269L974.727 160.786L973.685 161.315L977.15 164.443C976.768 164.895 976.59 165.221 976.649 165.338C976.709 165.455 977.077 165.505 977.667 165.463L978.145 170.106L979.188 169.577L980.848 164.798C981.872 164.479 983.011 164.037 984.183 163.442L986.93 162.048C987.023 162.001 987.137 162.038 987.185 162.132L987.841 163.425C988.027 163.792 988.165 164.181 988.25 164.584L990.515 175.258L991.773 174.62L992.565 165.195C993.395 164.943 994.794 164.195 995.124 163.774L994.197 161.946C993.907 161.956 993.354 162.163 992.798 162.432L993.08 159.079C993.088 158.981 993.147 158.895 993.235 158.85L996.732 157.075C999.289 155.779 1000.87 153.735 1000.6 153.189C1000.32 152.643 997.733 152.715 995.177 154.012Z" fill="#ED0200"/>
<path d="M1935.98 87.3006L1932.66 85.2146C1932.58 85.1623 1932.53 85.0704 1932.53 84.9719L1932.55 81.6074C1933.08 81.9266 1933.61 82.1828 1933.9 82.2186L1934.99 80.4832C1934.7 80.034 1933.38 79.1612 1932.57 78.8353L1932.64 69.3769L1931.45 68.6271L1928.22 79.0501C1928.1 79.4432 1927.93 79.8187 1927.71 80.1671L1926.94 81.395C1926.88 81.4835 1926.76 81.5106 1926.68 81.4547L1924.07 79.8163C1922.95 79.1176 1921.86 78.5728 1920.87 78.1619L1919.65 73.2516L1918.66 72.63L1917.76 77.2108C1917.18 77.1155 1916.81 77.1313 1916.74 77.2423C1916.67 77.3533 1916.81 77.6944 1917.15 78.1792L1913.42 80.9784L1914.41 81.6005L1919.36 80.5646C1920.16 81.2786 1921.13 82.0274 1922.24 82.726L1924.85 84.3645C1924.94 84.4201 1924.96 84.537 1924.91 84.6259L1924.14 85.8538C1923.92 86.2022 1923.66 86.5206 1923.35 86.8011L1915.37 94.236L1916.56 94.9858L1925.05 90.8154C1925.69 91.3978 1927.05 92.2114 1927.59 92.2781L1928.68 90.5427C1928.52 90.2991 1928.06 89.9312 1927.54 89.5932L1930.56 88.1098C1930.65 88.0664 1930.75 88.0718 1930.84 88.1243L1934.16 90.2104C1936.58 91.7348 1939.15 92.0423 1939.48 91.5232C1939.8 91.0038 1938.41 88.8248 1935.98 87.3006Z" fill="#ED0200"/>
</svg>
