<svg width="1920" height="300" viewBox="0 0 1920 300" fill="none" xmlns="http://www.w3.org/2000/svg">
<path d="M-23.3593 190.659C774.106 502.961 1198.54 -182.001 1896.61 81.9621" stroke="#ED0200" stroke-dasharray="20 20"/>
<path d="M513.306 266.24L509.389 266.452C509.291 266.457 509.197 266.411 509.141 266.33L507.22 263.568C507.837 263.523 508.419 263.426 508.675 263.289L508.564 261.243C508.068 261.043 506.483 261.094 505.638 261.291L500.24 253.525L498.832 253.601L502.206 263.978C502.333 264.369 502.409 264.775 502.431 265.186L502.509 266.634C502.515 266.738 502.435 266.828 502.33 266.833L499.254 267C497.942 267.071 496.735 267.257 495.688 267.492L491.862 264.183L490.695 264.246L492.602 268.507C492.07 268.766 491.776 268.993 491.783 269.124C491.79 269.255 492.106 269.449 492.664 269.649L491.227 274.09L492.395 274.027L495.842 270.325C496.908 270.446 498.129 270.501 499.441 270.43L502.517 270.264C502.621 270.258 502.711 270.338 502.716 270.443L502.795 271.891C502.817 272.302 502.785 272.714 502.701 273.116L500.465 283.797L501.873 283.72L506.403 275.417C507.263 275.522 508.845 275.402 509.317 275.15L509.206 273.104C508.937 272.995 508.348 272.961 507.73 272.983L509.342 270.03C509.389 269.943 509.477 269.888 509.576 269.882L513.492 269.671C516.355 269.516 518.629 268.286 518.596 267.674C518.562 267.063 516.168 266.085 513.306 266.24Z" fill="#ED0200"/>
<path d="M47.3668 216.347L43.7807 214.759C43.6908 214.719 43.6277 214.635 43.6142 214.538L43.1566 211.204C43.726 211.444 44.2893 211.622 44.5791 211.616L45.4091 209.742C45.0572 209.339 43.6217 208.665 42.7796 208.458L41.4934 199.087L40.2045 198.516L38.5025 209.294C38.4381 209.701 38.3212 210.097 38.1546 210.473L37.5673 211.799C37.5249 211.894 37.4132 211.938 37.3172 211.895L34.5005 210.648C33.2994 210.115 32.1387 209.733 31.0992 209.468L29.191 204.783L28.1224 204.31L27.8885 208.972C27.2969 208.961 26.9317 209.03 26.8786 209.15C26.8255 209.27 27.0196 209.586 27.4253 210.018L24.1295 213.323L25.199 213.797L29.9511 212.062C30.8456 212.654 31.9088 213.257 33.1098 213.789L35.9265 215.037C36.0221 215.079 36.0656 215.191 36.0231 215.287L35.4358 216.613C35.2691 216.989 35.0542 217.342 34.7963 217.662L27.9573 226.165L29.2462 226.736L37.0508 221.392C37.7701 221.876 39.2339 222.487 39.7688 222.477L40.5988 220.603C40.4084 220.384 39.8986 220.086 39.3382 219.826L42.1145 217.925C42.1957 217.87 42.2998 217.86 42.3901 217.9L45.9762 219.489C48.5969 220.65 51.1817 220.586 51.43 220.026C51.6768 219.465 49.9872 217.508 47.3668 216.347Z" fill="#ED0200"/>
<path d="M967.177 154.004L963.679 155.779C963.592 155.823 963.487 155.819 963.403 155.768L960.531 154.016C961.077 153.726 961.57 153.402 961.749 153.174L960.822 151.346C960.287 151.364 958.857 152.05 958.164 152.572L950.09 147.645L948.833 148.283L956.109 156.414C956.383 156.721 956.616 157.062 956.802 157.429L957.458 158.722C957.506 158.816 957.469 158.93 957.375 158.977L954.628 160.371C953.456 160.965 952.426 161.623 951.564 162.261L946.727 160.778L945.685 161.307L949.15 164.435C948.768 164.887 948.59 165.213 948.649 165.33C948.709 165.447 949.077 165.497 949.667 165.455L950.145 170.098L951.188 169.569L952.848 164.79C953.872 164.472 955.011 164.029 956.183 163.434L958.93 162.041C959.023 161.993 959.137 162.03 959.185 162.124L959.841 163.417C960.027 163.784 960.165 164.173 960.25 164.576L962.515 175.25L963.773 174.612L964.565 165.187C965.395 164.936 966.794 164.187 967.124 163.766L966.197 161.939C965.907 161.948 965.354 162.155 964.798 162.424L965.08 159.072C965.088 158.973 965.147 158.887 965.235 158.842L968.732 157.068C971.289 155.771 972.873 153.728 972.596 153.181C972.318 152.635 969.733 152.708 967.177 154.004Z" fill="#ED0200"/>
<path d="M1412.16 29.5698L1408.37 30.5751C1408.27 30.6003 1408.17 30.5746 1408.1 30.507L1405.66 28.1935C1406.25 28.0244 1406.8 27.8102 1407.02 27.6243L1406.5 25.6435C1405.97 25.5495 1404.43 25.9221 1403.64 26.2874L1396.78 19.7837L1395.41 20.145L1400.83 29.6165C1401.04 29.9738 1401.19 30.3561 1401.3 30.7538L1401.67 32.1553C1401.7 32.2564 1401.64 32.3602 1401.53 32.3871L1398.56 33.1768C1397.29 33.5135 1396.14 33.9417 1395.17 34.3857L1390.75 31.9258L1389.62 32.2254L1392.35 36.0082C1391.88 36.3701 1391.64 36.6523 1391.68 36.779C1391.71 36.9057 1392.06 37.0312 1392.64 37.1135L1392.14 41.7543L1393.27 41.4545L1395.89 37.1274C1396.96 37.0293 1398.17 36.834 1399.44 36.4973L1402.42 35.7076C1402.52 35.6808 1402.62 35.7408 1402.65 35.8423L1403.02 37.2438C1403.13 37.6415 1403.18 38.0513 1403.18 38.4628L1403.17 49.3745L1404.53 49.0131L1407.27 39.9608C1408.13 39.8884 1409.66 39.4482 1410.07 39.1055L1409.54 37.1247C1409.26 37.0735 1408.67 37.1601 1408.07 37.3078L1409.05 34.0877C1409.08 33.9935 1409.15 33.9209 1409.25 33.8956L1413.04 32.8903C1415.81 32.1555 1417.79 30.4883 1417.63 29.8958C1417.47 29.3041 1414.93 28.8352 1412.16 29.5698Z" fill="#ED0200"/>
<path d="M1907.98 117.301L1904.66 115.215C1904.58 115.162 1904.53 115.07 1904.53 114.972L1904.55 111.607C1905.08 111.927 1905.61 112.183 1905.9 112.219L1906.99 110.483C1906.7 110.034 1905.38 109.161 1904.57 108.835L1904.64 99.3769L1903.45 98.6271L1900.22 109.05C1900.1 109.443 1899.93 109.819 1899.71 110.167L1898.94 111.395C1898.88 111.484 1898.76 111.511 1898.68 111.455L1896.07 109.816C1894.95 109.118 1893.86 108.573 1892.87 108.162L1891.65 103.252L1890.66 102.63L1889.76 107.211C1889.18 107.116 1888.81 107.131 1888.74 107.242C1888.67 107.353 1888.81 107.694 1889.15 108.179L1885.42 110.978L1886.41 111.6L1891.36 110.565C1892.16 111.279 1893.13 112.027 1894.24 112.726L1896.85 114.365C1896.94 114.42 1896.96 114.537 1896.91 114.626L1896.14 115.854C1895.92 116.202 1895.66 116.521 1895.35 116.801L1887.37 124.236L1888.56 124.986L1897.05 120.815C1897.69 121.398 1899.05 122.211 1899.59 122.278L1900.68 120.543C1900.52 120.299 1900.06 119.931 1899.54 119.593L1902.56 118.11C1902.65 118.066 1902.75 118.072 1902.84 118.124L1906.16 120.21C1908.58 121.735 1911.15 122.042 1911.48 121.523C1911.8 121.004 1910.41 118.825 1907.98 117.301Z" fill="#ED0200"/>
</svg>
