<svg width="272" height="143" viewBox="0 0 272 143" fill="none" xmlns="http://www.w3.org/2000/svg">
<path d="M261.395 5.13776L255.863 10.67C255.724 10.8088 255.524 10.8666 255.333 10.8203L248.8 9.27632C249.656 8.38962 250.391 7.46823 250.589 6.92465L247.698 4.03325C246.695 4.39757 244.407 6.58539 243.419 8.0041L225.052 3.66508L223.063 5.65435L241.902 16.5665C242.613 16.979 243.266 17.4802 243.846 18.0604L245.892 20.1056C246.038 20.254 246.038 20.493 245.892 20.6395L241.545 24.9862C239.693 26.8386 238.145 28.7258 236.907 30.4683L226.816 30.6534L225.166 32.3034L233.676 36.0892C233.231 37.1821 233.098 37.9127 233.283 38.0958C233.468 38.2809 234.197 38.1459 235.29 37.7007L239.076 46.211L240.726 44.561L240.911 34.47C242.655 33.2306 244.54 31.6846 246.395 29.8322L250.741 25.4855C250.888 25.3371 251.129 25.3371 251.275 25.4855L253.321 27.5307C253.901 28.1109 254.404 28.7643 254.814 29.4756L265.727 48.314L267.716 46.3247L263.377 27.9586C264.796 26.9678 266.983 24.6817 267.348 23.6793L264.456 20.7879C263.913 20.9865 262.991 21.7209 262.105 22.5767L260.561 16.0441C260.514 15.8533 260.572 15.6528 260.711 15.5121L266.243 9.97989C270.287 5.93579 272.026 1.08017 271.161 0.214678C270.295 -0.64503 265.439 1.09366 261.395 5.13776Z" fill="#EF0003"/>
<path d="M9.92873 106.711C4.88035 106.711 0.786133 110.803 0.786133 115.853C0.786133 123.259 9.92873 132.691 9.92873 132.691C9.92873 132.691 19.0713 123.259 19.0713 115.853C19.0713 110.805 14.9771 106.711 9.92873 106.711ZM9.92873 120.059C7.60597 120.059 5.72464 118.176 5.72464 115.855C5.72464 113.532 7.6079 111.651 9.92873 111.651C12.2515 111.651 14.1328 113.534 14.1328 115.855C14.1328 118.176 12.2515 120.059 9.92873 120.059Z" fill="#EF0003"/>
<path d="M15.5578 140.186C15.5578 141.741 13.0385 143 9.92924 143C6.82002 143 4.30066 141.739 4.30066 140.186C4.30066 138.632 6.82002 137.371 9.92924 137.371C13.0385 137.371 15.5578 138.632 15.5578 140.186Z" fill="#EF0003"/>
<path d="M10.2275 141.079C9.97691 141.079 9.73017 140.971 9.57596 140.76C9.31959 140.412 9.35622 139.943 9.69162 139.669C10.0116 139.409 10.5494 139.182 12.3459 138.8C12.7835 138.708 13.2153 138.987 13.3078 139.425C13.4003 139.862 13.1208 140.294 12.6832 140.387C11.1527 140.712 10.7884 140.878 10.7036 140.936C10.559 141.032 10.3913 141.079 10.2275 141.079Z" fill="#EF0003"/>
<path d="M17.3328 139.491C16.9492 139.491 16.6081 139.215 16.5348 138.824C16.4538 138.382 16.7468 137.962 17.1883 137.881C18.6243 137.621 20.2435 137.324 22.0208 136.979C22.468 136.896 22.8862 137.182 22.9711 137.621C23.0559 138.062 22.7687 138.487 22.3292 138.571C20.5442 138.916 18.9173 139.213 17.4774 139.477C17.4292 139.487 17.381 139.491 17.3328 139.491ZM27.0017 137.611C26.6277 137.611 26.2904 137.349 26.2094 136.97C26.1169 136.532 26.3964 136.1 26.834 136.008C28.3568 135.684 29.9567 135.331 31.6202 134.94C32.0616 134.841 32.4934 135.107 32.5956 135.545C32.6977 135.983 32.4279 136.418 31.9903 136.52C30.3133 136.914 28.7018 137.27 27.1694 137.596C27.1135 137.606 27.0576 137.611 27.0017 137.611ZM36.5837 135.362C36.2233 135.362 35.8956 135.119 35.7992 134.755C35.6874 134.321 35.9476 133.878 36.3794 133.766C37.9176 133.367 39.4944 132.937 41.1059 132.474C41.5357 132.351 41.9849 132.6 42.1082 133.029C42.2316 133.461 41.9829 133.908 41.5531 134.034C39.9281 134.5 38.3379 134.934 36.7881 135.337C36.7206 135.354 36.6512 135.362 36.5837 135.362ZM46.0386 132.64C45.6955 132.64 45.3755 132.42 45.2656 132.075C45.1307 131.647 45.3659 131.192 45.7938 131.058C47.3205 130.572 48.8703 130.055 50.4355 129.508C50.8615 129.357 51.3222 129.583 51.4686 130.005C51.6171 130.427 51.3935 130.892 50.9713 131.038C49.3907 131.593 47.8255 132.114 46.2834 132.604C46.2005 132.629 46.1196 132.64 46.0386 132.64ZM55.3161 129.386C54.9904 129.386 54.6839 129.188 54.5586 128.866C54.3986 128.45 54.6049 127.979 55.0231 127.817C56.5247 127.237 58.036 126.626 59.5549 125.982C59.9655 125.805 60.4435 125.998 60.619 126.412C60.7944 126.825 60.6016 127.301 60.1891 127.476C58.6547 128.128 57.1262 128.744 55.6072 129.332C55.5128 129.369 55.4125 129.386 55.3161 129.386ZM64.3624 125.539C64.0559 125.539 63.7648 125.365 63.6279 125.07C63.4371 124.666 63.6125 124.182 64.0192 123.993C65.4823 123.309 66.9453 122.592 68.4026 121.84C68.7997 121.634 69.2893 121.792 69.4955 122.189C69.6999 122.588 69.5437 123.075 69.1467 123.282C67.6701 124.043 66.1878 124.768 64.7074 125.46C64.5937 125.514 64.478 125.539 64.3624 125.539ZM73.0963 121.036C72.8149 121.036 72.5392 120.888 72.3908 120.625C72.1691 120.236 72.306 119.741 72.6954 119.521C74.1006 118.723 75.5 117.89 76.886 117.023C77.2657 116.784 77.7669 116.901 78.0039 117.279C78.243 117.659 78.1273 118.158 77.7476 118.397C76.3424 119.278 74.9237 120.122 73.4972 120.93C73.37 121.001 73.2312 121.036 73.0963 121.036ZM81.4216 115.822C81.1633 115.822 80.9108 115.698 80.7527 115.471C80.4983 115.103 80.5908 114.598 80.959 114.343C82.2871 113.424 83.6017 112.47 84.897 111.477C85.2517 111.201 85.7606 111.275 86.0343 111.627C86.3061 111.982 86.2387 112.491 85.884 112.765C84.5674 113.773 83.2335 114.744 81.8823 115.677C81.7416 115.774 81.5797 115.822 81.4216 115.822ZM89.211 109.846C88.9816 109.846 88.7542 109.75 88.5942 109.561C88.305 109.22 88.3455 108.709 88.6848 108.418C89.9204 107.365 91.1367 106.271 92.3048 105.164C92.6286 104.856 93.1414 104.871 93.4517 105.195C93.7601 105.521 93.7466 106.033 93.4209 106.342C92.2335 107.468 90.994 108.582 89.7373 109.654C89.583 109.783 89.3961 109.846 89.211 109.846ZM96.3238 103.086C96.1234 103.086 95.9248 103.013 95.7687 102.866C95.4429 102.56 95.4275 102.047 95.734 101.721C96.8424 100.544 97.9276 99.3196 98.9589 98.086C99.2461 97.7448 99.7569 97.6966 100.102 97.9838C100.445 98.271 100.491 98.7838 100.204 99.1269C99.1536 100.384 98.0452 101.631 96.9156 102.832C96.7556 103.001 96.5397 103.086 96.3238 103.086ZM102.612 95.5608C102.446 95.5608 102.276 95.5088 102.132 95.4009C101.771 95.1349 101.694 94.6279 101.96 94.2674C102.918 92.9702 103.847 91.6247 104.722 90.2735C104.965 89.8995 105.468 89.7877 105.844 90.0325C106.22 90.2773 106.328 90.7785 106.083 91.1544C105.189 92.5345 104.24 93.905 103.265 95.2293C103.105 95.4452 102.86 95.5608 102.612 95.5608ZM147.043 88.822L146.056 88.8181C145.609 88.8142 145.248 88.448 145.252 88.0008C145.256 87.5555 145.618 87.197 146.062 87.197L146.067 87.1989L147.041 87.2028C148.342 87.2028 149.635 87.1643 150.921 87.0891C151.351 87.0467 151.752 87.4033 151.777 87.8505C151.804 88.2977 151.463 88.6813 151.014 88.7063C149.701 88.7834 148.375 88.822 147.043 88.822ZM141.154 88.687C141.14 88.687 141.129 88.687 141.115 88.687C139.45 88.608 137.804 88.4981 136.183 88.3574C135.737 88.3189 135.406 87.9256 135.446 87.4784C135.485 87.0312 135.884 86.7093 136.325 86.7421C137.925 86.8828 139.548 86.9908 141.193 87.0679C141.64 87.0891 141.987 87.4688 141.965 87.916C141.942 88.3478 141.584 88.687 141.154 88.687ZM155.858 88.2456C155.457 88.2456 155.108 87.9488 155.056 87.5401C154.998 87.0968 155.31 86.6881 155.754 86.6303C157.33 86.424 158.942 86.1561 160.544 85.8361C160.985 85.7513 161.411 86.0327 161.498 86.4722C161.585 86.9117 161.301 87.3377 160.862 87.4264C159.225 87.7541 157.577 88.0259 155.964 88.2379C155.929 88.2437 155.892 88.2456 155.858 88.2456ZM131.373 87.8292C131.339 87.8292 131.302 87.8273 131.267 87.8215C129.612 87.6057 127.981 87.357 126.375 87.0736C125.934 86.9965 125.641 86.5763 125.718 86.1349C125.795 85.6935 126.215 85.4024 126.657 85.4776C128.235 85.7551 129.843 86 131.476 86.2139C131.919 86.2718 132.233 86.6785 132.175 87.1218C132.125 87.5305 131.774 87.8292 131.373 87.8292ZM107.936 87.33C107.801 87.33 107.664 87.2953 107.541 87.2259C107.149 87.0062 107.012 86.5108 107.23 86.1214C107.905 84.9224 108.556 83.6907 109.167 82.4513C108.551 82.2199 107.936 81.9829 107.33 81.7419C106.914 81.5761 106.712 81.1039 106.879 80.6875C107.045 80.2712 107.521 80.0726 107.934 80.2365C109.422 80.8321 110.958 81.3949 112.5 81.9115C112.924 82.0542 113.154 82.513 113.011 82.939C112.868 83.363 112.408 83.5866 111.984 83.4498C111.556 83.3052 111.128 83.1587 110.7 83.0083C110.05 84.3287 109.36 85.6414 108.641 86.9175C108.495 87.1816 108.219 87.33 107.936 87.33ZM165.478 86.318C165.122 86.318 164.794 86.079 164.696 85.7166C164.578 85.2848 164.835 84.8395 165.268 84.722C166.81 84.3056 168.376 83.8333 169.92 83.3148C170.344 83.1741 170.804 83.4016 170.947 83.8256C171.09 84.2497 170.86 84.7104 170.436 84.8531C168.861 85.3793 167.265 85.8631 165.692 86.2872C165.621 86.3084 165.55 86.318 165.478 86.318ZM121.703 86.1214C121.643 86.1214 121.583 86.1156 121.523 86.1021C119.891 85.7359 118.291 85.333 116.722 84.8974C116.29 84.7779 116.037 84.3307 116.157 83.8989C116.278 83.4652 116.716 83.2165 117.155 83.3341C118.697 83.762 120.272 84.1591 121.878 84.5177C122.316 84.616 122.589 85.0497 122.491 85.4872C122.41 85.865 122.075 86.1214 121.703 86.1214ZM174.785 83.2069C174.463 83.2069 174.158 83.0122 174.031 82.6961C173.865 82.2797 174.068 81.8094 174.484 81.6436C175.986 81.0441 177.478 80.4022 178.956 79.7237C179.365 79.5406 179.845 79.7179 180.032 80.1227C180.219 80.5294 180.039 81.0114 179.633 81.1983C178.129 81.8884 176.614 82.5399 175.085 83.1491C174.987 83.1876 174.885 83.2069 174.785 83.2069ZM103.132 79.8394C103.016 79.8394 102.899 79.8143 102.787 79.7623C101.274 79.0471 99.7877 78.2838 98.3709 77.4954C97.9796 77.2776 97.8389 76.7841 98.0567 76.3928C98.2746 76.0015 98.7661 75.8608 99.1593 76.0786C100.545 76.8497 101.999 77.5976 103.479 78.2973C103.884 78.4901 104.057 78.9719 103.867 79.3767C103.728 79.6678 103.435 79.8394 103.132 79.8394ZM183.706 79.1146C183.413 79.1146 183.129 78.9546 182.985 78.677C182.779 78.2799 182.935 77.7903 183.332 77.5841C184.77 76.84 186.196 76.0593 187.611 75.2497C188 75.0242 188.494 75.1611 188.717 75.5505C188.941 75.9379 188.806 76.4333 188.417 76.6569C186.983 77.48 185.537 78.2684 184.078 79.0259C183.958 79.0857 183.831 79.1146 183.706 79.1146ZM112.207 78.5055C112.105 78.5055 111.999 78.4862 111.899 78.4438C111.484 78.2742 111.286 77.8 111.455 77.3855C112.065 75.8993 112.641 74.3708 113.163 72.8422C113.308 72.42 113.772 72.1926 114.193 72.3372C114.617 72.4817 114.842 72.9424 114.698 73.3665C114.164 74.9259 113.578 76.4853 112.955 78.0004C112.828 78.3166 112.525 78.5055 112.207 78.5055ZM94.562 75.0551C94.4097 75.0551 94.2555 75.0107 94.1187 74.9221C92.7212 74.0045 91.3584 73.033 90.0726 72.0307C89.718 71.755 89.6563 71.2461 89.93 70.8934C90.2057 70.5406 90.7145 70.4789 91.0673 70.7507C92.3202 71.7261 93.6445 72.6726 95.0073 73.567C95.3813 73.8137 95.4853 74.3149 95.2405 74.6908C95.0844 74.9259 94.8261 75.0551 94.562 75.0551ZM192.224 74.2397C191.954 74.2397 191.69 74.1048 191.536 73.858C191.297 73.4783 191.412 72.9791 191.792 72.74C193.166 71.8784 194.531 70.9898 195.882 70.0761C196.25 69.8255 196.756 69.9219 197.008 70.2939C197.259 70.664 197.162 71.169 196.79 71.4196C195.424 72.3429 194.045 73.2431 192.654 74.1144C192.519 74.1992 192.37 74.2397 192.224 74.2397ZM115.384 69.2337C115.313 69.2337 115.239 69.2241 115.166 69.2029C114.734 69.0814 114.484 68.6362 114.603 68.2044C115.031 66.6719 115.426 65.0855 115.777 63.4914C115.874 63.0519 116.309 62.7724 116.743 62.8746C117.18 62.971 117.458 63.4027 117.36 63.8403C117.003 65.4634 116.6 67.0787 116.165 68.642C116.064 68.9986 115.739 69.2337 115.384 69.2337ZM86.8324 69.0198C86.6338 69.0198 86.4353 68.9465 86.2791 68.802C85.0455 67.6512 83.8754 66.4483 82.8018 65.2262C82.5068 64.8889 82.5396 64.3762 82.875 64.0813C83.2123 63.7863 83.7231 63.8191 84.02 64.1545C85.059 65.3361 86.1905 66.5004 87.3856 67.6145C87.7133 67.921 87.7306 68.4338 87.426 68.7615C87.2661 68.933 87.0482 69.0198 86.8324 69.0198ZM200.362 68.746C200.111 68.746 199.863 68.6285 199.705 68.4107C199.443 68.0483 199.524 67.5413 199.886 67.2791C201.206 66.325 202.511 65.3496 203.807 64.3569C204.161 64.0851 204.67 64.1526 204.944 64.5072C205.216 64.8619 205.15 65.3708 204.794 65.6446C203.487 66.6469 202.168 67.63 200.836 68.5918C200.692 68.694 200.526 68.746 200.362 68.746ZM208.157 62.7705C207.92 62.7705 207.685 62.6664 207.525 62.4698C207.244 62.1209 207.298 61.6101 207.646 61.3286C208.917 60.3012 210.174 59.2603 211.419 58.2059C211.76 57.9168 212.271 57.9592 212.562 58.3004C212.851 58.6435 212.809 59.1543 212.467 59.4435C211.212 60.5056 209.946 61.5542 208.668 62.5893C208.518 62.7107 208.337 62.7705 208.157 62.7705ZM80.3788 61.6467C80.1224 61.6467 79.8718 61.5253 79.7137 61.2997C78.748 59.9176 77.8671 58.4835 77.098 57.034C76.8879 56.6388 77.0382 56.1473 77.4334 55.9372C77.8305 55.729 78.3201 55.8774 78.5302 56.2726C79.2685 57.6643 80.1147 59.0425 81.0438 60.3706C81.3001 60.7369 81.2115 61.2438 80.8433 61.5002C80.7026 61.5985 80.5387 61.6467 80.3788 61.6467ZM117.495 59.6613C117.45 59.6613 117.406 59.6574 117.362 59.6497C116.92 59.5765 116.621 59.1601 116.693 58.7187C116.953 57.1458 117.177 55.5401 117.364 53.9016C117.414 53.4583 117.811 53.1402 118.262 53.1884C118.705 53.2385 119.025 53.6414 118.975 54.0867C118.784 55.7502 118.557 57.3829 118.293 58.9828C118.229 59.3798 117.886 59.6613 117.495 59.6613ZM215.659 56.421C215.436 56.421 215.212 56.3285 215.052 56.1453C214.755 55.8099 214.788 55.2972 215.124 55.0004C216.351 53.9151 217.568 52.8222 218.769 51.7215C219.1 51.4189 219.611 51.442 219.916 51.7716C220.218 52.1032 220.195 52.6159 219.865 52.9185C218.655 54.025 217.433 55.1237 216.197 56.2147C216.041 56.3535 215.85 56.421 215.659 56.421ZM75.8046 52.9918C75.4749 52.9918 75.1646 52.7894 75.0432 52.4617C74.4591 50.883 73.9868 49.2619 73.6379 47.6466C73.5435 47.209 73.8211 46.7772 74.2586 46.6828C74.6904 46.5922 75.128 46.8659 75.2224 47.3035C75.5559 48.8436 76.007 50.3915 76.564 51.8988C76.7202 52.319 76.5043 52.7855 76.0841 52.9398C75.9935 52.9744 75.899 52.9918 75.8046 52.9918ZM118.609 49.9192C118.591 49.9192 118.572 49.9192 118.555 49.9173C118.108 49.8864 117.77 49.5009 117.799 49.0537C117.905 47.4596 117.977 45.8385 118.013 44.1846C118.023 43.7374 118.366 43.3789 118.842 43.3924C119.289 43.402 119.646 43.7721 119.634 44.2212C119.598 45.8982 119.524 47.5444 119.418 49.1616C119.389 49.5896 119.033 49.9192 118.609 49.9192ZM222.913 49.7881C222.697 49.7881 222.483 49.7033 222.323 49.5337C222.017 49.2079 222.032 48.6952 222.358 48.3868C223.553 47.2591 224.733 46.1295 225.901 44.998C226.223 44.6858 226.735 44.6935 227.048 45.0173C227.36 45.3392 227.35 45.852 227.028 46.1642C225.858 47.2977 224.671 48.4349 223.47 49.5684C223.314 49.7149 223.113 49.7881 222.913 49.7881ZM73.744 43.4348C73.3218 43.4348 72.9652 43.1071 72.9363 42.6792C72.8823 41.8966 72.8553 41.1082 72.8553 40.314C72.8534 39.4061 72.8958 38.5175 72.9729 37.65C73.0134 37.2028 73.4105 36.8752 73.8538 36.9156C74.2991 36.9561 74.6287 37.3513 74.5883 37.7946C74.515 38.6158 74.4765 39.4562 74.4765 40.314C74.4765 41.0715 74.5034 41.8214 74.5536 42.5693C74.5844 43.0145 74.2471 43.4039 73.7999 43.4328C73.7825 43.4348 73.7632 43.4348 73.744 43.4348ZM118.761 40.1097C118.343 40.1097 117.988 39.7858 117.953 39.3617C117.826 37.7503 117.56 36.1716 117.161 34.6719C117.046 34.2382 117.304 33.7948 117.738 33.6792C118.162 33.5693 118.615 33.8199 118.73 34.2555C119.152 35.8497 119.436 37.5228 119.571 39.2326C119.605 39.6798 119.272 40.0692 118.827 40.1058C118.805 40.1077 118.784 40.1097 118.761 40.1097ZM74.675 33.712C74.6017 33.712 74.5246 33.7023 74.4514 33.6792C74.0215 33.5558 73.7729 33.1067 73.8962 32.6768C74.3704 31.0287 75.0085 29.4481 75.793 27.9754C76.0031 27.5803 76.4947 27.428 76.8898 27.642C77.285 27.8521 77.4353 28.3436 77.2233 28.7388C76.4927 30.1112 75.8971 31.5858 75.4557 33.126C75.3516 33.4806 75.0277 33.712 74.675 33.712ZM116.234 30.6856C115.935 30.6856 115.646 30.5199 115.505 30.2327C114.806 28.8101 113.958 27.4627 112.988 26.2252C112.712 25.8724 112.774 25.3636 113.125 25.086C113.479 24.8103 113.988 24.872 114.264 25.2228C115.305 26.549 116.211 27.9928 116.961 29.5156C117.157 29.9165 116.993 30.4042 116.593 30.6028C116.477 30.6587 116.354 30.6856 116.234 30.6856ZM79.2762 25.1245C79.0873 25.1245 78.8984 25.059 78.7461 24.926C78.4088 24.633 78.3702 24.1222 78.6651 23.7829C79.7773 22.4972 81.0361 21.3387 82.4066 20.3421C82.7709 20.0781 83.2779 20.1609 83.54 20.5214C83.8041 20.8838 83.7231 21.3908 83.3608 21.6549C82.0885 22.5782 80.9223 23.6518 79.8892 24.845C79.7272 25.0301 79.5017 25.1245 79.2762 25.1245ZM110.212 23.0196C110.029 23.0196 109.844 22.9579 109.692 22.8307C108.477 21.8167 107.153 20.932 105.759 20.1976C105.362 19.9894 105.21 19.4998 105.42 19.1027C105.626 18.7056 106.114 18.5495 106.515 18.7634C108.011 19.5499 109.43 20.4983 110.733 21.5854C111.076 21.8727 111.122 22.3835 110.837 22.7285C110.675 22.9193 110.444 23.0196 110.212 23.0196ZM87.1504 19.4034C86.8343 19.4034 86.5336 19.2164 86.4025 18.908C86.229 18.4955 86.4218 18.0194 86.8343 17.8459C88.3898 17.1905 90.0283 16.7067 91.7092 16.4118C92.1429 16.325 92.5708 16.6257 92.6479 17.0691C92.725 17.5105 92.432 17.9307 91.9906 18.0078C90.4293 18.2835 88.9065 18.7326 87.4646 19.3398C87.3624 19.3822 87.2545 19.4034 87.1504 19.4034ZM101.58 18.4801C101.509 18.4801 101.436 18.4704 101.365 18.4492C99.8282 18.0232 98.2611 17.7707 96.7036 17.6994C96.2564 17.6782 95.9094 17.2985 95.9306 16.8513C95.9518 16.4041 96.3393 16.0822 96.7788 16.0783C98.4558 16.1573 100.144 16.4291 101.796 16.886C102.228 17.0055 102.481 17.4527 102.361 17.8845C102.261 18.2449 101.937 18.4801 101.58 18.4801Z" fill="#EF0003"/>
<path d="M230.111 42.8191C229.903 42.8191 229.695 42.7401 229.535 42.5801C229.221 42.262 229.222 41.7473 229.541 41.4331L231.262 39.7214C231.578 39.4053 232.093 39.4053 232.409 39.7214C232.725 40.0376 232.725 40.5522 232.409 40.8684L230.684 42.5858C230.524 42.742 230.317 42.8191 230.111 42.8191Z" fill="#EF0003"/>
</svg>
