<svg width="290" height="306" viewBox="0 0 290 306" fill="none" xmlns="http://www.w3.org/2000/svg">
<path d="M154.033 11.2207L152.408 18.5692C152.367 18.7534 152.233 18.9035 152.056 18.9663L145.96 21.0952C146.195 19.9322 146.315 18.8067 146.193 18.2631L142.353 17.4137C141.729 18.2277 141.007 21.1853 140.937 22.847L123.8 28.8279L123.215 31.4694L144.135 30.5726C144.923 30.5391 145.714 30.6089 146.484 30.7791L149.202 31.3798C149.398 31.4223 149.522 31.6179 149.477 31.8134L148.201 37.5856C147.656 40.0464 147.379 42.3767 147.275 44.4314L139.189 49.8018L138.704 51.994L147.562 50.6617C147.768 51.7789 148.035 52.4393 148.281 52.493C148.527 52.5466 149.047 52.061 149.705 51.1347L157.176 56.0779L157.66 53.8857L152.59 45.608C153.364 43.7013 154.094 41.4717 154.636 39.0104L155.912 33.2382C155.955 33.0422 156.149 32.9186 156.346 32.9627L159.063 33.5634C159.834 33.7336 160.58 34.0031 161.28 34.3679L179.872 43.9987L180.457 41.3573L167.438 28.7093C168.077 27.1727 168.667 24.1863 168.445 23.1848L164.605 22.3354C164.267 22.7767 163.9 23.8495 163.623 25.0028L158.992 20.5042C158.856 20.3719 158.799 20.1803 158.839 19.9946L160.463 12.6461C161.651 7.27474 160.548 2.4366 159.401 2.18438C158.257 1.92753 155.219 5.85042 154.033 11.2207Z" fill="#EF0003"/>
<path d="M255.808 171.381C251.777 174.088 250.702 179.551 253.41 183.584C257.382 189.497 269.739 192.126 269.739 192.126C269.739 192.126 271.982 179.693 268.011 173.779C265.304 169.748 259.839 168.674 255.808 171.381ZM262.965 182.038C261.11 183.284 258.598 182.789 257.354 180.936C256.108 179.081 256.603 176.569 258.456 175.325C260.31 174.08 262.823 174.574 264.068 176.427C265.313 178.282 264.82 180.793 262.965 182.038Z" fill="#EF0003"/>
<path d="M275.267 200.383C277.749 198.717 279.086 196.359 278.252 195.118C277.419 193.877 274.731 194.222 272.249 195.889C269.767 197.556 268.43 199.913 269.263 201.154C270.097 202.396 272.785 202.05 275.267 200.383Z" fill="#EF0003"/>
<path d="M274.254 198.871C274.232 198.886 274.211 198.898 274.187 198.912C273.813 199.114 273.138 199.504 272.195 200.062C271.825 200.279 271.346 200.158 271.126 199.788C270.909 199.418 270.962 198.935 271.4 198.719C272.37 198.144 273.061 197.747 273.447 197.537C273.824 197.333 274.299 197.476 274.504 197.854C274.695 198.211 274.583 198.65 274.254 198.871Z" fill="#EF0003"/>
<path d="M268.213 202.422C268.201 202.43 268.19 202.438 268.178 202.443C266.975 203.159 265.621 203.964 264.133 204.84C263.76 205.059 263.283 204.935 263.065 204.566C262.847 204.196 262.953 203.701 263.339 203.498C264.828 202.62 266.178 201.819 267.377 201.105C267.748 200.885 268.227 201.006 268.447 201.374C268.663 201.731 268.556 202.192 268.213 202.422ZM260.124 207.197C260.11 207.207 260.095 207.215 260.083 207.223C258.797 207.975 257.442 208.764 256.024 209.586C255.651 209.802 255.175 209.675 254.958 209.302C254.745 208.932 254.852 208.496 255.242 208.236C256.658 207.417 258.01 206.627 259.295 205.876C259.667 205.659 260.144 205.784 260.362 206.155C260.571 206.513 260.464 206.969 260.124 207.197ZM252.002 211.894C251.987 211.905 251.97 211.914 251.955 211.924C250.635 212.679 249.273 213.454 247.873 214.243C247.498 214.455 247.024 214.322 246.812 213.946C246.602 213.574 246.711 213.125 247.109 212.885C248.504 212.095 249.863 211.323 251.182 210.569C251.555 210.357 252.033 210.487 252.247 210.859C252.448 211.218 252.339 211.668 252.002 211.894ZM243.834 216.509C243.817 216.52 243.799 216.53 243.778 216.542C242.438 217.29 241.067 218.048 239.672 218.817C239.293 219.025 238.82 218.886 238.612 218.51C238.406 218.133 238.55 217.656 238.919 217.451C240.311 216.684 241.677 215.927 243.02 215.18C243.395 214.97 243.869 215.105 244.08 215.482C244.281 215.838 244.168 216.284 243.834 216.509ZM235.618 221.025C235.597 221.04 235.576 221.052 235.553 221.065C234.194 221.801 232.814 222.543 231.42 223.287C231.042 223.489 230.568 223.345 230.364 222.966C230.16 222.585 230.333 222.105 230.684 221.909C232.077 221.166 233.454 220.426 234.81 219.692C235.188 219.487 235.661 219.63 235.868 220.007C236.061 220.364 235.948 220.804 235.618 221.025ZM227.343 225.434C227.319 225.451 227.295 225.465 227.268 225.478C225.892 226.199 224.503 226.922 223.105 227.642C222.723 227.838 222.252 227.69 222.054 227.305C221.858 226.923 222.017 226.445 222.391 226.254C223.787 225.536 225.172 224.815 226.546 224.097C226.925 223.897 227.396 224.043 227.598 224.426C227.783 224.782 227.668 225.216 227.343 225.434ZM219.006 229.723C218.978 229.741 218.951 229.757 218.918 229.772C217.529 230.473 216.129 231.17 214.726 231.864C214.341 232.055 213.873 231.897 213.682 231.509C213.493 231.125 213.649 230.642 214.037 230.464C215.436 229.772 216.833 229.078 218.219 228.379C218.602 228.185 219.073 228.34 219.265 228.726C219.445 229.079 219.326 229.508 219.006 229.723ZM210.602 233.863C210.569 233.885 210.537 233.902 210.504 233.917C209.092 234.598 207.679 235.27 206.263 235.933C205.872 236.115 205.408 235.946 205.225 235.558C205.041 235.167 205.222 234.702 205.602 234.519C207.011 233.86 208.421 233.19 209.827 232.514C210.216 232.327 210.682 232.489 210.867 232.879C211.037 233.234 210.917 233.651 210.602 233.863ZM202.111 237.837C202.075 237.861 202.036 237.882 201.997 237.9C200.566 238.55 199.135 239.189 197.708 239.815C197.314 239.988 196.853 239.808 196.681 239.415C196.508 239.018 196.689 238.55 197.08 238.387C198.5 237.765 199.924 237.128 201.351 236.48C201.741 236.303 202.206 236.475 202.384 236.867C202.545 237.219 202.421 237.628 202.111 237.837ZM193.528 241.601C193.488 241.628 193.443 241.652 193.397 241.672C191.94 242.286 190.492 242.883 189.052 243.462C188.651 243.624 188.197 243.43 188.038 243.03C187.876 242.632 188.062 242.168 188.47 242.017C189.902 241.439 191.345 240.845 192.791 240.234C193.188 240.068 193.646 240.254 193.813 240.649C193.959 240.999 193.833 241.397 193.528 241.601ZM184.831 245.099C184.783 245.131 184.73 245.158 184.674 245.18C183.189 245.746 181.715 246.289 180.258 246.806C179.852 246.949 179.408 246.738 179.262 246.331C179.12 245.926 179.332 245.487 179.737 245.335C181.183 244.822 182.642 244.283 184.116 243.721C184.52 243.568 184.968 243.77 185.123 244.173C185.257 244.519 185.125 244.902 184.831 245.099ZM175.997 248.24C175.94 248.278 175.875 248.311 175.805 248.333C174.283 248.83 172.78 249.299 171.306 249.731C170.892 249.853 170.459 249.614 170.339 249.201C170.217 248.787 170.461 248.36 170.868 248.234C172.328 247.807 173.812 247.344 175.319 246.851C175.729 246.716 176.168 246.941 176.304 247.35C176.416 247.689 176.28 248.05 175.997 248.24ZM167.002 250.868C166.93 250.916 166.848 250.954 166.758 250.976C165.185 251.374 163.647 251.725 162.152 252.026C161.729 252.111 161.319 251.837 161.233 251.415C161.149 250.991 161.427 250.583 161.843 250.496C163.315 250.2 164.826 249.855 166.375 249.465C166.793 249.358 167.216 249.61 167.321 250.029C167.406 250.358 167.269 250.689 167.002 250.868ZM157.815 252.691C157.718 252.756 157.607 252.8 157.485 252.815C155.831 253.039 154.238 253.184 152.756 253.248C152.324 253.268 151.96 252.934 151.941 252.504C151.923 252.072 152.258 251.713 152.685 251.69C154.124 251.628 155.667 251.488 157.275 251.268C157.703 251.21 158.096 251.509 158.152 251.936C158.193 252.243 158.054 252.531 157.815 252.691ZM148.487 253.033C148.342 253.131 148.165 253.18 147.98 253.161C146.25 253.005 144.661 252.701 143.252 252.259C142.84 252.128 142.614 251.691 142.742 251.279C142.869 250.874 143.306 250.643 143.721 250.769C145.022 251.179 146.502 251.461 148.12 251.609C148.549 251.647 148.865 252.027 148.824 252.456C148.805 252.699 148.674 252.907 148.487 253.033ZM139.807 250.112C139.539 250.292 139.178 250.293 138.906 250.09C137.834 249.289 136.915 248.327 136.177 247.23C135.988 246.949 135.819 246.664 135.661 246.373C135.458 245.993 135.63 245.512 135.981 245.316C136.36 245.113 136.835 245.257 137.038 245.636C137.168 245.883 137.315 246.124 137.472 246.358C138.113 247.31 138.908 248.145 139.838 248.841C140.184 249.1 140.255 249.588 139.996 249.931C139.942 250.004 139.876 250.066 139.807 250.112ZM135.717 242.286C135.596 242.368 135.45 242.417 135.292 242.418C134.862 242.423 134.508 242.078 134.504 241.647C134.489 240.17 134.743 238.561 135.259 236.861C135.384 236.449 135.817 236.216 136.232 236.342C136.643 236.468 136.877 236.902 136.75 237.316C136.279 238.863 136.048 240.313 136.063 241.63C136.065 241.903 135.928 242.144 135.717 242.286ZM138.196 233.417C137.97 233.569 137.672 233.597 137.412 233.466C137.028 233.273 136.871 232.804 137.064 232.419C137.718 231.114 138.513 229.725 139.428 228.284C139.663 227.925 140.144 227.814 140.507 228.044C140.87 228.276 140.977 228.758 140.746 229.123C139.859 230.516 139.09 231.861 138.459 233.12C138.396 233.242 138.306 233.343 138.196 233.417ZM143.181 225.491C142.914 225.67 142.556 225.672 142.284 225.473C141.936 225.217 141.861 224.73 142.117 224.383C143.018 223.16 143.984 221.915 145.015 220.646C145.282 220.313 145.777 220.262 146.111 220.533C146.445 220.805 146.496 221.296 146.224 221.63C145.211 222.878 144.257 224.105 143.372 225.305C143.319 225.381 143.253 225.443 143.181 225.491ZM149.081 218.202C148.795 218.394 148.405 218.379 148.133 218.139C147.806 217.856 147.775 217.364 148.059 217.039C149.065 215.887 150.117 214.719 151.207 213.536C151.493 213.223 151.993 213.2 152.31 213.492C152.627 213.784 152.646 214.275 152.354 214.595C151.274 215.767 150.233 216.923 149.233 218.066C149.187 218.119 149.135 218.165 149.081 218.202ZM155.436 211.306C155.137 211.506 154.73 211.478 154.46 211.22C154.149 210.919 154.141 210.426 154.439 210.117C155.508 209.006 156.607 207.888 157.733 206.759C158.051 206.454 158.532 206.455 158.837 206.759C159.142 207.064 159.142 207.557 158.836 207.863C157.715 208.984 156.623 210.097 155.561 211.199C155.522 211.241 155.48 211.276 155.436 211.306ZM162.053 204.662C161.747 204.868 161.325 204.831 161.059 204.559C160.759 204.251 160.764 203.757 161.073 203.455C162.182 202.376 163.312 201.289 164.458 200.198C164.773 199.91 165.262 199.909 165.561 200.225C165.858 200.537 165.846 201.032 165.534 201.328C164.39 202.416 163.265 203.497 162.163 204.573C162.127 204.606 162.092 204.636 162.053 204.662ZM168.841 198.192C168.53 198.401 168.103 198.359 167.839 198.076C167.545 197.762 167.561 197.27 167.877 196.975C169.009 195.915 170.157 194.847 171.319 193.781C171.635 193.502 172.127 193.511 172.421 193.829C172.713 194.147 172.691 194.64 172.374 194.933C171.215 195.997 170.071 197.057 168.941 198.114C168.91 198.141 168.875 198.169 168.841 198.192ZM175.736 191.838C175.42 192.049 174.99 192.004 174.726 191.714C174.436 191.395 174.461 190.903 174.777 190.612C175.929 189.564 177.089 188.515 178.256 187.463C178.568 187.175 179.067 187.197 179.357 187.519C179.644 187.837 179.621 188.331 179.301 188.62C178.137 189.669 176.977 190.719 175.828 191.765C175.799 191.791 175.767 191.817 175.736 191.838ZM182.691 185.566C182.374 185.779 181.938 185.732 181.675 185.437C181.391 185.117 181.417 184.624 181.737 184.335L185.24 181.208C185.567 180.943 186.053 180.952 186.342 181.272C186.627 181.594 186.598 182.087 186.277 182.374L182.777 185.499C182.749 185.523 182.72 185.546 182.691 185.566ZM189.69 179.32C189.371 179.534 188.936 179.485 188.673 179.19C188.389 178.87 188.416 178.375 188.737 178.088L192.241 174.972C192.568 174.701 193.054 174.716 193.343 175.036C193.628 175.358 193.599 175.851 193.278 176.138L189.775 179.254C189.749 179.279 189.719 179.301 189.69 179.32ZM196.695 173.088C196.378 173.301 195.942 173.253 195.68 172.96C195.395 172.638 195.423 172.145 195.742 171.857L199.236 168.734C199.563 168.465 200.05 168.475 200.339 168.793C200.625 169.112 200.598 169.605 200.28 169.895L196.782 173.021C196.753 173.045 196.726 173.068 196.695 173.088ZM203.681 166.832C203.365 167.044 202.932 166.998 202.669 166.705C202.38 166.385 202.406 165.895 202.725 165.605L206.197 162.458C206.507 162.175 207.008 162.19 207.298 162.509C207.587 162.826 207.564 163.32 207.246 163.611L203.768 166.762C203.742 166.786 203.713 166.81 203.681 166.832ZM210.609 160.515C210.297 160.725 209.867 160.683 209.602 160.395C209.311 160.078 209.33 159.585 209.647 159.292C210.81 158.221 211.952 157.157 213.073 156.103C213.372 155.81 213.878 155.821 214.175 156.137C214.47 156.451 214.455 156.943 214.14 157.24C213.016 158.296 211.868 159.364 210.703 160.439C210.675 160.467 210.643 160.492 210.609 160.515ZM217.442 154.089C217.133 154.296 216.71 154.259 216.444 153.979C216.147 153.67 216.156 153.177 216.468 152.878C217.614 151.778 218.732 150.688 219.822 149.614C220.135 149.308 220.622 149.316 220.924 149.622C221.227 149.928 221.224 150.421 220.916 150.724C219.822 151.805 218.698 152.899 217.546 154.003C217.514 154.036 217.479 154.064 217.442 154.089ZM224.112 147.492C223.812 147.694 223.401 147.664 223.132 147.403C222.824 147.1 222.819 146.608 223.119 146.299C224.236 145.156 225.313 144.03 226.342 142.922C226.648 142.589 227.132 142.588 227.445 142.881C227.762 143.174 227.779 143.668 227.486 143.983C226.446 145.101 225.362 146.238 224.236 147.391C224.197 147.429 224.155 147.464 224.112 147.492ZM230.495 140.622C230.21 140.813 229.82 140.798 229.549 140.563C229.222 140.28 229.191 139.787 229.472 139.462C230.536 138.243 231.536 137.051 232.46 135.893C232.729 135.565 233.22 135.501 233.556 135.769C233.891 136.039 233.948 136.528 233.68 136.864C232.742 138.042 231.726 139.249 230.649 140.485C230.601 140.54 230.55 140.585 230.495 140.622ZM236.316 133.274C236.057 133.448 235.707 133.455 235.435 133.267C235.08 133.021 234.993 132.534 235.238 132.182C236.192 130.809 237.01 129.498 237.666 128.285C237.869 127.912 238.344 127.765 238.725 127.972C239.104 128.177 239.243 128.651 239.038 129.03C238.353 130.291 237.504 131.652 236.519 133.071C236.464 133.152 236.394 133.221 236.316 133.274ZM240.623 125.039C240.437 125.164 240.198 125.207 239.967 125.139C239.554 125.016 239.318 124.582 239.442 124.169C239.906 122.614 240.034 121.219 239.831 120.022C239.76 119.596 240.046 119.192 240.468 119.121C240.892 119.048 241.296 119.333 241.369 119.757C241.615 121.195 241.471 122.829 240.938 124.614C240.883 124.794 240.77 124.941 240.623 125.039ZM238.799 116.668C238.518 116.857 238.137 116.847 237.866 116.62C236.929 115.843 235.658 115.264 234.091 114.903C233.672 114.807 233.41 114.387 233.508 113.968C233.602 113.55 234.021 113.286 234.443 113.385C236.251 113.799 237.737 114.485 238.862 115.42C239.193 115.696 239.239 116.187 238.965 116.517C238.915 116.579 238.859 116.628 238.799 116.668ZM230.078 114.297C229.95 114.383 229.797 114.432 229.633 114.431C228.238 114.412 226.696 114.489 225.046 114.657C224.618 114.701 224.236 114.388 224.192 113.96C224.148 113.532 224.461 113.15 224.889 113.105C226.596 112.933 228.201 112.853 229.653 112.87C230.082 112.877 230.429 113.231 230.423 113.661C230.42 113.925 230.282 114.16 230.078 114.297ZM220.758 115.167C220.668 115.227 220.567 115.269 220.453 115.289C218.993 115.537 217.47 115.836 215.886 116.183C215.465 116.276 215.049 116.008 214.957 115.588C214.864 115.168 215.133 114.753 215.552 114.659C217.162 114.306 218.71 114.003 220.192 113.75C220.617 113.678 221.019 113.964 221.092 114.389C221.143 114.701 221.004 115.002 220.758 115.167ZM211.59 117.146C211.517 117.194 211.435 117.232 211.346 117.256C209.881 117.625 208.378 118.027 206.834 118.461C206.419 118.579 205.989 118.336 205.874 117.922C205.755 117.506 206.002 117.07 206.411 116.96C207.97 116.521 209.489 116.116 210.962 115.742C211.381 115.638 211.804 115.889 211.911 116.307C211.992 116.634 211.854 116.968 211.59 117.146ZM202.555 119.662C202.492 119.704 202.421 119.738 202.346 119.762C200.885 120.201 199.395 120.663 197.877 121.142C197.466 121.272 197.028 121.046 196.898 120.633C196.766 120.224 196.989 119.786 197.407 119.655C198.931 119.17 200.429 118.707 201.897 118.266C202.31 118.143 202.746 118.377 202.868 118.788C202.968 119.126 202.831 119.477 202.555 119.662ZM193.614 122.497C193.557 122.535 193.494 122.567 193.424 122.589C191.967 123.07 190.489 123.57 188.988 124.085C188.58 124.225 188.139 124.008 187.997 123.6C187.858 123.193 188.065 122.753 188.482 122.609C189.988 122.092 191.472 121.591 192.933 121.107C193.343 120.973 193.782 121.194 193.919 121.604C194.033 121.943 193.899 122.306 193.614 122.497ZM184.745 125.532C184.693 125.567 184.632 125.596 184.569 125.619C183.115 126.131 181.645 126.656 180.159 127.189C179.752 127.335 179.307 127.125 179.159 126.719C179.016 126.315 179.219 125.864 179.63 125.72C181.119 125.184 182.596 124.659 184.051 124.146C184.458 124.003 184.902 124.216 185.046 124.624C185.166 124.968 185.033 125.339 184.745 125.532ZM175.92 128.702C175.869 128.736 175.814 128.764 175.751 128.787C174.299 129.318 172.833 129.859 171.357 130.404C170.952 130.553 170.504 130.348 170.353 129.944C170.204 129.539 170.4 129.095 170.814 128.94C172.292 128.392 173.76 127.854 175.216 127.321C175.619 127.174 176.067 127.382 176.216 127.787C176.344 128.13 176.212 128.506 175.92 128.702ZM167.13 131.959C167.081 131.992 167.027 132.019 166.968 132.04C165.516 132.585 164.053 133.134 162.585 133.691C162.182 133.843 161.733 133.642 161.58 133.238C161.426 132.837 161.622 132.383 162.033 132.233C163.501 131.676 164.965 131.126 166.419 130.58C166.824 130.429 167.272 130.633 167.424 131.036C167.554 131.383 167.424 131.761 167.13 131.959ZM158.361 135.272C158.313 135.304 158.26 135.331 158.203 135.354L153.823 137.022C153.419 137.175 152.97 136.972 152.817 136.57C152.663 136.166 152.877 135.717 153.268 135.564L157.648 133.895C158.052 133.742 158.502 133.945 158.655 134.347C158.786 134.692 158.657 135.074 158.361 135.272ZM149.604 138.611C149.557 138.643 149.503 138.67 149.447 138.693L145.069 140.368C144.667 140.52 144.217 140.32 144.063 139.917C143.91 139.514 144.108 139.073 144.514 138.91L148.892 137.234C149.294 137.082 149.744 137.283 149.899 137.686C150.03 138.031 149.9 138.413 149.604 138.611ZM140.857 141.957C140.809 141.99 140.756 142.016 140.699 142.039L136.317 143.711C135.913 143.864 135.464 143.661 135.311 143.259C135.159 142.854 135.369 142.409 135.762 142.252L140.144 140.58C140.549 140.427 140.997 140.629 141.151 141.032C141.282 141.377 141.151 141.76 140.857 141.957ZM132.074 145.301C132.027 145.333 131.973 145.36 131.914 145.381L127.528 147.038C127.126 147.19 126.677 146.987 126.524 146.583C126.374 146.181 126.569 145.73 126.979 145.578L131.361 143.922C131.762 143.771 132.214 143.972 132.365 144.377C132.501 144.722 132.37 145.102 132.074 145.301ZM123.301 148.598C123.251 148.631 123.198 148.657 123.137 148.68L118.741 150.311C118.335 150.458 117.889 150.253 117.737 149.848C117.589 149.445 117.785 149.005 118.2 148.845L122.591 147.218C122.995 147.068 123.443 147.273 123.594 147.677C123.726 148.021 123.594 148.4 123.301 148.598ZM114.508 151.84C114.457 151.874 114.401 151.903 114.339 151.924L109.931 153.52C109.524 153.666 109.079 153.456 108.931 153.05C108.788 152.646 108.988 152.197 109.402 152.051L113.804 150.459C114.21 150.312 114.655 150.519 114.804 150.924C114.932 151.271 114.801 151.643 114.508 151.84ZM105.686 155.002C105.634 155.037 105.573 155.066 105.51 155.089C104.027 155.611 102.55 156.128 101.081 156.631C100.673 156.771 100.23 156.555 100.09 156.149C99.9505 155.742 100.157 155.298 100.572 155.158C102.04 154.65 103.513 154.136 104.992 153.616C105.399 153.473 105.843 153.686 105.987 154.094C106.107 154.438 105.974 154.808 105.686 155.002ZM96.8226 158.055C96.7672 158.092 96.7035 158.124 96.6352 158.145C95.1405 158.646 93.6551 159.141 92.1794 159.621C91.7695 159.756 91.3296 159.533 91.1976 159.124C91.0631 158.714 91.2831 158.267 91.6951 158.142C93.1657 157.661 94.6465 157.169 96.1397 156.669C96.5475 156.531 96.9879 156.751 97.1266 157.161C97.2419 157.499 97.1074 157.864 96.8226 158.055ZM87.9118 160.962C87.8517 161.002 87.784 161.034 87.7126 161.057C86.2039 161.535 84.7061 161.998 83.2246 162.445C82.8111 162.571 82.3747 162.337 82.2525 161.926C82.1267 161.512 82.3622 161.075 82.7722 160.954C84.2496 160.507 85.7392 160.044 87.2428 159.573C87.6547 159.441 88.092 159.67 88.2199 160.08C88.326 160.418 88.1904 160.774 87.9118 160.962ZM78.9391 163.673C78.873 163.717 78.7995 163.751 78.7189 163.774C77.1926 164.211 75.6838 164.635 74.1939 165.037C73.7773 165.152 73.3492 164.903 73.2367 164.49C73.1237 164.072 73.3722 163.651 73.7842 163.532C75.2658 163.131 76.7685 162.712 78.288 162.274C78.7016 162.155 79.1344 162.394 79.252 162.808C79.3503 163.144 79.2131 163.489 78.9391 163.673ZM69.8895 166.117C69.8156 166.166 69.7335 166.203 69.6435 166.226C68.0935 166.615 66.5696 166.979 65.0651 167.32C64.6458 167.414 64.2273 167.15 64.1323 166.729C64.0384 166.31 64.3008 165.899 64.7232 165.796C66.2132 165.461 67.7274 165.098 69.2646 164.714C69.6823 164.608 70.1053 164.862 70.2101 165.28C70.294 165.608 70.1542 165.939 69.8895 166.117ZM60.746 168.181C60.6629 168.237 60.5669 168.277 60.4636 168.299C58.8814 168.614 57.3366 168.894 55.8266 169.14C55.4001 169.209 54.9985 168.921 54.9297 168.496C54.8604 168.067 55.1522 167.67 55.5736 167.599C57.0671 167.355 58.597 167.076 60.1597 166.766C60.5821 166.683 60.9933 166.956 61.0786 167.379C61.1388 167.698 60.9984 168.012 60.746 168.181ZM51.4988 169.679C51.4003 169.745 51.2832 169.79 51.1573 169.805C49.5238 170 47.942 170.149 46.4542 170.241C46.0254 170.268 45.6536 169.944 45.6275 169.512C45.5983 169.083 45.9256 168.709 46.3564 168.686C47.8149 168.593 49.3679 168.448 50.9716 168.255C51.4008 168.206 51.7874 168.509 51.8398 168.936C51.8737 169.239 51.7328 169.522 51.4988 169.679ZM42.1621 170.245C42.0343 170.331 41.8818 170.38 41.7177 170.378C40.0388 170.355 38.4443 170.256 36.9803 170.078C36.5533 170.027 36.2476 169.639 36.2996 169.211C36.3501 168.784 36.7414 168.478 37.1669 168.53C38.5764 168.7 40.1152 168.797 41.7377 168.815C42.1665 168.822 42.5138 169.176 42.5081 169.606C42.5038 169.873 42.3668 170.107 42.1621 170.245ZM32.9583 169.06C32.7736 169.184 32.5392 169.228 32.3076 169.162C30.6749 168.693 29.1919 168.074 27.8998 167.327C27.5267 167.111 27.3997 166.636 27.6149 166.261C27.8307 165.891 28.3064 165.761 28.6809 165.977C29.8613 166.66 31.2264 167.226 32.7386 167.662C33.1535 167.781 33.3894 168.212 33.2715 168.629C33.2207 168.813 33.1061 168.961 32.9583 169.06ZM116.148 113.188L115.61 113.543C115.248 113.777 114.764 113.674 114.53 113.312C114.299 112.954 114.396 112.478 114.75 112.24C114.753 112.238 114.758 112.235 114.761 112.233L115.278 111.892C116.4 111.139 117.487 110.362 118.532 109.564C118.886 109.239 119.365 109.371 119.625 109.712C119.886 110.055 119.821 110.546 119.477 110.805C118.405 111.619 117.298 112.416 116.148 113.188ZM111.587 115.874C111.559 115.892 111.534 115.907 111.504 115.923C110.073 116.649 108.605 117.287 107.145 117.819C106.739 117.966 106.293 117.758 106.145 117.353C105.997 116.948 106.211 116.491 106.61 116.353C108.013 115.842 109.423 115.228 110.796 114.529C111.179 114.335 111.65 114.487 111.845 114.872C112.028 115.23 111.909 115.658 111.587 115.874ZM123.048 107.862C122.73 108.076 122.292 108.026 122.031 107.731C121.747 107.408 121.775 106.915 122.097 106.629C123.239 105.622 124.368 104.55 125.451 103.448C125.776 103.128 126.248 103.139 126.554 103.438C126.862 103.74 126.865 104.234 126.564 104.541C125.454 105.671 124.298 106.766 123.13 107.798C123.104 107.823 123.077 107.843 123.048 107.862ZM129.598 101.19C129.315 101.381 128.931 101.368 128.657 101.137C128.328 100.855 128.289 100.365 128.568 100.035C129.559 98.8715 130.525 97.6531 131.44 96.4113C131.697 96.0623 132.182 95.9933 132.532 96.2477C132.878 96.5042 132.951 96.9914 132.695 97.3394C131.759 98.609 130.77 99.8562 129.756 101.046C129.711 101.103 129.656 101.151 129.598 101.19ZM102.838 119.051C102.76 119.104 102.672 119.143 102.577 119.164C101.061 119.508 99.4807 119.765 97.8775 119.928C97.4493 119.972 97.0672 119.659 97.023 119.231C96.9774 118.804 97.2965 118.425 97.72 118.377C99.259 118.221 100.777 117.974 102.23 117.644C102.651 117.549 103.069 117.811 103.164 118.232C103.237 118.554 103.098 118.877 102.838 119.051ZM135.156 93.6704C134.907 93.8378 134.57 93.8519 134.3 93.68C133.936 93.4467 133.832 92.9652 134.063 92.6019C134.888 91.3157 135.684 89.9745 136.433 88.6253C136.638 88.2487 137.115 88.1113 137.493 88.3204C137.87 88.5294 138.006 89.0051 137.797 89.3796C137.033 90.7618 136.219 92.1278 135.377 93.4439C135.32 93.5356 135.244 93.6115 135.156 93.6704ZM93.5702 120.022C93.4455 120.106 93.2955 120.155 93.1341 120.154C91.6212 120.15 90.0727 120.082 88.4026 119.946C87.9726 119.911 87.6535 119.536 87.6886 119.106C87.7237 118.676 88.0964 118.356 88.529 118.392C90.16 118.523 91.6674 118.589 93.1386 118.595C93.5695 118.598 93.9178 118.947 93.9161 119.377C93.9139 119.646 93.7764 119.884 93.5702 120.022ZM25.199 164.393C24.8743 164.611 24.4298 164.555 24.1706 164.249C23.8572 163.878 23.5644 163.492 23.2915 163.086C22.6776 162.172 22.1116 161.169 21.6077 160.11C21.4203 159.717 21.613 159.239 21.976 159.072C22.3652 158.886 22.8311 159.051 23.0165 159.44C23.4882 160.432 24.0169 161.366 24.5885 162.217C24.8283 162.574 25.0871 162.916 25.3612 163.241C25.639 163.568 25.598 164.063 25.2708 164.34C25.2472 164.359 25.2221 164.378 25.199 164.393ZM139.688 85.4879C139.467 85.6367 139.176 85.6665 138.918 85.545C138.53 85.3591 138.365 84.8938 138.548 84.5049C139.202 83.1344 139.833 81.7084 140.421 80.2661C140.58 79.8712 141.036 79.6763 141.436 79.839C141.834 80.0002 142.027 80.4561 141.863 80.8542C141.265 82.3253 140.622 83.7781 139.958 85.1748C139.894 85.3051 139.801 85.4124 139.688 85.4879ZM84.2508 119.311C84.0968 119.414 83.9098 119.462 83.7143 119.437C82.1664 119.23 80.6173 118.995 79.0651 118.749C78.6401 118.681 78.3487 118.281 78.4162 117.856C78.4806 117.426 78.8833 117.138 79.3093 117.207C80.8512 117.451 82.3879 117.687 83.9194 117.89C84.3464 117.947 84.646 118.34 84.5903 118.766C84.5592 118.999 84.4293 119.191 84.2508 119.311ZM143.226 76.8254C143.031 76.9566 142.777 76.9976 142.537 76.9156C142.13 76.7756 141.914 76.331 142.053 75.9227C142.572 74.4241 143.036 72.9467 143.457 71.4958C143.578 71.0865 144.009 70.8481 144.426 70.966C144.838 71.087 145.076 71.5186 144.956 71.9345C144.526 73.4066 144.053 74.9102 143.529 76.432C143.471 76.5983 143.363 76.7334 143.226 76.8254ZM21.1286 156.034C21.0594 156.08 20.9829 156.116 20.8996 156.139C20.483 156.253 20.0544 156.007 19.9419 155.594C19.5228 154.068 19.2269 152.48 19.0565 150.873C19.0098 150.444 19.3232 150.06 19.7488 150.015C20.1775 149.968 20.5611 150.28 20.6068 150.707C20.7667 152.233 21.0495 153.738 21.4431 155.182C21.5372 155.512 21.3995 155.852 21.1286 156.034ZM74.9958 117.89C74.8388 117.996 74.642 118.045 74.4398 118.014C72.9169 117.774 71.3802 117.545 69.8323 117.345C69.4048 117.29 69.1037 116.898 69.1583 116.471C69.2114 116.044 69.6022 115.742 70.0322 115.797C71.5956 116 73.1447 116.228 74.683 116.47C75.108 116.538 75.3998 116.936 75.3318 117.363C75.2956 117.588 75.1697 117.774 74.9958 117.89ZM145.833 67.8369C145.659 67.9537 145.438 67.9997 145.217 67.9469C144.798 67.8486 144.539 67.4262 144.638 67.0089C145.011 65.4388 145.331 63.9197 145.613 62.464C145.692 62.0401 146.103 61.7641 146.526 61.8445C146.949 61.9264 147.226 62.3347 147.145 62.7572C146.863 64.2354 146.534 65.7782 146.156 67.3699C146.11 67.5681 145.992 67.7304 145.833 67.8369ZM65.7175 116.731C65.5759 116.826 65.4033 116.875 65.2202 116.862C63.5969 116.733 62.0885 116.665 60.605 116.654C60.1745 116.648 59.8268 116.296 59.831 115.867C59.8372 115.434 60.1919 115.091 60.6177 115.093C62.1398 115.105 63.6852 115.175 65.3456 115.306C65.7756 115.341 66.0946 115.716 66.0622 116.147C66.0409 116.391 65.9084 116.603 65.7175 116.731ZM20.1482 146.765C20.0128 146.856 19.8479 146.907 19.6709 146.896C19.24 146.873 18.9112 146.506 18.9344 146.075C19.02 144.47 19.2373 142.868 19.5807 141.318C19.6744 140.902 20.0905 140.634 20.512 140.726C20.9319 140.819 21.1961 141.236 21.1039 141.657C20.7782 143.124 20.5735 144.642 20.4928 146.161C20.4782 146.412 20.3437 146.634 20.1482 146.765ZM56.3777 116.681C56.2699 116.753 56.1421 116.799 56.0038 116.809C54.4605 116.932 52.9283 117.128 51.4493 117.393C51.0253 117.47 50.6187 117.187 50.5442 116.764C50.4677 116.337 50.7548 115.93 51.1737 115.859C52.7041 115.583 54.2882 115.382 55.8813 115.257C56.3106 115.221 56.687 115.542 56.7188 115.972C56.7429 116.264 56.6039 116.529 56.3777 116.681ZM22.1688 137.672C21.961 137.812 21.6891 137.849 21.4368 137.746C21.0387 137.583 20.849 137.127 21.0102 136.729C21.6217 135.242 22.3651 133.804 23.2203 132.457C23.4505 132.095 23.9345 131.984 24.2962 132.217C24.6611 132.448 24.7681 132.93 24.5364 133.293C23.7298 134.563 23.0304 135.919 22.4556 137.321C22.3943 137.47 22.2935 137.589 22.1688 137.672ZM47.2004 118.326C47.1342 118.37 47.0592 118.405 46.9796 118.429C45.5248 118.844 44.0625 119.343 42.6354 119.908C42.2338 120.069 41.7822 119.872 41.623 119.472C41.4627 119.07 41.6566 118.607 42.0597 118.459C43.5361 117.874 45.0457 117.359 46.5519 116.928C46.9654 116.809 47.3977 117.05 47.5153 117.464C47.61 117.798 47.4728 118.143 47.2004 118.326ZM27.1616 129.82C26.8692 130.016 26.4701 129.994 26.1993 129.747C25.8836 129.456 25.8619 128.962 26.1529 128.643C27.218 127.486 28.4068 126.393 29.6854 125.393C30.044 125.153 30.5162 125.191 30.7806 125.531C31.044 125.87 30.985 126.361 30.6429 126.626C29.4325 127.571 28.3073 128.606 27.3016 129.699C27.2585 129.748 27.2108 129.786 27.1616 129.82ZM38.5351 121.751C38.5074 121.769 38.4802 121.785 38.4519 121.8C37.1152 122.477 35.7654 123.233 34.4358 124.05C34.0694 124.276 33.5882 124.162 33.3649 123.796C33.1389 123.429 33.2585 122.902 33.6194 122.725C34.9844 121.884 36.3743 121.107 37.7444 120.41C38.1304 120.214 38.5999 120.367 38.794 120.753C38.9741 121.108 38.8552 121.536 38.5351 121.751Z" fill="#EF0003"/>
<path d="M147.666 58.1468C147.512 58.2501 147.319 58.2991 147.12 58.272C146.694 58.2097 146.399 57.8137 146.459 57.3872C146.575 56.5923 146.675 55.8264 146.765 55.0959C146.819 54.671 147.209 54.3668 147.635 54.4157C148.063 54.4678 148.365 54.8586 148.315 55.2856C148.224 56.0279 148.121 56.8026 148.005 57.6108C147.97 57.8377 147.841 58.0289 147.666 58.1468Z" fill="#EF0003"/>
</svg>
