<svg width="85" height="76" viewBox="0 0 85 76" fill="none" xmlns="http://www.w3.org/2000/svg">
<path d="M28.7933 14.5306C28.4159 14.7733 27.914 17.2607 27.4907 20.9782C26.0662 33.693 25.3076 33.2394 26.2593 33.9686C27.278 34.7491 27.4181 34.2608 28.7246 26.1145C30.1217 17.378 30.1528 13.7003 28.7933 14.5306Z" fill="#ED0200"/>
<path d="M16.4896 28.7344C16.1819 28.7751 16.1626 28.9946 16.2657 30.1372C16.4305 31.8378 17.6536 33.4344 18.2185 32.6972C18.6672 32.0837 17.1762 28.6435 16.4896 28.7344Z" fill="#ED0200"/>
<path d="M10.9999 31.3606C6.18244 24.2657 4.35482 22.0144 3.24161 21.8847C2.33432 21.7639 2.50423 22.3196 3.92122 24.1073C5.14516 25.6195 7.24281 28.5457 9.23548 31.4978C10.8688 33.9193 11.3165 34.39 12.1077 34.6346C13.2089 34.9465 12.9595 34.2448 10.9999 31.3606Z" fill="#ED0200"/>
<path d="M41.8548 19.408C41.4877 19.6373 39.8298 23.217 38.9849 25.5691C38.7831 26.1378 38.1537 27.5701 37.5979 28.7397C36.5005 31.0048 36.4853 31.1635 37.2493 31.7489C37.9731 32.3035 37.9527 32.3302 39.5874 28.3921C42.4376 21.5349 43.1804 18.5942 41.8548 19.408Z" fill="#ED0200"/>
<path d="M15.237 21.3252C15.5502 23.0543 15.2454 24.1184 16.2372 24.8784C17.8323 26.1006 17.9815 26.0447 17.5468 22.6696C16.7432 16.4165 15.2552 11.3621 14.1822 11.2632C13.1494 11.1951 14.4865 14.8362 15.237 21.3252Z" fill="#ED0200"/>
<path d="M66.0291 55.603C67.7051 55.5257 69.0531 55.1546 69.4229 54.672C69.9364 54.0019 69.2595 53.1639 68.1485 53.1423C60.7775 52.9617 52.1307 54.3351 52.3977 55.6246C52.6616 56.8905 53.8427 56.9871 59.8993 56.2457C62.5674 55.9286 65.3229 55.6363 66.0291 55.603Z" fill="#ED0200"/>
<path d="M55.5673 30.5146C54.1145 31.55 51.2412 34.4115 44.3998 39.8699C43.0377 40.9535 43.0172 40.9802 43.1381 41.711C43.2401 42.2997 43.8177 42.934 44.3172 42.9763C44.7321 43.0177 54.1598 35.3501 57.1711 32.5306C58.3242 31.4144 57.2278 29.3192 55.5673 30.5146Z" fill="#ED0200"/>
<path d="M67.809 65.8139C62.8613 63.831 53.1453 61.1302 52.206 61.4955C51.5517 61.7387 52.3954 63.1084 53.4153 63.4432L57.226 64.6611C63.0868 66.5352 70.5919 68.4565 70.8281 68.1482C71.2974 67.508 70.4797 66.8816 67.809 65.8139Z" fill="#ED0200"/>
<path d="M63.6719 40.7785C63.1462 40.9926 61.6512 41.5278 57.3995 42.8012C55.4752 43.369 51.8663 44.8584 51.6198 45.1801C51.1269 45.8235 54.6547 44.9952 61.1741 42.9278C62.5838 42.4763 63.9421 42.0917 64.2056 42.0809C65.4327 41.9787 64.6554 40.3834 63.6719 40.7785Z" fill="#ED0200"/>
</svg>
