<svg width="114" height="118" viewBox="0 0 114 118" fill="none" xmlns="http://www.w3.org/2000/svg">
<path d="M62.6053 4.15583L61.9815 6.97764C61.9656 7.04838 61.9142 7.10601 61.8464 7.13013L59.5053 7.9476C59.5956 7.50104 59.6415 7.06884 59.5948 6.86008L58.1203 6.53392C57.8809 6.84651 57.6033 7.98224 57.5764 8.62031L50.9958 10.917L50.7713 11.9313L58.8045 11.5869C59.1072 11.5741 59.4108 11.6009 59.7068 11.6662L60.7502 11.8969C60.8254 11.9132 60.8733 11.9883 60.8559 12.0634L60.366 14.2799C60.1567 15.2249 60.0501 16.1197 60.0105 16.9087L56.9052 18.971L56.7192 19.8128L60.1207 19.3012C60.1995 19.7302 60.3021 19.9838 60.3965 20.0044C60.491 20.025 60.6908 19.8385 60.9433 19.4828L63.8123 21.381L63.9982 20.5392L62.0514 17.3605C62.3487 16.6284 62.6288 15.7722 62.8371 14.8271L63.327 12.6106C63.3433 12.5353 63.4178 12.4878 63.4935 12.5047L64.5369 12.7354C64.8329 12.8008 65.1194 12.9042 65.3884 13.0443L72.5277 16.7426L72.7521 15.7283L67.7531 10.8714C67.9983 10.2814 68.2247 9.13459 68.1397 8.75003L66.6652 8.42385C66.5354 8.59331 66.3944 9.00528 66.2879 9.44815L64.5095 7.72066C64.4574 7.66989 64.4354 7.59631 64.451 7.52497L65.0748 4.70316C65.5308 2.64055 65.1074 0.782709 64.6667 0.685858C64.2274 0.587225 63.0608 2.09362 62.6053 4.15583Z" fill="#EF0003"/>
<path d="M101.687 65.6575C100.139 66.697 99.7265 68.7948 100.766 70.3433C102.291 72.6141 107.037 73.6235 107.037 73.6235C107.037 73.6235 107.898 68.8491 106.373 66.5783C105.334 65.0304 103.235 64.618 101.687 65.6575ZM104.435 69.7499C103.723 70.2281 102.759 70.0381 102.281 69.3265C101.802 68.6143 101.992 67.6496 102.704 67.1718C103.416 66.6939 104.381 66.8836 104.859 67.5952C105.337 68.3074 105.148 69.2716 104.435 69.7499Z" fill="#EF0003"/>
<path d="M109.159 76.7944C110.112 76.1543 110.626 75.2491 110.306 74.7725C109.986 74.2959 108.954 74.4285 108 75.0686C107.047 75.7086 106.534 76.6139 106.854 77.0905C107.174 77.567 108.206 77.4345 109.159 76.7944Z" fill="#EF0003"/>
<path d="M108.77 76.2133C108.762 76.2188 108.754 76.2234 108.745 76.2288C108.601 76.3063 108.342 76.4564 107.98 76.6705C107.838 76.7539 107.654 76.7075 107.569 76.5652C107.486 76.4232 107.507 76.2379 107.675 76.155C108.047 75.9341 108.312 75.7816 108.461 75.7009C108.605 75.6226 108.788 75.6775 108.867 75.8228C108.94 75.9598 108.897 76.1283 108.77 76.2133Z" fill="#EF0003"/>
<path d="M106.451 77.5788C106.446 77.582 106.442 77.5848 106.437 77.587C105.975 77.862 105.455 78.1708 104.884 78.5074C104.741 78.5916 104.558 78.5439 104.474 78.4022C104.39 78.2601 104.431 78.07 104.579 77.9919C105.151 77.6549 105.669 77.3473 106.13 77.073C106.272 76.9886 106.456 77.035 106.54 77.1763C106.623 77.3137 106.582 77.4903 106.451 77.5788ZM103.344 79.4126C103.339 79.4162 103.333 79.4192 103.329 79.4223C102.835 79.7111 102.315 80.0142 101.77 80.33C101.627 80.4126 101.444 80.3639 101.361 80.2208C101.279 80.0785 101.32 79.9111 101.47 79.8113C102.013 79.4969 102.533 79.1936 103.026 78.9052C103.169 78.822 103.352 78.8698 103.436 79.0125C103.516 79.1498 103.475 79.3249 103.344 79.4126ZM100.226 81.2162C100.22 81.2202 100.214 81.2236 100.208 81.2276C99.7007 81.5174 99.1779 81.8153 98.6402 82.118C98.496 82.1995 98.3141 82.1484 98.2327 82.0041C98.152 81.861 98.1941 81.6887 98.3466 81.5966C98.8823 81.2934 99.4044 80.9969 99.9107 80.7075C100.054 80.6258 100.238 80.6758 100.32 80.8186C100.397 80.9564 100.355 81.1293 100.226 81.2162ZM97.0891 82.9881C97.0826 82.9925 97.0758 82.9963 97.0677 83.0008C96.5531 83.2881 96.0265 83.5791 95.4908 83.8746C95.3453 83.9542 95.1638 83.9012 95.084 83.7567C95.0047 83.6118 95.0602 83.4288 95.2019 83.3499C95.7364 83.0553 96.2608 82.7648 96.7764 82.4778C96.9205 82.3973 97.1027 82.449 97.1836 82.5937C97.2609 82.7305 97.2174 82.902 97.0891 82.9881ZM93.9343 84.7226C93.926 84.7281 93.9179 84.7327 93.9093 84.7376C93.3873 85.0204 92.8573 85.3051 92.322 85.5909C92.1769 85.6686 91.9949 85.6133 91.9168 85.4676C91.8383 85.3214 91.9048 85.137 92.0396 85.0619C92.5744 84.7765 93.1032 84.4926 93.6239 84.2106C93.7692 84.1319 93.9508 84.1866 94.0301 84.3315C94.1042 84.4687 94.0608 84.6376 93.9343 84.7226ZM90.7568 86.4156C90.7473 86.422 90.738 86.4273 90.7278 86.4325C90.1993 86.7093 89.6661 86.9868 89.129 87.2634C88.9823 87.3388 88.8017 87.2817 88.7255 87.1339C88.6502 86.9872 88.7114 86.8038 88.8551 86.7304C89.3911 86.4546 89.9231 86.1779 90.4503 85.9019C90.5962 85.8253 90.7771 85.8814 90.8544 86.0285C90.9255 86.1651 90.8815 86.3319 90.7568 86.4156ZM87.555 88.0623C87.5444 88.0695 87.5339 88.0756 87.5215 88.0814C86.9879 88.3506 86.4505 88.6179 85.9117 88.8846C85.7639 88.9581 85.584 88.8971 85.5106 88.7483C85.4381 88.6006 85.498 88.4154 85.6469 88.3472C86.1845 88.0813 86.7207 87.8148 87.2531 87.5464C87.4001 87.4717 87.5808 87.5313 87.6548 87.6797C87.7236 87.8153 87.6779 87.9798 87.555 88.0623ZM84.3279 89.6523C84.3155 89.6606 84.3029 89.6674 84.2905 89.6731C83.7482 89.9344 83.2054 90.1925 82.6619 90.4469C82.5117 90.5169 82.3335 90.4522 82.2633 90.3029C82.1927 90.1531 82.2622 89.9744 82.4079 89.904C82.9491 89.6512 83.4906 89.3938 84.0306 89.1341C84.1796 89.0623 84.3587 89.1248 84.4299 89.2742C84.495 89.4106 84.4491 89.5709 84.3279 89.6523ZM81.0673 91.1781C81.0537 91.1873 81.0387 91.1956 81.0236 91.2024C80.4743 91.452 79.9248 91.6975 79.3769 91.9377C79.2252 92.0044 79.0485 91.9353 78.9822 91.7842C78.9157 91.6316 78.9854 91.4519 79.1357 91.3896C79.6809 91.1504 80.2276 90.9059 80.7757 90.657C80.9255 90.589 81.1039 90.6553 81.1723 90.8058C81.234 90.941 81.1867 91.0979 81.0673 91.1781ZM77.7717 92.6238C77.7563 92.6341 77.7391 92.643 77.7212 92.6508C77.1618 92.8867 76.6057 93.116 76.0526 93.3382C75.8988 93.4003 75.7246 93.3261 75.6635 93.1725C75.6012 93.0197 75.6726 92.8413 75.8292 92.7833C76.3792 92.5615 76.9335 92.3334 77.4885 92.0987C77.6411 92.0348 77.8169 92.1063 77.881 92.2579C77.9371 92.3926 77.8887 92.5452 77.7717 92.6238ZM74.432 93.9669C74.4137 93.9792 74.3932 93.9895 74.3715 93.9981C73.8014 94.2154 73.2356 94.4238 72.6759 94.6222C72.5199 94.6772 72.3496 94.5961 72.2936 94.4399C72.2389 94.2844 72.3203 94.1157 72.4759 94.0576C73.0313 93.8604 73.5912 93.6533 74.1574 93.4378C74.3126 93.379 74.4846 93.4565 74.544 93.6113C74.5954 93.744 74.5449 93.891 74.432 93.9669ZM71.0398 95.1729C71.0179 95.1876 70.9929 95.2001 70.9661 95.2087C70.3816 95.3996 69.8045 95.5797 69.2384 95.7455C69.0794 95.7922 68.9132 95.7006 68.8668 95.5422C68.8201 95.3832 68.9139 95.219 69.0702 95.1706C69.6308 95.0068 70.2008 94.829 70.7793 94.6395C70.9367 94.5878 71.1054 94.6743 71.1577 94.8313C71.2004 94.9613 71.1485 95.0999 71.0398 95.1729ZM67.5857 96.1821C67.5579 96.2007 67.5264 96.2151 67.4919 96.2237C66.8878 96.3764 66.2974 96.5112 65.7232 96.6267C65.5608 96.6594 65.4035 96.5541 65.3701 96.3921C65.338 96.2294 65.4447 96.0728 65.6047 96.0391C66.1699 95.9254 66.7499 95.7932 67.3448 95.6433C67.5052 95.6024 67.6678 95.699 67.708 95.8598C67.7406 95.9863 67.688 96.1134 67.5857 96.1821ZM64.0579 96.8823C64.0207 96.9073 63.9779 96.924 63.9311 96.9297C63.296 97.0158 62.6842 97.0716 62.115 97.0962C61.9494 97.1036 61.8094 96.9756 61.8023 96.8105C61.7954 96.6445 61.9241 96.5066 62.0879 96.4978C62.6406 96.474 63.2329 96.4201 63.8503 96.3357C64.0147 96.3136 64.1656 96.4284 64.1872 96.5922C64.203 96.7102 64.1495 96.8208 64.0579 96.8823ZM60.4757 97.0136C60.4201 97.0509 60.3522 97.0699 60.2813 97.0627C59.6169 97.0029 59.0067 96.8861 58.4655 96.7161C58.3076 96.6661 58.2205 96.4982 58.2696 96.34C58.3186 96.1845 58.4863 96.0958 58.6456 96.144C59.1452 96.3017 59.7134 96.4098 60.3348 96.4667C60.4997 96.4812 60.6209 96.6271 60.6054 96.7918C60.5978 96.8853 60.5478 96.9652 60.4757 97.0136ZM57.1427 95.8918C57.0399 95.9609 56.9013 95.9614 56.7966 95.8833C56.385 95.5757 56.0323 95.2062 55.7487 94.7852C55.6761 94.6771 55.6113 94.5679 55.5507 94.4559C55.4726 94.3103 55.5388 94.1252 55.6736 94.0501C55.8192 93.9721 56.0013 94.0273 56.0794 94.173C56.1294 94.268 56.1856 94.3606 56.246 94.4504C56.4922 94.8159 56.7976 95.1365 57.1545 95.4037C57.2873 95.5031 57.3146 95.6906 57.2154 95.8225C57.1945 95.8502 57.1693 95.874 57.1427 95.8918ZM55.5723 92.8867C55.5256 92.918 55.4696 92.9368 55.409 92.9372C55.2439 92.9391 55.1078 92.8067 55.1065 92.6412C55.1004 92.0741 55.1982 91.4562 55.3963 90.8035C55.4443 90.6452 55.6107 90.5557 55.77 90.604C55.9277 90.6524 56.0175 90.8194 55.9689 90.9781C55.788 91.572 55.6991 92.1292 55.7049 92.6346C55.7059 92.7395 55.6533 92.8323 55.5723 92.8867ZM56.5242 89.4808C56.4373 89.5392 56.3229 89.5501 56.223 89.4996C56.0754 89.4255 56.0154 89.2454 56.0895 89.0979C56.3404 88.5967 56.6458 88.0631 56.9972 87.5098C57.0874 87.3721 57.2723 87.3294 57.4114 87.4178C57.5509 87.5068 57.592 87.6918 57.5034 87.8319C57.1628 88.3668 56.8674 88.8834 56.6251 89.3668C56.601 89.4139 56.5662 89.4527 56.5242 89.4808ZM58.4382 86.4375C58.336 86.5062 58.1983 86.5068 58.0938 86.4304C57.9602 86.3323 57.9313 86.145 58.0298 86.012C58.3756 85.5422 58.7466 85.0641 59.1424 84.577C59.2451 84.4489 59.4351 84.4294 59.5635 84.5336C59.6918 84.6378 59.7112 84.8263 59.6069 84.9546C59.2178 85.4338 58.8517 85.9052 58.5118 86.3658C58.4912 86.3951 58.466 86.4189 58.4382 86.4375ZM60.7039 83.6382C60.594 83.712 60.4443 83.7062 60.3397 83.6144C60.2144 83.5056 60.2023 83.3165 60.3114 83.1917C60.698 82.7495 61.1016 82.3009 61.5203 81.8465C61.6301 81.7265 61.8222 81.7175 61.9438 81.8297C62.0654 81.9418 62.0729 82.1306 61.9606 82.2532C61.5459 82.7032 61.1462 83.1474 60.7624 83.5861C60.7445 83.6067 60.7246 83.6243 60.7039 83.6382ZM63.1441 80.9902C63.0294 81.0672 62.873 81.0565 62.7694 80.9571C62.6499 80.8418 62.6471 80.6524 62.7612 80.5338C63.1719 80.1071 63.5938 79.6779 64.0264 79.2442C64.1484 79.1271 64.333 79.1275 64.4501 79.2444C64.5672 79.3613 64.5674 79.5507 64.45 79.6681C64.0196 80.0987 63.6 80.5262 63.1921 80.9493C63.1772 80.9654 63.1612 80.9787 63.1441 80.9902ZM65.6853 78.4389C65.5677 78.5179 65.4057 78.5041 65.3036 78.3994C65.1883 78.2813 65.1903 78.0913 65.3089 77.9756C65.7346 77.5611 66.1686 77.1436 66.6085 76.7247C66.7298 76.6141 66.9176 76.614 67.0323 76.7351C67.1463 76.8549 67.1418 77.0449 67.0219 77.1589C66.5828 77.5764 66.1508 77.9917 65.7274 78.4047C65.7136 78.4173 65.7 78.429 65.6853 78.4389ZM68.2918 75.9544C68.1725 76.0346 68.0083 76.0188 67.907 75.9101C67.7943 75.7895 67.8002 75.6003 67.9214 75.4871C68.3564 75.0801 68.7972 74.6701 69.2434 74.2606C69.3645 74.1536 69.5537 74.1569 69.6666 74.2791C69.7786 74.4012 69.7702 74.5904 69.6485 74.7029C69.2034 75.1116 68.7643 75.5188 68.33 75.9245C68.3182 75.935 68.3049 75.9457 68.2918 75.9544ZM70.9395 73.5144C70.8183 73.5958 70.653 73.5782 70.5517 73.467C70.4403 73.3445 70.4497 73.1555 70.5712 73.0439C71.0135 72.6414 71.459 72.2385 71.9073 71.8346C72.027 71.7242 72.2187 71.7326 72.3299 71.856C72.4403 71.9783 72.4313 72.1679 72.3084 72.2787C71.8614 72.6818 71.4158 73.0847 70.9747 73.4865C70.9635 73.4966 70.9513 73.5065 70.9395 73.5144ZM73.6101 71.1061C73.4883 71.1879 73.321 71.1699 73.2201 71.0567C73.1109 70.9337 73.1209 70.7443 73.2438 70.6335L74.589 69.4325C74.7146 69.331 74.9012 69.3343 75.012 69.4572C75.1216 69.5808 75.1106 69.77 74.9874 69.8802L73.6433 71.0803C73.6323 71.0895 73.6213 71.0986 73.6101 71.1061ZM76.2977 68.7078C76.1754 68.79 76.0082 68.771 75.9073 68.6578C75.7981 68.5348 75.8087 68.345 75.932 68.2348L77.2774 67.038C77.403 66.9339 77.5896 66.9398 77.7004 67.0626C77.81 67.1863 77.799 67.3755 77.6758 67.4857L76.3304 68.6825C76.3203 68.6918 76.3089 68.7003 76.2977 68.7078ZM78.9879 66.3147C78.8662 66.3964 78.6985 66.3778 78.598 66.2652C78.4884 66.1416 78.4994 65.9524 78.6216 65.842L79.9635 64.6425C80.0889 64.5394 80.2759 64.5433 80.3869 64.6651C80.4967 64.7878 80.4866 64.9772 80.3642 65.0885L79.0212 66.2889C79.0102 66.298 78.9997 66.3067 78.9879 66.3147ZM81.6702 63.9122C81.549 63.9936 81.3827 63.9758 81.2816 63.8636C81.1708 63.7408 81.1807 63.5523 81.3031 63.4409L82.6364 62.2326C82.7557 62.1242 82.9481 62.1296 83.0595 62.2521C83.1704 62.3739 83.1614 62.5635 83.0393 62.6755L81.7037 63.8855C81.6936 63.8948 81.6826 63.9039 81.6702 63.9122ZM84.3309 61.4866C84.2109 61.5672 84.0458 61.5511 83.9439 61.4403C83.8323 61.3189 83.8398 61.1295 83.9614 61.0169C84.4081 60.6055 84.8464 60.197 85.2769 59.7922C85.3919 59.6798 85.586 59.6841 85.7001 59.8056C85.8135 59.9258 85.8076 60.115 85.6867 60.2288C85.2551 60.6344 84.8143 61.0444 84.3669 61.4572C84.3561 61.4679 84.3439 61.4779 84.3309 61.4866ZM86.9547 59.0188C86.8359 59.0986 86.6735 59.0841 86.5715 58.9769C86.4573 58.858 86.4606 58.6688 86.5807 58.5539C87.0208 58.1314 87.4499 57.7129 87.8685 57.3006C87.9885 57.1831 88.1757 57.186 88.2916 57.3037C88.4081 57.421 88.4068 57.6106 88.2885 57.7269C87.8683 58.142 87.4369 58.5621 86.9945 58.9861C86.9823 58.9986 86.9689 59.0093 86.9547 59.0188ZM89.5159 56.4859C89.4006 56.5633 89.2428 56.5518 89.1394 56.4514C89.0211 56.3353 89.0193 56.1462 89.1344 56.0277C89.5634 55.5887 89.9772 55.1564 90.3723 54.7308C90.4897 54.603 90.6755 54.6026 90.7956 54.7149C90.9176 54.8276 90.9239 55.0172 90.8114 55.1382C90.412 55.5677 89.9959 56.004 89.5635 56.447C89.5484 56.4615 89.5324 56.4748 89.5159 56.4859ZM91.9669 53.8477C91.8576 53.9211 91.7079 53.9153 91.6035 53.825C91.4782 53.7162 91.4661 53.5271 91.5743 53.4022C91.9828 52.934 92.3667 52.4764 92.7214 52.0315C92.8247 51.9056 93.0132 51.881 93.1423 51.9839C93.2712 52.0877 93.2927 52.2756 93.1899 52.4047C92.8297 52.8567 92.4395 53.3203 92.026 53.7952C92.0075 53.8162 91.9882 53.8334 91.9669 53.8477ZM94.2022 51.026C94.1029 51.0927 93.9684 51.0955 93.8641 51.0232C93.7277 50.9287 93.6941 50.742 93.7884 50.6066C94.1547 50.0793 94.4686 49.5762 94.7207 49.1101C94.7986 48.9669 94.9811 48.9104 95.1271 48.9898C95.2727 49.0687 95.3262 49.2506 95.2473 49.3962C94.9844 49.8807 94.6586 50.403 94.2801 50.9479C94.2591 50.9792 94.2323 51.0058 94.2022 51.026ZM95.8563 47.8639C95.7848 47.9119 95.6928 47.9282 95.604 47.902C95.4455 47.855 95.3551 47.6884 95.4028 47.5295C95.5806 46.9324 95.63 46.3967 95.552 45.9371C95.5246 45.7737 95.6347 45.6183 95.7965 45.5911C95.9595 45.5631 96.1145 45.6726 96.1425 45.8356C96.2371 46.3877 96.1816 47.0151 95.9772 47.7004C95.9559 47.7695 95.9124 47.8261 95.8563 47.8639ZM95.1555 44.6494C95.0479 44.7216 94.9014 44.718 94.7975 44.6309C94.4375 44.3323 93.9496 44.1103 93.3479 43.9715C93.1868 43.9347 93.0862 43.7733 93.124 43.6125C93.1601 43.4518 93.3211 43.3506 93.483 43.3885C94.1772 43.5475 94.7477 43.811 95.18 44.1699C95.3069 44.2759 95.3247 44.4646 95.2193 44.5911C95.2003 44.6151 95.1786 44.6339 95.1555 44.6494ZM91.8067 43.7389C91.7577 43.7719 91.6991 43.7907 91.6361 43.7901C91.1004 43.7828 90.5081 43.8126 89.8747 43.877C89.7103 43.8939 89.5635 43.7738 89.5466 43.6093C89.5296 43.4449 89.6498 43.2982 89.8142 43.2812C90.4696 43.2151 91.0861 43.1843 91.6436 43.1908C91.8083 43.1934 91.9416 43.3294 91.9394 43.4946C91.938 43.5959 91.8853 43.6862 91.8067 43.7389ZM88.2277 44.073C88.1935 44.0961 88.1544 44.112 88.1108 44.1199C87.5504 44.2149 86.9655 44.3298 86.3569 44.4632C86.1955 44.4987 86.0357 44.396 86.0002 44.2346C85.9647 44.0732 86.0678 43.9139 86.2288 43.8778C86.847 43.7422 87.4413 43.6261 88.0105 43.5286C88.1739 43.5012 88.3283 43.611 88.3563 43.7741C88.3758 43.8938 88.3223 44.0095 88.2277 44.073ZM84.7072 44.8327C84.6795 44.8513 84.6479 44.8657 84.6138 44.8749C84.0513 45.0168 83.4741 45.1711 82.8811 45.3378C82.7219 45.383 82.5565 45.2899 82.5123 45.1309C82.4668 44.9711 82.5618 44.8036 82.7188 44.7616C83.3173 44.5929 83.9005 44.4371 84.4663 44.2938C84.6271 44.2536 84.7897 44.3502 84.8306 44.5106C84.8618 44.6363 84.8089 44.7644 84.7072 44.8327ZM81.238 45.7989C81.2138 45.8151 81.1866 45.8283 81.1576 45.8374C80.5966 46.0058 80.0245 46.1832 79.4415 46.3673C79.2839 46.4174 79.1157 46.3305 79.0658 46.1719C79.0152 46.0147 79.1005 45.8467 79.2612 45.7962C79.8463 45.61 80.4215 45.4322 80.9852 45.2628C81.1438 45.2155 81.3114 45.3054 81.3583 45.4634C81.3965 45.593 81.3438 45.7278 81.238 45.7989ZM77.8047 46.8876C77.7828 46.9022 77.7584 46.9144 77.7316 46.923C77.172 47.1075 76.6047 47.2998 76.0282 47.4974C75.8714 47.5512 75.7021 47.4677 75.6477 47.3113C75.5943 47.1551 75.6737 46.9859 75.8338 46.9307C76.4121 46.7319 76.9819 46.5396 77.5433 46.3539C77.7007 46.3022 77.8692 46.3872 77.9218 46.5448C77.9655 46.675 77.914 46.8141 77.8047 46.8876ZM74.3989 48.053C74.3788 48.0665 74.3555 48.0778 74.3313 48.0864C73.7729 48.283 73.2085 48.4845 72.6377 48.6894C72.4815 48.7454 72.3107 48.6646 72.2541 48.5088C72.1989 48.3538 72.2771 48.1804 72.4347 48.1251C73.0066 47.9194 73.5736 47.7179 74.1325 47.5209C74.2885 47.4659 74.4592 47.5477 74.5146 47.7043C74.5605 47.8364 74.5094 47.9788 74.3989 48.053ZM71.0101 49.2705C70.9906 49.2836 70.9695 49.2943 70.9452 49.3029C70.3875 49.5067 69.8249 49.7148 69.2579 49.924C69.1025 49.9812 68.9302 49.9022 68.8724 49.7472C68.8152 49.5918 68.8903 49.4213 69.0492 49.3618C69.617 49.1511 70.1808 48.9449 70.7398 48.7402C70.8946 48.6834 71.0666 48.7634 71.1238 48.9188C71.1728 49.0505 71.1224 49.195 71.0101 49.2705ZM67.6348 50.5209C67.6159 50.5336 67.5954 50.5439 67.5727 50.5523C67.015 50.7613 66.4533 50.9721 65.8895 51.1861C65.7349 51.2444 65.5623 51.1674 65.5035 51.0122C65.4445 50.858 65.5198 50.684 65.6774 50.6262C66.2412 50.4122 66.8034 50.201 67.3617 49.9916C67.5173 49.9334 67.6891 50.0118 67.7475 50.1664C67.7977 50.3 67.7477 50.4451 67.6348 50.5209ZM64.2675 51.7934C64.2491 51.8057 64.2286 51.816 64.207 51.8246L62.525 52.4653C62.3698 52.524 62.1973 52.446 62.1384 52.2918C62.0796 52.1366 62.1618 51.9639 62.3118 51.9052L63.9938 51.2645C64.149 51.2057 64.3214 51.2837 64.3804 51.438C64.4308 51.5705 64.3809 51.7172 64.2675 51.7934ZM60.9049 53.0755C60.8866 53.0878 60.8661 53.0982 60.8444 53.1067L59.1634 53.7502C59.0088 53.8085 58.8362 53.7315 58.7768 53.5767C58.7185 53.4221 58.7943 53.2528 58.9503 53.1901L60.6312 52.5467C60.7859 52.4883 60.9585 52.5653 61.0179 52.7201C61.0683 52.8526 61.0184 52.9993 60.9049 53.0755ZM57.5459 54.3604C57.5276 54.3727 57.5071 54.3831 57.4854 54.3916L55.8027 55.0337C55.6475 55.0925 55.475 55.0145 55.4161 54.8603C55.3579 54.7047 55.4387 54.5338 55.5895 54.4737L57.2723 53.8316C57.4275 53.7728 57.5995 53.8502 57.6589 54.005C57.7093 54.1376 57.6588 54.2846 57.5459 54.3604ZM54.1733 55.6442C54.155 55.6565 54.1345 55.6669 54.1118 55.6752L52.4277 56.3114C52.2731 56.3698 52.1006 56.2917 52.0418 56.1365C51.9845 55.9821 52.0595 55.8091 52.2167 55.7507L53.8993 55.1148C54.0533 55.0568 54.2269 55.134 54.2851 55.2896C54.3371 55.4219 54.2868 55.568 54.1733 55.6442ZM50.8042 56.9102C50.7853 56.9229 50.7648 56.9332 50.7415 56.942L49.0532 57.5681C48.8974 57.6247 48.7261 57.5459 48.6679 57.3903C48.6111 57.2355 48.6864 57.0666 48.8457 57.0051L50.5317 56.3806C50.6867 56.3228 50.859 56.4018 50.9168 56.5568C50.9678 56.6889 50.9171 56.8344 50.8042 56.9102ZM47.4279 58.1553C47.4084 58.1684 47.3867 58.1795 47.3631 58.1877L45.6702 58.8006C45.514 58.8566 45.3431 58.7758 45.2865 58.62C45.2313 58.465 45.3083 58.2924 45.467 58.2363L47.1576 57.625C47.3134 57.5684 47.4845 57.6482 47.5417 57.8036C47.5909 57.9369 47.5402 58.0799 47.4279 58.1553ZM44.0403 59.3694C44.0202 59.3829 43.9969 59.3942 43.9727 59.4028C43.4033 59.6034 42.8358 59.8017 42.272 59.9952C42.1152 60.049 41.9453 59.9659 41.8912 59.8101C41.8378 59.6539 41.917 59.4832 42.0763 59.4293C42.64 59.2343 43.2057 59.0371 43.7739 58.8374C43.9299 58.7823 44.1006 58.8641 44.156 59.0207C44.2018 59.1529 44.1508 59.2952 44.0403 59.3694ZM40.6367 60.5419C40.6154 60.5562 40.5909 60.5683 40.5647 60.5765C39.9908 60.769 39.4204 60.9591 38.8537 61.1433C38.6963 61.1949 38.5274 61.1094 38.4767 60.9522C38.425 60.7948 38.5095 60.6231 38.6677 60.5752C39.2324 60.3907 39.8011 60.2017 40.3744 60.0097C40.531 59.9568 40.7002 60.0413 40.7534 60.1985C40.7977 60.3283 40.746 60.4685 40.6367 60.5419ZM37.2149 61.658C37.1919 61.6735 37.1658 61.6858 37.1384 61.6948C36.5591 61.878 35.9839 62.0559 35.415 62.2278C35.2563 62.2761 35.0887 62.1863 35.0418 62.0283C34.9934 61.8695 35.0839 61.7015 35.2413 61.655C35.8086 61.4833 36.3807 61.3058 36.958 61.1248C37.1162 61.0743 37.2841 61.1622 37.3333 61.3196C37.374 61.4492 37.3219 61.5862 37.2149 61.658ZM33.7694 62.6992C33.744 62.7162 33.7158 62.7292 33.6848 62.738C33.0988 62.906 32.5194 63.0687 31.9473 63.223C31.7873 63.267 31.6229 63.1716 31.5797 63.0128C31.5363 62.8524 31.6317 62.6906 31.7899 62.6452C32.3589 62.4913 32.9359 62.3302 33.5194 62.1621C33.6782 62.1164 33.8444 62.208 33.8896 62.3672C33.9273 62.4962 33.8746 62.6285 33.7694 62.6992ZM30.2944 63.6375C30.266 63.6566 30.2344 63.6709 30.1999 63.6795C29.6047 63.8288 29.0195 63.9688 28.4418 64.0995C28.2808 64.1356 28.1201 64.0342 28.0836 63.8726C28.0475 63.7116 28.1483 63.5539 28.3105 63.5145C28.8827 63.3858 29.4641 63.2466 30.0544 63.0989C30.2148 63.0581 30.3772 63.1556 30.4175 63.3164C30.4497 63.4423 30.396 63.5693 30.2944 63.6375ZM26.7832 64.4303C26.7513 64.4517 26.7145 64.4671 26.6748 64.4757C26.0672 64.5964 25.474 64.704 24.8942 64.7984C24.7304 64.8252 24.5762 64.7144 24.5498 64.5512C24.5232 64.3864 24.6352 64.234 24.7971 64.2068C25.3706 64.1132 25.958 64.006 26.5581 63.8869C26.7203 63.8551 26.8782 63.96 26.911 64.1224C26.9341 64.245 26.8802 64.3652 26.7832 64.4303ZM23.2323 65.0054C23.1945 65.0308 23.1495 65.0481 23.1012 65.054C22.4739 65.1288 21.8665 65.1859 21.2952 65.2214C21.1305 65.2317 20.9878 65.1071 20.9777 64.9415C20.9665 64.7767 21.0922 64.6331 21.2576 64.624C21.8177 64.5884 22.414 64.5327 23.0299 64.4587C23.1947 64.4398 23.3432 64.5562 23.3633 64.7202C23.3763 64.8367 23.3222 64.9451 23.2323 65.0054ZM19.647 65.2228C19.5979 65.2558 19.5394 65.2745 19.4764 65.274C18.8317 65.2653 18.2194 65.227 17.6572 65.1586C17.4932 65.1392 17.3758 64.99 17.3958 64.8256C17.4152 64.6617 17.5655 64.5445 17.7289 64.5642C18.2701 64.6296 18.861 64.6667 19.484 64.6737C19.6487 64.6763 19.7821 64.8123 19.7799 64.9775C19.7782 65.0798 19.7256 65.17 19.647 65.2228ZM16.1128 64.7679C16.0418 64.8156 15.9518 64.8322 15.8629 64.8071C15.236 64.6269 14.6665 64.3893 14.1703 64.1025C14.027 64.0195 13.9782 63.837 14.0609 63.6932C14.1437 63.5509 14.3264 63.5011 14.4703 63.5838C14.9235 63.8462 15.4477 64.0637 16.0284 64.2311C16.1877 64.2768 16.2783 64.4424 16.233 64.6023C16.2135 64.6728 16.1695 64.7298 16.1128 64.7679ZM48.0578 43.313L47.8509 43.4493C47.7122 43.5391 47.5261 43.4994 47.4364 43.3607C47.3474 43.2232 47.3849 43.0402 47.5209 42.9489C47.5221 42.9481 47.5238 42.9469 47.525 42.9461L47.7236 42.8153C48.1545 42.526 48.5717 42.2278 48.9731 41.9214C49.1089 41.7967 49.2929 41.8472 49.3929 41.9782C49.4932 42.1098 49.468 42.2982 49.336 42.398C48.9242 42.7106 48.4993 43.0165 48.0578 43.313ZM46.3063 44.3443C46.2956 44.3514 46.2858 44.3572 46.2743 44.3631C45.725 44.642 45.1613 44.8868 44.6004 45.0911C44.4446 45.1477 44.2735 45.0679 44.2163 44.9125C44.1597 44.7567 44.2419 44.5815 44.3949 44.5284C44.9337 44.3321 45.4751 44.0963 46.0024 43.828C46.1495 43.7532 46.3303 43.8119 46.4055 43.9595C46.4755 44.0969 46.4298 44.2613 46.3063 44.3443ZM50.7073 41.2679C50.585 41.35 50.4169 41.3309 50.3166 41.2173C50.2076 41.0932 50.2186 40.904 50.3422 40.7944C50.7805 40.4075 51.2143 39.9961 51.6299 39.5729C51.7546 39.4497 51.9359 39.454 52.0534 39.569C52.1717 39.6851 52.1729 39.8746 52.0574 39.9925C51.631 40.4264 51.1871 40.8471 50.7389 41.2433C50.7288 41.2526 50.7186 41.2603 50.7073 41.2679ZM53.2224 38.7059C53.1137 38.7789 52.9664 38.7741 52.8612 38.6852C52.7347 38.5772 52.7198 38.3891 52.8268 38.2623C53.2076 37.8154 53.5786 37.3475 53.9299 36.8707C54.0285 36.7367 54.2148 36.7102 54.349 36.8079C54.4821 36.9064 54.5099 37.0934 54.4119 37.2271C54.0524 37.7146 53.6725 38.1935 53.283 38.6506C53.2659 38.6724 53.2449 38.6908 53.2224 38.7059ZM42.9467 45.5644C42.9165 45.5847 42.8828 45.5996 42.8463 45.6078C42.2643 45.7397 41.6574 45.8385 41.0417 45.9012C40.8773 45.9181 40.7306 45.798 40.7137 45.6336C40.6961 45.4695 40.8186 45.3238 40.9813 45.3055C41.5723 45.2456 42.1553 45.1508 42.7132 45.024C42.8748 44.9875 43.0351 45.0883 43.0716 45.2498C43.0997 45.3734 43.0466 45.4974 42.9467 45.5644ZM55.3567 35.8182C55.261 35.8825 55.1316 35.8879 55.0282 35.8219C54.8882 35.7323 54.8481 35.5474 54.9371 35.4079C55.2538 34.914 55.5597 34.399 55.8472 33.8808C55.9259 33.7362 56.1092 33.6835 56.254 33.7638C56.3988 33.844 56.4511 34.0267 56.371 34.1705C56.0774 34.7013 55.765 35.2258 55.4415 35.7312C55.4197 35.7664 55.3904 35.7956 55.3567 35.8182ZM39.3877 45.9374C39.3399 45.9695 39.2823 45.9885 39.2203 45.9881C38.6394 45.9863 38.0447 45.9602 37.4034 45.9081C37.2383 45.8946 37.1158 45.7505 37.1292 45.5854C37.1427 45.4203 37.2858 45.2976 37.4519 45.3112C38.0782 45.3614 38.6571 45.3869 39.222 45.3892C39.3875 45.3904 39.5212 45.5244 39.5206 45.6895C39.5198 45.793 39.4669 45.8842 39.3877 45.9374ZM13.1332 62.9758C13.0085 63.0595 12.8378 63.0378 12.7383 62.9202C12.6179 62.7781 12.5055 62.6298 12.4007 62.4737C12.165 62.1226 11.9476 61.7377 11.7541 61.3308C11.6821 61.1802 11.7562 60.9967 11.8956 60.9323C12.045 60.8611 12.2239 60.9245 12.2951 61.0739C12.4763 61.4548 12.6793 61.8133 12.8988 62.1401C12.9908 62.2772 13.0902 62.4086 13.1955 62.5334C13.3021 62.6591 13.2864 62.8489 13.1608 62.9555C13.1517 62.9625 13.1421 62.9698 13.1332 62.9758ZM57.0972 32.6761C57.0121 32.7332 56.9005 32.7447 56.8015 32.698C56.6523 32.6266 56.589 32.4479 56.6593 32.2986C56.9105 31.7723 57.1525 31.2248 57.3783 30.6709C57.4394 30.5193 57.6147 30.4444 57.7682 30.5069C57.9212 30.5688 57.995 30.7439 57.9322 30.8967C57.7027 31.4616 57.4555 32.0195 57.2008 32.5559C57.1761 32.6059 57.1403 32.6471 57.0972 32.6761ZM35.8091 45.6641C35.75 45.7038 35.6782 45.722 35.6031 45.7124C35.0087 45.633 34.4138 45.5428 33.8178 45.4483C33.6546 45.4224 33.5427 45.2685 33.5686 45.1053C33.5933 44.9404 33.748 44.8297 33.9116 44.8562C34.5037 44.9499 35.0938 45.0407 35.6819 45.1183C35.8458 45.1403 35.9609 45.2912 35.9395 45.4547C35.9275 45.5442 35.8777 45.618 35.8091 45.6641ZM58.4558 29.3497C58.3807 29.4001 58.2832 29.4158 58.1909 29.3843C58.0347 29.3306 57.9518 29.1598 58.0052 29.0031C58.2044 28.4276 58.3826 27.8603 58.5445 27.3031C58.5907 27.146 58.7565 27.0544 58.9164 27.0997C59.0745 27.1461 59.1661 27.3119 59.1198 27.4716C58.9549 28.0369 58.7732 28.6143 58.5721 29.1986C58.5498 29.2625 58.5084 29.3144 58.4558 29.3497ZM11.5702 59.7658C11.5436 59.7837 11.5142 59.7974 11.4822 59.806C11.3222 59.85 11.1576 59.7556 11.1145 59.5967C10.9535 59.011 10.8399 58.4013 10.7745 57.784C10.7565 57.6194 10.8769 57.4717 11.0403 57.4546C11.2049 57.4366 11.3522 57.5564 11.3698 57.7204C11.4312 58.3061 11.5398 58.8841 11.6909 59.4386C11.7271 59.5653 11.6742 59.6959 11.5702 59.7658ZM32.2552 45.1186C32.1949 45.1591 32.1193 45.1781 32.0417 45.166C31.4569 45.0741 30.8668 44.9859 30.2724 44.9091C30.1082 44.8881 29.9926 44.7376 30.0136 44.5735C30.034 44.4097 30.184 44.2935 30.3492 44.3147C30.9495 44.3926 31.5444 44.4803 32.1351 44.5732C32.2983 44.5992 32.4103 44.752 32.3842 44.9162C32.3703 45.0027 32.322 45.0738 32.2552 45.1186ZM59.4567 25.8981C59.3899 25.9429 59.3049 25.9606 59.2201 25.9403C59.0592 25.9026 58.9598 25.7404 58.9979 25.5801C59.141 24.9772 59.2639 24.3939 59.3722 23.8349C59.4026 23.6721 59.5604 23.5662 59.7226 23.597C59.8853 23.6284 59.9914 23.7853 59.9606 23.9475C59.8521 24.5151 59.726 25.1076 59.5807 25.7188C59.5632 25.7949 59.5176 25.8572 59.4567 25.8981ZM28.6923 44.6735C28.6379 44.71 28.5717 44.7288 28.5013 44.7237C27.878 44.6741 27.2988 44.648 26.7291 44.6438C26.5638 44.6416 26.4303 44.5066 26.4319 44.3417C26.4343 44.1754 26.5705 44.0436 26.734 44.0445C27.3185 44.049 27.9119 44.0758 28.5495 44.1262C28.7146 44.1397 28.8371 44.2838 28.8247 44.4491C28.8165 44.5429 28.7656 44.6243 28.6923 44.6735ZM11.1937 56.2067C11.1417 56.2416 11.0783 56.261 11.0104 56.2569C10.8449 56.248 10.7187 56.1072 10.7276 55.9417C10.7605 55.3253 10.8439 54.7102 10.9758 54.1148C11.0117 53.9551 11.1715 53.8521 11.3334 53.8875C11.4946 53.9233 11.5961 54.0833 11.5607 54.2451C11.4356 54.8085 11.357 55.3912 11.326 55.9746C11.3204 56.071 11.2687 56.1563 11.1937 56.2067ZM25.1058 44.6542C25.0644 44.682 25.0153 44.6995 24.9622 44.7034C24.3696 44.7506 23.7813 44.8259 23.2133 44.9277C23.0505 44.9573 22.8944 44.8486 22.8658 44.686C22.8364 44.5222 22.9466 44.3659 23.1075 44.3385C23.6951 44.2328 24.3034 44.1553 24.9152 44.1073C25.08 44.0935 25.2246 44.2168 25.2368 44.3818C25.2461 44.494 25.1927 44.5958 25.1058 44.6542ZM11.9696 52.715C11.8898 52.7686 11.7854 52.783 11.6885 52.7434C11.5356 52.6805 11.4628 52.5056 11.5247 52.3526C11.7595 51.7815 12.045 51.2297 12.3734 50.7124C12.4617 50.5733 12.6476 50.5308 12.7865 50.6202C12.9266 50.7088 12.9677 50.8938 12.8788 51.0334C12.569 51.5209 12.3004 52.0417 12.0797 52.5802C12.0562 52.6371 12.0175 52.6829 11.9696 52.715ZM21.5817 45.2859C21.5563 45.3029 21.5275 45.3163 21.497 45.3256C20.9383 45.4847 20.3768 45.6765 19.8288 45.8936C19.6746 45.9551 19.5011 45.8795 19.44 45.7259C19.3785 45.5717 19.4529 45.3939 19.6077 45.3371C20.1746 45.1125 20.7543 44.9145 21.3327 44.749C21.4915 44.7033 21.6575 44.7959 21.7026 44.9551C21.739 45.0833 21.6864 45.2156 21.5817 45.2859ZM13.8868 49.6995C13.7745 49.7749 13.6213 49.7663 13.5173 49.6715C13.3961 49.5599 13.3877 49.37 13.4995 49.2478C13.9085 48.8033 14.365 48.3836 14.856 47.9999C14.9937 47.9074 15.175 47.922 15.2765 48.0527C15.3777 48.1829 15.355 48.3714 15.2236 48.4733C14.7589 48.836 14.3268 49.2334 13.9406 49.6531C13.9241 49.6719 13.9057 49.6868 13.8868 49.6995ZM18.2542 46.6011C18.2436 46.6082 18.2332 46.6144 18.2223 46.6199C17.709 46.8797 17.1907 47.1704 16.6801 47.4841C16.5394 47.5708 16.3547 47.5268 16.2689 47.3863C16.1821 47.2456 16.228 47.0433 16.3666 46.9751C16.8908 46.6523 17.4245 46.3539 17.9506 46.0863C18.0988 46.0108 18.2791 46.0698 18.3537 46.2179C18.4228 46.3541 18.3772 46.5185 18.2542 46.6011Z" fill="#EF0003"/>
<path d="M60.1604 22.176C60.1013 22.2157 60.0274 22.2345 59.9509 22.2241C59.7873 22.2001 59.6741 22.0481 59.697 21.8843C59.7416 21.5791 59.7799 21.285 59.8145 21.0044C59.8353 20.8413 59.985 20.7245 60.1485 20.7433C60.3129 20.7633 60.4291 20.9133 60.4097 21.0773C60.3747 21.3623 60.3352 21.6598 60.2907 21.9702C60.2772 22.0573 60.2278 22.1307 60.1604 22.176Z" fill="#EF0003"/>
</svg>
