<svg width="83" height="118" viewBox="0 0 83 118" fill="none" xmlns="http://www.w3.org/2000/svg">
<path d="M30.6054 4.15583L29.9816 6.97764C29.9657 7.04838 29.9143 7.10601 29.8465 7.13013L27.5054 7.9476C27.5957 7.50104 27.6417 7.06884 27.595 6.86008L26.1204 6.53392C25.881 6.84651 25.6034 7.98224 25.5765 8.62031L18.9959 10.917L18.7714 11.9313L26.8047 11.5869C27.1073 11.5741 27.4109 11.6009 27.7069 11.6662L28.7503 11.8969C28.8256 11.9132 28.8734 11.9883 28.8561 12.0634L28.3661 14.2799C28.1569 15.2249 28.0503 16.1197 28.0107 16.9087L24.9053 18.971L24.7193 19.8128L28.1208 19.3012C28.1997 19.7302 28.3022 19.9838 28.3967 20.0044C28.4911 20.025 28.6909 19.8385 28.9435 19.4828L31.8124 21.381L31.9983 20.5392L30.0515 17.3605C30.3488 16.6284 30.6289 15.7722 30.8372 14.8271L31.3271 12.6106C31.3435 12.5353 31.4179 12.4878 31.4936 12.5047L32.537 12.7354C32.833 12.8008 33.1195 12.9042 33.3885 13.0443L40.5278 16.7426L40.7522 15.7283L35.7532 10.8714C35.9985 10.2814 36.2248 9.13459 36.1398 8.75003L34.6653 8.42385C34.5355 8.59331 34.3946 9.00528 34.288 9.44815L32.5096 7.72066C32.4575 7.66989 32.4356 7.59631 32.4511 7.52497L33.0749 4.70316C33.531 2.64055 33.1075 0.782709 32.6668 0.685858C32.2276 0.587225 31.0609 2.09362 30.6054 4.15583Z" fill="#EF0003"/>
<path d="M69.6873 65.6575C68.1394 66.697 67.7267 68.7948 68.7666 70.3433C70.2915 72.6141 75.0368 73.6235 75.0368 73.6235C75.0368 73.6235 75.8981 68.8491 74.3732 66.5783C73.3337 65.0304 71.2353 64.618 69.6873 65.6575ZM72.4355 69.7499C71.7233 70.2281 70.7587 70.0381 70.2808 69.3265C69.8025 68.6143 69.9926 67.6496 70.7042 67.1718C71.4158 66.6939 72.381 66.8836 72.8589 67.5952C73.3372 68.3074 73.1477 69.2716 72.4355 69.7499Z" fill="#EF0003"/>
<path d="M77.1595 76.7944C78.1126 76.1543 78.6258 75.2491 78.3058 74.7725C77.9858 74.2959 76.9537 74.4285 76.0005 75.0686C75.0473 75.7086 74.5341 76.6139 74.8541 77.0905C75.1742 77.567 76.2063 77.4345 77.1595 76.7944Z" fill="#EF0003"/>
<path d="M76.7705 76.2133C76.7622 76.2188 76.7542 76.2234 76.7449 76.2288C76.6014 76.3063 76.3421 76.4564 75.9798 76.6705C75.8378 76.7539 75.654 76.7075 75.5696 76.5652C75.4861 76.4232 75.5067 76.2379 75.6748 76.155C76.0471 75.9341 76.3125 75.7816 76.4607 75.7009C76.6054 75.6226 76.7881 75.6775 76.8667 75.8228C76.9399 75.9598 76.897 76.1283 76.7705 76.2133Z" fill="#EF0003"/>
<path d="M74.4507 77.5788C74.446 77.582 74.4419 77.5848 74.4373 77.587C73.9754 77.862 73.4556 78.1708 72.8841 78.5074C72.7408 78.5916 72.5578 78.5439 72.4738 78.4022C72.3904 78.2601 72.4308 78.07 72.579 77.9919C73.1511 77.6549 73.6692 77.3473 74.1299 77.073C74.2722 76.9886 74.456 77.035 74.5406 77.1763C74.6234 77.3137 74.5825 77.4903 74.4507 77.5788ZM71.3446 79.4126C71.3392 79.4162 71.3335 79.4192 71.3288 79.4223C70.835 79.7111 70.3147 80.0142 69.7704 80.33C69.6269 80.4126 69.4441 80.3639 69.3609 80.2208C69.279 80.0785 69.3201 79.9111 69.4701 79.8113C70.0136 79.4969 70.5329 79.1936 71.0261 78.9052C71.1692 78.822 71.3522 78.8698 71.436 79.0125C71.5163 79.1498 71.4752 79.3249 71.3446 79.4126ZM68.2259 81.2162C68.22 81.2202 68.2136 81.2236 68.2077 81.2276C67.7008 81.5174 67.178 81.8153 66.6403 82.118C66.4961 82.1995 66.3142 82.1484 66.2328 82.0041C66.1521 81.861 66.1942 81.6887 66.3467 81.5966C66.8824 81.2934 67.4045 80.9969 67.9108 80.7075C68.0541 80.6258 68.2377 80.6758 68.3199 80.8186C68.397 80.9564 68.3553 81.1293 68.2259 81.2162ZM65.0893 82.9881C65.0828 82.9925 65.0759 82.9963 65.0678 83.0008C64.5532 83.2881 64.0266 83.5791 63.4909 83.8746C63.3454 83.9542 63.164 83.9012 63.0841 83.7567C63.0048 83.6118 63.0603 83.4288 63.202 83.3499C63.7365 83.0553 64.261 82.7648 64.7766 82.4778C64.9206 82.3973 65.1029 82.449 65.1837 82.5937C65.261 82.7305 65.2175 82.902 65.0893 82.9881ZM61.9344 84.7226C61.9261 84.7281 61.9181 84.7327 61.9094 84.7376C61.3875 85.0204 60.8574 85.3051 60.3221 85.5909C60.177 85.6686 59.995 85.6133 59.9169 85.4676C59.8384 85.3214 59.9049 85.137 60.0397 85.0619C60.5745 84.7765 61.1033 84.4926 61.624 84.2106C61.7693 84.1319 61.951 84.1866 62.0302 84.3315C62.1043 84.4687 62.0609 84.6376 61.9344 84.7226ZM58.7569 86.4156C58.7474 86.422 58.7381 86.4273 58.7279 86.4325C58.1994 86.7093 57.6663 86.9868 57.1291 87.2634C56.9825 87.3388 56.8018 87.2817 56.7257 87.1339C56.6503 86.9872 56.7115 86.8038 56.8552 86.7304C57.3912 86.4546 57.9232 86.1779 58.4505 85.9019C58.5963 85.8253 58.7772 85.8814 58.8545 86.0285C58.9256 86.1651 58.8816 86.3319 58.7569 86.4156ZM55.5551 88.0623C55.5445 88.0695 55.534 88.0756 55.5216 88.0814C54.988 88.3506 54.4506 88.6179 53.9118 88.8846C53.764 88.9581 53.5841 88.8971 53.5108 88.7483C53.4382 88.6006 53.4982 88.4154 53.647 88.3472C54.1846 88.0813 54.7208 87.8148 55.2532 87.5464C55.4003 87.4717 55.581 87.5313 55.6549 87.6797C55.7237 87.8153 55.678 87.9798 55.5551 88.0623ZM52.3281 89.6523C52.3156 89.6606 52.303 89.6674 52.2906 89.6731C51.7483 89.9344 51.2055 90.1925 50.662 90.4469C50.5118 90.5169 50.3337 90.4522 50.2634 90.3029C50.1928 90.1531 50.2624 89.9744 50.408 89.904C50.9492 89.6512 51.4908 89.3938 52.0307 89.1341C52.1798 89.0623 52.3589 89.1248 52.4301 89.2742C52.4951 89.4106 52.4492 89.5709 52.3281 89.6523ZM49.0674 91.1781C49.0538 91.1873 49.0389 91.1956 49.0237 91.2024C48.4744 91.452 47.9249 91.6975 47.377 91.9377C47.2254 92.0044 47.0486 91.9353 46.9823 91.7842C46.9159 91.6316 46.9856 91.4519 47.1358 91.3896C47.681 91.1504 48.2277 90.9059 48.7758 90.657C48.9256 90.589 49.104 90.6553 49.1724 90.8058C49.2341 90.941 49.1868 91.0979 49.0674 91.1781ZM45.7718 92.6238C45.7564 92.6341 45.7393 92.643 45.7213 92.6508C45.1619 92.8867 44.6059 93.116 44.0527 93.3382C43.8989 93.4003 43.7247 93.3261 43.6636 93.1725C43.6013 93.0197 43.6727 92.8413 43.8293 92.7833C44.3793 92.5615 44.9336 92.3334 45.4886 92.0987C45.6413 92.0348 45.817 92.1063 45.8811 92.2579C45.9373 92.3926 45.8888 92.5452 45.7718 92.6238ZM42.4321 93.9669C42.4138 93.9792 42.3933 93.9895 42.3716 93.9981C41.8015 94.2154 41.2357 94.4238 40.676 94.6222C40.52 94.6772 40.3497 94.5961 40.2937 94.4399C40.2391 94.2844 40.3204 94.1157 40.476 94.0576C41.0314 93.8604 41.5913 93.6533 42.1575 93.4378C42.3127 93.379 42.4847 93.4565 42.5441 93.6113C42.5955 93.744 42.545 93.891 42.4321 93.9669ZM39.0399 95.1729C39.018 95.1876 38.993 95.2001 38.9662 95.2087C38.3818 95.3996 37.8046 95.5797 37.2385 95.7455C37.0795 95.7922 36.9133 95.7006 36.8669 95.5422C36.8202 95.3832 36.9141 95.219 37.0703 95.1706C37.6309 95.0068 38.201 94.829 38.7795 94.6395C38.9369 94.5878 39.1056 94.6743 39.1578 94.8313C39.2005 94.9613 39.1487 95.0999 39.0399 95.1729ZM35.5858 96.1821C35.558 96.2007 35.5265 96.2151 35.492 96.2237C34.8879 96.3764 34.2975 96.5112 33.7233 96.6267C33.5609 96.6594 33.4036 96.5541 33.3703 96.3921C33.3381 96.2294 33.4448 96.0728 33.6048 96.0391C34.17 95.9254 34.7501 95.7932 35.3449 95.6433C35.5053 95.6024 35.6679 95.699 35.7081 95.8598C35.7408 95.9863 35.6881 96.1134 35.5858 96.1821ZM32.058 96.8823C32.0208 96.9073 31.978 96.924 31.9312 96.9297C31.2961 97.0158 30.6844 97.0716 30.1152 97.0962C29.9495 97.1036 29.8095 96.9756 29.8024 96.8105C29.7955 96.6445 29.9242 96.5066 30.0881 96.4978C30.6407 96.474 31.2331 96.4201 31.8504 96.3357C32.0148 96.3136 32.1657 96.4284 32.1874 96.5922C32.2032 96.7102 32.1496 96.8208 32.058 96.8823ZM28.4758 97.0136C28.4202 97.0509 28.3524 97.0699 28.2814 97.0627C27.617 97.0029 27.0068 96.8861 26.4656 96.7161C26.3077 96.6661 26.2207 96.4982 26.2697 96.34C26.3187 96.1845 26.4865 96.0958 26.6458 96.144C27.1453 96.3017 27.7135 96.4098 28.3349 96.4667C28.4998 96.4812 28.621 96.6271 28.6055 96.7918C28.598 96.8853 28.5479 96.9652 28.4758 97.0136ZM25.1429 95.8918C25.04 95.9609 24.9014 95.9614 24.7967 95.8833C24.3851 95.5757 24.0324 95.2062 23.7488 94.7852C23.6762 94.6771 23.6114 94.5679 23.5508 94.4559C23.4728 94.3103 23.5389 94.1252 23.6737 94.0501C23.8193 93.9721 24.0014 94.0273 24.0795 94.173C24.1296 94.268 24.1858 94.3606 24.2461 94.4504C24.4924 94.8159 24.7977 95.1365 25.1546 95.4037C25.2875 95.5031 25.3148 95.6906 25.2155 95.8225C25.1946 95.8502 25.1694 95.874 25.1429 95.8918ZM23.5724 92.8867C23.5257 92.918 23.4697 92.9368 23.4091 92.9372C23.244 92.9391 23.1079 92.8067 23.1066 92.6412C23.1005 92.0741 23.1984 91.4562 23.3964 90.8035C23.4444 90.6452 23.6108 90.5557 23.7701 90.604C23.9278 90.6524 24.0176 90.8194 23.969 90.9781C23.7882 91.572 23.6992 92.1292 23.7051 92.6346C23.706 92.7395 23.6534 92.8323 23.5724 92.8867ZM24.5244 89.4808C24.4375 89.5392 24.323 89.5501 24.2231 89.4996C24.0755 89.4255 24.0155 89.2454 24.0896 89.0979C24.3405 88.5967 24.646 88.0631 24.9974 87.5098C25.0875 87.3721 25.2724 87.3294 25.4115 87.4178C25.551 87.5068 25.5921 87.6918 25.5035 87.8319C25.163 88.3668 24.8675 88.8834 24.6253 89.3668C24.6011 89.4139 24.5663 89.4527 24.5244 89.4808ZM26.4383 86.4375C26.3361 86.5062 26.1985 86.5068 26.0939 86.4304C25.9603 86.3323 25.9315 86.145 26.0299 86.012C26.3757 85.5422 26.7467 85.0641 27.1425 84.577C27.2452 84.4489 27.4353 84.4294 27.5636 84.5336C27.6919 84.6378 27.7113 84.8263 27.6071 84.9546C27.2179 85.4338 26.8518 85.9052 26.5119 86.3658C26.4913 86.3951 26.4661 86.4189 26.4383 86.4375ZM28.704 83.6382C28.5941 83.712 28.4444 83.7062 28.3398 83.6144C28.2145 83.5056 28.2024 83.3165 28.3116 83.1917C28.6981 82.7495 29.1017 82.3009 29.5204 81.8465C29.6302 81.7265 29.8223 81.7175 29.9439 81.8297C30.0655 81.9418 30.0731 82.1306 29.9607 82.2532C29.546 82.7032 29.1463 83.1474 28.7625 83.5861C28.7446 83.6067 28.7247 83.6243 28.704 83.6382ZM31.1442 80.9902C31.0295 81.0672 30.8731 81.0565 30.7695 80.9571C30.6501 80.8418 30.6472 80.6524 30.7614 80.5338C31.172 80.1071 31.5939 79.6779 32.0265 79.2442C32.1485 79.1271 32.3331 79.1275 32.4502 79.2444C32.5673 79.3613 32.5676 79.5507 32.4501 79.6681C32.0197 80.0987 31.6001 80.5262 31.1922 80.9493C31.1773 80.9654 31.1613 80.9787 31.1442 80.9902ZM33.6854 78.4389C33.5678 78.5179 33.4058 78.5041 33.3038 78.3994C33.1885 78.2813 33.1904 78.0913 33.3091 77.9756C33.7348 77.5611 34.1687 77.1436 34.6087 76.7247C34.7299 76.6141 34.9177 76.614 35.0324 76.7351C35.1464 76.8549 35.1419 77.0449 35.022 77.1589C34.5829 77.5764 34.1509 77.9917 33.7275 78.4047C33.7138 78.4173 33.7002 78.429 33.6854 78.4389ZM36.292 75.9544C36.1726 76.0346 36.0084 76.0188 35.9072 75.9101C35.7944 75.7895 35.8003 75.6003 35.9215 75.4871C36.3566 75.0801 36.7973 74.6701 37.2435 74.2606C37.3646 74.1536 37.5538 74.1569 37.6668 74.2791C37.7787 74.4012 37.7703 74.5904 37.6486 74.7029C37.2036 75.1116 36.7644 75.5188 36.3302 75.9245C36.3184 75.935 36.305 75.9457 36.292 75.9544ZM38.9396 73.5144C38.8184 73.5958 38.6531 73.5782 38.5518 73.467C38.4404 73.3445 38.4499 73.1555 38.5713 73.0439C39.0136 72.6414 39.4591 72.2385 39.9074 71.8346C40.0271 71.7242 40.2188 71.7326 40.33 71.856C40.4404 71.9783 40.4314 72.1679 40.3085 72.2787C39.8615 72.6818 39.416 73.0847 38.9748 73.4865C38.9636 73.4966 38.9514 73.5065 38.9396 73.5144ZM41.6102 71.1061C41.4884 71.1879 41.3211 71.1699 41.2202 71.0567C41.111 70.9337 41.1211 70.7443 41.2439 70.6335L42.5891 69.4325C42.7147 69.331 42.9013 69.3343 43.0121 69.4572C43.1217 69.5808 43.1107 69.77 42.9875 69.8802L41.6435 71.0803C41.6324 71.0895 41.6214 71.0986 41.6102 71.1061ZM44.2978 68.7078C44.1755 68.79 44.0083 68.771 43.9075 68.6578C43.7982 68.5348 43.8089 68.345 43.9321 68.2348L45.2775 67.038C45.4031 66.9339 45.5897 66.9398 45.7005 67.0626C45.8102 67.1863 45.7991 67.3755 45.6759 67.4857L44.3305 68.6825C44.3205 68.6918 44.309 68.7003 44.2978 68.7078ZM46.988 66.3147C46.8663 66.3964 46.6986 66.3778 46.5981 66.2652C46.4885 66.1416 46.4995 65.9524 46.6217 65.842L47.9636 64.6425C48.089 64.5394 48.276 64.5433 48.387 64.6651C48.4968 64.7878 48.4868 64.9772 48.3643 65.0885L47.0213 66.2889C47.0103 66.298 46.9998 66.3067 46.988 66.3147ZM49.6703 63.9122C49.5491 63.9936 49.3828 63.9758 49.2817 63.8636C49.1709 63.7408 49.1808 63.5523 49.3032 63.4409L50.6366 62.2326C50.7558 62.1242 50.9482 62.1296 51.0596 62.2521C51.1706 62.3739 51.1615 62.5635 51.0395 62.6755L49.7038 63.8855C49.6937 63.8948 49.6827 63.9039 49.6703 63.9122ZM52.331 61.4866C52.211 61.5672 52.0459 61.5511 51.944 61.4403C51.8324 61.3189 51.8399 61.1295 51.9615 61.0169C52.4082 60.6055 52.8466 60.197 53.277 59.7922C53.392 59.6798 53.5861 59.6841 53.7002 59.8056C53.8136 59.9258 53.8077 60.115 53.6868 60.2288C53.2552 60.6344 52.8145 61.0444 52.367 61.4572C52.3562 61.4679 52.344 61.4779 52.331 61.4866ZM54.9548 59.0188C54.836 59.0986 54.6737 59.0841 54.5716 58.9769C54.4575 58.858 54.4608 58.6688 54.5808 58.5539C55.0209 58.1314 55.45 57.7129 55.8686 57.3006C55.9886 57.1831 56.1758 57.186 56.2917 57.3037C56.4082 57.421 56.4069 57.6106 56.2886 57.7269C55.8685 58.142 55.4371 58.5621 54.9946 58.9861C54.9824 58.9986 54.969 59.0093 54.9548 59.0188ZM57.516 56.4859C57.4008 56.5633 57.2429 56.5518 57.1395 56.4514C57.0213 56.3353 57.0194 56.1462 57.1345 56.0277C57.5635 55.5887 57.9773 55.1564 58.3724 54.7308C58.4898 54.603 58.6757 54.6026 58.7957 54.7149C58.9177 54.8276 58.9241 55.0172 58.8115 55.1382C58.4121 55.5677 57.996 56.004 57.5637 56.447C57.5485 56.4615 57.5326 56.4748 57.516 56.4859ZM59.9671 53.8477C59.8577 53.9211 59.708 53.9153 59.6036 53.825C59.4783 53.7162 59.4662 53.5271 59.5744 53.4022C59.9829 52.934 60.3668 52.4764 60.7216 52.0315C60.8248 51.9056 61.0133 51.881 61.1424 51.9839C61.2713 52.0877 61.2928 52.2756 61.19 52.4047C60.8298 52.8567 60.4396 53.3203 60.0261 53.7952C60.0076 53.8162 59.9883 53.8334 59.9671 53.8477ZM62.2023 51.026C62.103 51.0927 61.9685 51.0955 61.8642 51.0232C61.7279 50.9287 61.6942 50.742 61.7886 50.6066C62.1549 50.0793 62.4687 49.5762 62.7209 49.1101C62.7988 48.9669 62.9812 48.9104 63.1272 48.9898C63.2728 49.0687 63.3263 49.2506 63.2475 49.3962C62.9845 49.8807 62.6587 50.403 62.2802 50.9479C62.2592 50.9792 62.2324 51.0058 62.2023 51.026ZM63.8564 47.8639C63.7849 47.9119 63.6929 47.9282 63.6042 47.902C63.4456 47.855 63.3552 47.6884 63.4029 47.5295C63.5808 46.9324 63.6301 46.3967 63.5521 45.9371C63.5247 45.7737 63.6348 45.6183 63.7966 45.5911C63.9596 45.5631 64.1146 45.6726 64.1426 45.8356C64.2373 46.3877 64.1817 47.0151 63.9773 47.7004C63.956 47.7695 63.9126 47.8261 63.8564 47.8639ZM63.1556 44.6494C63.0481 44.7216 62.9016 44.718 62.7976 44.6309C62.4376 44.3323 61.9497 44.1103 61.348 43.9715C61.187 43.9347 61.0863 43.7733 61.1241 43.6125C61.1603 43.4518 61.3212 43.3506 61.4831 43.3885C62.1773 43.5475 62.7479 43.811 63.1801 44.1699C63.307 44.2759 63.3249 44.4646 63.2194 44.5911C63.2004 44.6151 63.1787 44.6339 63.1556 44.6494ZM59.8069 43.7389C59.7578 43.7719 59.6992 43.7907 59.6362 43.7901C59.1005 43.7828 58.5082 43.8126 57.8748 43.877C57.7104 43.8939 57.5637 43.7738 57.5467 43.6093C57.5298 43.4449 57.6499 43.2982 57.8143 43.2812C58.4697 43.2151 59.0862 43.1843 59.6437 43.1908C59.8084 43.1934 59.9417 43.3294 59.9395 43.4946C59.9381 43.5959 59.8855 43.6862 59.8069 43.7389ZM56.2279 44.073C56.1936 44.0961 56.1545 44.112 56.1109 44.1199C55.5505 44.2149 54.9656 44.3298 54.3571 44.4632C54.1957 44.4987 54.0358 44.396 54.0003 44.2346C53.9648 44.0732 54.0679 43.9139 54.2289 43.8778C54.8471 43.7422 55.4415 43.6261 56.0106 43.5286C56.174 43.5012 56.3284 43.611 56.3564 43.7741C56.3759 43.8938 56.3224 44.0095 56.2279 44.073ZM52.7074 44.8327C52.6796 44.8513 52.648 44.8657 52.6139 44.8749C52.0514 45.0168 51.4742 45.1711 50.8812 45.3378C50.722 45.383 50.5566 45.2899 50.5124 45.1309C50.4669 44.9711 50.5619 44.8036 50.7189 44.7616C51.3174 44.5929 51.9006 44.4371 52.4664 44.2938C52.6272 44.2536 52.7899 44.3502 52.8307 44.5106C52.8619 44.6363 52.809 44.7644 52.7074 44.8327ZM49.2381 45.7989C49.2139 45.8151 49.1867 45.8283 49.1577 45.8374C48.5967 46.0058 48.0246 46.1832 47.4416 46.3673C47.284 46.4174 47.1159 46.3305 47.066 46.1719C47.0153 46.0147 47.1006 45.8467 47.2614 45.7962C47.8464 45.61 48.4216 45.4322 48.9853 45.2628C49.1439 45.2155 49.3115 45.3054 49.3584 45.4634C49.3966 45.593 49.3439 45.7278 49.2381 45.7989ZM45.8048 46.8876C45.783 46.9022 45.7585 46.9144 45.7317 46.923C45.1721 47.1075 44.6049 47.2998 44.0284 47.4974C43.8716 47.5512 43.7023 47.4677 43.6478 47.3113C43.5944 47.1551 43.6738 46.9859 43.8339 46.9307C44.4122 46.7319 44.982 46.5396 45.5434 46.3539C45.7008 46.3022 45.8693 46.3872 45.922 46.5448C45.9656 46.675 45.9142 46.8141 45.8048 46.8876ZM42.399 48.053C42.3789 48.0665 42.3557 48.0778 42.3314 48.0864C41.7731 48.283 41.2086 48.4845 40.6379 48.6894C40.4817 48.7454 40.3108 48.6646 40.2542 48.5088C40.199 48.3538 40.2772 48.1804 40.4348 48.1251C41.0067 47.9194 41.5737 47.7179 42.1326 47.5209C42.2886 47.4659 42.4593 47.5477 42.5147 47.7043C42.5606 47.8364 42.5096 47.9788 42.399 48.053ZM39.0102 49.2705C38.9907 49.2836 38.9696 49.2943 38.9453 49.3029C38.3876 49.5067 37.825 49.7148 37.258 49.924C37.1026 49.9812 36.9303 49.9022 36.8725 49.7472C36.8154 49.5918 36.8904 49.4213 37.0494 49.3618C37.6171 49.1511 38.181 48.9449 38.7399 48.7402C38.8947 48.6834 39.0667 48.7634 39.1239 48.9188C39.173 49.0505 39.1225 49.195 39.0102 49.2705ZM35.6349 50.5209C35.616 50.5336 35.5955 50.5439 35.5728 50.5523C35.0151 50.7613 34.4535 50.9721 33.8896 51.1861C33.735 51.2444 33.5624 51.1674 33.5036 51.0122C33.4447 50.858 33.5199 50.684 33.6775 50.6262C34.2413 50.4122 34.8035 50.201 35.3618 49.9916C35.5174 49.9334 35.6893 50.0118 35.7476 50.1664C35.7979 50.3 35.7478 50.4451 35.6349 50.5209ZM32.2676 51.7934C32.2493 51.8057 32.2288 51.816 32.2071 51.8246L30.5251 52.4653C30.3699 52.524 30.1975 52.446 30.1385 52.2918C30.0797 52.1366 30.1619 51.9639 30.312 51.9052L31.9939 51.2645C32.1491 51.2057 32.3216 51.2837 32.3805 51.438C32.4309 51.5705 32.3811 51.7172 32.2676 51.7934ZM28.905 53.0755C28.8867 53.0878 28.8662 53.0982 28.8445 53.1067L27.1636 53.7502C27.009 53.8085 26.8363 53.7315 26.777 53.5767C26.7186 53.4221 26.7944 53.2528 26.9504 53.1901L28.6314 52.5467C28.786 52.4883 28.9586 52.5653 29.018 52.7201C29.0684 52.8526 29.0185 52.9993 28.905 53.0755ZM25.5461 54.3604C25.5277 54.3727 25.5072 54.3831 25.4855 54.3916L23.8028 55.0337C23.6476 55.0925 23.4752 55.0145 23.4162 54.8603C23.358 54.7047 23.4388 54.5338 23.5896 54.4737L25.2724 53.8316C25.4276 53.7728 25.5996 53.8502 25.659 54.005C25.7094 54.1376 25.659 54.2846 25.5461 54.3604ZM22.1735 55.6442C22.1551 55.6565 22.1346 55.6669 22.112 55.6752L20.4278 56.3114C20.2732 56.3698 20.1007 56.2917 20.042 56.1365C19.9846 55.9821 20.0596 55.8091 20.2168 55.7507L21.8994 55.1148C22.0534 55.0568 22.227 55.134 22.2852 55.2896C22.3372 55.4219 22.2869 55.568 22.1735 55.6442ZM18.8043 56.9102C18.7854 56.9229 18.7649 56.9332 18.7417 56.942L17.0533 57.5681C16.8975 57.6247 16.7262 57.5459 16.6681 57.3903C16.6113 57.2355 16.6865 57.0666 16.8459 57.0051L18.5319 56.3806C18.6869 56.3228 18.8591 56.4018 18.9169 56.5568C18.9679 56.6889 18.9172 56.8344 18.8043 56.9102ZM15.428 58.1553C15.4085 58.1684 15.3868 58.1795 15.3632 58.1877L13.6703 58.8006C13.5141 58.8566 13.3432 58.7758 13.2866 58.62C13.2314 58.465 13.3084 58.2924 13.4672 58.2363L15.1577 57.625C15.3135 57.5684 15.4846 57.6482 15.5418 57.8036C15.591 57.9369 15.5403 58.0799 15.428 58.1553ZM12.0404 59.3694C12.0203 59.3829 11.997 59.3942 11.9728 59.4028C11.4034 59.6034 10.836 59.8017 10.2721 59.9952C10.1153 60.049 9.94539 59.9659 9.89135 59.8101C9.83791 59.6539 9.91711 59.4832 10.0765 59.4293C10.6402 59.2343 11.2058 59.0371 11.774 58.8374C11.93 58.7823 12.1007 58.8641 12.1561 59.0207C12.202 59.1529 12.1509 59.2952 12.0404 59.3694ZM8.63681 60.5419C8.61553 60.5562 8.59107 60.5683 8.56483 60.5765C7.99088 60.769 7.42047 60.9591 6.8538 61.1433C6.6964 61.1949 6.52749 61.1094 6.47681 60.9522C6.42514 60.7948 6.50964 60.6231 6.66785 60.5752C7.23255 60.3907 7.80119 60.2017 8.37456 60.0097C8.53116 59.9568 8.70028 60.0413 8.75353 60.1985C8.7978 60.3283 8.74615 60.4685 8.63681 60.5419ZM5.21504 61.658C5.19199 61.6735 5.16596 61.6858 5.13855 61.6948C4.55923 61.878 3.98405 62.0559 3.41517 62.2278C3.25637 62.2761 3.08881 62.1863 3.04188 62.0283C2.99356 61.8695 3.08402 61.7015 3.24144 61.655C3.80875 61.4833 4.38079 61.3058 4.95814 61.1248C5.11633 61.0743 5.28427 61.1622 5.33337 61.3196C5.37409 61.4492 5.32202 61.5862 5.21504 61.658ZM1.76954 62.6992C1.74413 62.7162 1.71593 62.7292 1.68496 62.738C1.09887 62.906 0.519489 63.0687 -0.05262 63.223C-0.21261 63.267 -0.377003 63.1716 -0.420188 63.0128C-0.463576 62.8524 -0.368165 62.6906 -0.209956 62.6452C0.358995 62.4913 0.936006 62.3302 1.51952 62.1621C1.67832 62.1164 1.84452 62.208 1.88968 62.3672C1.92744 62.4962 1.87475 62.6285 1.76954 62.6992ZM-1.70552 63.6375C-1.73389 63.6566 -1.76544 63.6709 -1.79996 63.6795C-2.39519 63.8288 -2.98038 63.9688 -3.5581 64.0995C-3.7191 64.1356 -3.87979 64.0342 -3.91627 63.8726C-3.95236 63.7116 -3.85158 63.5539 -3.6894 63.5145C-3.1172 63.3858 -2.53577 63.2466 -1.94548 63.0989C-1.78508 63.0581 -1.62265 63.1556 -1.58241 63.3164C-1.5502 63.4423 -1.60386 63.5693 -1.70552 63.6375ZM-5.21663 64.4303C-5.24854 64.4517 -5.28541 64.4671 -5.32507 64.4757C-5.93264 64.5964 -6.52585 64.704 -7.10566 64.7984C-7.26946 64.8252 -7.42365 64.7144 -7.45007 64.5512C-7.47669 64.3864 -7.36464 64.234 -7.20282 64.2068C-6.62932 64.1132 -6.04186 64.006 -5.44179 63.8869C-5.27958 63.8551 -5.12166 63.96 -5.08892 64.1224C-5.0658 64.245 -5.1197 64.3652 -5.21663 64.4303ZM-8.76756 65.0054C-8.80538 65.0308 -8.85035 65.0481 -8.89871 65.054C-9.52598 65.1288 -10.1334 65.1859 -10.7047 65.2214C-10.8693 65.2317 -11.0121 65.1071 -11.0221 64.9415C-11.0334 64.7767 -10.9077 64.6331 -10.7422 64.624C-10.1822 64.5884 -9.58583 64.5327 -8.97001 64.4587C-8.8052 64.4398 -8.65673 64.5562 -8.63662 64.7202C-8.62359 64.8367 -8.67772 64.9451 -8.76756 65.0054ZM-12.3529 65.2228C-12.4019 65.2558 -12.4605 65.2745 -12.5235 65.274C-13.1682 65.2653 -13.7805 65.227 -14.3427 65.1586C-14.5066 65.1392 -14.624 64.99 -14.604 64.8256C-14.5847 64.6617 -14.4344 64.5445 -14.271 64.5642C-13.7298 64.6296 -13.1388 64.6667 -12.5158 64.6737C-12.3512 64.6763 -12.2178 64.8123 -12.22 64.9775C-12.2216 65.0798 -12.2743 65.17 -12.3529 65.2228ZM-15.8871 64.7679C-15.958 64.8156 -16.048 64.8322 -16.137 64.8071C-16.7639 64.6269 -17.3334 64.3893 -17.8296 64.1025C-17.9728 64.0195 -18.0216 63.837 -17.939 63.6932C-17.8561 63.5509 -17.6735 63.5011 -17.5296 63.5838C-17.0764 63.8462 -16.5522 64.0637 -15.9715 64.2311C-15.8122 64.2768 -15.7216 64.4424 -15.7668 64.6023C-15.7863 64.6728 -15.8304 64.7298 -15.8871 64.7679ZM16.0579 43.313L15.8511 43.4493C15.7124 43.5391 15.5262 43.4994 15.4365 43.3607C15.3476 43.2232 15.3851 43.0402 15.521 42.9489C15.5222 42.9481 15.5239 42.9469 15.5251 42.9461L15.7237 42.8153C16.1546 42.526 16.5718 42.2278 16.9732 41.9214C17.109 41.7967 17.293 41.8472 17.393 41.9782C17.4934 42.1098 17.4681 42.2982 17.3362 42.398C16.9243 42.7106 16.4994 43.0165 16.0579 43.313ZM14.3064 44.3443C14.2957 44.3514 14.2859 44.3572 14.2745 44.3631C13.7251 44.642 13.1614 44.8868 12.6005 45.0911C12.4447 45.1477 12.2736 45.0679 12.2164 44.9125C12.1598 44.7567 12.242 44.5815 12.395 44.5284C12.9338 44.3321 13.4752 44.0963 14.0025 43.828C14.1496 43.7532 14.3305 43.8119 14.4056 43.9595C14.4756 44.0969 14.4299 44.2613 14.3064 44.3443ZM18.7075 41.2679C18.5851 41.35 18.417 41.3309 18.3167 41.2173C18.2077 41.0932 18.2187 40.904 18.3423 40.7944C18.7806 40.4075 19.2144 39.9961 19.63 39.5729C19.7548 39.4497 19.9361 39.454 20.0535 39.569C20.1718 39.6851 20.173 39.8746 20.0575 39.9925C19.6311 40.4264 19.1873 40.8471 18.739 41.2433C18.7289 41.2526 18.7187 41.2603 18.7075 41.2679ZM21.2225 38.7059C21.1138 38.7789 20.9665 38.7741 20.8613 38.6852C20.7348 38.5772 20.7199 38.3891 20.8269 38.2623C21.2077 37.8154 21.5787 37.3475 21.93 36.8707C22.0287 36.7367 22.215 36.7102 22.3492 36.8079C22.4822 36.9064 22.5101 37.0934 22.412 37.2271C22.0525 37.7146 21.6726 38.1935 21.2832 38.6506C21.2661 38.6724 21.245 38.6908 21.2225 38.7059ZM10.9468 45.5644C10.9167 45.5847 10.8829 45.5996 10.8464 45.6078C10.2644 45.7397 9.65753 45.8385 9.04187 45.9012C8.87744 45.9181 8.73072 45.798 8.71377 45.6336C8.69624 45.4695 8.81877 45.3238 8.98141 45.3055C9.5724 45.2456 10.1554 45.1508 10.7134 45.024C10.875 44.9875 11.0352 45.0883 11.0717 45.2498C11.0998 45.3734 11.0467 45.4974 10.9468 45.5644ZM23.3568 35.8182C23.2611 35.8825 23.1318 35.8879 23.0283 35.8219C22.8884 35.7323 22.8483 35.5474 22.9372 35.4079C23.2539 34.914 23.5598 34.399 23.8473 33.8808C23.926 33.7362 24.1093 33.6835 24.2541 33.7638C24.3989 33.844 24.4512 34.0267 24.3712 34.1705C24.0775 34.7013 23.7652 35.2258 23.4416 35.7312C23.4198 35.7664 23.3905 35.7956 23.3568 35.8182ZM7.38787 45.9374C7.34 45.9695 7.28242 45.9885 7.22041 45.9881C6.63948 45.9863 6.04485 45.9602 5.40353 45.9081C5.23841 45.8946 5.11588 45.7505 5.12935 45.5854C5.14281 45.4203 5.28595 45.2976 5.45205 45.3112C6.07836 45.3614 6.65722 45.3869 7.22216 45.3892C7.38763 45.3904 7.52135 45.5244 7.52072 45.6895C7.51988 45.793 7.46707 45.8842 7.38787 45.9374ZM-18.8667 62.9758C-18.9914 63.0595 -19.1621 63.0378 -19.2616 62.9202C-19.3819 62.7781 -19.4944 62.6298 -19.5992 62.4737C-19.8349 62.1226 -20.0522 61.7377 -20.2457 61.3308C-20.3177 61.1802 -20.2437 60.9967 -20.1043 60.9323C-19.9549 60.8611 -19.776 60.9245 -19.7048 61.0739C-19.5236 61.4548 -19.3206 61.8133 -19.1011 62.1401C-19.009 62.2772 -18.9097 62.4086 -18.8044 62.5334C-18.6977 62.6591 -18.7135 62.8489 -18.8391 62.9555C-18.8482 62.9625 -18.8578 62.9698 -18.8667 62.9758ZM25.0973 32.6761C25.0122 32.7332 24.9007 32.7447 24.8016 32.698C24.6525 32.6266 24.5891 32.4479 24.6595 32.2986C24.9106 31.7723 25.1527 31.2248 25.3785 30.6709C25.4396 30.5193 25.6149 30.4444 25.7683 30.5069C25.9213 30.5688 25.9952 30.7439 25.9323 30.8967C25.7028 31.4616 25.4557 32.0195 25.201 32.5559C25.1763 32.6059 25.1405 32.6471 25.0973 32.6761ZM3.80921 45.6641C3.75011 45.7038 3.67829 45.722 3.60323 45.7124C3.00881 45.633 2.41396 45.5428 1.81791 45.4483C1.65472 45.4224 1.54283 45.2685 1.56874 45.1053C1.59346 44.9404 1.7481 44.8297 1.91168 44.8562C2.50378 44.9499 3.09389 45.0407 3.68199 45.1183C3.84595 45.1403 3.96098 45.2912 3.93961 45.4547C3.92767 45.5442 3.87777 45.618 3.80921 45.6641ZM26.4559 29.3497C26.3808 29.4001 26.2833 29.4158 26.191 29.3843C26.0348 29.3306 25.9519 29.1598 26.0053 29.0031C26.2046 28.4276 26.3828 27.8603 26.5446 27.3031C26.5908 27.146 26.7566 27.0544 26.9165 27.0997C27.0746 27.1461 27.1662 27.3119 27.1199 27.4716C26.955 28.0369 26.7733 28.6143 26.5723 29.1986C26.55 29.2625 26.5085 29.3144 26.4559 29.3497ZM-20.4297 59.7658C-20.4563 59.7837 -20.4857 59.7974 -20.5176 59.806C-20.6776 59.85 -20.8422 59.7556 -20.8854 59.5967C-21.0463 59.011 -21.16 58.4013 -21.2254 57.784C-21.2434 57.6194 -21.123 57.4717 -20.9596 57.4546C-20.7949 57.4366 -20.6476 57.5564 -20.6301 57.7204C-20.5687 58.3061 -20.4601 58.8841 -20.309 59.4386C-20.2728 59.5653 -20.3257 59.6959 -20.4297 59.7658ZM0.255301 45.1186C0.195015 45.1591 0.119446 45.1781 0.0418042 45.166C-0.542983 45.0741 -1.13309 44.9859 -1.7275 44.9091C-1.89165 44.8881 -2.00727 44.7376 -1.9863 44.5735C-1.96592 44.4097 -1.81585 44.2935 -1.65071 44.3147C-1.05037 44.3926 -0.45552 44.4803 0.135194 44.5732C0.298381 44.5992 0.410444 44.752 0.384339 44.9162C0.370413 45.0027 0.322087 45.0738 0.255301 45.1186ZM27.4568 25.8981C27.39 25.9429 27.305 25.9606 27.2202 25.9403C27.0594 25.9026 26.9599 25.7404 26.9981 25.5801C27.1412 24.9772 27.264 24.3939 27.3723 23.8349C27.4027 23.6721 27.5605 23.5662 27.7228 23.597C27.8854 23.6284 27.9916 23.7853 27.9607 23.9475C27.8522 24.5151 27.7261 25.1076 27.5808 25.7188C27.5633 25.7949 27.5177 25.8572 27.4568 25.8981ZM-3.30756 44.6735C-3.36194 44.71 -3.42822 44.7288 -3.49853 44.7237C-4.12188 44.6741 -4.7011 44.648 -5.27079 44.6438C-5.43607 44.6416 -5.56961 44.5066 -5.568 44.3417C-5.5656 44.1754 -5.42939 44.0436 -5.26589 44.0445C-4.6814 44.049 -4.08796 44.0758 -3.4504 44.1262C-3.28528 44.1397 -3.16274 44.2838 -3.17522 44.4491C-3.18339 44.5429 -3.23428 44.6243 -3.30756 44.6735ZM-20.8062 56.2067C-20.8582 56.2416 -20.9215 56.261 -20.9895 56.2569C-21.155 56.248 -21.2812 56.1072 -21.2723 55.9417C-21.2394 55.3253 -21.156 54.7102 -21.0241 54.1148C-20.9881 53.9551 -20.8283 53.8521 -20.6665 53.8875C-20.5053 53.9233 -20.4038 54.0833 -20.4392 54.2451C-20.5643 54.8085 -20.6429 55.3912 -20.6739 55.9746C-20.6795 56.071 -20.7311 56.1563 -20.8062 56.2067ZM-6.89406 44.6542C-6.93543 44.682 -6.98453 44.6995 -7.03764 44.7034C-7.63025 44.7506 -8.21861 44.8259 -8.78656 44.9277C-8.94936 44.9573 -9.10552 44.8486 -9.1341 44.686C-9.16349 44.5222 -9.05325 44.3659 -8.89241 44.3385C-8.30473 44.2328 -7.69643 44.1553 -7.08467 44.1073C-6.91984 44.0935 -6.77528 44.2168 -6.76307 44.3818C-6.75381 44.494 -6.80718 44.5958 -6.89406 44.6542ZM-20.0303 52.715C-20.1101 52.7686 -20.2145 52.783 -20.3114 52.7434C-20.4642 52.6805 -20.5371 52.5056 -20.4752 52.3526C-20.2404 51.7815 -19.9549 51.2297 -19.6265 50.7124C-19.5381 50.5733 -19.3523 50.5308 -19.2133 50.6202C-19.0733 50.7088 -19.0321 50.8938 -19.1211 51.0334C-19.4309 51.5209 -19.6995 52.0417 -19.9202 52.5802C-19.9437 52.6371 -19.9824 52.6829 -20.0303 52.715ZM-10.4181 45.2859C-10.4436 45.3029 -10.4723 45.3163 -10.5029 45.3256C-11.0616 45.4847 -11.6231 45.6765 -12.1711 45.8936C-12.3253 45.9551 -12.4987 45.8795 -12.5599 45.7259C-12.6214 45.5717 -12.547 45.3939 -12.3922 45.3371C-11.8252 45.1125 -11.2456 44.9145 -10.6672 44.749C-10.5084 44.7033 -10.3424 44.7959 -10.2972 44.9551C-10.2609 45.0833 -10.3135 45.2156 -10.4181 45.2859ZM-18.1131 49.6995C-18.2254 49.7749 -18.3786 49.7663 -18.4826 49.6715C-18.6038 49.5599 -18.6122 49.37 -18.5004 49.2478C-18.0914 48.8033 -17.6349 48.3836 -17.1439 47.9999C-17.0062 47.9074 -16.8249 47.922 -16.7234 48.0527C-16.6222 48.1829 -16.6449 48.3714 -16.7762 48.4733C-17.241 48.836 -17.6731 49.2334 -18.0593 49.6531C-18.0758 49.6719 -18.0941 49.6868 -18.1131 49.6995ZM-13.7456 46.6011C-13.7563 46.6082 -13.7667 46.6144 -13.7776 46.6199C-14.2909 46.8797 -14.8092 47.1704 -15.3198 47.4841C-15.4605 47.5708 -15.6452 47.5268 -15.731 47.3863C-15.8178 47.2456 -15.7718 47.0433 -15.6333 46.9751C-15.1091 46.6523 -14.5754 46.3539 -14.0493 46.0863C-13.901 46.0108 -13.7208 46.0698 -13.6462 46.2179C-13.577 46.3541 -13.6227 46.5185 -13.7456 46.6011Z" fill="#EF0003"/>
<path d="M28.1606 22.176C28.1015 22.2157 28.0275 22.2345 27.951 22.2241C27.7875 22.2001 27.6742 22.0481 27.6972 21.8843C27.7417 21.5791 27.78 21.285 27.8146 21.0044C27.8354 20.8413 27.9851 20.7245 28.1486 20.7433C28.313 20.7633 28.4292 20.9133 28.4098 21.0773C28.3748 21.3623 28.3354 21.6598 28.2908 21.9702C28.2773 22.0573 28.2279 22.1307 28.1606 22.176Z" fill="#EF0003"/>
</svg>
